<svg xmlns="http://www.w3.org/2000/svg" width="98.88" height="123.88" viewBox="0 0 98.88 123.88">
  <metadata><?xpacket begin="﻿" id="W5M0MpCehiHzreSzNTczkc9d"?>
<x:xmpmeta xmlns:x="adobe:ns:meta/" x:xmptk="Adobe XMP Core 5.6-c142 79.160924, 2017/07/13-01:06:39        ">
   <rdf:RDF xmlns:rdf="http://www.w3.org/1999/02/22-rdf-syntax-ns#">
      <rdf:Description rdf:about=""/>
   </rdf:RDF>
</x:xmpmeta>
                                                                                                    
                                                                                                    
                                                                                                    
                                                                                                    
                                                                                                    
                                                                                                    
                                                                                                    
                                                                                                    
                                                                                                    
                                                                                                    
                                                                                                    
                                                                                                    
                                                                                                    
                                                                                                    
                                                                                                    
                                                                                                    
                                                                                                    
                                                                                                    
                                                                                                    
                                                                                                    
                           
<?xpacket end="w"?></metadata>
<defs>
    <style>
      .cls-1 {
        fill: #ef5b5b;
        fill-rule: evenodd;
      }
    </style>
  </defs>
  <path class="cls-1" d="M1108.79,5067.87a3.237,3.237,0,0,1,.28,2.04,6.128,6.128,0,0,0,.67,3.42,2.013,2.013,0,0,0,.63.76,1.248,1.248,0,0,1,.3,1.44,4.2,4.2,0,0,0-.24,2.19,23.706,23.706,0,0,0,.22,3.15,2.758,2.758,0,0,1-.38,1.9,11.549,11.549,0,0,1-1.16,1.67,3.437,3.437,0,0,1-1.49,1.02,5.051,5.051,0,0,0-2.8,2.1,23.658,23.658,0,0,1-1.9,1.98,5.974,5.974,0,0,1-.44.43,1.177,1.177,0,0,0-.22,1.22c0.06,0.17.16,0.31,0.21,0.48,0.49,1.44,1.05,2.86.62,4.46a1.825,1.825,0,0,0-.03.66,1.757,1.757,0,0,1-1.04,1.87,5.761,5.761,0,0,1-1,.39,4.41,4.41,0,0,0-1.45.88c-0.32.29-.35,0.44-0.14,1a1.854,1.854,0,0,1,.06,1.04c-0.19.94-.41,1.88-0.63,2.82a1.609,1.609,0,0,1-.68,1.04,3.684,3.684,0,0,0-1.29,1.68c-0.15.31-.27,0.64-0.44,0.94a10.282,10.282,0,0,1-.9,1.55c-0.84,1.1-1.74,2.16-2.62,3.23a8.186,8.186,0,0,1-1.59,1.36,1.758,1.758,0,0,1-.87.39,1.788,1.788,0,0,0-1.42.54c-0.76.12-1.47,0.66-2.28,0.24a1.516,1.516,0,0,0-1.05-.08,1.385,1.385,0,0,1-.7.01,1.33,1.33,0,0,0-1.23.31,0.964,0.964,0,0,1-.41.24,8.638,8.638,0,0,0-2.53.64,1,1,0,0,1-.69-0.08c-0.56-.19-0.93-0.84-1.56-0.86a0.466,0.466,0,0,1-.15-0.33,2.858,2.858,0,0,0-.42-1.35,1.366,1.366,0,0,1-.02-1.48,1.671,1.671,0,0,0-.07-1.75,21.006,21.006,0,0,1-1.58-3.83,5.739,5.739,0,0,0-1.27-2.21,5.148,5.148,0,0,1-1.45-3.09,24.342,24.342,0,0,1-.45-2.86,1.053,1.053,0,0,0-.09-0.38,5.831,5.831,0,0,1-.36-2.59,4.29,4.29,0,0,0-.64-2.48,16.616,16.616,0,0,1-1.38-2.92,10.409,10.409,0,0,0-1.38-2.62,3.342,3.342,0,0,1-.61-1.95,9.278,9.278,0,0,1,.45-3.77,8.673,8.673,0,0,0,.32-1.4,5.393,5.393,0,0,1,1.55-3.18,1.692,1.692,0,0,0,.51-1.02c0.06-.39.12-0.79,0.18-1.18a1.725,1.725,0,0,0-.25-1.25,3.117,3.117,0,0,1-.49-2.61,1.106,1.106,0,0,0,0-.65,12.2,12.2,0,0,0-.77-2.35,4.875,4.875,0,0,1-.67-1.82,5.5,5.5,0,0,0-1.2-2.53c-0.83-1.06-1.84-1.93-2.61-3.05a7.756,7.756,0,0,1-.81-1.6,1.372,1.372,0,0,1,.1-1.37,3.517,3.517,0,0,0,.48-1.88,18.687,18.687,0,0,1,.45-2.71c0.04-.22.08-0.43,0.1-0.65a1.9,1.9,0,0,0-.51-1.55c-0.72-.8-1.47-1.42-2.6-1.11-0.41.11-.85,0.18-1.27,0.29a1.38,1.38,0,0,1-1.87-1.08,4.75,4.75,0,0,0-.75-1.49,1.385,1.385,0,0,0-1.03-.59,7.45,7.45,0,0,0-4.38.77,0.512,0.512,0,0,1-.21.1c-1.31.2-2.41,1.05-3.65,1.49a1.418,1.418,0,0,1-1.03.07c-0.19-.07-0.38-0.13-0.57-0.19a7.028,7.028,0,0,0-5.55.48,2.52,2.52,0,0,1-2.37.05,6.3,6.3,0,0,1-2.38-1.66,3.542,3.542,0,0,0-1.13-.95,1.759,1.759,0,0,1-.49-0.37,4.671,4.671,0,0,0-2.1-1.45,0.614,0.614,0,0,1-.38-0.26,5.08,5.08,0,0,1-.85-1.86,2.651,2.651,0,0,0-.99-1.89c-0.48-.42-0.75-1.03-1.2-1.43a3.672,3.672,0,0,1-1.05-1.4,0.635,0.635,0,0,0-.52-0.26l-0.05-.05c-0.13-.1-0.26-0.2-0.38-0.3-0.94-.78-0.95-0.81-0.96-2.07a3.141,3.141,0,0,0-.01-1.43,11.113,11.113,0,0,0-.77-1.1,0.379,0.379,0,0,1,.09-0.4,3.587,3.587,0,0,0,1.16-2.37,7.464,7.464,0,0,1,.39-1.38,4.364,4.364,0,0,0-.11-3.33,0.883,0.883,0,0,1-.05-0.76,1.641,1.641,0,0,0-.31-1.82,2.064,2.064,0,0,1-.17-2.54c0.35-.68.69-1.38,0.98-2.1a5.359,5.359,0,0,1,.78-1.48,6.212,6.212,0,0,0,1.24-2.66,2.35,2.35,0,0,1,1-1.57,2.4,2.4,0,0,0,.91-1.34,1.776,1.776,0,0,1,1.38-1.3,3.022,3.022,0,0,0,1.74-1.04,5.859,5.859,0,0,1,.67-0.54,4.232,4.232,0,0,0,1.12-1.51,1.865,1.865,0,0,0,.17-1.27,3.628,3.628,0,0,1,.49-2.77,7.3,7.3,0,0,0,.43-0.94,3.587,3.587,0,0,1,1.77-2.04c0.1-.05.21-0.12,0.32-0.17a3.789,3.789,0,0,0,2.12-2.66c0.13-.42.27-0.83,0.43-1.23,0.21-.54.82-0.85,1.22-0.24a1.823,1.823,0,0,0,1.78.82,6.574,6.574,0,0,1,2.11.19,1.428,1.428,0,0,0,1.61-.55,1.7,1.7,0,0,1,.86-0.69,5.682,5.682,0,0,0,1.79-.97,3.226,3.226,0,0,1,1.91-.64,5.261,5.261,0,0,0,1.5-.3,14.463,14.463,0,0,1,1.98-.4,1.69,1.69,0,0,1,1.03.21,1.126,1.126,0,0,0,1.15-.04,3.975,3.975,0,0,1,2.64-.3,3.152,3.152,0,0,0,2.06-.37,2.976,2.976,0,0,1,.44-0.21,0.952,0.952,0,0,1,1.19.28,0.7,0.7,0,0,0,.91.35c0.3-.1.49,0.29,0.33,0.61a4.4,4.4,0,0,1-.36.52,0.831,0.831,0,0,0-.01,1.26,1.787,1.787,0,0,1-.26,2.54c-0.23.24-.48,0.45-0.7,0.7a0.483,0.483,0,0,0-.08.6,0.353,0.353,0,0,0,.41.19c0.42-.2.67-0.11,0.82,0.39a1.159,1.159,0,0,0,.69.68,3.165,3.165,0,0,0,2.26.56,2.647,2.647,0,0,1,1.6.39c0.29,0.13.57,0.31,0.86,0.43a1.462,1.462,0,0,1,.88.99,1.667,1.667,0,0,0,1.62,1.28,4.626,4.626,0,0,1,2.71,1.21c0.06,0.06.12,0.12,0.18,0.17a0.906,0.906,0,0,0,1.1.2,1.479,1.479,0,0,0,.84-1.33c0.01-.35-0.06-0.7-0.08-1.05a1.76,1.76,0,0,1,.62-1.49,2.789,2.789,0,0,1,4.09.05,3.689,3.689,0,0,0,1.72.81,2.455,2.455,0,0,1,1.3.57,0.888,0.888,0,0,0,.67.19,7.887,7.887,0,0,1,2.77.61c0.59,0.25,1.21.4,1.81,0.61a0.9,0.9,0,0,0,.8-0.09,3.544,3.544,0,0,0,.51-0.35,3.5,3.5,0,0,1,2.72-.62,1.228,1.228,0,0,1,.67.23,2.71,2.71,0,0,0,2.26.47c0.66-.1.75-0.03,0.98,0.61,0.1,0.29.16,0.59,0.28,0.87a5.559,5.559,0,0,1-.01,4.11c-0.17.48-.36,0.75-0.86,0.63a0.265,0.265,0,0,0-.31.38,24.353,24.353,0,0,0,2.61,5.89,1.126,1.126,0,0,1,.23.97,1.516,1.516,0,0,0,.65,1.68,4.44,4.44,0,0,1,1.67,3.61,12.874,12.874,0,0,0,.16,2.23,1.49,1.49,0,0,0,.65,1.05,3.8,3.8,0,0,1,1.77,2.81,5.171,5.171,0,0,0,.59,1.99c0.18,0.26.34,0.27,0.56-.01a1.2,1.2,0,0,1,.12-0.22c0.12-.14.3-0.08,0.37,0.11a0.866,0.866,0,0,1,.07.63,0.681,0.681,0,0,0,.36.87,3.937,3.937,0,0,0,.61.39,3.137,3.137,0,0,1,1.01.88c0.59,0.71,1.23,1.38,1.84,2.06a5.43,5.43,0,0,1,.49.57,1.091,1.091,0,0,1,.18,1.11,0.76,0.76,0,0,0,.2.93,4.614,4.614,0,0,1,.44.62,1.473,1.473,0,0,0,1.89.66,3.11,3.11,0,0,1,1.96-.3,0.822,0.822,0,0,0,.66-0.22,2.639,2.639,0,0,1,1.11-.42c0.97-.16,1.94-0.38,2.91-0.57a2.8,2.8,0,0,0,.99-0.42,1.139,1.139,0,0,1,.44-0.18,0.616,0.616,0,0,1,.68.57c0.03,0.35.02,0.7,0.04,1.05a1.693,1.693,0,0,1-.29,1.48,0.677,0.677,0,0,0-.13.36,7.32,7.32,0,0,1-1.06,2.63c-0.52,1.03-.96,2.11-1.42,3.18a3.778,3.778,0,0,1-.34.84c-1.11,1.37-1.82,3.1-3.16,4.25a3.707,3.707,0,0,0-.55.69,3,3,0,0,1-1.2,1.05,10.151,10.151,0,0,0-3.09,2.61,22.573,22.573,0,0,0-1.5,1.86,29.425,29.425,0,0,1-2.31,2.65,2.52,2.52,0,0,0-.6.96,16.261,16.261,0,0,1-1.13,2.47,7.442,7.442,0,0,0-.66,1.98,0.674,0.674,0,0,0,.4.84Zm-10.78-7.42c-0.06.55,0.04,0.65,0.62,0.77a5.051,5.051,0,0,1,.55.18,1.284,1.284,0,0,0,.7.05,0.329,0.329,0,0,0,.33-0.3,1.65,1.65,0,0,1,.51-1.26,3.844,3.844,0,0,0,.47-1.19,0.96,0.96,0,0,0-1.02-1.31,9.1,9.1,0,0,0-1.15.26,1.166,1.166,0,0,0-.87,1.1C1098.11,5059.32,1098.06,5059.88,1098.01,5060.45Zm3.26,16.87a17,17,0,0,0,.81,2.75,0.091,0.091,0,0,0,.1.04,0.329,0.329,0,0,0,.14-0.15,7.092,7.092,0,0,1-.16-2.97,2.125,2.125,0,0,0-.09-1.51,3.194,3.194,0,0,1-.17-0.89,2.352,2.352,0,0,0-.31-0.98,0.372,0.372,0,0,0-.28-0.17,0.189,0.189,0,0,0-.1.29,6.069,6.069,0,0,1,.21,2.84A7.534,7.534,0,0,1,1101.27,5077.32Zm-6.95-13.47c0.18,0.74-.24,1.45.03,2.18a6.153,6.153,0,0,1,.24,1.28,4.927,4.927,0,0,0,.27,1,1.36,1.36,0,0,0,.75.79,0.246,0.246,0,0,0,.22-0.02,0.3,0.3,0,0,0,.03-0.35,2.5,2.5,0,0,0-.29-0.41,1.569,1.569,0,0,1-.57-1.48,3,3,0,0,0-.09-1.03A6,6,0,0,0,1094.32,5063.85Zm-22.42-28.1a1.2,1.2,0,0,0,.43,1.13,0.955,0.955,0,0,0,.96-0.28,0.372,0.372,0,0,0,.19-0.43,0.435,0.435,0,0,0-.24-0.24,2.218,2.218,0,0,1-1.07-.46C1072.05,5035.37,1071.89,5035.54,1071.9,5035.75Zm27.23-27.16c0.33,1.13.33,1.13,0.75,1.44A2.169,2.169,0,0,0,1099.13,5008.59Zm15.09,85.47a3.01,3.01,0,0,1,.41-1.62c0.35-.64.65-1.32,0.98-1.97a1.916,1.916,0,0,0,.14-1.52,14.64,14.64,0,0,1-.44-2.45,2.066,2.066,0,0,1,.16-1.28c0.12-.28.24-0.55,0.34-0.84a1.077,1.077,0,0,1,.64-0.72,6.285,6.285,0,0,1,1.2-.53c1.07-.16,1.67-1.03,2.4-1.72a3.1,3.1,0,0,0,.77-1.45,0.854,0.854,0,0,1,.44-0.57,1.474,1.474,0,0,0,.84-1.33,1.068,1.068,0,0,1,.03-0.25c0.16-.59.59-0.75,0.99-0.36a2.817,2.817,0,0,1,.82,1.56,23.181,23.181,0,0,0,.63,3.09,1.3,1.3,0,0,1-.03.78,0.413,0.413,0,0,1-.4.4c-0.39-.08-0.5.07-0.45,0.48a2.61,2.61,0,0,1-.02.79c-0.53,2.06-.89,4.18-1.5,6.23a52.67,52.67,0,0,0-1.55,5.96,8.559,8.559,0,0,1-.35,1.12,1.8,1.8,0,0,1-1.44,1.39,4.576,4.576,0,0,0-1.09.49,1.166,1.166,0,0,1-1.24-.1,3.335,3.335,0,0,1-1.77-3.03,3.024,3.024,0,0,0-.31-1.4A2.356,2.356,0,0,1,1114.22,5094.06Z" transform="translate(-1027 -4993.03)"/>
</svg>
