<svg 
 xmlns="http://www.w3.org/2000/svg"
 xmlns:xlink="http://www.w3.org/1999/xlink"
 width="60px" height="60px">
<path fill-rule="evenodd"  fill="rgb(0, 177, 255)"
 d="M59.302,22.758 L53.865,17.322 C53.218,16.675 52.187,16.621 51.477,17.197 C49.020,19.188 45.478,19.000 43.238,16.761 C40.998,14.520 40.810,10.979 42.802,8.522 C43.378,7.811 43.324,6.781 42.677,6.133 L37.240,0.696 C36.542,-0.001 35.411,-0.001 34.714,0.696 L0.697,34.713 C-0.000,35.410 -0.000,36.541 0.697,37.239 L6.135,42.677 C6.136,42.677 6.137,42.678 6.137,42.678 C6.834,43.375 7.966,43.375 8.663,42.678 C8.728,42.613 8.787,42.545 8.840,42.472 C8.962,42.325 9.090,42.185 9.221,42.054 C11.627,39.648 15.540,39.648 17.945,42.053 C20.350,44.458 20.350,48.372 17.945,50.777 C17.794,50.928 17.631,51.075 17.460,51.212 C17.067,51.532 16.828,52.002 16.801,52.507 C16.775,53.013 16.964,53.506 17.322,53.864 L22.760,59.301 C23.457,59.998 24.589,59.998 25.286,59.301 L59.302,25.284 C60.000,24.587 60.000,23.457 59.302,22.758 ZM36.333,34.071 C36.333,34.211 36.265,34.342 36.151,34.424 C36.077,34.476 35.989,34.503 35.901,34.503 C35.853,34.503 35.805,34.495 35.759,34.480 L30.206,32.543 C30.155,34.274 30.013,35.870 29.795,37.141 C29.756,37.372 29.714,37.588 29.670,37.791 L32.561,39.397 C32.636,39.439 32.682,39.518 32.682,39.603 L32.682,40.581 C32.682,40.657 32.645,40.729 32.583,40.772 C32.543,40.800 32.495,40.816 32.447,40.816 C32.421,40.816 32.395,40.812 32.370,40.802 L28.991,39.625 C28.836,39.820 28.623,39.984 28.340,39.984 C28.056,39.984 27.843,39.820 27.688,39.625 L24.309,40.802 C24.237,40.827 24.157,40.817 24.096,40.772 C24.034,40.729 23.997,40.657 23.997,40.581 L23.997,39.603 C23.997,39.518 24.043,39.439 24.118,39.397 L27.009,37.791 C26.965,37.588 26.923,37.372 26.884,37.141 C26.666,35.870 26.524,34.274 26.473,32.543 L20.920,34.480 C20.788,34.525 20.642,34.504 20.528,34.424 C20.414,34.342 20.346,34.211 20.346,34.071 L20.346,32.270 C20.346,32.113 20.431,31.969 20.568,31.892 L21.822,31.195 L21.822,30.629 C21.822,30.247 22.132,29.938 22.513,29.938 C22.830,29.938 23.096,30.152 23.178,30.443 L24.233,29.857 L24.233,29.333 C24.233,28.952 24.543,28.643 24.924,28.643 C25.227,28.643 25.484,28.838 25.577,29.110 L26.513,28.589 C26.583,27.248 26.709,26.019 26.884,24.998 C27.023,24.189 27.187,23.546 27.373,23.091 C27.466,22.859 27.752,22.155 28.340,22.155 C28.927,22.155 29.213,22.859 29.307,23.091 C29.492,23.546 29.656,24.189 29.795,24.998 C29.971,26.019 30.096,27.248 30.166,28.589 L31.102,29.110 C31.195,28.838 31.452,28.643 31.755,28.643 C32.137,28.643 32.446,28.952 32.446,29.333 L32.446,29.857 L33.501,30.443 C33.583,30.152 33.849,29.938 34.166,29.938 C34.548,29.938 34.857,30.247 34.857,30.629 L34.857,31.195 L36.111,31.892 C36.248,31.969 36.333,32.113 36.333,32.270 L36.333,34.071 L36.333,34.071 ZM48.046,29.311 C47.319,30.037 46.140,30.037 45.412,29.311 L30.688,14.586 C29.961,13.858 29.961,12.680 30.688,11.953 C31.415,11.225 32.595,11.225 33.323,11.953 L48.047,26.677 C48.774,27.404 48.774,28.584 48.046,29.311 Z"/>
</svg>