<svg xmlns="http://www.w3.org/2000/svg" width="133.94" height="143.94" viewBox="0 0 133.94 143.94">
  <metadata><?xpacket begin="﻿" id="W5M0MpCehiHzreSzNTczkc9d"?>
<x:xmpmeta xmlns:x="adobe:ns:meta/" x:xmptk="Adobe XMP Core 5.6-c142 79.160924, 2017/07/13-01:06:39        ">
   <rdf:RDF xmlns:rdf="http://www.w3.org/1999/02/22-rdf-syntax-ns#">
      <rdf:Description rdf:about=""/>
   </rdf:RDF>
</x:xmpmeta>
                                                                                                    
                                                                                                    
                                                                                                    
                                                                                                    
                                                                                                    
                                                                                                    
                                                                                                    
                                                                                                    
                                                                                                    
                                                                                                    
                                                                                                    
                                                                                                    
                                                                                                    
                                                                                                    
                                                                                                    
                                                                                                    
                                                                                                    
                                                                                                    
                                                                                                    
                                                                                                    
                           
<?xpacket end="w"?></metadata>
<defs>
    <style>
      .cls-1 {
        fill: #ef5b5b;
        fill-rule: evenodd;
      }
    </style>
  </defs>
  <path class="cls-1" d="M1050.32,4749.45a0.914,0.914,0,0,0-.33-0.37,0.546,0.546,0,0,0-.75-0.05,1.288,1.288,0,0,1-1.1.09,0.29,0.29,0,0,1-.23-0.31,4.2,4.2,0,0,0-.22-1.32,0.748,0.748,0,0,1,.03-0.44,10.107,10.107,0,0,1,.35-1.19,1.39,1.39,0,0,0-.02-1.42,0.5,0.5,0,0,1-.11-0.27,2.515,2.515,0,0,0-.52-1.19,0.6,0.6,0,0,1-.06-0.69,0.967,0.967,0,0,0,.12-0.35,1.074,1.074,0,0,1,.47-0.69c0.1-.07.19-0.13,0.29-0.2a1.354,1.354,0,0,0,.54-1.61c-0.03-.12-0.06-0.23-0.09-0.35a0.729,0.729,0,0,1,.02-0.44h0a0.6,0.6,0,0,1,.54.56,4.05,4.05,0,0,1,.09,1.55c-0.04.25-.08,0.49-0.13,0.74a1.039,1.039,0,0,0,.03.58,0.97,0.97,0,0,1,.02.73,0.277,0.277,0,0,0,.15.36,2.675,2.675,0,0,0,.57.22,4.556,4.556,0,0,0,.53.13,0.97,0.97,0,0,1,.87.57,0.643,0.643,0,0,0-.31-0.78,2.817,2.817,0,0,1-.9-0.63,1.569,1.569,0,0,1-.41-1.15,0.245,0.245,0,0,1,.11-0.17,0.213,0.213,0,0,1,.19.01,1.158,1.158,0,0,1,.23.26c0.27,0.44.34,0.29,0.65,0.1a1.178,1.178,0,0,0,.22-0.17,0.277,0.277,0,0,0-.01-0.44,0.384,0.384,0,0,1-.24-0.46c0.04-.13-0.05-0.15-0.14-0.2-0.26-.14-0.3-0.25-0.17-0.49a1.567,1.567,0,0,1,.2-0.3,0.421,0.421,0,0,1,.77.1,0.466,0.466,0,0,0,.5.36,1.285,1.285,0,0,1,.97.43,5.03,5.03,0,0,1,.96,1.04,0.789,0.789,0,0,0,.98.42,1.092,1.092,0,0,1,.4-0.04,0.384,0.384,0,0,1,.27.45,1.293,1.293,0,0,1-.43.81,0.7,0.7,0,0,0-.29.64c0.02,0.37.01,0.75,0,1.12a0.714,0.714,0,0,0,.13.41,4.045,4.045,0,0,1,.2.48c0.07,0.16-.09.47,0.15,0.5a0.824,0.824,0,0,0,.32-0.42,1.05,1.05,0,0,0,.24-0.97,2.275,2.275,0,0,0-.22-0.85,1.4,1.4,0,0,1-.02-1.23c0.04-.11.09-0.22,0.13-0.34a0.667,0.667,0,0,0-.23-0.79,1.681,1.681,0,0,1-.84-1.11,0.466,0.466,0,0,0-.3-0.28c-0.12-.06-0.25-0.09-0.38-0.14a0.694,0.694,0,0,1-.43-0.53,2.014,2.014,0,0,1-.06-0.88,1.114,1.114,0,0,0-.17-0.92,1.548,1.548,0,0,1,.03-1.42,0.5,0.5,0,0,1,.33-0.25,3.132,3.132,0,0,1,1.32-.21,2.671,2.671,0,0,0,1.05-.14,2.34,2.34,0,0,1,.86-0.16,0.7,0.7,0,0,0,.38-0.13,4.373,4.373,0,0,1,.49-0.23,0.7,0.7,0,0,0,.47-0.71,0.527,0.527,0,0,0-.23-0.51,1.229,1.229,0,0,1-.53-0.55,1.336,1.336,0,0,0-.31-0.26,0.2,0.2,0,0,1,.03-0.35,0.379,0.379,0,0,0,.29-0.41c0.06-.33.18-0.36,0.48-0.25a0.3,0.3,0,0,0,.45-0.16,0.782,0.782,0,0,0,.1-0.89c-0.05-.05.01-0.13,0.08-0.16a0.168,0.168,0,0,1,.13-0.04,0.787,0.787,0,0,0,.84-0.46,3.276,3.276,0,0,1,.43-0.48,0.342,0.342,0,0,1,.14-0.15c0.64-.13,1.05-0.84,1.74-0.83a14.238,14.238,0,0,0,1.56-.65c0.16-.1.16-0.21,0.02-0.34-0.03-.03-0.08-0.04-0.12-0.08-0.13-.12-0.11-0.29.05-0.33a5.628,5.628,0,0,1,1.56-.32,1.257,1.257,0,0,0,.33-0.05c0.15-.04.15-0.14,0.08-0.28a0.188,0.188,0,0,1,.13-0.28,1.5,1.5,0,0,1,.73.01,0.256,0.256,0,0,1,.08.37c-0.08.09-.18,0.15-0.25,0.24a0.29,0.29,0,0,0,.07.48,1.333,1.333,0,0,0,.86.01,0.5,0.5,0,0,0,.19-0.19,5.888,5.888,0,0,1,.5-0.6,0.423,0.423,0,0,1,.67-0.02c0.09,0.07.16,0.17,0.25,0.24,0.07,0.06.15,0.14,0.23,0.04a0.322,0.322,0,0,0,.03-0.35,1.493,1.493,0,0,0-.27-0.23,1.072,1.072,0,0,1-.3-0.39,0.191,0.191,0,0,1,.15-0.31c0.15,0,.31.02,0.46,0.02a2.469,2.469,0,0,0,.54-0.05,0.73,0.73,0,0,0,.5-0.97,1.2,1.2,0,0,1,.04-0.93,4.46,4.46,0,0,1,.46-0.99c0.26-.4.53-0.81,0.77-1.23a1.989,1.989,0,0,1,1.14-.85,0.582,0.582,0,0,1,.62.22,1.088,1.088,0,0,0,.74.44,0.381,0.381,0,0,1,.24.32,0.557,0.557,0,0,1-.18.71,4.936,4.936,0,0,0-.53.58,0.561,0.561,0,0,0-.17.38,0.145,0.145,0,0,0,.12.03,1.5,1.5,0,0,1,1.53.11,0.638,0.638,0,0,1,.29,1.02c-0.23.35-.38,0.72-0.6,1.08a0.682,0.682,0,0,0,.97-0.26,2.207,2.207,0,0,0,.12-0.27c0.18-.4.18-0.4,0.59-0.36a1.352,1.352,0,0,0,.4-0.03,0.672,0.672,0,0,1,.52.04,0.528,0.528,0,0,0,.39.02,1.143,1.143,0,0,1,1.28.43,0.618,0.618,0,0,0,.24.13l0.01,0.01a0.867,0.867,0,0,0,.24.53,1.206,1.206,0,0,1,.33.78c0.03,0.23.11,0.33,0.32,0.14,0.07-.07.17,0,0.21,0.09a0.788,0.788,0,0,1,.1.28,1.119,1.119,0,0,0,.14.49,0.959,0.959,0,0,1,.1.99,1.187,1.187,0,0,0-.01.79,1.264,1.264,0,0,1-.1.87,3.517,3.517,0,0,1-.77,1.22,3.239,3.239,0,0,0-.62.66,0.672,0.672,0,0,1-.29.17,3.013,3.013,0,0,0-1.28,1.38,1.168,1.168,0,0,1-.44.56,1.744,1.744,0,0,0-.64.84,2.494,2.494,0,0,1-.16.33,0.56,0.56,0,0,1-.53.39,0.639,0.639,0,0,0-.66.5,0.8,0.8,0,0,1-.39.5,0.92,0.92,0,0,0-.45.61c-0.11.3-.12,0.47-0.02,0.44a0.362,0.362,0,0,0,.2-0.36,0.355,0.355,0,0,1,.37-0.34,2.813,2.813,0,0,0,1.54-.44,1.191,1.191,0,0,0,.5-0.36,0.232,0.232,0,0,1,.16-0.12,0.4,0.4,0,0,0,.32-0.04,3.629,3.629,0,0,0,.7-0.71c-0.2.07-.4,0.15-0.6,0.21a0.225,0.225,0,0,1-.3-0.2,1.022,1.022,0,0,1,.35-0.97,0.455,0.455,0,0,1,.39-0.05,0.8,0.8,0,0,0,.53,0c0.27-.08.29-0.05,0.28,0.27a0.58,0.58,0,0,0,.52.71c0.36,0.05.51-.08,0.61-0.5a0.43,0.43,0,0,1,.08-0.27,1.824,1.824,0,0,1,.43,1.41,0.621,0.621,0,0,0,.04.5,0.108,0.108,0,0,0,.11.06,0.217,0.217,0,0,0,.09-0.08,0.082,0.082,0,0,0,.01-0.07c0.01-.53.06-0.63,0.49-0.64a1.416,1.416,0,0,0,.83-0.24,0.781,0.781,0,0,1,.71-0.07c0.2,0.07.39,0.13,0.59,0.18a3.04,3.04,0,0,0,.99.18,1.933,1.933,0,0,1,.46.08,0.187,0.187,0,0,1,.1.29c-0.04.09-.11,0.16-0.14,0.25a0.509,0.509,0,0,0,.16.65,1.329,1.329,0,0,0,.41.25,4.633,4.633,0,0,0,2.63.24,1.089,1.089,0,0,0,.25-0.1,0.46,0.46,0,0,0,.32-0.57,1.419,1.419,0,0,0-.05-0.22,2.2,2.2,0,0,1,.05-1.11c0.03-.12.04-0.32,0.14-0.31,0.25,0.04.32-.31,0.53-0.26a1.167,1.167,0,0,1,.76.26,3.293,3.293,0,0,0,1.23.72,0.42,0.42,0,0,0,.33,0,1.137,1.137,0,0,1,1.31.48c0.22,0.31.46,0.61,0.68,0.92a0.686,0.686,0,0,1,.12.56,3.094,3.094,0,0,0,.04,1.48,1.073,1.073,0,0,1-.2,1.04c-0.07.08-.14,0.14-0.2,0.21a0.649,0.649,0,0,0-.04.88,3.307,3.307,0,0,1,.4.85,3.447,3.447,0,0,0,.68,1.1,0.952,0.952,0,0,0,.48.24c0.14,0.06.12,0.4,0.33,0.27a0.953,0.953,0,0,0,.22-0.45,3.082,3.082,0,0,0,.36-1.35,3.437,3.437,0,0,1,.44-1.32,0.116,0.116,0,0,1,.21.02,4.774,4.774,0,0,0,.48.99,0.68,0.68,0,0,0,.69.36,0.423,0.423,0,0,0,.4-0.21,0.668,0.668,0,0,1,1-.26,0.659,0.659,0,0,0,.7.06,0.876,0.876,0,0,1,.53-0.05,3,3,0,0,0,.6-0.01,0.47,0.47,0,0,1,.67.26c0.09,0.21.29,0.04,0.43,0.01,0.23-.05.26-0.1,0.21-0.36a2.689,2.689,0,0,1,.1-1.59,0.249,0.249,0,0,0-.12-0.08c-0.17-.03-0.39.08-0.45-0.2a0.621,0.621,0,0,1,.46-0.7c0.18-.02.36-0.01,0.53-0.04,0.29-.04.37-0.17,0.35-0.51a1.914,1.914,0,0,1-.04-0.21,0.264,0.264,0,0,1,.29-0.26,0.417,0.417,0,0,1,.18.08,1.907,1.907,0,0,0,1.22.34h0.33a5.351,5.351,0,0,1,2.45.69,1.783,1.783,0,0,0,1.15.3,2.012,2.012,0,0,1,1.35.33,1.2,1.2,0,0,1,.55.89,0.324,0.324,0,0,1-.33.42,0.582,0.582,0,0,0-.19.03,0.149,0.149,0,0,0-.1.17,0.188,0.188,0,0,0,.08.11,0.185,0.185,0,0,0,.12.05,0.972,0.972,0,0,1,.77.4,0.718,0.718,0,0,0,.71.33,0.421,0.421,0,0,1,.41.2c0.08,0.09.15,0.18,0.23,0.27a0.52,0.52,0,0,1,.08.73,0.163,0.163,0,0,0,.04.25,0.589,0.589,0,0,0,.63.13,4.91,4.91,0,0,1,1.65-.26c0.42-.02.85-0.06,1.27-0.12a4.5,4.5,0,0,1,1.27.05,1.311,1.311,0,0,1,1.05.71c0.13,0.23.27,0.46,0.38,0.7a1.406,1.406,0,0,1,.05,1.03,2.925,2.925,0,0,0-.13.42,0.307,0.307,0,0,0,.17.42,2.7,2.7,0,0,1,1.04.67,0.225,0.225,0,0,0,.36,0,1.652,1.652,0,0,1,1.4-.55,1.5,1.5,0,0,0,.2-0.02,0.361,0.361,0,0,1,.42.15,0.6,0.6,0,0,0,.72.23,0.955,0.955,0,0,1,.72.09,0.728,0.728,0,0,0,1.07-.27,0.712,0.712,0,0,1,.44-0.32c0.06,0.07.11,0.13,0.17,0.19,0.07,0.34.13,0.68,0.19,1.02a0.385,0.385,0,0,0,.21.28,1.83,1.83,0,0,1,.82.85,0.358,0.358,0,0,0,.58.09,1.18,1.18,0,0,0,.22-1.65,0.517,0.517,0,0,1-.14-0.84,0.882,0.882,0,0,0,.02-0.29,0.38,0.38,0,0,1,.37-0.36,1.755,1.755,0,0,1,.46.05,4.031,4.031,0,0,1,.46.14,6.252,6.252,0,0,0,2.58.25,1.485,1.485,0,0,1,1.07.3,16.753,16.753,0,0,0,1.53.92,3.52,3.52,0,0,1,1.03.82,2.71,2.71,0,0,0,.86.7,1.318,1.318,0,0,1,.6.57,2.557,2.557,0,0,0,.81.76,2.026,2.026,0,0,1,.72.76,0.5,0.5,0,0,0,.31.26,0.314,0.314,0,0,1,.22.34c0,0.12.07,0.18,0.17,0.08,0.16-.16.29-0.08,0.41,0.05,0.15,0.19.28,0.39,0.42,0.58a0.675,0.675,0,0,1,.1.42,4.678,4.678,0,0,0,.28,1.23c0.03,0.07.09,0.12,0.16,0.07a0.174,0.174,0,0,0,.08-0.12,0.59,0.59,0,0,0-.14-0.54,0.172,0.172,0,0,1,.12-0.27,0.938,0.938,0,0,1,.77.18,0.486,0.486,0,0,0,.5.12,0.722,0.722,0,0,1,.91.42,6.055,6.055,0,0,0,1.27,1.44c0.18,0.16.18,0.23-.04,0.38a0.889,0.889,0,0,0-.42.54,0.9,0.9,0,0,1-.62.62,1.171,1.171,0,0,1-.26.04,0.43,0.43,0,0,0-.41.5,0.852,0.852,0,0,1-.32.76,0.332,0.332,0,0,0-.04.47,0.346,0.346,0,0,1,.08.4,0.993,0.993,0,0,1-.52.45,0.328,0.328,0,0,1-.19-0.04,1.927,1.927,0,0,1-.72-0.52,1,1,0,0,0-.57-0.38,1.152,1.152,0,0,1-.83-1.05,0.875,0.875,0,0,0-.63-0.79,0.634,0.634,0,0,0-.52.05,0.648,0.648,0,0,1-.59.05,0.6,0.6,0,0,1-.4-0.35,1.441,1.441,0,0,1-.29-1.03,0.249,0.249,0,0,0-.28-0.15c-0.1.09-.2,0.2-0.3,0.29a0.351,0.351,0,0,0-.07.4,0.539,0.539,0,0,0,.07.13,0.881,0.881,0,0,1,.22.61,1.414,1.414,0,0,1-.31.81,4.318,4.318,0,0,1-1.06,1.03,0.745,0.745,0,0,1-.62.14,2.744,2.744,0,0,0-.39-0.09,0.216,0.216,0,0,0-.22.14,0.328,0.328,0,0,0,.01.29,0.588,0.588,0,0,0,.49.35,0.343,0.343,0,0,1,.31.32c0.08,0.34.16,0.68,0.25,1.01a2.5,2.5,0,0,0,.26.77,0.545,0.545,0,0,1,.1.55,0.414,0.414,0,0,0,.12.33,0.828,0.828,0,0,1-.36.99,0.336,0.336,0,0,1-.26-0.01,1.415,1.415,0,0,1-.35-0.21,1,1,0,0,0-1.21.05c-0.81.57-1.66,1.08-2.5,1.58a3.633,3.633,0,0,0-.88.91,6.473,6.473,0,0,1-1.07,1.03,1.783,1.783,0,0,0-.7.95,0.188,0.188,0,0,1-.36.06c-0.09-.14-0.17-0.29-0.25-0.44a0.869,0.869,0,0,0-.66-0.46,1.619,1.619,0,0,0-1.48.52c-0.1.09-.19,0.22-0.29,0.31-0.13.12-.23,0.39-0.41,0.29-0.16-.08,0-0.32-0.02-0.49a0.2,0.2,0,0,0-.3-0.16,1.082,1.082,0,0,0-.58.59,0.181,0.181,0,0,1-.27.13,0.777,0.777,0,0,0-.52-0.02,0.585,0.585,0,0,0-.6.58,3.746,3.746,0,0,1-.68,1.61,3.414,3.414,0,0,0-.44,1.08,0.212,0.212,0,0,0,.28.27,0.817,0.817,0,0,1,.26-0.06,0.439,0.439,0,0,1,.36.68c-0.03.09-.09,0.17-0.13,0.26a0.9,0.9,0,0,0,.06,1.04,1.113,1.113,0,0,1,.15.99,0.262,0.262,0,0,1-.19.19,0.2,0.2,0,0,1-.21-0.14c-0.05-.11-0.09-0.22-0.14-0.35a5.71,5.71,0,0,0-.38.52,1.434,1.434,0,0,0-.16,1.48,0.5,0.5,0,0,1,.05.13c0.19,0.49.04,0.8-.43,0.79a0.944,0.944,0,0,0-.79.32,1.382,1.382,0,0,0-.45,1.32,0.318,0.318,0,0,1-.21.4,3.092,3.092,0,0,0-.42.25,1.094,1.094,0,0,0-.48.85,3.142,3.142,0,0,1-1.17,2.02c-0.13.14-.3,0.07-0.37-0.14a2.6,2.6,0,0,1-.12-0.88,2.731,2.731,0,0,0-.17-1.1,2.561,2.561,0,0,1-.1-0.51c-0.05-.29-0.07-0.6-0.14-0.88a23.113,23.113,0,0,1-.37-2.74,6.323,6.323,0,0,1,.23-2.29,1.033,1.033,0,0,1,.39-0.59,1.215,1.215,0,0,0,.49-1.16,0.279,0.279,0,0,1,.21-0.33,3.315,3.315,0,0,0,1.78-1.49,1.762,1.762,0,0,0,.33-0.56,2.286,2.286,0,0,1,.66-1.01,4.743,4.743,0,0,0,.97-1.33,0.943,0.943,0,0,1,.43-0.45c0.14-.07.28-0.16,0.42-0.24a1.1,1.1,0,0,0,.73-1.04c0.11-.51.2-1.02,0.29-1.53a0.989,0.989,0,0,1,.47-0.77,0.175,0.175,0,0,0,.08-0.19,0.193,0.193,0,0,0-.2-0.16,0.987,0.987,0,0,0-.92.62,1.845,1.845,0,0,0-.14,1.09c0.04,0.25-.01.33-0.24,0.34a0.716,0.716,0,0,0-.58.3c-0.3.34-.6,0.67-0.89,1.03a1.378,1.378,0,0,1-.46.41,0.185,0.185,0,0,1-.3-0.16,0.685,0.685,0,0,0-.01-0.21,1.427,1.427,0,0,1-.05-1.4c0-.02-0.02-0.05-0.02-0.08a0.239,0.239,0,0,0-.23-0.1,2.012,2.012,0,0,0-.59-0.32c-0.22.04-.43,0.12-0.65,0.17-0.11.03-.22,0.03-0.34,0.05a1.052,1.052,0,0,0-.85.65c-0.16.41-.46,0.73-0.64,1.13a1.935,1.935,0,0,1-.6.7,3.4,3.4,0,0,0-.71,1.17,0.294,0.294,0,0,0,.11.33c0.12,0.1.26,0.19,0.38,0.3a0.284,0.284,0,0,1-.05.44,1.019,1.019,0,0,1-.77.17,0.554,0.554,0,0,0-.57.1,4.039,4.039,0,0,1-1.15.36,0.414,0.414,0,0,1-.48-0.18,0.232,0.232,0,0,1,.07-0.36c0.13-.08.38,0.04,0.38-0.21a0.582,0.582,0,0,0-.6-0.46,0.544,0.544,0,0,1-.51-0.05,1.889,1.889,0,0,0-.25-0.11,1.084,1.084,0,0,1-.19-0.08c-0.36-.19-0.59-0.13-0.74.32-0.03.06-.07,0.13-0.1,0.19a0.235,0.235,0,0,1-.34.14,0.515,0.515,0,0,0-.57-0.03,0.6,0.6,0,0,1-.58-0.03,0.472,0.472,0,0,0-.61.13,0.252,0.252,0,0,1-.42-0.01,0.852,0.852,0,0,0-.68-0.26,6.605,6.605,0,0,0-1.4.16,1.576,1.576,0,0,0-.99.71,6.638,6.638,0,0,1-.82.99,0.976,0.976,0,0,0-.25.35,3.922,3.922,0,0,1-.98,1.31,8.4,8.4,0,0,0-1.16,1.54,4.287,4.287,0,0,1-.94,1.17c-0.41.34-.78,0.75-1.16,1.13a0.3,0.3,0,0,0,.04.5,0.511,0.511,0,0,0,.37.13c0.11-.01.22-0.05,0.33-0.05a0.25,0.25,0,0,1,.28.25c0.01,0.12.01,0.25,0.01,0.37,0.02,0.14-.08.34,0.1,0.38,0.12,0.01.11-.2,0.17-0.29a0.5,0.5,0,0,1,.14-0.15,0.17,0.17,0,0,1,.23.07,2.516,2.516,0,0,1,.02.91,2.424,2.424,0,0,0,.81-0.53,0.06,0.06,0,0,0,.03-0.06c-0.03-.51.3-0.37,0.55-0.37a0.84,0.84,0,0,1,.87.57,1.211,1.211,0,0,0,.43.56,0.638,0.638,0,0,1,.28.81,1.767,1.767,0,0,0,.04.82,0.113,0.113,0,0,0,.1.07,0.147,0.147,0,0,0,.12-0.04,1.561,1.561,0,0,0,.17-0.64,4.573,4.573,0,0,0,.05-0.52,0.462,0.462,0,0,1,.36-0.54,0.3,0.3,0,0,0,.21-0.4c-0.03-.17-0.08-0.34-0.11-0.51a0.209,0.209,0,0,1,.11-0.24,0.2,0.2,0,0,1,.28.12,1.121,1.121,0,0,1,.09.36,6.657,6.657,0,0,0,.2,1.17,2.666,2.666,0,0,1,.06,1.19,2.989,2.989,0,0,0,.1,1.33c0.26,1.06.51,2.12,0.76,3.18a1.09,1.09,0,0,1-.01.17,0.734,0.734,0,0,1-.5-0.08,0.431,0.431,0,0,0-.52.35c-0.13.45-.22,0.91-0.31,1.38a0.948,0.948,0,0,0,.11.64,4.583,4.583,0,0,0,.49.9,0.666,0.666,0,0,1,.17.47,0.328,0.328,0,0,1-.06.21c-0.09.08-.15-0.02-0.2-0.1a1.127,1.127,0,0,0-.12-0.18c-0.21-.21-0.39-0.17-0.54.11a0.149,0.149,0,0,0-.03.07,0.465,0.465,0,0,1-.29.37c-0.12.01-.22-0.19-0.24-0.48,0-.1,0-0.2.01-0.3,0.05-.47.09-0.95,0.17-1.42a1.956,1.956,0,0,0-.04-1.02,1.574,1.574,0,0,1-.02-0.96,5.16,5.16,0,0,0,.1-1.71,3.381,3.381,0,0,1-.01-0.45,1.832,1.832,0,0,0-.26-1.35,2.288,2.288,0,0,1-.19-0.56,3.77,3.77,0,0,0-.73,1.62,2.809,2.809,0,0,0-.03.96,2.974,2.974,0,0,1-.08,1.48,1.462,1.462,0,0,0-.09.36,2.216,2.216,0,0,1-.56,1.32,6.62,6.62,0,0,0-1.05,1.9,4.014,4.014,0,0,1-.76,1.31c-0.43.57-.86,1.15-1.28,1.73a1.037,1.037,0,0,0-.15.25,3,3,0,0,1-1.05,1.23,1.367,1.367,0,0,1-1.75.15c-0.34-.23-0.35-0.2-0.64.08-0.24.25-.51,0.47-0.76,0.72a5.136,5.136,0,0,0-.38.42,1.1,1.1,0,0,0-.28.81,0.79,0.79,0,0,1-.31.7,5.762,5.762,0,0,1-1.19.96,0.515,0.515,0,0,0-.12.9,10.551,10.551,0,0,1,1.01,1.49,2.18,2.18,0,0,1,.38,1.26c0,0.24.03,0.5,0.04,0.74a0.987,0.987,0,0,1-.59,1.05,8.64,8.64,0,0,0-1.21.62,1.735,1.735,0,0,1-.65.17,0.236,0.236,0,0,1-.26-0.26,2.252,2.252,0,0,1,.18-0.94,0.973,0.973,0,0,0-.13-1.04,1.739,1.739,0,0,1-.11-0.18,0.21,0.21,0,0,1,.03-0.27c0.06-.07.15-0.11,0.21-0.18a0.332,0.332,0,0,0,.08-0.4,0.567,0.567,0,0,0-.64-0.51c-0.09,0-.18.05-0.27,0.05a0.524,0.524,0,0,1-.44-0.73,2.755,2.755,0,0,0,.3-1.06,0.294,0.294,0,0,0-.2-0.34,2.068,2.068,0,0,0-2.35.57,1.119,1.119,0,0,1-.58.36,0.117,0.117,0,0,1-.11-0.05,0.128,0.128,0,0,1-.02-0.13,0.545,0.545,0,0,0,.1-0.61,0.418,0.418,0,0,1,.09-0.41,6.489,6.489,0,0,0,.36-0.55,0.481,0.481,0,0,0-.09-0.6,0.35,0.35,0,0,0-.5.01,9.871,9.871,0,0,1-1.37,1.3,0.317,0.317,0,0,0-.08.12,0.9,0.9,0,0,1-.92.62,0.328,0.328,0,0,0-.38.21,0.6,0.6,0,0,0,.06.63,0.333,0.333,0,0,0,.09.11,2.39,2.39,0,0,1,.87,1.01,0.348,0.348,0,0,0,.54.07c0.14-.11.27-0.26,0.42-0.38a0.464,0.464,0,0,1,.61-0.09,1.724,1.724,0,0,0,.91.24,0.314,0.314,0,0,1,.33.3,0.368,0.368,0,0,1-.27.44,3.724,3.724,0,0,0-.64.22,0.668,0.668,0,0,0-.48.37c-0.14.29-.45,0.32-0.59,0.59-0.09.14-.22,0.25-0.32,0.39-0.32.52-.45,0.71,0.16,1.04a1.148,1.148,0,0,1,.5.67,3.974,3.974,0,0,1,.15.49,2.6,2.6,0,0,0,.54,1.19,2.717,2.717,0,0,1,.27.42,0.154,0.154,0,0,1-.07.24c-0.13.06-.19,0.15-0.09,0.28a3.212,3.212,0,0,1,.21.3,0.259,0.259,0,0,1-.04.33c-0.16.13-.32,0.26-0.47,0.39a0.41,0.41,0,0,0,.27.33,0.743,0.743,0,0,1,.26.9c-0.09.28-.19,0.56-0.3,0.83a0.917,0.917,0,0,1-.14.26,9.773,9.773,0,0,0-1.39,2.44,3.229,3.229,0,0,1-.97,1.3,0.212,0.212,0,0,0-.07.03,10.109,10.109,0,0,1-1.24,1.21,1.758,1.758,0,0,1-1,.55c-0.24.05-.48,0.11-0.72,0.17a0.741,0.741,0,0,0-.4.25c-0.15.16-.17,0.15-0.31-0.12-0.04-.06-0.11-0.16-0.14-0.1a2.459,2.459,0,0,0-.57.45,0.458,0.458,0,0,1-.39.26c-0.35.11-.69,0.21-1.04,0.31-0.13.04-.26,0.09-0.38,0.13a0.436,0.436,0,0,0-.32.5,0.35,0.35,0,0,1-.12.45c-0.15.08-.34-0.07-0.46-0.34a1.723,1.723,0,0,1-.07-0.21c-0.05-.15.06-0.39-0.16-0.44a1.217,1.217,0,0,0-.76-0.15,2.582,2.582,0,0,0-1.56,1.2,1.863,1.863,0,0,1-.23.26,1.427,1.427,0,0,0-.39.93,0.491,0.491,0,0,0,.1.42,10.517,10.517,0,0,0,1.4,1.89,4.1,4.1,0,0,1,.88,1.02,2.054,2.054,0,0,1,.2.39,5.536,5.536,0,0,1,.27,2.43,0.185,0.185,0,0,1-.02.07,1.3,1.3,0,0,1-.82,1.47,2.389,2.389,0,0,1-.84.46,0.566,0.566,0,0,0-.43.32,2.036,2.036,0,0,1-.7.78c-0.08.05-.14,0.13-0.21,0.18-0.14.11-.25,0.36-0.45,0.22a0.651,0.651,0,0,1-.13-0.55c0-.13.01-0.25,0.02-0.38a0.644,0.644,0,0,0-.48-0.61,0.132,0.132,0,0,0-.09.09c-0.07.11-.14,0.1-0.22,0.01a1.7,1.7,0,0,0-.57-0.62,0.52,0.52,0,0,1-.17-0.3,2.389,2.389,0,0,0-.77-1.02,0.733,0.733,0,0,0-.49-0.2,0.441,0.441,0,0,1-.47-0.43,0.515,0.515,0,0,0-.09-0.2,0.282,0.282,0,0,0-.46.05,0.394,0.394,0,0,0-.05.14,8.522,8.522,0,0,1-.55,2.14,4.428,4.428,0,0,0-.14.58,0.6,0.6,0,0,0,.33.73,0.539,0.539,0,0,1,.33.42c0.11,0.34.25,0.65,0.35,0.98a1.071,1.071,0,0,0,.61.74,5.161,5.161,0,0,1,1.54,1.3,1.225,1.225,0,0,1,.32.88c0,0.17.01,0.35,0,.53a1.588,1.588,0,0,0,.35,1.24,1.275,1.275,0,0,1,.07.12,1.033,1.033,0,0,1,.07,1.12,0.337,0.337,0,0,1-.13.23,8.072,8.072,0,0,0-1.32-.96,3.477,3.477,0,0,1-.94-1.04,4.679,4.679,0,0,1-.67-2.16,1.482,1.482,0,0,0-.22-0.7c-0.29-.45-0.59-0.88-0.89-1.31a0.622,0.622,0,0,0-.31-0.27,0.392,0.392,0,0,1-.25-0.07,0.581,0.581,0,0,1-.06-0.35c0.02-.22.06-0.44,0.1-0.67a3.434,3.434,0,0,0,.08-0.96,2.185,2.185,0,0,1,.15-0.8,0.182,0.182,0,0,0-.16-0.26c-0.14-.02-0.22-0.12-0.13-0.25a1.368,1.368,0,0,0,.03-1.42,7.575,7.575,0,0,1-.63-2.58,0.72,0.72,0,0,0-.34-0.6,0.311,0.311,0,0,0-.43,0c-0.27.24-.53,0.46-0.8,0.7a0.793,0.793,0,0,1-1.05-.02,0.418,0.418,0,0,1-.13-0.34c0.03-.18.06-0.39,0.11-0.58a1.777,1.777,0,0,0-.46-1.83,0.428,0.428,0,0,1-.19-0.3,0.871,0.871,0,0,0-.5-0.79,2.416,2.416,0,0,1-.89-1.69,1.325,1.325,0,0,0-.28-0.75,0.267,0.267,0,0,0-.46,0,1.881,1.881,0,0,1-1.42.85,1.8,1.8,0,0,1-.92.03,0.778,0.778,0,0,0-.92.65,1.407,1.407,0,0,1-.9,1.19,1.938,1.938,0,0,0-1,.84,9.983,9.983,0,0,1-1.28,1.32,0.61,0.61,0,0,1-.15.13,8.712,8.712,0,0,0-.7.8,2.158,2.158,0,0,0-.84.58,0.677,0.677,0,0,1-.36.2,0.651,0.651,0,0,0-.39.76c0.04,0.41.07,0.81,0.14,1.2a1.653,1.653,0,0,1-.07.96,4.279,4.279,0,0,0-.3,1.59,0.547,0.547,0,0,1-.26.56,0.137,0.137,0,0,0-.11.08,12.318,12.318,0,0,1-1,1.37,1.193,1.193,0,0,1-.21.29,0.4,0.4,0,0,1-.65,0,2.064,2.064,0,0,1-.54-0.93c-0.19-.62-0.4-1.22-0.61-1.82a1.134,1.134,0,0,0-.21-0.39,2.247,2.247,0,0,1-.5-1.12,10.873,10.873,0,0,0-1.01-2.53,3.364,3.364,0,0,1-.39-1.33,2.864,2.864,0,0,0-.09-0.51c-0.12-.67-0.24-1.32-0.35-1.99a0.543,0.543,0,0,1,0-.22,2.353,2.353,0,0,0-.07-1.39c-0.05-.24-0.07-0.49-0.12-0.78a1.035,1.035,0,0,0-.23.56,1.008,1.008,0,0,1-1.41.68,4.078,4.078,0,0,1-1.07-1.22,0.21,0.21,0,0,1,.13-0.28c0.17-.05.35-0.08,0.52-0.14a0.279,0.279,0,0,0,.12-0.17,0.124,0.124,0,0,0-.13-0.12,0.653,0.653,0,0,0-.14,0,1.018,1.018,0,0,1-1.11-.53,0.522,0.522,0,0,1-.08-0.11,4.943,4.943,0,0,1-.7-0.67,9.048,9.048,0,0,0-.51-0.87,0.542,0.542,0,0,0-.63-0.32c-0.22.03-.44,0.05-0.67,0.09a4.147,4.147,0,0,1-.79.03,4.243,4.243,0,0,0-1.33.08,3.138,3.138,0,0,1-1.33-.01c-0.24-.04-0.48-0.08-0.73-0.13-0.58-.11-1.18-0.23-1.77-0.36a0.738,0.738,0,0,1-.58-0.56,3.618,3.618,0,0,0-.2-0.55c-0.13-.28-0.34-0.34-0.54-0.13a1.488,1.488,0,0,1-1.45.35,2.411,2.411,0,0,1-1.44-.73,2.246,2.246,0,0,0-.73-0.51,0.759,0.759,0,0,1-.47-0.5c-0.21-.56-0.57-1.01-0.82-1.54a0.4,0.4,0,0,0-.43-0.29,0.683,0.683,0,0,1-.53-0.38,0.407,0.407,0,0,0-.27.31c-0.54.7-.55,0.61-0.19,1.5a4.866,4.866,0,0,0,1.03,1.57,1.332,1.332,0,0,1,.44,1.04,0.594,0.594,0,0,0,.13.41,0.193,0.193,0,0,0,.34,0c0.08-.12.13-0.25,0.22-0.37a0.212,0.212,0,0,1,.34.06,0.73,0.73,0,0,1,.09.35,5.425,5.425,0,0,1-.04.9,0.486,0.486,0,0,0,.48.57,9.731,9.731,0,0,1,1.2-.11,1.19,1.19,0,0,0,.85-0.52c0.36-.48.75-0.92,1.14-1.37a0.122,0.122,0,0,1,.12-0.05,0.311,0.311,0,0,1,.13.15,4.97,4.97,0,0,1,.01.67,1.325,1.325,0,0,0,.57,1.19,2.209,2.209,0,0,0,.8.39,1.242,1.242,0,0,1,.86.65,1.4,1.4,0,0,0,.26.34,0.664,0.664,0,0,1,.14.91,1.362,1.362,0,0,1-.25.44,1.11,1.11,0,0,0-.32.79,0.256,0.256,0,0,1-.28.25,0.563,0.563,0,0,0-.64.64,1.034,1.034,0,0,0,.02.3,0.347,0.347,0,0,1-.24.4,1.048,1.048,0,0,0-.77.74,0.407,0.407,0,0,1-.31.26,0.963,0.963,0,0,0-.71.62,0.453,0.453,0,0,1-.45.28,3.7,3.7,0,0,0-1.29.35,0.939,0.939,0,0,0-.62.53,1.27,1.27,0,0,1-.75.71,9.656,9.656,0,0,1-1.26.49,1.26,1.26,0,0,0-.69.41,0.941,0.941,0,0,1-.71.38,0.549,0.549,0,0,0-.37.14,1.824,1.824,0,0,1-1.01.38,1.656,1.656,0,0,0-.99.4,1.376,1.376,0,0,1-1.02.26,0.678,0.678,0,0,1-.72-0.64c-0.08-.36-0.16-0.72-0.25-1.08a3.332,3.332,0,0,0-.18-0.56,0.78,0.78,0,0,1-.07-0.58,2,2,0,0,0-.52-1.83,4.111,4.111,0,0,1-.75-1.32,1.916,1.916,0,0,0-.93-1.21,1.148,1.148,0,0,1-.67-1.04,4.573,4.573,0,0,1-.05-0.52,3.171,3.171,0,0,0-.34-1.43,1.464,1.464,0,0,0-.66-0.82,1.157,1.157,0,0,1-.58-0.86,2.317,2.317,0,0,0-.36-0.8c-0.36-.6-0.71-1.21-1.06-1.82a1.2,1.2,0,0,0-.28-0.41,0.565,0.565,0,0,1-.2-0.64,2.312,2.312,0,0,0-.11-1.11c-0.12-.4-0.23-0.81-0.36-1.21a0.786,0.786,0,0,1,.08-0.77,1.946,1.946,0,0,0,.35-0.88,5.42,5.42,0,0,1,.62-1.73,2.442,2.442,0,0,0,.36-1.7c-0.07-.39.1-0.79,0.03-1.18a1.482,1.482,0,0,0-.46-0.03,0.766,0.766,0,0,0-.97.25,1.545,1.545,0,0,1-1.07.34,0.642,0.642,0,0,1-.47-0.27,2.428,2.428,0,0,0-.8-0.53,0.3,0.3,0,0,0-.45.18,0.765,0.765,0,0,1-.69.5,0.485,0.485,0,0,1-.44-0.15,1.223,1.223,0,0,0-1.16-.42c-0.18.02-.25-0.06-0.13-0.25a1.616,1.616,0,0,1-.58-1.1,0.516,0.516,0,0,0-.29-0.29c-0.33-.22-0.34-0.32-0.13-0.63a0.687,0.687,0,0,0-.12-1.05,0.372,0.372,0,0,1-.14-0.5,4.675,4.675,0,0,1,.3-0.59,0.207,0.207,0,0,1,.29-0.11,2.892,2.892,0,0,0,1.24.09,0.6,0.6,0,0,0,.47-0.26,0.227,0.227,0,0,0,.09-0.18c0.03-.41.03-0.42,0.31-0.43a2.414,2.414,0,0,1,.8.07,0.743,0.743,0,0,0,.86-0.23c0.15-.15.33-0.26,0.49-0.4a2.122,2.122,0,0,1,1.19-.44c0.23-.02.44-0.02,0.67-0.03a1.11,1.11,0,0,1,.88.24,7.156,7.156,0,0,0,.92.58,2.208,2.208,0,0,0,1.73.4,3.161,3.161,0,0,1,.87-0.03,1.731,1.731,0,0,0,1.36-.83,0.306,0.306,0,0,0,.07-0.2,1.622,1.622,0,0,0-.58-1.29,2.55,2.55,0,0,1-.68-0.46,0.209,0.209,0,0,1-.07-0.26,0.247,0.247,0,0,1,.16-0.1,1.25,1.25,0,0,1,.66.11,2.671,2.671,0,0,0,1.23.31,1.254,1.254,0,0,1,.8.36,1.051,1.051,0,0,0,.87.26,0.909,0.909,0,0,1,1.1.61,0.6,0.6,0,0,0,.31.28,2.224,2.224,0,0,1,.86.7,0.288,0.288,0,0,0,.51.01,0.749,0.749,0,0,0,.13-0.18c0.29-.55.41-0.33,0.65,0.05a2.016,2.016,0,0,1,.18.32,1.316,1.316,0,0,0,.79.85,0.269,0.269,0,0,1,.12.17,0.1,0.1,0,0,1-.1.13,0.546,0.546,0,0,0-.41.45c-0.05.2-.08,0.39-0.12,0.58a0.582,0.582,0,0,1-.23.44,0.452,0.452,0,0,0-.23.55c0.04,0.23.05,0.45,0.09,0.67a0.647,0.647,0,0,0,.51.62,1.3,1.3,0,0,1,.8.48,1.3,1.3,0,0,0,1.36.42c0.29-.08.57-0.15,0.85-0.24,0.17-.05.38,0.11,0.49-0.12a0.964,0.964,0,0,0-.06-0.58,4.068,4.068,0,0,1-.09-1.04,1.141,1.141,0,0,0-.14-0.92,3.323,3.323,0,0,1-.06-0.57c-0.09-.16-0.11-0.3-0.33-0.29-0.2.02-.27-0.11-0.29-0.31a1.768,1.768,0,0,1,.15-0.83c0.21,0.07.42,0.14,0.63,0.2a0.446,0.446,0,0,0,.39-0.01,0.37,0.37,0,0,0,.15-0.55c-0.13-.23-0.28-0.44-0.42-0.67-0.17-.34-0.44-0.23-0.61-0.05a0.741,0.741,0,0,0-.16.41,0.236,0.236,0,0,1-.1.16,0.194,0.194,0,0,1-.19-0.18,1.307,1.307,0,0,1-.1-0.8,0.66,0.66,0,0,0-.4-0.92,0.953,0.953,0,0,1-.6-0.83,1.445,1.445,0,0,0-.44-0.74c-0.1-.11-0.2-0.2-0.3-0.31a0.215,0.215,0,0,1,.09-0.3,1.5,1.5,0,0,1,.2-0.02,0.478,0.478,0,0,0,.45,0,0.871,0.871,0,0,0,.08-0.43,0.29,0.29,0,0,1,.22-0.25,1.3,1.3,0,0,0,.5-0.21,0.352,0.352,0,0,1,.26-0.05,8.857,8.857,0,0,1,1.44.25,0.108,0.108,0,0,0,.06.01,0.232,0.232,0,0,0,.22-0.3,0.728,0.728,0,0,0-.12-0.25,3.29,3.29,0,0,1-.77-1.13,1.989,1.989,0,0,0-.23-0.36,0.786,0.786,0,0,0-.81-0.42,1.2,1.2,0,0,1-.65-0.09,0.385,0.385,0,0,0-.5.09,1.421,1.421,0,0,1-.89.47,0.619,0.619,0,0,0-.64.45,0.192,0.192,0,0,1-.28.1,2.137,2.137,0,0,1-.3-0.17,0.241,0.241,0,0,1-.04-0.38c0.05-.05.12-0.08,0.16-0.13a0.7,0.7,0,0,0,.13-0.17,1.112,1.112,0,0,0-.55-1.08,1.219,1.219,0,0,0-.27,0,0.391,0.391,0,0,1-.36-0.28,1.091,1.091,0,0,0-.19-0.39,0.678,0.678,0,0,1-.13-0.93,1.155,1.155,0,0,0,.11-0.71,1,1,0,0,1,.15-0.71,2.351,2.351,0,0,0,.19-0.39c0.2-.49.33-0.5,0.62-0.07,0.07,0.1.12,0.21,0.19,0.31a0.18,0.18,0,0,0,.22.11,0.214,0.214,0,0,0,.14-0.23c-0.02-.15-0.05-0.3-0.07-0.45a0.368,0.368,0,0,1,.15-0.38,1.613,1.613,0,0,0,.44-0.46,0.628,0.628,0,0,1,.31-0.27,1.526,1.526,0,0,0,.64-0.52,0.545,0.545,0,0,1,.61-0.2,0.575,0.575,0,0,0,.33.04c0.5-.32.95,0.13,1.42,0.14a0.571,0.571,0,0,1,.27.21c0.15,0.15.29,0.31,0.44,0.46a0.364,0.364,0,0,0,.14.14,1.017,1.017,0,0,1,.83.39,0.384,0.384,0,0,0,.5-0.06,1.132,1.132,0,0,1,1.17-.38,0.982,0.982,0,0,0,.33-0.05,0.55,0.55,0,0,1,.69.3,0.659,0.659,0,0,0,.51.3,0.392,0.392,0,0,0,.49-0.12,0.361,0.361,0,0,1,.44.01,0.634,0.634,0,0,0,.81-0.63,0.251,0.251,0,0,0-.11-0.26c-0.19-.11-0.4-0.21-0.6-0.32a1.217,1.217,0,0,1-.55-0.63,0.635,0.635,0,0,0-.62-0.46c-0.33-.03-0.36-0.08-0.44-0.45a3.706,3.706,0,0,0-.09-0.5,1.453,1.453,0,0,1,.25-1.4,2.2,2.2,0,0,0,.43-0.76l0.03-.15a0.312,0.312,0,0,0-.04-0.28,0.2,0.2,0,0,0-.25.02c-0.09.07-.17,0.15-0.26,0.23a0.781,0.781,0,0,1-1.05-.04,1.808,1.808,0,0,1-.44-1.06,0.36,0.36,0,0,1,.4-0.39,3.077,3.077,0,0,1,.38.16,0.533,0.533,0,0,0,.76-0.53,1.5,1.5,0,0,0,0-.3,0.343,0.343,0,0,0-.28-0.36c-0.14-.02-0.27-0.01-0.4-0.03a0.69,0.69,0,0,1-.63-0.66,2.311,2.311,0,0,1,.05-1.11,3.3,3.3,0,0,1,.88-1.66,0.1,0.1,0,0,0,.04-0.05,1.285,1.285,0,0,0,.03-1.9,1.172,1.172,0,0,1-.32-0.94,0.848,0.848,0,0,1,.21-0.6,1.764,1.764,0,0,0,.27-0.33,1.177,1.177,0,0,0,.1-1.32,1.434,1.434,0,0,1-.14-0.34,0.407,0.407,0,0,1,.14-0.52,0.385,0.385,0,0,0,.16-0.44c-0.03-.2-0.07-0.4-0.11-0.59a2.633,2.633,0,0,1-.02-0.97,0.691,0.691,0,0,0-.05-0.51,0.719,0.719,0,0,1-.01-0.71,1.9,1.9,0,0,0,.14-1.31,0.9,0.9,0,0,1,.08-0.58,4.392,4.392,0,0,0,.36-1.73,0.4,0.4,0,0,1,.41-0.49,1,1,0,0,0,.94-0.71,1.8,1.8,0,0,1,.53-0.66c0.19-.17.38-0.35,0.56-0.53a2.2,2.2,0,0,0,.65-1.03,1.48,1.48,0,0,1,.77-0.98,1.292,1.292,0,0,0,.77-0.88,0.525,0.525,0,0,1,.21-0.28,0.98,0.98,0,0,0,.29-0.87,0.44,0.44,0,0,0-.26-0.39,0.726,0.726,0,0,1-.43-1.1,1.079,1.079,0,0,0-.06-0.99,2.195,2.195,0,0,1-.15-1.39,0.184,0.184,0,0,1,.27-0.13c0.19,0.12.38,0.25,0.58,0.38,0.05,0.04.09,0.11,0.14,0.15a8.961,8.961,0,0,1,1.87,1.67c0.23,0.28.35,0.22,0.47-.15,0.06-.21.11-0.43,0.16-0.65a0.244,0.244,0,0,0-.07-0.27,2.513,2.513,0,0,1-.61-1.23,0.677,0.677,0,0,0-.76-0.55,0.176,0.176,0,0,1-.22-0.2,1.57,1.57,0,0,1,.22-1.12,0.448,0.448,0,0,0,.06-0.29,7.932,7.932,0,0,1,.08-1.19c0.03-.29.02-0.31-0.27-0.36-0.27-.05-0.34-0.13-0.27-0.38a0.909,0.909,0,0,0,.07-0.57,0.665,0.665,0,0,1,.26-0.65c0.14-.12.28-0.24,0.41-0.37a2.726,2.726,0,0,0,.72-1.41c0.11-.59.24-1.17,0.33-1.76a4.06,4.06,0,0,1,.34-0.98,0.339,0.339,0,0,1,.44-0.24,3.9,3.9,0,0,0,1.13.09,1.474,1.474,0,0,1,.65.15,1.02,1.02,0,0,1,.61.95,5.027,5.027,0,0,1-.52,2.67,0.64,0.64,0,0,0,.04.74,3.256,3.256,0,0,1,.43,2.95,0.98,0.98,0,0,0-.02.45,6.929,6.929,0,0,1,.05,1.93c-0.03.2-.01,0.4-0.02,0.6a1.187,1.187,0,0,0,.31.95c0.04,0.06.09,0.12,0.13,0.17a0.859,0.859,0,0,1,.17.96,2.589,2.589,0,0,0-.2,1.16,1.118,1.118,0,0,1-.2.69,6.866,6.866,0,0,0-.69,1.28,0.448,0.448,0,0,1-.21.27,0.311,0.311,0,0,0-.17.3,0.543,0.543,0,0,1-.31.52,0.443,0.443,0,0,1-.67.04c-0.06-.06-0.13-0.06-0.16.03a0.258,0.258,0,0,0,.01.28,0.274,0.274,0,0,0,.3.13,1.6,1.6,0,0,1,.99.1c0.23,0.09.33,0.03,0.39-.24a0.935,0.935,0,0,1,.39-0.58c0.13-.11.24-0.22,0.38-0.33a1.152,1.152,0,0,0,.44-0.8,1.511,1.511,0,0,1,.38-0.85,1.319,1.319,0,0,0,.23-1.51,1.7,1.7,0,0,1-.16-0.86,0.867,0.867,0,0,1,.4-0.73,2.9,2.9,0,0,1,1.61-.46,1.312,1.312,0,0,0,.07.51,2.259,2.259,0,0,1,.47,1.41,0.1,0.1,0,0,0,.15.09,0.418,0.418,0,0,0,.29-0.43c-0.08-.34-0.15-0.67-0.25-1a0.722,0.722,0,0,0-.2-0.29A1.092,1.092,0,0,0,1050.32,4749.45Zm0.66,3.15c-0.03-.14-0.07-0.28-0.11-0.42-0.02-.05-0.06-0.07-0.09-0.04a0.22,0.22,0,0,0-.02.14,0.348,0.348,0,0,0,.23.31,0.767,0.767,0,0,0,.3.38,0.236,0.236,0,0,0,.3-0.03c0.09-.17-0.08-0.17-0.16-0.2C1051.28,4752.68,1051.13,4752.65,1050.98,4752.6Zm-34.64,54.32a1.489,1.489,0,0,0,.19-0.75,0.151,0.151,0,0,0-.12-0.15,0.146,0.146,0,0,0-.14.12,0.784,0.784,0,0,0-.02.14C1016.28,4806.47,1016.3,4806.65,1016.34,4806.92Zm84.14-63.65a0.287,0.287,0,0,0-.06-0.11,4.047,4.047,0,0,0-.34-0.23,0.1,0.1,0,0,0-.16.04,0.209,0.209,0,0,0,.02.13,0.449,0.449,0,0,0,.41.29A0.123,0.123,0,0,0,1100.48,4743.27Zm-17.81,97.28a1.091,1.091,0,0,0-.94.1c-0.26.15-.32,0.12-0.5-0.16a0.633,0.633,0,0,0-.47-0.36,1.294,1.294,0,0,1-.38-0.12,0.7,0.7,0,0,0-.53-0.02,3.519,3.519,0,0,1-.58.15,0.271,0.271,0,0,1-.3-0.1,0.657,0.657,0,0,0-.66-0.27,1.1,1.1,0,0,1-.26-0.02,0.429,0.429,0,0,1-.36-0.3,4.558,4.558,0,0,1-.22-0.78,1.944,1.944,0,0,0-.49-1.12,2.187,2.187,0,0,1-.17-2.05,0.4,0.4,0,0,1,.6-0.24,2.376,2.376,0,0,0,.38.11c0.38,0.07.52,0.21,0.7-.4a0.983,0.983,0,0,1,.85-0.74,1.008,1.008,0,0,0,.77-0.52,4.945,4.945,0,0,0,.35-0.45,1.645,1.645,0,0,1,1.08-.81,0.645,0.645,0,0,0,.33-0.22,6.028,6.028,0,0,0,.66-0.93,1.719,1.719,0,0,1,.31-0.39,0.375,0.375,0,0,1,.5-0.07,0.7,0.7,0,0,1,.26.22,2.733,2.733,0,0,0,1.21,1.03,0.392,0.392,0,0,1,.1.08,0.17,0.17,0,0,1-.01.26,1.309,1.309,0,0,0-.62.63,0.452,0.452,0,0,1-.24.12,0.269,0.269,0,0,0-.21.32,3.006,3.006,0,0,0-.22.52,1.618,1.618,0,0,0,.25.53,0.475,0.475,0,0,1,.09.19,1.6,1.6,0,0,0,.64,1.09,0.352,0.352,0,0,1,.1.19,0.288,0.288,0,0,1-.05.2,0.229,0.229,0,0,1-.17.08,0.786,0.786,0,0,0-.79.84,1.75,1.75,0,0,1-.69,1.23,0.447,0.447,0,0,0-.16.52,0.585,0.585,0,0,1,.04.36A3.586,3.586,0,0,0,1082.67,4840.55Zm-8.57-1.33a0.79,0.79,0,0,0-.4-0.44,0.183,0.183,0,0,1-.03-0.21,0.372,0.372,0,0,1,.63-0.05,3.176,3.176,0,0,0,.47.82c0.13,0.14.07,0.31-.14,0.37a0.417,0.417,0,0,0-.31.35,5.325,5.325,0,0,0-.11,1.26c0,1.03-.02.88-0.87,0.92a0.527,0.527,0,0,1-.48-0.19,12.042,12.042,0,0,0-1.3-1.18,0.948,0.948,0,0,1-.2-0.2,10.573,10.573,0,0,0-.98-1.23,1.882,1.882,0,0,1-.37-0.7,4.133,4.133,0,0,0-.89-1.65,2.421,2.421,0,0,1-.59-1.06,1.656,1.656,0,0,0-.8-1.06,0.777,0.777,0,0,1-.32-0.37,3.276,3.276,0,0,0-.92-1.07,5,5,0,0,1-.78-0.81,0.97,0.97,0,0,1-.21-0.46c-0.02-.19.13-0.4,0.27-0.32a4.131,4.131,0,0,0,1.5.33,0.676,0.676,0,0,1,.48.38,3.1,3.1,0,0,0,1.17,1.21,1.421,1.421,0,0,1,.44.44,1.97,1.97,0,0,0,1.1.8,0.461,0.461,0,0,1,.42.3,0.331,0.331,0,0,0,.21.15,1.636,1.636,0,0,1,.81.79,0.279,0.279,0,0,0,.2.18,0.441,0.441,0,0,1,.3.57,0.185,0.185,0,0,0-.02.07,0.524,0.524,0,0,0,.37.79,0.491,0.491,0,0,1,.33.34c0.02,0.05.04,0.1,0.06,0.14A1.073,1.073,0,0,0,1074.1,4839.22Zm-6.26-128.63a0.634,0.634,0,0,0,.17-0.41,0.373,0.373,0,0,1,.61-0.19,1.435,1.435,0,0,1,.31.38,3.023,3.023,0,0,1,.43,1.54,0.576,0.576,0,0,1-.05.29,3.051,3.051,0,0,0-.2,1.24,0.471,0.471,0,0,1-.36.6c-0.08.01-.09,0.12-0.06,0.19,0.04,0.09.1,0.16,0.14,0.25a2.668,2.668,0,0,1,.2.46,1.072,1.072,0,0,1-1.1,1.47,1.1,1.1,0,0,1-.51-0.17c-0.43-.37-0.92-0.61-1.37-0.94a0.713,0.713,0,0,1-.21-0.17,0.23,0.23,0,0,0-.4-0.06,0.226,0.226,0,0,1-.35-0.07,2.263,2.263,0,0,1-.57-1.39,0.565,0.565,0,0,0-.55-0.7,2.061,2.061,0,0,1-.26-0.03,0.283,0.283,0,0,1-.12-0.38c0.36-.31.5-0.81,0.86-1.12a0.367,0.367,0,0,0,.14-0.39,0.852,0.852,0,0,1,.31-0.85,1.375,1.375,0,0,1,1.2-.52,1.14,1.14,0,0,0,.71-0.19,0.6,0.6,0,0,1,.95.51C1067.8,4710.13,1067.8,4710.32,1067.84,4710.59Zm28.86,128.52a0.856,0.856,0,0,0-.5.05,0.839,0.839,0,0,1-.88-0.42,0.48,0.48,0,0,0-.44-0.28,0.548,0.548,0,0,1-.41-0.22,0.241,0.241,0,0,1,.06-0.37c0.33-.16.66-0.31,0.99-0.46a0.684,0.684,0,0,1,.46-0.07,3.772,3.772,0,0,1,1.05.46,0.6,0.6,0,0,1,.24.51c0,0.15-.03.3-0.03,0.45a0.453,0.453,0,0,0,.14.4,2.941,2.941,0,0,1,.54.67,0.3,0.3,0,0,0,.52.02,2.924,2.924,0,0,0,.32-0.38,1.207,1.207,0,0,1,.64-0.52,0.545,0.545,0,0,0,.31-0.27,0.643,0.643,0,0,1,1-.19c0.15,0.1.34,0.14,0.49,0.25a2.074,2.074,0,0,0,1.14.38,0.961,0.961,0,0,1,.26.08,0.373,0.373,0,0,1,.27.38c0.01,0.1.03,0.2,0.03,0.3,0.03,1.39.05,2.79,0.08,4.18,0.01,0.31.04,0.6,0.05,0.9a0.244,0.244,0,0,1-.11.25,0.193,0.193,0,0,1-.25-0.06,6.156,6.156,0,0,1-.45-0.44,0.546,0.546,0,0,0-.6-0.2c-0.29.07-.57,0.12-0.86,0.17a1.216,1.216,0,0,1-.33,0,0.241,0.241,0,0,1-.18-0.33,0.947,0.947,0,0,1,.45-0.62,0.35,0.35,0,0,0,.16-0.43,1.825,1.825,0,0,0-1.27-1.73c-0.5-.14-0.96-0.38-1.48-0.5a3.813,3.813,0,0,1-1.01-.54,0.292,0.292,0,0,0-.42.05,0.617,0.617,0,0,1-.22.15,0.22,0.22,0,0,1-.3-0.11,1.814,1.814,0,0,0-.57-0.9,0.152,0.152,0,0,1,.05-0.24c0.3-.08.6-0.15,0.91-0.23A0.137,0.137,0,0,0,1096.7,4839.11Zm4.94-107.13a0.613,0.613,0,0,1-.06.04c-0.13.21-.13,0.61-0.45,0.57a0.985,0.985,0,0,1-.95-0.58,1.457,1.457,0,0,0-.49-0.69,1.123,1.123,0,0,1-.41-0.75,0.257,0.257,0,0,1,.05-0.27,0.536,0.536,0,0,0,.12-0.61,1,1,0,0,1,.13-0.91,0.439,0.439,0,0,0,.06-0.41,0.305,0.305,0,0,1,.11-0.39,3.2,3.2,0,0,0,.73-0.64,0.733,0.733,0,0,1,.23-0.16,0.207,0.207,0,0,1,.3.08,6.429,6.429,0,0,0,1.14,1.35,0.828,0.828,0,0,1,.13.41,0.105,0.105,0,0,0,.15.09,0.214,0.214,0,0,0,.13-0.15c0-.22-0.02-0.45-0.02-0.67a0.593,0.593,0,0,1,.55-0.77,0.27,0.27,0,0,1,.3.09c0.13,0.16.27,0.32,0.41,0.49a0.568,0.568,0,0,0,.65.26,0.653,0.653,0,0,1,.83.28,4.75,4.75,0,0,0,.62.56,2.13,2.13,0,0,1,.31.29,0.192,0.192,0,0,1-.01.31,0.663,0.663,0,0,0-.37.72,0.967,0.967,0,0,1-.39.75,0.586,0.586,0,0,1-.63.11c-0.19-.07-0.23.04-0.2,0.23a0.217,0.217,0,0,1-.19.26,1.171,1.171,0,0,0-.58.1,0.262,0.262,0,0,1-.31-0.11,0.524,0.524,0,0,0-.74-0.05c-0.16.07-.3,0.2-0.47,0.29C1102,4732.28,1101.97,4732.27,1101.64,4731.98Zm2.01-3.63a0.064,0.064,0,0,0-.06.09,0.514,0.514,0,0,0,.24.4,0.063,0.063,0,0,0,.06,0,0.066,0.066,0,0,0,.04-0.05A0.614,0.614,0,0,0,1103.65,4728.35Zm0.08,1.76a1.032,1.032,0,0,0,.12.65,0.048,0.048,0,0,0,.06.02,0.07,0.07,0,0,0,.05-0.04A0.93,0.93,0,0,0,1103.73,4730.11Zm-6.15,73.94c0.01-.03.02-0.04,0.03-0.07a0.27,0.27,0,0,0,.05-0.27,0.165,0.165,0,0,0-.22-0.08c-0.28.08-.56,0.14-0.84,0.24a2.022,2.022,0,0,0-.97.43,0.379,0.379,0,0,1-.31.08c-0.22-.01-0.44-0.01-0.67-0.01a0.236,0.236,0,0,0-.05-0.05,0.371,0.371,0,0,1,.11-0.47,5.224,5.224,0,0,0,1.21-1.05,0.752,0.752,0,0,1,.6-0.27,3.427,3.427,0,0,0,1.06-.13,1.067,1.067,0,0,1,.66.03c0.29,0.09.43,0,.51-0.32a1.473,1.473,0,0,1,.34-0.71,1.71,1.71,0,0,0,.26-0.6,0.805,0.805,0,0,1,.16-0.32,0.233,0.233,0,0,1,.18-0.06,0.116,0.116,0,0,1,.06.17,0.578,0.578,0,0,1-.05.14,0.281,0.281,0,0,0-.01.28c0.11,0.13.21,0.01,0.31-.03a3.829,3.829,0,0,0,1.07-.98,4.743,4.743,0,0,0,.84-1.68,0.89,0.89,0,0,0,.05-0.51,2.326,2.326,0,0,1,.18-1.43c0.07-.23.14-0.24,0.42-0.17,0.18,0.04.18,0.04,0.17-.21a0.218,0.218,0,0,1,.04-0.21,0.21,0.21,0,0,1,.25-0.01,0.371,0.371,0,0,1,.2.36,2.607,2.607,0,0,0,.27.99,3.447,3.447,0,0,1,.14.42,1.217,1.217,0,0,1-.07,1.07,2.811,2.811,0,0,1-.57,1.01,0.387,0.387,0,0,0-.11.4,2.1,2.1,0,0,1-.2,1.44,0.915,0.915,0,0,0-.05.59,1.046,1.046,0,0,1-.25.89c-0.18.25-.26,0.26-0.57,0.13-0.24-.12-0.26-0.11-0.42.16-0.06.1-.13,0.31-0.2,0.23-0.28-.28-0.44.03-0.65,0.1a1.45,1.45,0,0,1-.8,0c-0.1-.02-0.21-0.15-0.3-0.03a0.8,0.8,0,0,0-.02.28,0.386,0.386,0,0,1-.1.19,2.009,2.009,0,0,0-.45.55,0.393,0.393,0,0,1-.72-0.03,1.264,1.264,0,0,1-.13-0.26,0.328,0.328,0,0,0-.44-0.22h0Zm-31.94-101.09a0.53,0.53,0,0,1,.44.3,4.2,4.2,0,0,1,.46,1.16,1.912,1.912,0,0,0,.69,1.07,1.826,1.826,0,0,1,.16.13,1.917,1.917,0,0,1,.18.22,0.5,0.5,0,0,1-.16.75,1.081,1.081,0,0,1-.18.11,0.462,0.462,0,0,0-.25.48,4.167,4.167,0,0,0,.08.59c0.03,0.17.09,0.33,0.12,0.5a0.592,0.592,0,0,1-.49.8,0.585,0.585,0,0,1-.13.02,2.215,2.215,0,0,0-1.43.54c-0.21.15-.42,0.29-0.62,0.45a0.474,0.474,0,0,1-.63-0.01c-0.28-.2-0.56-0.41-0.82-0.62a0.74,0.74,0,0,1-.23-0.27,1,1,0,0,0-.33-0.45,0.36,0.36,0,0,1-.11-0.51,1.248,1.248,0,0,1,.64-0.74,1,1,0,0,0,.53-1.02,0.354,0.354,0,0,0-.08-0.26,0.707,0.707,0,0,1-.12-0.93,1.342,1.342,0,0,1,.99-1.01,1.623,1.623,0,0,0,.72-0.38,0.562,0.562,0,0,0,.26-0.62A0.276,0.276,0,0,1,1065.64,4702.96Zm6.07,11.74a0.2,0.2,0,0,0,.11-0.04,0.653,0.653,0,0,1,.22-0.34,1.081,1.081,0,0,1,.45.1,0.259,0.259,0,0,1,.14.15c0.04,0.41.43,0.6,0.49,1.01a0.682,0.682,0,0,0,.34.44,0.974,0.974,0,0,1,.36.84,2.239,2.239,0,0,1-.22,1.3,0.746,0.746,0,0,1-.34.34c-0.51.16-1.02,0.34-1.53,0.5a0.5,0.5,0,0,1-.27,0,2.986,2.986,0,0,0-.79.01,0.617,0.617,0,0,0-.57.32,3.036,3.036,0,0,1-.74.65c-0.23.19-.47,0.07-0.56-0.24a1.067,1.067,0,0,1,.05-0.73c0.33-.75.46-1.56,0.72-2.32,0.17-.49.3-0.97,0.43-1.46a10.663,10.663,0,0,1,.6-1.5c0.05-.11.13-0.11,0.21-0.03s0.13,0.15.18-.02a0.108,0.108,0,0,1,.01-0.06c0.1-.36.2-0.47,0.37-0.43a0.7,0.7,0,0,1,.5.63c-0.02.15-.06,0.3-0.08,0.44S1071.74,4714.54,1071.71,4714.7Zm16.17,123.43a1.244,1.244,0,0,1-.39.4,1.23,1.23,0,0,0-.47.27,0.922,0.922,0,0,0,.28.49,1.259,1.259,0,0,1,.3.81,0.934,0.934,0,0,0,.39.67,1.1,1.1,0,0,1,.21,1.03,0.313,0.313,0,0,1-.22.26,0.242,0.242,0,0,1-.29-0.12,0.494,0.494,0,0,1-.15-0.24,0.363,0.363,0,0,0-.4-0.31,0.291,0.291,0,0,1-.28-0.27,1.758,1.758,0,0,0-.31-0.73,1.394,1.394,0,0,1-.14-0.64,0.162,0.162,0,0,0-.13-0.16,0.2,0.2,0,0,0-.22.12,0.736,0.736,0,0,0-.04.44,9.148,9.148,0,0,1-.02,1.57,0.384,0.384,0,0,1-.43.43,0.415,0.415,0,0,1-.42-0.53c0.02-.25.06-0.5,0.07-0.74a0.8,0.8,0,0,0-.27-0.72,0.614,0.614,0,0,1-.16-0.85,6.671,6.671,0,0,0,.32-1.05,11.159,11.159,0,0,0,.43-1.63,0.4,0.4,0,0,1,.12-0.26,1.479,1.479,0,0,1,1.21-.49,8,8,0,0,0,1.45.25,1.011,1.011,0,0,0,.97-0.39,1.367,1.367,0,0,1,.33-0.25,0.173,0.173,0,0,1,.18.03,0.293,0.293,0,0,1,.08.19,1.333,1.333,0,0,1-.96,1.03,1.348,1.348,0,0,1-.53-0.01,6.537,6.537,0,0,0-2.07-.04,0.654,0.654,0,0,0-.48.92,1.131,1.131,0,0,0,.48.51,0.2,0.2,0,0,0,.25-0.03,4.089,4.089,0,0,1,1.56-.57,0.165,0.165,0,0,1,.07,0,0.2,0.2,0,0,1,.19.18,0.234,0.234,0,0,1-.08.18,3.182,3.182,0,0,1-.37.18C1087.92,4838.08,1087.9,4838.11,1087.88,4838.13Zm18.41-45.8a0.273,0.273,0,0,1,.06.12,0.781,0.781,0,0,0,.28.84,0.167,0.167,0,0,1,0,.25,1.015,1.015,0,0,1-.73.35,1.064,1.064,0,0,0-1.05.87,0.926,0.926,0,0,1-.08.2,0.2,0.2,0,0,1-.25.07c-0.24-.13-0.47-0.26-0.71-0.4a0.786,0.786,0,0,0-.71-0.1c-0.04.02-.09,0.02-0.13,0.04-0.16.07-.39-0.17-0.46,0.11-0.06.2,0.18,0.25,0.27,0.37a0.2,0.2,0,0,1-.04.31c-0.11.09-.23,0.16-0.34,0.24-0.22.15-.33,0.09-0.38-0.17a0.772,0.772,0,0,1-.02-0.15,3.675,3.675,0,0,1-.11-0.81c0.08-.34.38-0.55,0.46-0.9a0.191,0.191,0,0,1,.23-0.11c0.36,0.1.49-.11,0.53-0.47a1.425,1.425,0,0,1,.11-0.35,2.682,2.682,0,0,0,.12-1.32,1.514,1.514,0,0,1-.02-0.3,0.253,0.253,0,0,1,.4-0.22,1.19,1.19,0,0,1,.2.19c0.09,0.11.16,0.24,0.24,0.36a2.834,2.834,0,0,0,1.27,1.06,0.515,0.515,0,0,0,.67-0.04A0.154,0.154,0,0,1,1106.29,4792.33Zm-32.49,50.81c0.18-.25.29-0.43,0.42-0.6a0.407,0.407,0,0,1,.35-0.19,2.274,2.274,0,0,1,1.79.6,0.811,0.811,0,0,0,.56.22c0.2,0,.4.01,0.6,0.01a0.475,0.475,0,0,0,.38-0.12,0.463,0.463,0,0,1,.66-0.12,4.444,4.444,0,0,0,.52.15,1.818,1.818,0,0,0,.92.11,0.859,0.859,0,0,1,.59.05,0.152,0.152,0,0,1,.07.12,0.2,0.2,0,0,1-.06.12,1.149,1.149,0,0,1-.57.17,0.133,0.133,0,0,0-.06.1,0.144,0.144,0,0,0,.07.11,0.286,0.286,0,0,0,.19.06,5.76,5.76,0,0,1,1.62.41,0.25,0.25,0,0,1,.19.27,0.323,0.323,0,0,1-.14.25,0.183,0.183,0,0,1-.24.02,0.472,0.472,0,0,0-.51-0.04,0.762,0.762,0,0,1-.59-0.06,2.36,2.36,0,0,0-.79-0.11,13.22,13.22,0,0,1-1.4-.12,1.583,1.583,0,0,1-.74-0.32,1.087,1.087,0,0,0-.96-0.2,1.642,1.642,0,0,1-.93-0.07,3.9,3.9,0,0,0-.59-0.14,0.613,0.613,0,0,1-.43-0.17A1.833,1.833,0,0,0,1073.8,4843.14Zm12.64-18.54a5.3,5.3,0,0,1-.93-2.03,0.334,0.334,0,0,1,.11-0.39,0.478,0.478,0,0,0,.25-0.48c0.02-.28.04-0.55,0.05-0.82,0.02-.15.01-0.3,0.04-0.44a0.478,0.478,0,0,1,.62-0.49,2.444,2.444,0,0,0,.66.09c0.18-.03.25,0.07,0.22,0.26a1.364,1.364,0,0,0,.07.8,1.127,1.127,0,0,1-.15,1.11,1.336,1.336,0,0,1-.2.21,1.074,1.074,0,0,0-.22,1.1c0.06,0.16.1,0.33,0.17,0.48,0.04,0.09.13,0.17,0.22,0.09a0.527,0.527,0,0,1,.78.01,0.944,0.944,0,0,0,.85.11,0.144,0.144,0,0,1,.19.14,0.2,0.2,0,0,1-.13.23,0.611,0.611,0,0,1-.13.03,0.179,0.179,0,0,0-.12.28,1.963,1.963,0,0,1,.18.39c0.04,0.19-.05.28-0.23,0.24l-0.04-.04a0.534,0.534,0,0,0-.19-0.18c-0.21-.04-0.49.04-0.35-0.38-0.13-.13-0.18-0.53-0.47-0.19a0.186,0.186,0,0,1-.17-0.03,0.577,0.577,0,0,0-.83-0.13,0.534,0.534,0,0,1-.26.03h0.01Zm2.47,5.94v-0.22a0.259,0.259,0,0,0-.29-0.25,2.022,2.022,0,0,1-.84.19,0.787,0.787,0,0,0-.32.35,0.119,0.119,0,0,1-.18.01,0.2,0.2,0,0,1-.06-0.12,0.842,0.842,0,0,1,.22-0.69,7.3,7.3,0,0,1,.9-0.64,0.273,0.273,0,0,1,.36.11c0.14,0.18.26,0.11,0.41,0.01a3.436,3.436,0,0,1,.74-0.5,0.48,0.48,0,0,0,.21-0.43,0.151,0.151,0,0,1,.26-0.09,1.194,1.194,0,0,1,.51.91,7.624,7.624,0,0,0,.14.81,1.14,1.14,0,0,1-.06.73,0.627,0.627,0,0,1-.21.28c-0.13.04-.13-0.15-0.19-0.25s-0.12-.18-0.21-0.1a0.37,0.37,0,0,0-.12.25c0.01,0.2.08,0.39,0.1,0.59a0.268,0.268,0,0,1-.34.31c-0.11-.03-0.22-0.08-0.32-0.11A0.928,0.928,0,0,1,1088.91,4830.54Zm20.87-98.03a3.062,3.062,0,0,1-1.36-.59c-0.12-.07-0.21-0.19-0.33-0.26a0.846,0.846,0,0,1-.48-0.66,2.807,2.807,0,0,0-.43-0.93,0.507,0.507,0,0,1-.1-0.34c0.01-.08.1-0.15,0.13-0.1a1.817,1.817,0,0,0,1.37.47,0.422,0.422,0,0,1,.33.21,0.36,0.36,0,0,0,.33.22,2.833,2.833,0,0,1,1.5.59,0.333,0.333,0,0,1,.15.3,1.007,1.007,0,0,1-.85,1.07A0.744,0.744,0,0,1,1109.78,4732.51Zm25.25,9.96a1.439,1.439,0,0,1,1.29.56c0.39,0.42.39,0.76-.17,0.99a1.805,1.805,0,0,1-1.36.21,0.482,0.482,0,0,0-.45.11,0.772,0.772,0,0,1-.43.15,0.533,0.533,0,0,1-.46-0.82A1.711,1.711,0,0,1,1135.03,4742.47Zm-80.55,87.92a1.206,1.206,0,0,1-.94,1.25,0.584,0.584,0,0,1-.64-0.42,3.083,3.083,0,0,1-.13-1.62c0.06-.39.14-0.78,0.21-1.17,0.05-.32.19-0.41,0.37-0.2a4.66,4.66,0,0,1,1.11,1.93C1054.48,4830.26,1054.47,4830.36,1054.48,4830.39Zm47.89-93.47a3.731,3.731,0,0,1-.46.04,0.214,0.214,0,0,1-.15-0.13,0.137,0.137,0,0,1,.05-0.19,1.057,1.057,0,0,0,.64-0.8,0.738,0.738,0,0,1,.47-0.59,0.984,0.984,0,0,1,.9.07,2.265,2.265,0,0,1,.98,1.62c0.03,0.35-.12.54-0.42,0.49a7.246,7.246,0,0,1-1.43-.4A0.9,0.9,0,0,0,1102.37,4736.92Zm-7.72,67.45a0.584,0.584,0,0,0,.2.19,0.811,0.811,0,0,1,.52.62,0.864,0.864,0,0,1-.04.72c-0.08.23-.17,0.46-0.23,0.7a1.984,1.984,0,0,1-.39.68,0.411,0.411,0,0,1-.69-0.24,1.9,1.9,0,0,1,.03-0.67c0.12-.46.12-0.47-0.28-0.67a0.475,0.475,0,0,1-.24-0.41,0.364,0.364,0,0,1,.1-0.34,2.125,2.125,0,0,1,.97-0.63A0.236,0.236,0,0,1,1094.65,4804.37Zm-32-92.36a1.209,1.209,0,0,1-.18-0.05,0.213,0.213,0,0,1-.16-0.21,0.171,0.171,0,0,1,.14-0.13c0.26-.12.28-0.18,0.1-0.31a1.779,1.779,0,0,1-.42-0.65,0.725,0.725,0,0,1-.06-0.5,0.286,0.286,0,0,1,.3-0.31,0.62,0.62,0,0,1,.27.02,9.214,9.214,0,0,1,1.17.51,0.5,0.5,0,0,1,.17.79A1.424,1.424,0,0,1,1062.65,4712.01Zm24.48,101.91a8.622,8.622,0,0,1-.37,1.55c-0.1.3-.23,0.58-0.35,0.88-0.08.17-.19,0.17-0.31,0.02a1.626,1.626,0,0,1-.21-1.96c0.13-.2.24-0.42,0.36-0.62a0.978,0.978,0,0,1,.35-0.35C1086.87,4813.28,1087.14,4813.46,1087.13,4813.92Zm1.81,14.38c-0.28-.21-0.45,0-0.63.27-0.14.21-.27,0.19-0.44,0.02a0.568,0.568,0,0,1-.09-0.79c0.09-.14.01-0.23-0.12-0.28a1.18,1.18,0,0,0-.2-0.04,0.257,0.257,0,0,1-.24-0.29c0-.25-0.01-0.5,0-0.75,0-.18.11-0.26,0.27-0.18a1.111,1.111,0,0,1,.78.63,0.281,0.281,0,0,0,.38.21c0.08-.04.13-0.16,0.23-0.11a0.259,0.259,0,0,1,.1.32,0.451,0.451,0,0,0,.22.49,0.236,0.236,0,0,1,.1.31A0.3,0.3,0,0,1,1088.94,4828.3Zm-12.6-8.9a0.542,0.542,0,0,1,.15-0.4,1.469,1.469,0,0,1,1.51-.57,0.34,0.34,0,0,1,.22.51,8.282,8.282,0,0,1-.45.83,0.759,0.759,0,0,1-1.05.34A0.636,0.636,0,0,1,1076.34,4819.4Zm14.95,25.2a0.471,0.471,0,0,1,.15.13,0.145,0.145,0,0,1-.05.19,2.16,2.16,0,0,1-.76.44,2.027,2.027,0,0,0-1.01.68,1.187,1.187,0,0,1-.71.4,0.268,0.268,0,0,1-.31-0.29,0.6,0.6,0,0,1,.22-0.58,6,6,0,0,1,1.28-.76C1090.49,4844.71,1090.89,4844.67,1091.29,4844.6Zm6.29-40.55a0.643,0.643,0,0,1,0,.63,0.524,0.524,0,0,1-.56.3,0.458,0.458,0,0,0-.5.27,2.128,2.128,0,0,1-.16.25,0.222,0.222,0,0,1-.35.03,1.638,1.638,0,0,1-.3-0.57,0.256,0.256,0,0,1,.02-0.21,0.813,0.813,0,0,1,.55-0.49,0.849,0.849,0,0,0,.5-0.18,0.609,0.609,0,0,1,.8-0.03h0Zm-18.14-70.87a3.3,3.3,0,0,1,.47.08,0.469,0.469,0,0,1,.31.57,0.972,0.972,0,0,1-.38.67,0.481,0.481,0,0,1-.57.02,3.593,3.593,0,0,1-.51-0.46,0.21,0.21,0,0,1-.01-0.27,1.49,1.49,0,0,0,.31-0.46A0.277,0.277,0,0,1,1079.44,4733.18Zm12.49,104.31a6.475,6.475,0,0,0-.21-1.33,1.189,1.189,0,0,1,.08-0.87,0.276,0.276,0,0,1,.26-0.19c0.12,0.03.09,0.16,0.11,0.25a0.329,0.329,0,0,0,.27.28c0.32,0.1.31,0.12,0.27,0.46a1.446,1.446,0,0,0-.04.29,0.309,0.309,0,0,1-.3.39c-0.22.04-.22,0.23-0.18,0.4,0.03,0.12.08,0.23,0.12,0.35,0.02,0.07.04,0.16-.04,0.18a0.328,0.328,0,0,1-.19-0.04C1092.03,4837.6,1091.97,4837.54,1091.93,4837.49Zm-8.48,7.81a5.114,5.114,0,0,0-.96-0.2,0.231,0.231,0,0,1-.12-0.16,0.362,0.362,0,0,1,.52-0.4,0.421,0.421,0,0,0,.37.09,2.021,2.021,0,0,0,.45-0.07,1.017,1.017,0,0,1,1,.04,0.226,0.226,0,0,1,.12.16,0.236,0.236,0,0,1-.08.18C1084.33,4845.07,1083.89,4845.18,1083.45,4845.3Zm9.5-5.71a2.63,2.63,0,0,1,1.09.17,0.54,0.54,0,0,1,.38.38,0.376,0.376,0,0,1-.01.21,0.125,0.125,0,0,1-.17.07,0.771,0.771,0,0,1-.19-0.08,1.739,1.739,0,0,0-1.54-.06c-0.15.05-.26,0.11-0.35-0.06a0.406,0.406,0,0,1,.17-0.56,0.771,0.771,0,0,1,.26-0.07C1092.72,4839.58,1092.85,4839.59,1092.95,4839.59Zm-31.35-136.32a1.058,1.058,0,0,1,.63.16,0.5,0.5,0,0,1,.19.51,0.484,0.484,0,0,1-.36.39,1.3,1.3,0,0,1-.77-0.16,0.409,0.409,0,0,1-.22-0.35,0.444,0.444,0,0,1,.2-0.43A1.7,1.7,0,0,1,1061.6,4703.27Zm23.73,123.81a0.693,0.693,0,0,1-.15.61,9.373,9.373,0,0,0-.87,1.02,2.872,2.872,0,0,1-.69.57,0.126,0.126,0,0,1-.18-0.03,0.289,0.289,0,0,1-.02-0.2,0.787,0.787,0,0,1,.2-0.29,6.623,6.623,0,0,0,.97-1.01,1.509,1.509,0,0,0,.41-0.66c0.03-.11.08-0.27,0.23-0.19A0.25,0.25,0,0,1,1085.33,4827.08Zm-70.78-23.48a1.446,1.446,0,0,1-.21-0.08,0.308,0.308,0,0,1-.06-0.53,1.41,1.41,0,0,1,.48-0.26,5.1,5.1,0,0,0,.96-0.3,0.123,0.123,0,0,1,.12.01,0.159,0.159,0,0,1,.03.13A1.488,1.488,0,0,1,1014.55,4803.6Zm110.3-56.09c-0.06-.06-0.11-0.12-0.17-0.19a0.456,0.456,0,0,1,.11-0.53,0.438,0.438,0,0,1,.56-0.02c0.13,0.1.26,0.18,0.38,0.28a0.559,0.559,0,0,1,.17.54,0.362,0.362,0,0,1-.49.32A2.2,2.2,0,0,1,1124.85,4747.51Zm-79.42-10.81a0.316,0.316,0,0,1,.34.18c0.09,0.19.18,0.39,0.26,0.59a0.232,0.232,0,0,1-.09.26,1.6,1.6,0,0,1-.81.3,0.182,0.182,0,0,1-.15-0.1,1.419,1.419,0,0,1,.16-1.07A0.315,0.315,0,0,1,1045.43,4736.7Zm41.12,108.44c-0.27-.06-0.57-0.12-0.87-0.19a0.2,0.2,0,0,1-.05-0.26,0.574,0.574,0,0,1,.53-0.24,2.376,2.376,0,0,1,.38.11,1.32,1.32,0,0,0,1.39-.12,0.105,0.105,0,0,1,.12.03,0.346,0.346,0,0,1,.02.2,0.55,0.55,0,0,1-.43.3C1087.29,4845.04,1086.93,4845.09,1086.55,4845.14Zm3.08-18.49a0.686,0.686,0,0,0-.19-0.46,1.6,1.6,0,0,1-.22-0.28,0.258,0.258,0,0,1,.12-0.36,0.564,0.564,0,0,1,.79.52c0.04,0.22.06,0.44,0.08,0.66,0.02,0.16-.06.22-0.26,0.19a0.349,0.349,0,0,1-.13-0.05Zm12.37-92.03c0.02-.12.04-0.27,0.07-0.41a0.333,0.333,0,0,1,.37-0.24,0.338,0.338,0,0,1,.29.27,0.852,0.852,0,0,1-.26.92,0.246,0.246,0,0,1-.42-0.15C1102.03,4734.89,1102.02,4734.77,1102,4734.62Zm-16.71,110.83a1.05,1.05,0,0,1,.9.47,0.257,0.257,0,0,1,.04.28,0.222,0.222,0,0,1-.28.13,1.73,1.73,0,0,1-.31-0.14c-0.19-.09-0.36-0.19-0.55-0.28a0.239,0.239,0,0,1-.15-0.22,0.235,0.235,0,0,1,.18-0.2C1085.18,4845.47,1085.25,4845.46,1085.29,4845.45Zm1.14-20.85a0.962,0.962,0,0,1,.45.92,0.321,0.321,0,0,1-.17.29,0.227,0.227,0,0,1-.28-0.13c-0.14-.25-0.25-0.51-0.37-0.78-0.08-.16-0.03-0.23.18-0.29a1.275,1.275,0,0,1,.2-0.01h-0.01Zm34.71-53.39a0.182,0.182,0,0,1-.05-0.11,4.046,4.046,0,0,1,.18-0.62,0.7,0.7,0,0,1,.6-0.39,0.2,0.2,0,0,1,.18.25,0.473,0.473,0,0,1-.1.25c-0.25.22-.5,0.42-0.74,0.62A0.165,0.165,0,0,1,1121.14,4771.21Zm-55.34-46.73c-0.06-.02-0.14-0.05-0.23-0.08a0.2,0.2,0,0,1-.07-0.3c0.21-.2.43-0.4,0.67-0.59,0.09-.06.17,0.03,0.2,0.13A0.7,0.7,0,0,1,1065.8,4724.48Zm43.37,66.25a0.236,0.236,0,0,1-.02.13,0.913,0.913,0,0,1-.19.2,5.046,5.046,0,0,0-.91.75,0.2,0.2,0,0,1-.18.04,0.13,0.13,0,0,1-.02-0.19,1.348,1.348,0,0,1,.85-0.86,2.388,2.388,0,0,0,.37-0.15A0.235,0.235,0,0,1,1109.17,4790.73Zm-18.27,49.03a0.556,0.556,0,0,1,.5.18,0.329,0.329,0,0,1-.07.5,0.482,0.482,0,0,1-.62-0.11,0.422,0.422,0,0,1-.13-0.39A0.318,0.318,0,0,1,1090.9,4839.76Zm-38.3-100.98c0.01,0.27-.18.4-0.4,0.27a0.519,0.519,0,0,1,0-.89,0.162,0.162,0,0,1,.23.07A0.878,0.878,0,0,1,1052.6,4738.78Zm45.1,103.62a0.945,0.945,0,0,1-.14.59,0.4,0.4,0,0,1-.29.25c-0.11,0-.17-0.19-0.11-0.45a4.31,4.31,0,0,1,.19-0.61,0.209,0.209,0,0,1,.17-0.09,0.269,0.269,0,0,1,.14.14A0.412,0.412,0,0,1,1097.7,4842.4Zm-8.07-15.75,0.19,0.22c0.01,0.24.03,0.49,0.03,0.73a0.266,0.266,0,0,1-.12.16,0.117,0.117,0,0,1-.17-0.06c-0.12-.28-0.25-0.57-0.36-0.86a0.19,0.19,0,0,1,.06-0.25,0.285,0.285,0,0,1,.18.01A1.8,1.8,0,0,1,1089.63,4826.65Zm8.64-98.02a1.5,1.5,0,0,1,.23,1.5,0.128,0.128,0,0,1-.1.09,0.275,0.275,0,0,1-.16-0.1,0.378,0.378,0,0,1-.04-0.21C1098.22,4729.52,1098.24,4729.12,1098.27,4728.63Zm-43.57,2.07c-0.11-.06-0.17-0.09-0.23-0.12-0.08-.06-0.23-0.03-0.25-0.19a0.482,0.482,0,0,1,.09-0.41c0.11-.11.2-0.31,0.38-0.22a0.4,0.4,0,0,1,.16.45C1054.82,4730.35,1054.76,4730.48,1054.7,4730.7Zm45.4,46.91a0.284,0.284,0,0,1-.28-0.17,0.571,0.571,0,0,1,.33-0.64,0.241,0.241,0,0,1,.27.17A0.542,0.542,0,0,1,1100.1,4777.61Zm15.22,5.92a1.25,1.25,0,0,1-.69.89,0.126,0.126,0,0,1-.12-0.01,0.173,0.173,0,0,1-.05-0.12,1.829,1.829,0,0,1,.73-0.8A0.3,0.3,0,0,1,1115.32,4783.53Zm-40.12-64.52a0.352,0.352,0,0,1,.4.21,0.28,0.28,0,0,1-.02.2,0.3,0.3,0,0,1-.42.1,0.42,0.42,0,0,1-.38-0.26C1074.75,4719.13,1074.95,4719.01,1075.2,4719.01Zm13.54,106.51a2.532,2.532,0,0,0,.18.55,0.182,0.182,0,0,1-.03.14,0.175,0.175,0,0,1-.12.04,4.309,4.309,0,0,1-.47-0.26,0.25,0.25,0,0,1,.08-0.41c0.11-.04.21-0.07,0.32-0.1Zm-25.13-.32c-0.04.21-.08,0.5-0.15,0.78-0.03.12-.02,0.34-0.19,0.29-0.1-.04-0.02-0.22,0-0.34,0.05-.31.09-0.62,0.13-0.93,0.01-.07.06-0.16,0.13-0.14a0.377,0.377,0,0,1,.08.18v0.16Zm2.29-100.01c0.1,0,.22,0,0.32.01a0.114,0.114,0,0,1,.11.15,0.309,0.309,0,0,1-.11.16,0.7,0.7,0,0,1-.45-0.02l-0.46-.06a0.126,0.126,0,0,1-.07-0.1,0.145,0.145,0,0,1,.07-0.1A1.171,1.171,0,0,1,1065.9,4725.19Zm-10.6,9.24a0.623,0.623,0,0,1,.49.1,0.25,0.25,0,0,1,.04.13,0.177,0.177,0,0,1-.07.11,1.545,1.545,0,0,1-.77-0.08,0.125,0.125,0,0,1-.05-0.12,0.188,0.188,0,0,1,.08-0.11C1055.12,4734.44,1055.24,4734.44,1055.3,4734.43Zm23.75-8.69c0.13-.26.24-0.37,0.36-0.31a0.541,0.541,0,0,1,.22.61,0.11,0.11,0,0,1-.17.07c-0.14-.11-0.27-0.24-0.4-0.36Zm-11.35,110.52a0.324,0.324,0,0,1-.09.08,0.191,0.191,0,0,1-.13-0.02,0.563,0.563,0,0,1-.3-0.59,0.108,0.108,0,0,1,.11-0.06,0.638,0.638,0,0,1,.42.52C1067.71,4836.21,1067.7,4836.23,1067.7,4836.26Zm31.17-101.14a0.114,0.114,0,0,1-.03.06,0.194,0.194,0,0,1-.12.03,1.986,1.986,0,0,1-.5-0.84,0.11,0.11,0,0,1,.03-0.06,0.039,0.039,0,0,1,.05-0.02,1.637,1.637,0,0,1,.58.76A0.17,0.17,0,0,1,1098.87,4735.12Zm-49.6,1.72a0.131,0.131,0,0,1-.1-0.16,0.477,0.477,0,0,1,.59-0.34,0.178,0.178,0,0,1,.11.08c0.05,0.08-.01.13-0.07,0.17A1.04,1.04,0,0,1,1049.27,4736.84Zm26.79,102.75a0.222,0.222,0,0,1-.2.25,0.242,0.242,0,0,1-.26-0.26,0.218,0.218,0,0,1,.2-0.24A0.239,0.239,0,0,1,1076.06,4839.59Zm34.45-49.75a0.088,0.088,0,0,1-.01.07,1.14,1.14,0,0,1-.46.51,0.114,0.114,0,0,1-.12-0.03,0.181,0.181,0,0,1-.02-0.13,0.905,0.905,0,0,1,.46-0.5,0.07,0.07,0,0,1,.06-0.01A0.764,0.764,0,0,1,1110.51,4789.84Zm12.63-13.25a0.213,0.213,0,0,1,.12.03,1.457,1.457,0,0,1,.3.64,0.133,0.133,0,0,1-.08.11,0.139,0.139,0,0,1-.11-0.02,0.965,0.965,0,0,1-.3-0.64A0.252,0.252,0,0,1,1123.14,4776.59Zm-32.52,67.7a0.137,0.137,0,0,1-.15-0.11,0.237,0.237,0,0,1,.09-0.17,2.226,2.226,0,0,1,.44-0.13,0.118,0.118,0,0,1,.12.13,0.3,0.3,0,0,1-.08.18A0.708,0.708,0,0,1,1090.62,4844.29Zm-41.91-105.64a0.479,0.479,0,0,1-.39-0.43,0.226,0.226,0,0,1,.16-0.27,0.2,0.2,0,0,1,.24.19c0.01,0.17-.01.34-0.01,0.51h0Zm20.06,99.77a0.365,0.365,0,0,1-.1.13,0.128,0.128,0,0,1-.12,0,1.51,1.51,0,0,1-.22-0.28,0.253,0.253,0,0,1,.07-0.38,0.245,0.245,0,0,1,.24.21C1068.69,4838.21,1068.73,4838.32,1068.77,4838.42Zm-5.68-125.04h-0.14c-0.14-.01-0.26-0.11-0.23-0.19a0.231,0.231,0,0,1,.23-0.14,3.685,3.685,0,0,1,.45.11,0.135,0.135,0,0,1,.05.12,0.159,0.159,0,0,1-.09.09,2.432,2.432,0,0,1-.27,0v0.01Zm44.03,78.69a0.249,0.249,0,0,1,.01.08,1.077,1.077,0,0,1-.51.63,0.039,0.039,0,0,1-.05-0.02,0.054,0.054,0,0,1-.03-0.05,1.169,1.169,0,0,1,.47-0.69A0.8,0.8,0,0,1,1107.12,4792.07Zm-32.74-73.19a0.136,0.136,0,0,1-.11-0.16,0.585,0.585,0,0,1,.28-0.37,0.179,0.179,0,0,1,.17.02,0.148,0.148,0,0,1,.04.19A0.459,0.459,0,0,1,1074.38,4718.88Zm-13.6,4.26a0.248,0.248,0,0,1-.18.27,0.245,0.245,0,0,1-.18-0.27,0.239,0.239,0,0,1,.19-0.26C1060.74,4722.87,1060.77,4723.02,1060.78,4723.14Zm12.28,113.76a0.343,0.343,0,0,1,.06.53,0.13,0.13,0,0,1-.12.01,0.389,0.389,0,0,1-.05-0.5A0.1,0.1,0,0,1,1073.06,4836.9Zm21.86,7.32a0.171,0.171,0,0,1-.13-0.14,0.415,0.415,0,0,1,.18-0.43,0.113,0.113,0,0,1,.17.05,0.449,0.449,0,0,1-.11.46A0.2,0.2,0,0,1,1094.92,4844.22Zm4.17-5.47c-0.12-.01-0.23-0.03-0.33-0.04-0.14-.02-0.26-0.14-0.21-0.2a0.239,0.239,0,0,1,.24-0.04c0.11,0.02.22,0.04,0.32,0.06a0.249,0.249,0,0,1,.15.1C1099.26,4838.77,1099.15,4838.72,1099.09,4838.75Zm-31.75-113.29a0.326,0.326,0,0,1-.11.12,0.115,0.115,0,0,1-.09-0.06,5.594,5.594,0,0,1-.12-0.56,0.132,0.132,0,0,1,.09-0.07,0.1,0.1,0,0,1,.11.03C1067.27,4725.11,1067.3,4725.29,1067.34,4725.46Zm8.25-2.72a0.228,0.228,0,0,1-.2.25,0.153,0.153,0,0,1-.17-0.17,0.189,0.189,0,0,1,.18-0.24A0.17,0.17,0,0,1,1075.59,4722.74Zm63.62,58.32a0.287,0.287,0,0,1,.11.06,0.264,0.264,0,0,1-.08.33,0.2,0.2,0,0,1-.24.06,0.147,0.147,0,0,1-.05-0.06A0.424,0.424,0,0,1,1139.21,4781.06Zm-84.02-53.15a0.508,0.508,0,0,1,.34.17,0.063,0.063,0,0,1,0,.06,0.071,0.071,0,0,1-.03.06,0.679,0.679,0,0,1-.5-0.09,0.1,0.1,0,0,1-.03-0.1,0.135,0.135,0,0,1,.09-0.09A0.57,0.57,0,0,1,1055.19,4727.91Zm37.1,84.05a0.388,0.388,0,0,1-.27.36,0.122,0.122,0,0,1-.1-0.06,0.381,0.381,0,0,1,.23-0.38,0.136,0.136,0,0,1,.12.02A0.085,0.085,0,0,1,1092.29,4811.96Zm-1.68,26.8c-0.02.1-.04,0.2-0.16,0.18a0.7,0.7,0,0,1-.17-0.09,0.284,0.284,0,0,1-.09-0.1,0.124,0.124,0,0,1,.12-0.13C1090.51,4838.56,1090.6,4838.61,1090.61,4838.76Zm8.2-.79a0.311,0.311,0,0,1-.04.06,0.3,0.3,0,0,1-.36-0.24,0.132,0.132,0,0,1,.07-0.09,0.283,0.283,0,0,1,.32.2A0.082,0.082,0,0,1,1098.81,4837.97Zm-4.51-.88a0.327,0.327,0,0,1,.29.11,0.191,0.191,0,0,1,.02.13,0.2,0.2,0,0,1-.1.08,0.287,0.287,0,0,1-.28-0.11,0.152,0.152,0,0,1-.03-0.13A0.272,0.272,0,0,1,1094.3,4837.09Zm41.78-55.35a0.388,0.388,0,0,1,.17.06,0.262,0.262,0,0,1,.18.26,0.125,0.125,0,0,1-.1.06,0.288,0.288,0,0,1-.32-0.26A0.219,0.219,0,0,1,1136.08,4781.74Zm-45.14,23.43a0.141,0.141,0,0,1-.12-0.16,0.21,0.21,0,0,1,.26-0.16,0.119,0.119,0,0,1,.11.15A0.225,0.225,0,0,1,1090.94,4805.17Zm37.92-24.85a0.332,0.332,0,0,1-.04.13,0.292,0.292,0,0,1-.4-0.12,0.082,0.082,0,0,1,0-.07,0.363,0.363,0,0,1,.17-0.07A0.225,0.225,0,0,1,1128.86,4780.32Zm-59.43,59.1a0.415,0.415,0,0,1,.23.38,0.238,0.238,0,0,1-.06.11,0.047,0.047,0,0,1-.06-0.01,4.05,4.05,0,0,1-.21-0.35,0.238,0.238,0,0,1,.04-0.12A0.108,0.108,0,0,1,1069.43,4839.42Zm-19.44-101.97a0.161,0.161,0,0,1,.18.15c0.01,0.13-.09.14-0.18,0.13a0.174,0.174,0,0,1-.17-0.19A0.143,0.143,0,0,1,1049.99,4737.45Zm6.38-2.66a0.451,0.451,0,0,1,.11.03,0.13,0.13,0,0,1,.08.17,0.185,0.185,0,0,1-.12.07,0.234,0.234,0,0,1-.12-0.02,0.167,0.167,0,0,1-.08-0.11A0.123,0.123,0,0,1,1056.37,4734.79Zm19.59,98.49a0.176,0.176,0,0,1,.16.18,0.145,0.145,0,0,1-.14.18,0.184,0.184,0,0,1-.13-0.21A0.143,0.143,0,0,1,1075.96,4833.28Zm16.61,1.43a0.165,0.165,0,0,1-.05.32,0.11,0.11,0,0,1-.11-0.14A0.163,0.163,0,0,1,1092.57,4834.71Zm-4.63,3.35c0.11,0.02.21,0.03,0.32,0.06a0.159,0.159,0,0,1,.13.2c-0.04.11-.14,0.08-0.22,0.08a0.351,0.351,0,0,1-.29-0.27C1087.9,4838.11,1087.92,4838.08,1087.94,4838.06Zm4.23,0.34a0.13,0.13,0,0,1-.12.16,0.2,0.2,0,0,1-.26-0.15,0.114,0.114,0,0,1,.11-0.14A0.221,0.221,0,0,1,1092.17,4838.4Zm-2.64.12c0.07,0.02.12,0.03,0.16,0.04a0.176,0.176,0,0,1,.04.05,0.214,0.214,0,0,1-.04.12,0.288,0.288,0,0,1-.35.04,0.051,0.051,0,0,1-.04-0.05,0.134,0.134,0,0,1,.03-0.12A1.379,1.379,0,0,1,1089.53,4838.52Zm4.55,0.2a0.169,0.169,0,0,1-.16.18,0.174,0.174,0,0,1-.22-0.18,0.193,0.193,0,0,1,.19-0.15A0.181,0.181,0,0,1,1094.08,4838.72Zm-33.87-115.12a0.171,0.171,0,0,1-.07.18,0.107,0.107,0,0,1-.14-0.11,0.15,0.15,0,0,1,.08-0.18C1060.16,4723.45,1060.19,4723.51,1060.21,4723.6Zm77.04,58.12a0.187,0.187,0,0,1,.11.21,0.127,0.127,0,0,1-.14.13c-0.12,0-.14-0.1-0.13-0.21A0.147,0.147,0,0,1,1137.25,4781.72Zm-47.58,62.85a0.148,0.148,0,0,1-.21.09,0.1,0.1,0,0,1-.06-0.16,0.226,0.226,0,0,1,.16-0.08A0.115,0.115,0,0,1,1089.67,4844.57Zm2.26-7.08c0.04,0.05.1,0.11,0.15,0.17a0.247,0.247,0,0,1-.29.06,0.187,0.187,0,0,1-.09-0.28C1091.77,4837.36,1091.85,4837.45,1091.93,4837.49Zm-25.62-2.83a0.657,0.657,0,0,1-.12.06,0.2,0.2,0,0,1-.19-0.23,0.125,0.125,0,0,1,.1-0.06A0.327,0.327,0,0,1,1066.31,4834.66Zm-13.88-101.52a0.13,0.13,0,0,1-.1-0.16,0.1,0.1,0,0,1,.15-0.08,0.178,0.178,0,0,1,.08.11A0.116,0.116,0,0,1,1052.43,4733.14Zm34.27,98.53a0.115,0.115,0,0,1-.16.06,0.1,0.1,0,0,1-.04-0.17,0.288,0.288,0,0,1,.16,0A0.318,0.318,0,0,1,1086.7,4831.67Zm12.8-54.74a0.121,0.121,0,0,1,.07.17,0.192,0.192,0,0,1-.23.09,0.082,0.082,0,0,1-.05-0.12A0.236,0.236,0,0,1,1099.5,4776.93Zm12.44,11.69a0.2,0.2,0,0,1-.12.21,0.106,0.106,0,1,1-.07-0.2,0.39,0.39,0,0,1,.16-0.07A0.3,0.3,0,0,1,1111.94,4788.62Zm-23.29,56.01a0.146,0.146,0,0,1-.15.12,0.111,0.111,0,0,1-.08-0.16,0.125,0.125,0,0,1,.17-0.07A0.227,0.227,0,0,1,1088.65,4844.63Zm12.08-45.05a0.179,0.179,0,0,1,.06.18c-0.02.08-.07,0.14-0.14,0.11a0.137,0.137,0,0,1-.06-0.18A0.132,0.132,0,0,1,1100.73,4799.58Zm-11.48-64.4a0.242,0.242,0,0,1,.09.08,0.093,0.093,0,0,1-.11.12,0.122,0.122,0,0,1-.06-0.11A0.217,0.217,0,0,1,1089.25,4735.18Zm29.45,9.34a0.125,0.125,0,0,1-.07-0.17,0.1,0.1,0,0,1,.09-0.06,0.111,0.111,0,0,1,.08.16A0.431,0.431,0,0,1,1118.7,4744.52Zm-30.34,102.21a0.186,0.186,0,0,1-.23.18,0.071,0.071,0,0,1-.02-0.12,0.481,0.481,0,0,1,.16-0.12C1088.31,4846.64,1088.35,4846.67,1088.36,4846.73Zm45.43-64.22a0.253,0.253,0,0,1-.21-0.15,0.1,0.1,0,0,1-.01-0.07,0.211,0.211,0,0,1,.11-0.04,0.673,0.673,0,0,1,.15.14A0.078,0.078,0,0,1,1133.79,4782.51Zm-58.94-60.24a0.14,0.14,0,0,1-.14.13,0.1,0.1,0,0,1-.07-0.16,0.121,0.121,0,0,1,.16-0.09A0.334,0.334,0,0,1,1074.85,4722.27Zm-1.81,113.68a0.11,0.11,0,0,1,.12.12,0.122,0.122,0,0,1-.08.09,0.1,0.1,0,0,1-.11-0.12A0.15,0.15,0,0,1,1073.04,4835.95Zm14.25-4.8a0.314,0.314,0,0,1-.08-0.1c0.01-.09.07-0.12,0.13-0.08a0.143,0.143,0,0,1,.05.11A0.255,0.255,0,0,1,1087.29,4831.15Z" transform="translate(-1009.03 -4702.97)"/>
</svg>
