<svg xmlns="http://www.w3.org/2000/svg" width="165.781" height="139.88" viewBox="0 0 165.781 139.88">
  <metadata><?xpacket begin="﻿" id="W5M0MpCehiHzreSzNTczkc9d"?>
<x:xmpmeta xmlns:x="adobe:ns:meta/" x:xmptk="Adobe XMP Core 5.6-c142 79.160924, 2017/07/13-01:06:39        ">
   <rdf:RDF xmlns:rdf="http://www.w3.org/1999/02/22-rdf-syntax-ns#">
      <rdf:Description rdf:about=""/>
   </rdf:RDF>
</x:xmpmeta>
                                                                                                    
                                                                                                    
                                                                                                    
                                                                                                    
                                                                                                    
                                                                                                    
                                                                                                    
                                                                                                    
                                                                                                    
                                                                                                    
                                                                                                    
                                                                                                    
                                                                                                    
                                                                                                    
                                                                                                    
                                                                                                    
                                                                                                    
                                                                                                    
                                                                                                    
                                                                                                    
                           
<?xpacket end="w"?></metadata>
<defs>
    <style>
      .cls-1 {
        fill: #ef5b5b;
        fill-rule: evenodd;
      }
    </style>
  </defs>
  <path class="cls-1" d="M428.073,5016.85c-0.2-1.66-.179-1.88.658-3.04a6.873,6.873,0,0,0,.89-1.69,3.1,3.1,0,0,1,2.643-1.81,6.568,6.568,0,0,1,1.083.03,1.706,1.706,0,0,0,1.027-.35,0.645,0.645,0,0,0,.059-1.02c-0.289-.23-0.618-0.41-0.907-0.65a0.418,0.418,0,0,1-.046-0.36,0.423,0.423,0,0,1,.238-0.25,2.133,2.133,0,0,1,1.711.51,14.268,14.268,0,0,0,3.934,1.42,3.155,3.155,0,0,0,1.968.11,0.917,0.917,0,0,1,1.026.19c0.308,0.34.518,0.14,0.778-.06a0.7,0.7,0,0,1,.98.22,0.968,0.968,0,0,1,.235,1.09,3.439,3.439,0,0,1-1.037,1.85,1.234,1.234,0,0,0-.6.95,8.521,8.521,0,0,1-.6,2.32,1,1,0,0,0,.266,1.09,7.9,7.9,0,0,1,1.326,1.37,1.043,1.043,0,0,0,.586.44,6.911,6.911,0,0,1,2.861,1.69,2.08,2.08,0,0,0,.624.39,4.564,4.564,0,0,1,2.412,1.69,1.912,1.912,0,0,0,1.627.76,1.487,1.487,0,0,0,1.567-1.08,32.365,32.365,0,0,0,1.374-5.01,3.918,3.918,0,0,0-.046-1.4,8.092,8.092,0,0,1,.042-3.2,1.924,1.924,0,0,0,.069-0.6c-0.248-2.05.885-3.57,1.6-5.25a1.3,1.3,0,0,1,.217-0.32,0.569,0.569,0,0,1,.646-0.22,0.606,0.606,0,0,1,.354.41c0.079,1.74.967,3.16,1.458,4.74,0.235,0.76.369,1.56,0.541,2.34,0.208,0.94.278,1.01,1.2,1.17a3.019,3.019,0,0,1,2.4,2.38c0.136,0.66.234,1.32,0.331,1.98a4.449,4.449,0,0,0,.719,2.04,5.1,5.1,0,0,1,.8,2.64,4.111,4.111,0,0,0,2.454,3.86,20.006,20.006,0,0,1,2.963,1.92,1.206,1.206,0,0,1,.492.57c0.416,1.62,1.757,2.77,1.786,4.57a0.471,0.471,0,0,0,.649.48,1.845,1.845,0,0,1,1.209.28,1.052,1.052,0,0,1,.8.98,4.437,4.437,0,0,0,2.111,3.74,11.583,11.583,0,0,1,1.835,2.21,0.572,0.572,0,0,0,.937.05,0.355,0.355,0,0,1,.614.3,5.119,5.119,0,0,1-.075.99,15.88,15.88,0,0,0-.155,3.83,1.44,1.44,0,0,0,.108.78c1.069,1.28.346,2.94,0.789,4.35a1.837,1.837,0,0,1-.1.98c-0.449,1.41-.383,2.94-0.937,4.31a1.26,1.26,0,0,0-.1.6c0.235,1.8-.667,3.24-1.271,4.76a3.153,3.153,0,0,1-.788,1.08,6.667,6.667,0,0,0-1.59,2.67c-0.285.74-.555,1.49-0.793,2.25a11.894,11.894,0,0,1-1.342,3.29,3.735,3.735,0,0,0-.5,1.71c-0.125,1.14-.3,2.27-0.4,3.4a1.779,1.779,0,0,1-1.181,1.62,3.413,3.413,0,0,1-1.6.33,3.353,3.353,0,0,0-2.66,1.05c-0.753.67-1.5,1.36-2.2,2.1a0.648,0.648,0,0,1-.954.16,5.941,5.941,0,0,1-1.332-1.04,2.2,2.2,0,0,0-1.439-.69,1.559,1.559,0,0,0-1.821.48,1.814,1.814,0,0,1-2.78.22,4.113,4.113,0,0,0-1.86-.76,11.019,11.019,0,0,1-2.578-.95,4.024,4.024,0,0,1-2.5-3.82,6.288,6.288,0,0,0-.673-2.48c-0.452-.92-0.944-1.51-1.993-1.14-0.413.15-.673-0.25-0.541-0.75a3.619,3.619,0,0,0,.122-2.35,0.665,0.665,0,0,0-.406-0.31,0.369,0.369,0,0,0-.283.2c-0.12.31-.175,0.64-0.294,0.95a1.472,1.472,0,0,1-1.741,1.07,0.463,0.463,0,0,1-.309-0.61,3.217,3.217,0,0,1,.437-0.62,1.65,1.65,0,0,0,.505-1.05,6.778,6.778,0,0,1,.923-3.02,1.951,1.951,0,0,0,.084-0.78,0.267,0.267,0,0,0-.119-0.14,0.237,0.237,0,0,0-.169,0c-0.649,1.53-2.106,2.18-3,3.43a6.764,6.764,0,0,0-.594,1.01c-0.162.34-.1,0.88-0.584,0.9a1.554,1.554,0,0,1-1.351-1.38,4.11,4.11,0,0,0-.231-1.57,5.5,5.5,0,0,0-1.226-1.98,2.526,2.526,0,0,1-.978-1.4,1.74,1.74,0,0,0-.975-1.13c-0.318-.19-0.657-0.33-0.989-0.5-1.233-.66-2.687-0.68-3.8-1.71a1.807,1.807,0,0,0-1.417-.23c-1.142.12-2.292,0.2-3.43,0.36a3.783,3.783,0,0,0-1.373.49,8.278,8.278,0,0,1-4.363,1.14,3.915,3.915,0,0,0-2.417.69,11.587,11.587,0,0,1-1.474.78,4.013,4.013,0,0,0-2.271,2.17,1.764,1.764,0,0,1-1.777,1.15c-1.272.01-2.538,0-3.812,0.01-0.725,0-1.449.05-2.175,0.06a1.851,1.851,0,0,0-1.6.78,1.73,1.73,0,0,1-.854.72,4.246,4.246,0,0,0-1.854,1.21,2.157,2.157,0,0,1-2.186.66,13.509,13.509,0,0,0-1.437-.21c-1.557-.22-2.565-1.43-3.615-2.53a1.409,1.409,0,0,1,.053-1.68,2.91,2.91,0,0,0,.942-1.88c-0.039-1.46.431-2.95-.24-4.38-0.26-.53-0.425-1.12-0.672-1.66a7.339,7.339,0,0,1-.827-3.47,4.264,4.264,0,0,0-.511-1.9,17.376,17.376,0,0,1-1.4-3.93,3.2,3.2,0,0,0-.767-1.58,9.317,9.317,0,0,1-.584-0.78,1.2,1.2,0,0,1-.007-1.76,1.426,1.426,0,0,0,.213-0.52c0.473-.14.55,0.5,0.909,0.52a0.318,0.318,0,0,0,.269-0.16,1.482,1.482,0,0,0-.111-0.57c-0.376-.91-0.755-1.83-1.156-2.74a2.918,2.918,0,0,1-.03-2.69,4.1,4.1,0,0,0,.39-2.14,4.586,4.586,0,0,1,.155-1.8c0.182-.49.36-1.1,1.025-0.55,0.181,0.15.341,0,.482-0.13,1.21-1.12,2.69-1.79,3.857-2.99a1.909,1.909,0,0,1,1.492-.65c1.521,0.15,2.819-.67,4.179-1.17a15.848,15.848,0,0,1,1.912-.57,18.994,18.994,0,0,0,2.27-.69,3.291,3.291,0,0,0,1.585-1.3c0.567-.78,1.078-1.61,1.617-2.42a1.837,1.837,0,0,0,.182-1.36,2.514,2.514,0,0,1,.836-2.31c0.632-.65.891-0.63,1.421,0.18,0.106,0.15.178,0.35,0.289,0.5a0.315,0.315,0,0,0,.478.11,0.474,0.474,0,0,0,.17-0.33c-0.015-.34-0.1-0.66-0.124-0.99-0.057-.69.138-1.11,0.772-1.01,0.119,0.02.243,0.03,0.36,0.05a0.714,0.714,0,0,0,.828-0.61,6.175,6.175,0,0,1,1.667-2.84,6.953,6.953,0,0,1,3.791-2.45,1.856,1.856,0,0,1,1.794.77c0.246,0.3.463,0.62,0.7,0.93a1.237,1.237,0,0,0,1.262.62A5.154,5.154,0,0,1,428.073,5016.85Zm47.873-11.68c-0.194.26-.365,0.53-0.577,0.77a0.97,0.97,0,0,1-1.171.3,13.943,13.943,0,0,0-4.224-1.06,2.587,2.587,0,0,1-1.574-.9c-0.983-1.18-2.224-2.09-2.983-3.5a1.59,1.59,0,0,0-.666-0.65c-0.832-.41-1.68-0.75-2.528-1.11a1.127,1.127,0,0,0-1.057.04c-0.913.59-1.97,1.01-2.045,2.52a1.427,1.427,0,0,1-1.564,1.33,19.675,19.675,0,0,1-2.168-.19,1.234,1.234,0,0,1-1.145-1.32c-0.076-.8-0.031-1.61-0.1-2.42a29.59,29.59,0,0,1-.058-4.81,15.478,15.478,0,0,0-.136-2.81,24.131,24.131,0,0,1-.089-4.02c0.036-.7.383-0.95,0.984-0.74,0.4,0.14.791,0.31,1.19,0.47,1.422,0.57,2.838,1.15,4.264,1.69a17.821,17.821,0,0,1,3.553,2.38,1.952,1.952,0,0,1,.71.9,4.289,4.289,0,0,0,2.765,2.39c0.4,0.18.825,0.25,1.2,0.44a1.082,1.082,0,0,1,.092,1.98c-0.092.08-.218,0.11-0.31,0.19a0.752,0.752,0,0,0-.2,1.04,1.108,1.108,0,0,0,.224.31,7.751,7.751,0,0,1,2.2,2.88,0.773,0.773,0,0,0,.356.44c0.973,0.27,1.512,1.23,2.314,1.77a1.527,1.527,0,0,1,.6.41c0.47,0.96,1.361,1.01,2.156,1.3Zm48.283,94.35a6.759,6.759,0,0,1-1.722.49,2.606,2.606,0,0,0-1.743,2.12c-0.131,1.09-.633,2.04-0.858,3.08-0.465,2.15-2.03,3.07-3.58,3.99a1.4,1.4,0,0,1-1.065.1,6.18,6.18,0,0,1-1.891-.68,3.862,3.862,0,0,0-2.043-.75,1.8,1.8,0,0,1-.7-0.21,1.073,1.073,0,0,1-.512-1.34c0.548-1.4.884-2.96,2.12-3.91a0.472,0.472,0,0,0,.121-0.14c0.765-1.32,1.633-2.5,3.131-2.82,1.32-1.17,2.66-2.33,3.957-3.53a3.175,3.175,0,0,0,.832-1.76,3.139,3.139,0,0,1,.99-1.88,2.552,2.552,0,0,0,.841-1.5,5.93,5.93,0,0,1,.294-0.95c0.438-1.05.887-1.15,1.623-.37a2.1,2.1,0,0,1,.373.44,0.7,0.7,0,0,0,1.207.27,1.17,1.17,0,0,1,.512-0.19,0.832,0.832,0,0,1,.928.75,4.838,4.838,0,0,1-.727,3.61c-0.6.76-1.042,1.66-1.649,2.4a2.043,2.043,0,0,0-.41,2.37A0.888,0.888,0,0,1,524.229,5099.52Zm-0.138-29.41a9.545,9.545,0,0,0,2.1,1.39,3.488,3.488,0,0,1,1.6,2.34c0.21,0.71.336,1.44,0.518,2.15a2.809,2.809,0,0,0,.336.91,0.748,0.748,0,0,0,.772.41c0.3-.09.111-0.45,0.172-0.69a0.36,0.36,0,0,1,.225-0.26,0.409,0.409,0,0,1,.322.15,1.868,1.868,0,0,1,.383,1.1,2.8,2.8,0,0,0,2.336,2.46,1.216,1.216,0,0,0,1.05-.11,10.408,10.408,0,0,1,.953-0.58,0.915,0.915,0,0,1,1.4.93,3.769,3.769,0,0,1-.531,2.49,3.334,3.334,0,0,0-.407.89,0.647,0.647,0,0,1-.667.5c-1.174.11-1.365,0.31-1.431,1.54a5.043,5.043,0,0,1-.38,1.74,16.9,16.9,0,0,1-2.273,3.87,1.438,1.438,0,0,1-2.337-.37,0.886,0.886,0,0,1-.029-0.57,8.722,8.722,0,0,1,.4-0.9c0.614-1.45.478-2.02-.68-2.87a15.99,15.99,0,0,1-1.343-1.03,1.071,1.071,0,0,1-.042-1.72c1.269-.88,1.263-2.37,1.639-3.68a2.4,2.4,0,0,0-.288-1.74,24.191,24.191,0,0,0-1.807-3.48,16.52,16.52,0,0,1-2.113-4.22A0.566,0.566,0,0,1,524.091,5070.11Zm-53.9,22.2a5.633,5.633,0,0,1-1.622,4.08c-0.42.48-.855,0.95-1.232,1.47a1.247,1.247,0,0,1-.926.85,1.948,1.948,0,0,1-1.77-.83,11.212,11.212,0,0,1-1.642-3.56c-0.2-.92-0.486-1.81-0.727-2.71a5.5,5.5,0,0,1-.21-0.97c-0.1-1.18.422-1.67,1.405-1.31a2,2,0,0,1,.657.33,2.844,2.844,0,0,0,3.26.31c0.4-.15.778-0.37,1.178-0.51a1.006,1.006,0,0,1,1.393.86C470.093,5090.97,470.109,5091.64,470.187,5092.31Zm3.536-96.61a5.624,5.624,0,0,1-3.135-1.32,0.456,0.456,0,0,1-.1-0.55,0.5,0.5,0,0,1,.254-0.25c0.353-.07.712-0.08,1.071-0.12a3.105,3.105,0,0,0,1.242-.19c0.641-.41,1.188-0.91,1.869-0.08a0.641,0.641,0,0,0,.666-0.08c0.7-.6,1.586-1.02,1.844-2.11a1,1,0,0,1,.313-0.47,0.819,0.819,0,0,1,.854-0.16,0.8,0.8,0,0,1,.539.73,3.117,3.117,0,0,1-.72,2.41A5.811,5.811,0,0,1,473.723,4995.7Zm31.031,34.83a1.823,1.823,0,0,1,.509.1,5.082,5.082,0,0,1,1.867,1.55,6.031,6.031,0,0,0,2.174,2.07,1.919,1.919,0,0,1,.31.21c0.79,0.62,1.2,1.34.872,1.52a1.49,1.49,0,0,1-1.5-.4,11.024,11.024,0,0,1-4.138-3.8,1.454,1.454,0,0,1-.307-0.91A0.987,0.987,0,0,1,504.754,5030.53Zm30.268-5.09a6.761,6.761,0,0,1-.9-0.23,0.827,0.827,0,0,1-.568-0.69,0.963,0.963,0,0,1,.313-0.88,2.04,2.04,0,0,1,1.5-.5,1.28,1.28,0,0,1,1.024,1.38,0.709,0.709,0,0,1-.371.63A7.537,7.537,0,0,1,535.022,5025.44Zm-103.767-17.55c0.2-.03.376-0.07,0.56-0.08a0.569,0.569,0,0,1,.59.34,0.811,0.811,0,0,1-.171.91,1.039,1.039,0,0,1-.972.39c-0.473-.07-0.946-0.16-1.416-0.26a0.5,0.5,0,0,1-.366-0.59,0.809,0.809,0,0,1,.39-0.63A3.435,3.435,0,0,1,431.255,5007.89Zm55.057-11.04a0.93,0.93,0,0,1-.5-0.24c-0.525-.79-1.007-1.62-1.475-2.46a0.727,0.727,0,0,1,.149-0.51,0.3,0.3,0,0,1,.33-0.02,6.971,6.971,0,0,1,2.121,2.35A0.655,0.655,0,0,1,486.312,4996.85Zm10.281,5.42c0.4,0.56.779,1.05,1.139,1.56a0.425,0.425,0,0,1-.258.6,3.939,3.939,0,0,1-1.916-.33,0.821,0.821,0,0,1-.493-0.76,0.61,0.61,0,0,1,.433-0.56C495.874,5002.6,496.247,5002.44,496.593,5002.27Zm40.387,19.87a2.373,2.373,0,0,1-.446-0.45,0.535,0.535,0,0,1,.205-0.68,4.39,4.39,0,0,1,1.828-.79,0.514,0.514,0,0,1,.7.4,0.737,0.737,0,0,1-.266.88C538.342,5021.77,537.643,5021.93,536.98,5022.14Zm-91.842,52.56a4.908,4.908,0,0,1-.817-0.18,0.557,0.557,0,0,1-.277-0.45,0.724,0.724,0,0,1,.223-0.48,1.723,1.723,0,0,1,1.155-.43,1.378,1.378,0,0,1,1.346.75c0.167,0.35-.443.74-1.232,0.79h-0.4Zm33.768-86.17a4.162,4.162,0,0,1,1.512,1.09,1.541,1.541,0,0,1,.481,1.25,0.661,0.661,0,0,1-.382.62,0.445,0.445,0,0,1-.6-0.29c-0.229-.54-0.424-1.11-0.661-1.65a9.465,9.465,0,0,0-.459-0.87Zm9.665,10.26a0.51,0.51,0,0,1,.166-0.02,9.624,9.624,0,0,1,2.22,1.31c0.485,0.43.759,1.04,0.518,1.11a1.1,1.1,0,0,1-.923-0.48c-0.66-.46-1.324-0.93-1.97-1.41a0.64,0.64,0,0,1-.106-0.36A0.418,0.418,0,0,1,488.571,4998.79Zm6.713,1.51a0.639,0.639,0,0,1-.281.18,3.755,3.755,0,0,1-1.993-1.29,0.472,0.472,0,0,1-.06-0.37,0.277,0.277,0,0,1,.436-0.15,6.975,6.975,0,0,1,1.829,1.25A0.876,0.876,0,0,1,495.284,5000.3ZM558,5014.52a0.632,0.632,0,0,1-.261.22,3.08,3.08,0,0,1-1.879-.61,0.633,0.633,0,0,1-.229-0.49,0.379,0.379,0,0,1,.569-0.27,17.527,17.527,0,0,1,1.654.82A0.7,0.7,0,0,1,558,5014.52Zm-58.757-11.38a0.908,0.908,0,0,1-.363.22,0.455,0.455,0,0,1-.324-0.13,3.611,3.611,0,0,1-1.012-2.07,0.588,0.588,0,0,1,.159-0.32,0.154,0.154,0,0,1,.171.01A9.428,9.428,0,0,1,499.243,5003.14Zm12.1,14.79a0.572,0.572,0,0,1-.4.59,0.65,0.65,0,0,1-.5-0.06,1.613,1.613,0,0,1-.441-1.42,0.314,0.314,0,0,1,.254-0.19A1.194,1.194,0,0,1,511.34,5017.93Zm-32.54-29.25a6.534,6.534,0,0,1-2.814-1.64,0.377,0.377,0,0,1-.049-0.33,0.3,0.3,0,0,1,.3-0.11,10.607,10.607,0,0,1,2.67,1.94Zm34.765,121.53a1.024,1.024,0,0,1-.975,1.18,0.413,0.413,0,0,1-.221-0.26,1.405,1.405,0,0,1,.41-1.24,0.334,0.334,0,0,1,.481-0.07A2.025,2.025,0,0,1,513.565,5110.21Zm-13.992-104.94a1.215,1.215,0,0,1,1.156.79,0.493,0.493,0,0,1-.024.37,0.367,0.367,0,0,1-.3.18,1.319,1.319,0,0,1-1.1-.9,0.27,0.27,0,0,1,0-.2A1.9,1.9,0,0,1,499.573,5005.27Zm-30.282,81.03a1.591,1.591,0,0,1,.785,1.79,0.27,0.27,0,0,1-.29.11,2.263,2.263,0,0,1-.78-1.7A0.782,0.782,0,0,1,469.291,5086.3Zm20.8-88.85a0.856,0.856,0,0,1-.252.35,1.525,1.525,0,0,1-1.532-1.3,0.321,0.321,0,0,1,.232-0.21A3.48,3.48,0,0,1,490.094,4997.45Zm-46.2,16.71a0.679,0.679,0,0,1,.664.75,0.519,0.519,0,0,1-.418.56,0.6,0.6,0,0,1-.642-0.54A0.64,0.64,0,0,1,443.891,5014.16Zm32.079-8.97c-0.307-.57-0.624-1.14-0.915-1.72a0.405,0.405,0,0,1,.156-0.32,0.35,0.35,0,0,1,.33-0.01,2.711,2.711,0,0,1,.834,1.49c0.1,0.27-.218.42-0.429,0.54Zm37.558,12.11a0.837,0.837,0,0,1,.308.22,1.2,1.2,0,0,1,.022.57,2.2,2.2,0,0,1-.323.68,0.785,0.785,0,0,1-.446-0.24,0.584,0.584,0,0,1,.024-0.87C513.245,5017.52,513.4,5017.42,513.528,5017.3Zm34.493,82.41a0.53,0.53,0,0,1-.357.58c-0.293.08-.547-0.31-0.537-0.82a0.406,0.406,0,0,1,.449-0.46C547.958,5099.04,548.014,5099.36,548.021,5099.71Zm-35.644-79.2a0.661,0.661,0,0,1-.228.23,0.734,0.734,0,0,1-.666-0.94,0.315,0.315,0,0,1,.279-0.18A0.874,0.874,0,0,1,512.377,5020.51Zm-51.732,65.79a0.406,0.406,0,0,1-.287.47c-0.3.04-.346-0.28-0.346-0.54s0.049-.56.376-0.53C460.572,5085.73,460.635,5085.95,460.645,5086.3Zm20.046-78.65a1.229,1.229,0,0,1,.965.7,0.374,0.374,0,0,1-.127.28,0.907,0.907,0,0,1-.949-0.66A0.791,0.791,0,0,1,480.691,5007.65Zm70.145,25.53a0.664,0.664,0,0,1-.162.27,0.493,0.493,0,0,1-.6-0.25,0.261,0.261,0,0,1,.218-0.4A0.523,0.523,0,0,1,550.836,5033.18Zm-100.562-11.67a0.632,0.632,0,0,1-.227-0.25,0.429,0.429,0,0,1,.434-0.5,0.3,0.3,0,0,1,.341.35A0.484,0.484,0,0,1,450.274,5021.51Zm58.5,103.04a0.871,0.871,0,0,1,.238-0.38c0.194-.11.332,0.07,0.32,0.27a0.645,0.645,0,0,1-.2.45C508.951,5124.99,508.816,5124.83,508.77,5124.55Zm-41.644-139.14a0.365,0.365,0,0,1-.465.19,0.28,0.28,0,0,1-.119-0.46,0.386,0.386,0,0,1,.5-0.06A0.224,0.224,0,0,1,467.126,4985.41Zm7.171,1.19a0.319,0.319,0,0,1-.261-0.4,0.271,0.271,0,0,1,.395-0.21,0.4,0.4,0,0,1,.2.28A0.3,0.3,0,0,1,474.3,4986.6Zm61.782,40.52a0.548,0.548,0,0,1,.152.25,0.364,0.364,0,0,1-.515.28,0.161,0.161,0,0,1-.1-0.14A0.386,0.386,0,0,1,536.079,5027.12Z" transform="translate(-392.219 -4985.03)"/>
</svg>
