<svg xmlns="http://www.w3.org/2000/svg" width="117.969" height="156.84" viewBox="0 0 117.969 156.84">
  <metadata><?xpacket begin="﻿" id="W5M0MpCehiHzreSzNTczkc9d"?>
<x:xmpmeta xmlns:x="adobe:ns:meta/" x:xmptk="Adobe XMP Core 5.6-c142 79.160924, 2017/07/13-01:06:39        ">
   <rdf:RDF xmlns:rdf="http://www.w3.org/1999/02/22-rdf-syntax-ns#">
      <rdf:Description rdf:about=""/>
   </rdf:RDF>
</x:xmpmeta>
                                                                                                    
                                                                                                    
                                                                                                    
                                                                                                    
                                                                                                    
                                                                                                    
                                                                                                    
                                                                                                    
                                                                                                    
                                                                                                    
                                                                                                    
                                                                                                    
                                                                                                    
                                                                                                    
                                                                                                    
                                                                                                    
                                                                                                    
                                                                                                    
                                                                                                    
                                                                                                    
                           
<?xpacket end="w"?></metadata>
<defs>
    <style>
      .cls-1 {
        fill: #ef5b5b;
        fill-rule: evenodd;
      }
    </style>
  </defs>
  <path class="cls-1" d="M459.116,4812.29c0.344-.03.649-0.23,1.006-0.25a0.359,0.359,0,0,1,.413.3,6.752,6.752,0,0,1,.253.82,0.684,0.684,0,0,0,.564.55c0.1,0.04.225,0.07,0.262-.07a0.358,0.358,0,0,0-.117-0.4,1.969,1.969,0,0,0-.248-0.07,0.481,0.481,0,0,1-.3-0.37,1.392,1.392,0,0,0-.237-0.85,0.153,0.153,0,0,1,.085-0.23,0.625,0.625,0,0,0,.551-0.51,0.144,0.144,0,0,1,.171-0.1,1.975,1.975,0,0,0,1.343-1.24,0.233,0.233,0,0,0-.073-0.3,4.237,4.237,0,0,1-.849-1.56,2.651,2.651,0,0,1-.247-1.24,1.772,1.772,0,0,0-.26-0.74c-0.1-.24-0.182-0.49-0.308-0.73a3.522,3.522,0,0,1-.364-1.93c0-.18.031-0.37-0.156-0.43a0.905,0.905,0,0,1-.512-0.87,2.576,2.576,0,0,1-.213.94,0.488,0.488,0,0,1-.494.41,0.716,0.716,0,0,0-.7.49c-0.263.51-.717,0.83-1,1.32a0.788,0.788,0,0,1-.329.27,2.163,2.163,0,0,0-.752.45,0.382,0.382,0,0,1-.439.09,1.248,1.248,0,0,0-.725-0.18,0.265,0.265,0,0,1-.1-0.02c-0.327-.54-0.957-0.65-1.305-1.16a1.023,1.023,0,0,1-.243-0.89c0.063-.23.037-0.52,0.384-0.48a1.324,1.324,0,0,0,.383-0.71c-0.017-.11-0.113-0.2-0.176-0.16-0.247.16-.655-0.02-0.767,0.43a0.12,0.12,0,0,1-.166.09,0.192,0.192,0,0,1-.109-0.19,1.953,1.953,0,0,1,.226-0.98,0.4,0.4,0,0,0,.014-0.55,0.464,0.464,0,0,1,.02-0.58c0.068-.11.145-0.21,0.209-0.31,0-.18-0.151-0.14-0.223-0.21a0.488,0.488,0,0,1-.094-0.73c0.1-.18.146-0.26-0.043-0.41a0.888,0.888,0,0,1-.229-0.99,1.22,1.22,0,0,0,.016-0.83,0.869,0.869,0,0,1,.107-0.77,0.341,0.341,0,0,0-.035-0.45,0.652,0.652,0,0,1,.006-0.9,0.723,0.723,0,0,0,.094-0.2c0.094-.48.093-0.48,0.493-0.54,0.1-.01.2-0.03,0.31-0.05,0.077-.1-0.043-0.17-0.043-0.25-0.018-.37.074-0.45,0.387-0.35s0.317,0.09.312-.27a0.4,0.4,0,0,1,.277-0.42,1.153,1.153,0,0,1,.608-0.07,0.429,0.429,0,0,0,.435-0.05c-0.016-.19-0.152-0.13-0.238-0.15a0.441,0.441,0,0,1-.31-0.47,0.357,0.357,0,0,1,.3-0.41,0.477,0.477,0,0,0,.484-0.4,0.628,0.628,0,0,1,.326-0.27,0.206,0.206,0,0,0,.065-0.32c-0.162-.34-0.143-0.45.062-0.54s0.327,0,.42.33a1.209,1.209,0,0,1,.019.17,0.308,0.308,0,0,0,.278-0.3,0.846,0.846,0,0,0-.165-0.66c-0.172-.16-0.146-0.23.02-0.33a2.284,2.284,0,0,0,.312-0.2c0.116-.08.234-0.13,0.3,0.03a3.823,3.823,0,0,1,.508.46c0.037,0.11.138,0.09,0.225,0.04,0.139-.07.276-0.13,0.457-0.22a0.519,0.519,0,0,1,.128-0.85,0.33,0.33,0,0,0,.1-0.19,4.769,4.769,0,0,1,1.057-1.81c0.1-.16.222-0.11,0.367-0.04,0.276,0.15.364,0.06,0.317-.27a1.455,1.455,0,0,0-.079-0.27,0.5,0.5,0,0,1,.051-0.45c0.37-.37.47-1.12,1.251-0.99-0.4-.34-0.378-0.33-0.231-0.73a4.666,4.666,0,0,1,.554-1.16,0.366,0.366,0,0,0-.016-0.55,0.3,0.3,0,0,1,.059-0.49c0.329-.18.266-0.72,0.655-0.84,0.052-.01.029-0.09,0.024-0.15a1.768,1.768,0,0,1,.46-1.6,0.367,0.367,0,0,0,.147-0.22,0.581,0.581,0,0,1,.413-0.59,0.7,0.7,0,0,0,.421-0.67,2.081,2.081,0,0,1,.383-1.03,0.347,0.347,0,0,1,.552-0.22c0.056,0.03.121,0.11,0.162,0a0.49,0.49,0,1,0-.15-0.45c-0.139.09-.288,0.19-0.411,0a0.688,0.688,0,0,1,.247-0.71,1,1,0,0,0,.887-0.75,0.316,0.316,0,0,1,.1-0.12c0.307-.39.37-0.38,0.571,0.1a0.146,0.146,0,0,0,.155.11,5.21,5.21,0,0,0-.09-0.83,0.4,0.4,0,0,1,.2-0.52c0.213-.15.182-0.29,0.024-0.45l0.266-.3a0.463,0.463,0,0,0,.206-0.42,0.948,0.948,0,0,1,.348-0.79c0.124-.2.323-0.04,0.5-0.09,0.046-.21.1-0.43,0.166-0.77a1.177,1.177,0,0,1-.74.44c-0.211.03-.328-0.08-0.247-0.28a1.508,1.508,0,0,0,.048-0.48,1.116,1.116,0,0,1,.348-0.86,3.169,3.169,0,0,0,.377-0.47,0.323,0.323,0,0,1,.539.04c0.137,0.18.188,0.47,0.507,0.3,0.064-.04.135,0.09,0.178,0.18a0.567,0.567,0,0,0,.323.4,1.2,1.2,0,0,0-.558-0.81c-0.181-.07-0.216-0.17-0.1-0.39a3.971,3.971,0,0,1,.548-0.66,0.821,0.821,0,0,0,.182-0.83c-0.1-.33-0.016-0.41.286-0.39a2.726,2.726,0,0,1,.76.34c0.142,0.06.107,0.21,0.071,0.35-0.112.42-.106,0.42,0.248,0.67a2.436,2.436,0,0,0,.353-0.56,0.253,0.253,0,0,1,.266-0.13,0.257,0.257,0,0,1,.172.25,1.2,1.2,0,0,1,.023.57,1.019,1.019,0,0,0,.013.57,0.758,0.758,0,0,0,.11-0.51,1.913,1.913,0,0,1,.361-0.76c0.066-.08.189-0.2,0.26-0.11,0.224,0.29.218,0.05,0.242-.11a0.307,0.307,0,0,1,.124-0.26,1.666,1.666,0,0,1,.587.59c0.207-.52.209-0.52-0.126-0.83a0.594,0.594,0,0,1-.221-0.49c0-.23,0-0.34.3-0.37,0.355-.02.606-0.03,0.716,0.42,0.078-.14.266-0.12,0.2-0.37-0.1-.39-0.078-0.41.289-0.41,0.236,0,.3-0.1.236-0.32a0.144,0.144,0,0,0-.188-0.13c-0.136.03-.273,0.04-0.408,0.07a0.26,0.26,0,0,1-.326-0.2c-0.188-.43-0.2-0.44.195-0.7a0.906,0.906,0,0,1,.377-0.17c0.5-.1.669,0.04,0.714,0.67a0.507,0.507,0,0,1,.7.35,2.528,2.528,0,0,0-.088-0.72,0.3,0.3,0,0,1,.1-0.35,0.288,0.288,0,0,1,.32.13,3.086,3.086,0,0,1,.239.44c0.261-.15.4-0.31,0.192-0.62a0.269,0.269,0,0,1,.074-0.4,0.936,0.936,0,0,0,.208-0.32,0.408,0.408,0,0,1,.709-0.01c0.145,0.21.269,0.41,0.542,0.2a0.232,0.232,0,0,1,.325.08,0.334,0.334,0,0,1,0,.33,2.991,2.991,0,0,1-.37.62,1.778,1.778,0,0,0-.342,1,1.351,1.351,0,0,1-.226.81,0.215,0.215,0,0,0,0,.29,0.914,0.914,0,0,0,.266-0.47,16.189,16.189,0,0,1,1.341-2.71,0.3,0.3,0,0,1,.327-0.23,0.378,0.378,0,0,1,.217.37,0.69,0.69,0,0,1-.013.38,2.249,2.249,0,0,0-.008,1.14,0.158,0.158,0,0,0,.209-0.1,13.687,13.687,0,0,0,.744-2.2c0.016-.19.087-0.28,0.274-0.2a0.346,0.346,0,0,0,.2.03,0.347,0.347,0,0,1,.474.04,1.114,1.114,0,0,1,.324.5,0.728,0.728,0,0,1-.573.8,0.166,0.166,0,0,0,.084.19,0.4,0.4,0,0,1,.165.64,0.5,0.5,0,0,0-.071.16,0.152,0.152,0,0,0,.143.19,0.128,0.128,0,0,0,.181-0.14,3.735,3.735,0,0,1,.06-0.91,0.6,0.6,0,0,1,.667-0.62,0.36,0.36,0,0,1,.383.3,0.353,0.353,0,0,0,.466.34,0.72,0.72,0,0,1,.674.32c0.248,0.31.6,0.49,0.843,0.81a0.477,0.477,0,0,1-.053.8c-0.058.05-.129,0.07-0.176,0.12a1.624,1.624,0,0,1-2.031.54,1.621,1.621,0,0,0,.779.7,0.493,0.493,0,0,1,.342.44c0.037,0.33.3,0.41,0.514,0.17a0.451,0.451,0,0,1,.377-0.12,1.945,1.945,0,0,1,1.088.55c-0.029-.44.389-0.58,0.364-0.98a0.124,0.124,0,0,1,.193-0.11,1.34,1.34,0,0,1,.334.15,2.389,2.389,0,0,0,.8.5,0.366,0.366,0,0,1,.231.5,0.488,0.488,0,0,1-.477.43,3.033,3.033,0,0,1-.6-0.22,3.049,3.049,0,0,0,1.111.76,0.444,0.444,0,0,1,.305.27,0.231,0.231,0,0,0,.322.2,2.168,2.168,0,0,1,1.5.21,0.99,0.99,0,0,0,.542.05,0.946,0.946,0,0,1,.8.14,4.524,4.524,0,0,1,.839.57,21.905,21.905,0,0,1,1.686,1.61,3.5,3.5,0,0,1,.715.98c0.043,0.12.133,0.28,0.267,0.15,0.188-.21.284-0.04,0.367,0.09a2,2,0,0,0,.495.59c0.162,0.12.3,0.49,0.573,0.12,0.05-.07.165,0.02,0.218,0.1,0.113,0.14.213,0.3,0.318,0.45a1.708,1.708,0,0,0,.746.81,0.76,0.76,0,0,1,.378.64,6.549,6.549,0,0,0,.365,1.61,0.951,0.951,0,0,1-.029.67c-0.592,2-2.273,3.48-4.352,3.11a1.232,1.232,0,0,1-.612-0.28,1.507,1.507,0,0,0-.764-0.34,5.03,5.03,0,0,1-2.2-.89,0.519,0.519,0,0,0-.438-0.13,0.343,0.343,0,0,1-.484-0.27c-0.023-.07-0.079-0.17-0.139-0.15a1.111,1.111,0,0,1-.9-0.26,1.458,1.458,0,0,1-.945-0.91,0.477,0.477,0,0,0-.638-0.36c0.256,0.53.484,1.04,0.743,1.53a1.336,1.336,0,0,0,.625.58,0.465,0.465,0,0,1,.311.19,2.133,2.133,0,0,0,1.047,1,1.763,1.763,0,0,1,.537,1.08,1.717,1.717,0,0,1-.294,1.55,0.343,0.343,0,0,0-.053.46c0.206,0.37.217,0.8,0.394,1.19a2.288,2.288,0,0,1,.065.85,1.1,1.1,0,0,0,.208.63,0.426,0.426,0,0,0,.534.23,0.41,0.41,0,0,1,.5.19,1.573,1.573,0,0,1,.131.18,2.874,2.874,0,0,0,1.56,1.15,0.728,0.728,0,0,0,.908-0.84c-0.013-.09-0.036-0.19-0.053-0.28-0.1-.47-0.1-0.49-0.5-0.36a0.408,0.408,0,0,1-.538-0.19c-0.234-.36-0.472-0.7-0.681-1.08a0.476,0.476,0,0,1,.082-0.7,0.828,0.828,0,0,0,.237-0.5,0.287,0.287,0,0,1,.439-0.23,1.549,1.549,0,0,1,.705.47,2.308,2.308,0,0,0,1.179.73,1.944,1.944,0,0,1,.622.29,0.978,0.978,0,0,0,1.032.31c0.243-.09.517,0.19,0.865,0.14a5.716,5.716,0,0,0-.661-1.62,2.992,2.992,0,0,1-.486-1.38,0.6,0.6,0,0,1,.3-0.66,1.565,1.565,0,0,0,.655-0.72,0.55,0.55,0,0,1,.384-0.36,2.44,2.44,0,0,0,1.5-1.39c0.048-.07.078-0.17,0.126-0.25,0.177-.27.27-0.31,0.5-0.1a1.083,1.083,0,0,0,.612.27,0.927,0.927,0,0,1,.807.63c0.1,0.32.52,0.28,0.5,0.71a0.416,0.416,0,0,0,.123-0.48,1.4,1.4,0,0,1,.127-1.11,3.57,3.57,0,0,0,.246-1.56,0.551,0.551,0,0,0-.377-0.62,0.652,0.652,0,0,1-.43-0.8,3.167,3.167,0,0,1,.117-0.68,9.656,9.656,0,0,0,.279-2.44,0.957,0.957,0,0,0-.339-0.84,3.907,3.907,0,0,1-.707-0.76,0.209,0.209,0,0,1-.016-0.26,0.16,0.16,0,0,1,.195-0.03,0.7,0.7,0,0,1,.14.06,2.547,2.547,0,0,0,1.789.4,2.072,2.072,0,0,1,.815.13,0.809,0.809,0,0,1,.561.61,0.805,0.805,0,0,0,.46.64,0.357,0.357,0,0,1,.174.33c0.032,0.19.055,0.38,0.092,0.57,0.117,0.58.117,0.58-.377,0.71a1.491,1.491,0,0,1-.359.07,1.4,1.4,0,0,0-1.086.94,0.478,0.478,0,0,0,.074.58,4.4,4.4,0,0,1,.922,1.44,0.324,0.324,0,0,0,.5.22,0.2,0.2,0,0,1,.289.02c0.092,0.12.172,0.04,0.276,0.03a1.089,1.089,0,0,0,1.079-1.37,1.646,1.646,0,0,1,.081-0.39,1.115,1.115,0,0,1,.968-1.19,0.274,0.274,0,0,0,.252-0.25,0.7,0.7,0,0,1,.425-0.51,10.924,10.924,0,0,0,1.944-1.52,0.717,0.717,0,0,1,.113-0.12c0.525-.27,1.049-0.55,1.581-0.82a0.371,0.371,0,0,1,.507.25c0.043,0.09.1,0.18,0.2,0.09a0.25,0.25,0,0,0,.065-0.26c-0.038-.16-0.276-0.24-0.147-0.45a3.276,3.276,0,0,1,.384-0.46c0.194-.19.306-0.13,0.313,0.16a0.349,0.349,0,0,0,.073.13c0.14,0,.146-0.1.15-0.2a0.961,0.961,0,0,1,.662-0.92c0.371-.16.773-0.08,1.227-0.26a1.042,1.042,0,0,1-.812.54,1.225,1.225,0,0,1,.046.94,3.2,3.2,0,0,0,.088,1.14,0.188,0.188,0,0,0,.224.18,0.467,0.467,0,0,1,.367.18c0.211,0.2.329,0.16,0.347-.17a1.19,1.19,0,0,1,.608-1,7.612,7.612,0,0,0,.851-0.4c0.4,0.18.843-.02,1.243,0.17,0.367,0.17.357,0.16,0.6-.2a3.44,3.44,0,0,1,1.471-1.3c0.435-.18.441-0.18,0.659,0.28a1.891,1.891,0,0,0,.166.29,0.556,0.556,0,0,1,0,.84,0.67,0.67,0,0,0,.1.91,0.307,0.307,0,0,0,.384-0.01,0.535,0.535,0,0,0,.207-0.55,1.461,1.461,0,0,1-.053-0.28,0.368,0.368,0,0,1,.3-0.45,1.126,1.126,0,0,0,.85-1.64,4.3,4.3,0,0,0-.34-0.96,1.984,1.984,0,0,1-.257-1.08,0.715,0.715,0,0,1-.943-0.5c-0.042-.13-0.2-0.18-0.26.04-0.048.18-.172,0.24-0.249,0.07-0.2-.42-0.478-0.78-0.65-1.23a1.647,1.647,0,0,1,.26-1.43c0.107-.21.3-0.23,0.419-0.03,0.432,0.73,1.133,1.18,1.545,1.92,0.114,0.21.251,0.41,0.4,0.66a0.838,0.838,0,0,1,.393-0.29,0.648,0.648,0,0,1,.449.11,1.811,1.811,0,0,0,1.044.28,4.274,4.274,0,0,1,1.862.59,2.391,2.391,0,0,1,1.019.65,1.21,1.21,0,0,1,.3.82,3.725,3.725,0,0,1,0,.41,2.7,2.7,0,0,0,.352,1.71,1.555,1.555,0,0,1,.064,1.42,2.028,2.028,0,0,0-.178.72,0.578,0.578,0,0,0,.626.68c0.491-.04.567,0.04,0.6,0.6,0.014,0.25.025,0.49,0.015,0.75a1.268,1.268,0,0,1-.527,1.06,0.752,0.752,0,0,0-.355.52,1.73,1.73,0,0,1-.726,1.08q-0.4.285-.8,0.54a1.629,1.629,0,0,0-.826,1.18,1.908,1.908,0,0,1-.716,1.22,11.182,11.182,0,0,0-2.161,2.54,1.335,1.335,0,0,1-1.419.83,0.28,0.28,0,0,0-.362.3,12.8,12.8,0,0,1-.64,3.13,2.2,2.2,0,0,0-.011,1.03,1.767,1.767,0,0,1-.121,1.22c-0.1.2-.16,0.43-0.248,0.63a0.364,0.364,0,0,0,.08.46,0.813,0.813,0,0,1,.2.74,3.665,3.665,0,0,1-.081.51,3.113,3.113,0,0,0,.07,1.81,2.62,2.62,0,0,1,.135.96,0.446,0.446,0,0,1-.347.54c-0.2.02-.19,0.21-0.137,0.35a2.6,2.6,0,0,0,.229.46,1.727,1.727,0,0,1,.037,1.97,3.68,3.68,0,0,1-.737,1.02,0.47,0.47,0,0,0-.165.46,0.932,0.932,0,0,1-.013.46,0.436,0.436,0,0,0,.111.46c0.149,0.19.272,0.4,0.433,0.58a2.491,2.491,0,0,1,.56,1.57,1.712,1.712,0,0,1-.377,1.1,7.15,7.15,0,0,1-.709.92,3.29,3.29,0,0,0-.707,1.19c-0.142.44-.272,0.87-0.39,1.31a2.987,2.987,0,0,0-.061,1.14c0.1,0.8.441,1.08,1.14,0.94,0.919-.18,1.127.06,0.986,1.09-0.02.13-.041,0.26-0.064,0.39a1.008,1.008,0,0,1-1.608.8l-0.039-.03c-0.19-.12-0.379-0.35-0.6-0.13a0.635,0.635,0,0,0,0,.7,5.168,5.168,0,0,0,.214.64,1.292,1.292,0,0,0,1.154.72,0.606,0.606,0,0,0,.445-0.27,1.944,1.944,0,0,1,.939-0.57c0.282-.12.445,0.03,0.409,0.36a2.678,2.678,0,0,1-.685,1.81,3.824,3.824,0,0,0-.64,1.04,0.625,0.625,0,0,0-.071.44c0.112,0.55.227,1.09,0.338,1.63a0.34,0.34,0,0,0,.438.34,1.761,1.761,0,0,1,.513-0.01,0.491,0.491,0,0,1,.489.49,1.683,1.683,0,0,0,.976,1.28,1.947,1.947,0,0,0,.89.42,0.419,0.419,0,0,1,.325.55,1.386,1.386,0,0,1-1.263,1.35,0.464,0.464,0,0,1-.4-0.08c-0.253-.26-0.4-0.12-0.58.12a0.452,0.452,0,0,1-.727.12,1.452,1.452,0,0,0-.434-0.17,0.72,0.72,0,0,1-.493-0.47c-0.207-.51-0.451-0.63-0.891-0.35a0.8,0.8,0,0,1-.941.04,0.96,0.96,0,0,0-1.075.36c-0.074.08-.127,0.18-0.2,0.27a0.6,0.6,0,0,1-.8.16,3.062,3.062,0,0,1-.838-0.66,0.636,0.636,0,0,0-.132.49,0.244,0.244,0,0,1-.171.25,0.193,0.193,0,0,1-.225-0.19c-0.117-.78-0.778-1.1-1.135-1.67a0.538,0.538,0,0,0-.531-0.15,0.979,0.979,0,0,1-.944-0.33c-0.146-.21-0.359-0.15-0.547.02-0.421.39-.424,0.38-0.883,0.08a0.453,0.453,0,0,0-.726.12,2.677,2.677,0,0,1-1.13.98,0.534,0.534,0,0,0-.348.37,1.124,1.124,0,0,1-.562.57c-0.362.27-.368,0.28-0.258,0.74,0.029,0.12.063,0.23,0.086,0.34a0.754,0.754,0,0,1-.613.88,0.394,0.394,0,0,1-.38-0.33,2.272,2.272,0,0,0-.446-0.77c-0.213-.23-0.325-0.22-0.379.1a1.877,1.877,0,0,1-.377.85,1.164,1.164,0,0,0-.159,1.13,0.622,0.622,0,0,1-.136.77,1.078,1.078,0,0,0-.247.62,0.412,0.412,0,0,0,.236.55,0.685,0.685,0,0,1,.383.63,0.441,0.441,0,0,0,.509.5c0.141,0,.274,0,0.417.01a0.421,0.421,0,0,1,.333.13,2.289,2.289,0,0,1,.677,1.95,0.4,0.4,0,0,1-.437.38,0.169,0.169,0,0,0-.168.18,0.171,0.171,0,0,0,.128.16,0.485,0.485,0,0,1,.4.46,1.35,1.35,0,0,1-.324.77,0.337,0.337,0,0,1-.594-0.11c-0.042-.08-0.072-0.17-0.113-0.25a0.23,0.23,0,0,0-.117-0.18,7.2,7.2,0,0,1-.907,2.39,4.718,4.718,0,0,0-.2.47,0.422,0.422,0,0,0,.145.62,1.922,1.922,0,0,1,.477.74c0.058,0.13.035,0.36,0.294,0.24,0.094-.04.148,0.15,0.141,0.26a3.061,3.061,0,0,1-.094.56,1.736,1.736,0,0,0,.178,1.27c0.3,0.52.548,1.06,0.826,1.6a0.614,0.614,0,0,1-.17.71c-0.149.19-.308,0.36-0.461,0.54a0.583,0.583,0,0,1-.98-0.1,2.709,2.709,0,0,0-1.121-1.07,1.158,1.158,0,0,1-.8-0.88,0.623,0.623,0,0,0-.487-0.37,1.152,1.152,0,0,0-1.28-.1,0.427,0.427,0,0,1-.61-0.1c-0.024-.03-0.048-0.05-0.076-0.08a2.5,2.5,0,0,0-2.031-.91,3.2,3.2,0,0,1-1.595-.45,0.9,0.9,0,0,0-.945-0.06,0.311,0.311,0,0,1-.381-0.07,2.541,2.541,0,0,1-.567-0.58,2.2,2.2,0,0,0-.828-0.77,3.273,3.273,0,0,1-1.116-.7,0.272,0.272,0,0,0-.189-0.09,0.734,0.734,0,0,1-.629-0.51,0.917,0.917,0,0,0-.18-0.28c-0.18-.13-0.324-0.44-0.6-0.05a0.62,0.62,0,0,1-.734.11,0.748,0.748,0,0,0-.821.22q-0.666.45-1.316,0.93a0.639,0.639,0,0,1-.554.06,0.475,0.475,0,0,1-.365-0.58c0.01-.15.023-0.31,0.023-0.45a0.441,0.441,0,0,0-.227-0.43,3.39,3.39,0,0,0-.741-0.38c-0.266-.05-0.3-0.24-0.079-0.44a2.175,2.175,0,0,1,1.307-.81,0.888,0.888,0,0,0-.973-0.18c-0.514.22-.874-0.25-1.319-0.33a1.346,1.346,0,0,0-.312-0.64,0.226,0.226,0,0,0-.14-0.15,1.288,1.288,0,0,0-.885.4,3.5,3.5,0,0,0-.374.61,1.1,1.1,0,0,1-.587.68,0.685,0.685,0,0,0-.381.69c0.007,0.15,0,.31,0,0.46a0.874,0.874,0,0,1-.478.93,2.8,2.8,0,0,0-.657.64,0.752,0.752,0,0,0-.129.54,4.242,4.242,0,0,1-.063.97,0.651,0.651,0,0,1-.408.55,0.643,0.643,0,0,0-.434.69,0.617,0.617,0,0,1-.2.56,0.4,0.4,0,0,0-.081.55,3.163,3.163,0,0,1,.431,1.21,0.607,0.607,0,0,0,.384.45c0.2,0.1.406,0.19,0.619,0.28a0.308,0.308,0,0,1,.248.32,0.393,0.393,0,0,1-.259.38,0.648,0.648,0,0,1-.455.03,1.5,1.5,0,0,0-1.605.5,12.347,12.347,0,0,0-.987.93c-0.094.12-.244,0.27-0.4,0.12a0.411,0.411,0,0,1-.02-0.48,1.487,1.487,0,0,1,.144-0.26,2.558,2.558,0,0,0-1.342-.7c-0.305-.07-0.416-0.01-0.484.32-0.038.19-.079,0.35-0.279,0.32-0.218-.03-0.205-0.21-0.168-0.39a0.612,0.612,0,0,0-.045-0.15,7.859,7.859,0,0,0-.729.43,1.67,1.67,0,0,1,.574.74,0.834,0.834,0,0,1-.488-0.11,0.607,0.607,0,0,0,.085.34,0.233,0.233,0,0,1-.053.2,1.592,1.592,0,0,0-.578.09,0.454,0.454,0,0,1-.255-0.27,1.56,1.56,0,0,0-.659-0.66,0.548,0.548,0,0,0-.1.58,2.675,2.675,0,0,0,.371.88,2.122,2.122,0,0,1,.448.94,0.926,0.926,0,0,0,.677.65,0.737,0.737,0,0,1,.549.6,1.747,1.747,0,0,0,.654.71,6,6,0,0,0,.5.64,0.136,0.136,0,0,1-.016.2,0.177,0.177,0,0,1-.139.04,0.251,0.251,0,0,1-.141-0.06,6.708,6.708,0,0,0-1.15-.91c-0.007.03-.017,0.08-0.024,0.13-0.024.66-.021,0.66-0.508,0.33a0.57,0.57,0,0,0-.231-0.12,0.241,0.241,0,0,0-.318.1,0.285,0.285,0,0,0,.106.3c0.047,0.05.109,0.1,0.154,0.15a0.26,0.26,0,0,1-.078.42,0.591,0.591,0,0,0-.436.32,1.816,1.816,0,0,0,.107.56,2.951,2.951,0,0,1,0,.97c-0.012.12-.047,0.24-0.184,0.23a0.233,0.233,0,0,1-.2-0.23,0.587,0.587,0,0,0-.194-0.61c-0.105-.02-0.117.1-0.152,0.18-0.047.1-.089,0.22-0.218,0.19a0.3,0.3,0,0,1-.149-0.22,4.179,4.179,0,0,0-.147-0.43,0.136,0.136,0,0,0-.218-0.06c-0.344.18-.532,0.07-0.578-0.32a0.715,0.715,0,0,1,.011-0.28,0.519,0.519,0,0,0-.209-0.59,0.77,0.77,0,0,1-.029-1.25c0.061-.06.181-0.03,0.185-0.22-0.425.11-.6-0.16-0.75-0.54a10.355,10.355,0,0,0-.967-1.76,0.477,0.477,0,0,0,0,.28,0.178,0.178,0,0,1-.225.17,0.65,0.65,0,0,1-.278-0.83c0.083-.12.18-0.23,0.025-0.31a1.377,1.377,0,0,1-.52-1.72,7.1,7.1,0,0,1,.117-1.42,0.227,0.227,0,0,0-.058-0.21,6.468,6.468,0,0,0-1.842-1.74,1.383,1.383,0,0,0-1.224-.3,0.263,0.263,0,0,1-.152.01,0.2,0.2,0,0,1-.221-0.19,0.172,0.172,0,0,1,.183-0.16c0.05-.01.1,0,0.155-0.01,0.12-.02.285-0.05,0.273-0.2a0.248,0.248,0,0,0-.359-0.21,1.207,1.207,0,0,1-1.143-.58c-0.207-.16-0.395-0.41-0.6-0.61a0.813,0.813,0,0,1-.375-0.86,0.228,0.228,0,0,0-.1-0.24,1.169,1.169,0,0,1-.309-0.66,0.292,0.292,0,0,0-.312-0.31c-0.206.03-.12,0.23-0.128,0.36a0.16,0.16,0,0,1-.071.15,0.255,0.255,0,0,1-.215-0.2c-0.052-.08-0.1-0.17-0.2-0.1-0.319.21-.428-0.06-0.548-0.3a1.414,1.414,0,0,1-.131-1.27,0.721,0.721,0,0,0-.679.1,3.915,3.915,0,0,1-.566.27c-0.3.12-.379,0.29-0.207,0.56a0.772,0.772,0,0,1,.06.69,1.258,1.258,0,0,0,.548,1.6,4.066,4.066,0,0,1,.808.61,1.187,1.187,0,0,1,.341.63c0.1,0.32.215,0.64,0.315,0.97a3.562,3.562,0,0,0,1.293,1.53,0.754,0.754,0,0,0,.555.03,3.712,3.712,0,0,0,.463-0.04,0.372,0.372,0,0,1,.345.6c-0.172.3-.083,0.44,0.147,0.51a19.442,19.442,0,0,1,1.926,1.11,2.318,2.318,0,0,1,.89,1.22,0.54,0.54,0,0,1-.1.48,0.194,0.194,0,0,1-.318.06,0.416,0.416,0,0,1-.183-0.19,2.173,2.173,0,0,0-.975-0.8,0.173,0.173,0,0,0-.142-0.06,0.775,0.775,0,0,0-.53.58,0.562,0.562,0,0,0,.03.73,2.809,2.809,0,0,1,.353.34,0.8,0.8,0,0,1-.149,1.2,0.578,0.578,0,0,0-.305.54,0.543,0.543,0,0,1-.2.45,1.381,1.381,0,0,0-.35.49c-0.2.37-.347,0.42-0.668,0.2-0.146-.1-0.217-0.08-0.285.05a1.425,1.425,0,0,0-.228,1.29,0.72,0.72,0,0,1,.036.29c-0.036.59-.368,0.81-0.851,0.55a1.924,1.924,0,0,1-.339-0.26,1.013,1.013,0,0,0-.239-0.22c-0.695-.15-1.155-0.83-1.842-1.01a0.7,0.7,0,0,1-.323-0.91,0.281,0.281,0,0,1,.159-0.21c0.4,0.1.79-.31,1.187-0.01a0.952,0.952,0,0,0,.8.16,15.536,15.536,0,0,0,1.759-.45,0.318,0.318,0,0,0,.255-0.25,0.731,0.731,0,0,1,.342-0.66,0.2,0.2,0,0,0,.041-0.21c-0.094-.61-0.438-1.12-0.554-1.73a0.156,0.156,0,0,0-.119-0.09,0.977,0.977,0,0,1-.88-0.86,0.256,0.256,0,0,0-.236-0.26,1,1,0,0,1-.839-0.64,0.912,0.912,0,0,0-.9-0.53,0.675,0.675,0,0,1-.608-0.23,4.024,4.024,0,0,1-.6-0.65c-0.266-.43-0.715-0.66-0.962-1.11a0.157,0.157,0,0,0-.121-0.1c-0.5.08-.511-0.47-0.749-0.72a1.708,1.708,0,0,1-.536-0.95,7.745,7.745,0,0,0-.348-1.15,0.337,0.337,0,0,0-.064-0.15,4.626,4.626,0,0,0-1.459-.83,0.677,0.677,0,0,0-.714.47,1.184,1.184,0,0,1-.913.67,2.147,2.147,0,0,0-1.079.84,0.936,0.936,0,0,1-1.412.31c-0.587-.32-1.244-0.25-1.833-0.52a0.315,0.315,0,0,0-.335.09c-0.191.13-.381,0.26-0.578,0.38a0.581,0.581,0,0,0-.3.66,3.118,3.118,0,0,0,.172.89,1.268,1.268,0,0,1-.361,1.26,6.869,6.869,0,0,1-2.062,1.29,0.973,0.973,0,0,0-.584.53c-0.346.59-.72,1.17-1.092,1.75a0.988,0.988,0,0,0,.147,1.51,0.366,0.366,0,0,1,.037.55,0.712,0.712,0,0,1-.189.19,2.036,2.036,0,0,0-.8,1.3,0.526,0.526,0,0,1-.467.45,1.074,1.074,0,0,0-.89.84,0.752,0.752,0,0,1-.735.57c-0.572.09-1.134-.02-1.7,0.02a2.053,2.053,0,0,0-1.037.29,3.234,3.234,0,0,0-.97.71,0.653,0.653,0,0,1-1-.21,3.267,3.267,0,0,1-.43-0.85,0.877,0.877,0,0,0-1.221-.68,3.416,3.416,0,0,1-1.577.15c-0.4.01-.519-0.15-0.39-0.56a5.791,5.791,0,0,0,.112-1.55,0.292,0.292,0,0,0-.142-0.32c-0.831-.44-0.831-0.96-0.437-1.77a13.563,13.563,0,0,0,.74-3.1,3.554,3.554,0,0,0-.173-1.24,1.242,1.242,0,0,1-.059-0.51,1.92,1.92,0,0,0-.317-1.45c-0.255-.49-0.178-0.81.294-1a1.411,1.411,0,0,1,.355-0.06,0.414,0.414,0,0,0,.363-0.27,0.737,0.737,0,0,1,1.069-.44,3.212,3.212,0,0,0,1.218.24,0.464,0.464,0,0,0,.205-0.01,2.523,2.523,0,0,1,1.671.1,5.29,5.29,0,0,0,1.588.09,7.6,7.6,0,0,1,1.64.15,3.366,3.366,0,0,0,.777.02,0.5,0.5,0,0,0,.5-0.47c0.081-.49.172-0.98,0.23-1.48,0.071-.67.124-1.34,0.165-2a6.771,6.771,0,0,1,0-1.13,0.486,0.486,0,0,0-.311-0.54,2.312,2.312,0,0,1-.954-1.09,0.322,0.322,0,0,1-.06-0.32c0.124-.3-0.094-0.35-0.229-0.53a6.554,6.554,0,0,0-1.452-.92,0.749,0.749,0,0,0-.74-0.15,0.694,0.694,0,0,1-.679-0.65,0.557,0.557,0,0,0-.125-0.47,0.363,0.363,0,0,1,.086-0.57,1.494,1.494,0,0,1,.81-0.36,1.58,1.58,0,0,0,.583-0.19,0.651,0.651,0,0,1,.863.07,0.764,0.764,0,0,0,.805.22,1.76,1.76,0,0,1,.731-0.07,2.3,2.3,0,0,0-.256-1.34c-0.01-.02-0.019-0.04-0.025-0.05a0.608,0.608,0,0,1,.025-0.74,0.793,0.793,0,0,1,.826.23,1.363,1.363,0,0,0,1.275.52,0.347,0.347,0,0,0,.329-0.31,1,1,0,0,1,.779-0.88,2.408,2.408,0,0,0,.751-0.38,0.615,0.615,0,0,0,.243-0.6,1.142,1.142,0,0,1,0-.33,1.074,1.074,0,0,1,.944-1.23,10.118,10.118,0,0,0,1.467-.83,0.61,0.61,0,0,1,.314-0.26c0.181,0.02.209-.07,0.1-0.23a0.172,0.172,0,0,1,.064-0.24,3.939,3.939,0,0,0,1.075-2.75,0.826,0.826,0,0,1,.408-0.66,0.316,0.316,0,0,1,.015.35,0.609,0.609,0,0,0-.039.27,1.352,1.352,0,0,1,.147,1.21,0.558,0.558,0,0,0,.105.22,2.978,2.978,0,0,1,.195-0.6,0.63,0.63,0,0,0,.013-0.54,0.88,0.88,0,0,1,.744-1.32,3.523,3.523,0,0,1,1.021-.1,0.316,0.316,0,0,0,.294-0.2,0.868,0.868,0,0,1,1.346-.25c0.236,0.17.337,0.09,0.418-.16a0.6,0.6,0,0,1,.148-0.3,0.621,0.621,0,0,0,.154-0.92,0.471,0.471,0,0,1,.034-0.57,0.287,0.287,0,0,0,.016-0.36,2.868,2.868,0,0,1-.274-1.44,0.654,0.654,0,0,0-.425-0.76,0.272,0.272,0,0,1-.2-0.34c0.013-.4-0.068-0.8-0.093-1.2a5.426,5.426,0,0,1,.408-2.12,0.812,0.812,0,0,1,.7-0.53,1.167,1.167,0,0,0,1-.71,1.748,1.748,0,0,1,.822-0.67c0.148-.09.249-0.01,0.224,0.17a2.194,2.194,0,0,0,.058.74,0.824,0.824,0,0,1-.118.6,2.537,2.537,0,0,0-.188,1.12,0.3,0.3,0,0,0,.331.39,0.358,0.358,0,0,1,.458.26,0.623,0.623,0,0,1-.233.65,0.8,0.8,0,0,1-.368.2,0.189,0.189,0,0,0-.13.06,5.266,5.266,0,0,1-.793,1.33c-0.145.32,0,.69-0.132,1.03a0.673,0.673,0,0,1,.213.04c0.388,0.16.431,0.27,0.278,0.72a1.279,1.279,0,0,0,.151.79,3.219,3.219,0,0,0,.889.2c0.268-.09.4,0.18,0.275,0.47a0.737,0.737,0,0,0-.225.42,0.913,0.913,0,0,0,.83-0.28,0.6,0.6,0,0,1,.268-0.17,1.192,1.192,0,0,0,.68-0.49,0.352,0.352,0,0,1,.541-0.14c0.289,0.23.414,0.1,0.5-.23a0.253,0.253,0,0,1,.289-0.26,0.478,0.478,0,0,1,.412.37,0.653,0.653,0,0,1-.442.81,0.667,0.667,0,0,1,.619.53c0.189,0.35.289,0.32,0.607,0.1a3.524,3.524,0,0,1,1.329-.73,2.7,2.7,0,0,0,1.234-.67,3.912,3.912,0,0,1,2.237-.96,0.885,0.885,0,0,1,.812.29c0.113,0.13.209,0.3-.009,0.42a0.221,0.221,0,0,0-.071.33,0.238,0.238,0,0,0,.3.16,1.221,1.221,0,0,0,1.234-1.08,0.417,0.417,0,0,1,.408-0.43,0.777,0.777,0,0,0,.631-0.43,1.93,1.93,0,0,0,.354-1.4c-0.039-.36-0.081-0.73-0.1-1.09a3.5,3.5,0,0,1,.314-1.94,2.914,2.914,0,0,0,.225-0.7,1.573,1.573,0,0,1,1.374-1.36,0.245,0.245,0,0,1,.268.12,10.269,10.269,0,0,1,.85,1.3,0.535,0.535,0,0,0,.625.39,0.667,0.667,0,0,0,.551-0.66,1.95,1.95,0,0,0,.009-0.35,11.051,11.051,0,0,1,.126-1.89,0.326,0.326,0,0,0-.047-0.38,0.48,0.48,0,0,1-.552.07,0.989,0.989,0,0,1-.561-0.89c-0.026-.37-0.05-0.75-0.094-1.13a0.568,0.568,0,0,1,.238-0.65c0.46-.16.822-0.53,1.3-0.69a1.874,1.874,0,0,0,1.274-.41,0.18,0.18,0,0,1,.148-0.03,5.172,5.172,0,0,1,1.292.38,1.686,1.686,0,0,0,.945.2c0.477,0,.477,0,0.56-0.55,0.025-.19.071-0.34,0.294-0.29a1.033,1.033,0,0,0,.871-0.32,0.866,0.866,0,0,1,.984-0.25c0.113,0.03.266,0.07,0.3-.11a0.283,0.283,0,0,0-.224-0.33,0.525,0.525,0,0,0-.3,0,1.052,1.052,0,0,1-.99-0.35,0.731,0.731,0,0,1-.262-1.01,1.265,1.265,0,0,1-.61.35,3.553,3.553,0,0,1-1.217,0,0.4,0.4,0,0,0-.248.05c-0.727.24-1.441,0.52-2.149,0.83-0.66.27-1.338,0.51-2.019,0.75a0.991,0.991,0,0,0-.457.21,0.19,0.19,0,0,1-.281.05c-0.088-.08,0-0.17.014-0.25a0.4,0.4,0,0,0-.094-0.42c-0.115-.1-0.166.08-0.25,0.13a0.341,0.341,0,0,1-.435-0.04c-0.126-.12,0-0.25.038-0.36a0.479,0.479,0,0,0-.1-0.62c-0.344-.15-0.6-0.47-0.939-0.58a0.6,0.6,0,0,1-.373-0.54,7.3,7.3,0,0,1,.16-2.03,3.557,3.557,0,0,0-.189-1.27,1.2,1.2,0,0,1-.111-0.6,2.027,2.027,0,0,0-.116-0.9,1.58,1.58,0,0,1,.263-1.6,1.244,1.244,0,0,0,.483-0.75,0.3,0.3,0,0,1,.372-0.24,0.533,0.533,0,0,0,.514-0.21,5.508,5.508,0,0,0,.692-0.93,10.872,10.872,0,0,1,1.228-1.92,3.639,3.639,0,0,0,.8-1.32,1,1,0,0,1,.722-0.86c0.35-.11.373-0.19,0.309-0.59a1.445,1.445,0,0,1,0-.45,1.311,1.311,0,0,0-.21-0.87,7.7,7.7,0,0,0-.75-0.86,0.438,0.438,0,0,0-.484-0.22,0.424,0.424,0,0,1-.559,0,0.469,0.469,0,0,0-.5.02,0.466,0.466,0,0,1-.57.04,0.386,0.386,0,0,0-.58.25,1.6,1.6,0,0,1-.8,1.04,0.362,0.362,0,0,0-.188.47,1.127,1.127,0,0,1-.247,1.12,0.813,0.813,0,0,0-.031.94,1.777,1.777,0,0,0,.182.28,0.555,0.555,0,0,1-.138.84,1.356,1.356,0,0,0-.347.41,3.34,3.34,0,0,1-1.492,1.82,0.385,0.385,0,0,0-.065.09,5.521,5.521,0,0,0-1.147.86,3.112,3.112,0,0,0-.471.49,2.215,2.215,0,0,1-.891,1.2,0.3,0.3,0,0,0-.076.27,0.678,0.678,0,0,1-.643.71,1.231,1.231,0,0,1,.094,1.08,1.583,1.583,0,0,0-.018.74,0.342,0.342,0,0,1-.177.47,0.289,0.289,0,0,0-.183.36c0.041,0.63.048,1.26,0.15,1.89a0.83,0.83,0,0,0,.651.77,0.45,0.45,0,0,1,.373.34,0.957,0.957,0,0,0,.236.29,5.82,5.82,0,0,1,.709,1.21,0.575,0.575,0,0,1-.053.54,1.693,1.693,0,0,1-.7.89,0.235,0.235,0,0,0,.218.05,0.165,0.165,0,0,1,.149.27,2.275,2.275,0,0,1-.889,1.07,9.111,9.111,0,0,0-.966.61,0.606,0.606,0,0,0-.361.64c0.007,0.68-.131,1.36-0.181,2.04a7.394,7.394,0,0,1-.142,1.12,2.993,2.993,0,0,0-.116,1.1,2.038,2.038,0,0,0,.352-0.81,0.669,0.669,0,0,1,.437-0.59c-0.135.9-.43,1.69-0.623,2.49a0.116,0.116,0,0,1-.022.05c-0.064.11-.1,0.29-0.246,0.26s-0.124-.21-0.116-0.34a0.552,0.552,0,0,0-.021-0.43c-0.076.22-.149,0.41-0.213,0.61-0.17.53-.17,0.54-0.7,0.53-0.2-.01-0.413-0.02-0.62-0.02a0.986,0.986,0,0,0-.92,1.02c0,0.8,0,.8-0.727.83a3.164,3.164,0,0,1-.814.11c-0.223-.05-0.426-0.09-0.334-0.43a0.147,0.147,0,0,0-.069-0.19,0.2,0.2,0,0,0-.235.07,0.241,0.241,0,0,0-.032.31,0.372,0.372,0,0,1,.062.42,2.034,2.034,0,0,0-.443,1.3,0.867,0.867,0,0,1-.1.26c-0.026.07-.075,0.15-0.151,0.12a2.211,2.211,0,0,1-1.109-.34c-0.068-.08-0.162-0.16-0.266-0.04-0.179.18-.253,0.02-0.286-0.13a2.918,2.918,0,0,1,0-.48,1.184,1.184,0,0,1-1.181-1.11C459.146,4812.43,459.131,4812.36,459.116,4812.29Zm37.062,18.73a0.148,0.148,0,0,0-.225-0.08,4.8,4.8,0,0,1-1.053.26,2.143,2.143,0,0,0-.724.26,3.578,3.578,0,0,0-.839.53,1.775,1.775,0,0,0-.922.24,0.988,0.988,0,0,0-.692.45,0.88,0.88,0,0,1-.606.55c-0.065-.01-0.053.06-0.058,0.12a1.251,1.251,0,0,0,.159,1.02,0.359,0.359,0,0,0,.33.22,1.766,1.766,0,0,0,.55-0.08,1.184,1.184,0,0,1,.991-0.07,0.85,0.85,0,0,0,1.1-.29,4.409,4.409,0,0,1,.625-0.91c0.32-.31.307-0.36-0.04-0.63a0.356,0.356,0,0,1-.087-0.06,0.4,0.4,0,0,1-.232-0.41,0.387,0.387,0,0,1,.4-0.29,0.61,0.61,0,0,0,.351-0.06,3.592,3.592,0,0,1,.9-0.64A0.4,0.4,0,0,0,496.178,4831.02Zm-22.747-18.27c-0.1.2-.206,0.39-0.307,0.58a0.164,0.164,0,0,0,.076.23c0.1,0.06.228,0.06,0.25-.07A1.01,1.01,0,0,0,473.431,4812.75Zm-5.463-10.81c0.256,0.14.509,0.3,0.773,0.42,0.1,0.06.263,0.12,0.311-.05s-0.107-.22-0.223-0.24C468.545,4802.05,468.266,4801.97,467.968,4801.94Zm55.316-64.05c0.41-.2.425-0.21,0.3-0.61a0.941,0.941,0,0,1,.133-0.81,0.39,0.39,0,0,1,.571-0.21,1.324,1.324,0,0,0,.544.15,0.529,0.529,0,0,1,.613.54,1.83,1.83,0,0,0,1.369-.61,0.406,0.406,0,0,1,.426-0.15c0.45,0.32.707-.09,1-0.3a1.07,1.07,0,0,1,.678-0.47,0.279,0.279,0,0,0,.2-0.24,0.268,0.268,0,0,1,.314-0.22c0.251,0.04.307-.18,0.266-0.37a1.1,1.1,0,0,1,.571-1.23,1.154,1.154,0,0,0,.489-0.48,0.289,0.289,0,0,1,.255-0.17,0.779,0.779,0,0,0,.426-0.19,1.538,1.538,0,0,1,2.33,1.07c0.043,0.19.092,0.38,0.145,0.55a0.648,0.648,0,0,1-.052.6,0.3,0.3,0,0,0,.008.44,0.278,0.278,0,0,1-.087.4,2.462,2.462,0,0,0-.555.82,0.835,0.835,0,0,0-.131.79,0.432,0.432,0,0,1-.131.06,0.773,0.773,0,0,0-1.055.31,3.089,3.089,0,0,1-2.048,1.07,0.647,0.647,0,0,0-.424.19,8.215,8.215,0,0,1-1.812,1.44,0.325,0.325,0,0,1-.232.12c-0.4-.18-0.512.17-0.714,0.42a2.286,2.286,0,0,1-.88.76,1.843,1.843,0,0,0-.75.76c-0.144.24-.306,0.47-0.45,0.71a1.336,1.336,0,0,1-1.379.63c-0.071.11,0.012,0.17,0.071,0.24a0.4,0.4,0,0,1,0,.6,1.329,1.329,0,0,0-.4.78,0.265,0.265,0,0,1-.194.25c-0.362.08-.4,0.34-0.3,0.72a4.246,4.246,0,0,1-.958-0.49,3.866,3.866,0,0,1-.011.88c-0.185.45-.237,0.5-0.581,0.14a0.735,0.735,0,0,0-.092-0.06,0.252,0.252,0,0,0,.051.29,1.284,1.284,0,0,1-.227,1.55,0.616,0.616,0,0,0-.233.39c-0.01.2-.164,0.23-0.306,0.12a0.948,0.948,0,0,1-.336-0.42,1.045,1.045,0,0,0-.189-0.41,0.461,0.461,0,0,0,.034.62,1.482,1.482,0,0,1,.311,1.05,0.433,0.433,0,0,1-.2.43c-0.2.08-.272-0.11-0.36-0.24a0.16,0.16,0,0,0-.2-0.1,2.757,2.757,0,0,1,.336.81,0.476,0.476,0,0,1-.613.44,1,1,0,0,1-.2,1.23,0.561,0.561,0,0,1-.794.21,0.75,0.75,0,0,1,.22,1.05,1.124,1.124,0,0,0-.095.56,0.52,0.52,0,0,1-.181.46,2.488,2.488,0,0,0-.643,1.35,2.349,2.349,0,0,0-.165,1.57,0.456,0.456,0,0,1,.018.23,4.74,4.74,0,0,0,.061,1.97,2.057,2.057,0,0,0,.286,1.04,2.111,2.111,0,0,1,.284.74,2.551,2.551,0,0,0,.844,1.4,3.4,3.4,0,0,0,.909.76,0.324,0.324,0,0,1,.1.52,6.223,6.223,0,0,1-.526.63,0.177,0.177,0,0,1-.284,0c-0.1-.1-0.2-0.22-0.3-0.32a0.128,0.128,0,0,0-.213,0,0.574,0.574,0,0,1-.861.03c-0.253-.26-0.43-0.27-0.632.04-0.118.19-.264,0.14-0.4,0.02-0.054-.05-0.107-0.11-0.153-0.16a0.773,0.773,0,0,0-.894-0.44,0.668,0.668,0,0,1-.7-0.72,0.717,0.717,0,0,1,.42-0.93,0.138,0.138,0,0,0-.077-0.16,0.971,0.971,0,0,1-.729-0.92c-0.038-.28-0.122-0.41-0.412-0.34-0.364.09-.328-0.27-0.389-0.53a0.7,0.7,0,0,0-.312.34,0.742,0.742,0,0,1-1.074-.34,3.14,3.14,0,0,1-.141-2.13,0.524,0.524,0,0,1,.572-0.47,0.541,0.541,0,0,0,.649-0.59,3.274,3.274,0,0,1,.259-0.87,0.745,0.745,0,0,0-.135-0.87,0.637,0.637,0,0,1,.071-1.08,1.046,1.046,0,0,1,.259-0.19,0.613,0.613,0,0,0,.329-0.64,1.218,1.218,0,0,1,1.317-1.29,3.773,3.773,0,0,1,.2-1.3,1.35,1.35,0,0,1-.793-0.73c-0.1-.2-0.132-0.39.144-0.5,0.37-.15.571-0.6,0.965-0.74a0.457,0.457,0,0,0,.1-0.26,1.092,1.092,0,0,1,.339-0.56,0.384,0.384,0,0,0,.144-0.15,0.479,0.479,0,0,1,.489-0.54,1,1,0,0,0-.035-0.15c-0.089-.14-0.341-0.19-0.246-0.44,0.086-.22.3-0.14,0.466-0.17a0.441,0.441,0,0,0,.269-0.14,0.993,0.993,0,0,1-.471-0.69c-0.033-.23-0.01-0.43.271-0.43a2.7,2.7,0,0,0,.682-0.28c-0.115-.28-0.292-0.17-0.452-0.17-0.288.02-.37-0.13-0.253-0.42,0.048-.12.118-0.23,0.164-0.35,0.054-.16.16-0.37-0.148-0.33a0.176,0.176,0,0,1-.176-0.17,1.313,1.313,0,0,1,.018-0.9,0.332,0.332,0,0,1,.62-0.08c0.071,0.1.084,0.28,0.243,0.24a0.422,0.422,0,0,0,.335-0.24,2.1,2.1,0,0,0,.188-0.4,0.663,0.663,0,0,1,.757-0.53c0.518,0.05.69-.13,0.737-0.72a1.077,1.077,0,0,1,.617-1.09,0.3,0.3,0,0,0,.227-0.27,1.547,1.547,0,0,1,1.028-1.18,1.216,1.216,0,0,0,.838-0.85,0.725,0.725,0,0,1,.372-0.38,0.416,0.416,0,0,1,.479-0.11C523.444,4737.5,523.294,4737.7,523.284,4737.89Zm-55.349-26.21c0.483-.37.491-0.37,0.828,0.01a5.051,5.051,0,0,1,.684.94,0.727,0.727,0,0,1,.106.65c-0.135.36-.131,0.76-0.265,1.11a0.815,0.815,0,0,0,.134.77c0.1-.24.025-0.51,0.114-0.76,0.166-.47.348-0.53,0.675-0.18a0.448,0.448,0,0,1,.121.18,3.9,3.9,0,0,1,.346,2.06,1.4,1.4,0,0,0-.037.22c-0.018.36,0.043,0.51,0.339,0.53a1.034,1.034,0,0,1,.91.94,1.142,1.142,0,0,0,.4.57,2.426,2.426,0,0,0,1.463.77,0.275,0.275,0,0,1,.172.11,1.446,1.446,0,0,1-.19,1.48,0.378,0.378,0,0,1-.248.06,1.364,1.364,0,0,0-1.3.46,0.943,0.943,0,0,0-.58.77,0.5,0.5,0,0,1-.292.31,0.613,0.613,0,0,0-.261.58c0.029,0.65-.139,1.29-0.111,1.95,0.01,0.38-.03.41-0.4,0.4-0.257,0-.273.12-0.267,0.36a14.113,14.113,0,0,1-.156,2.63c-0.076.49-.073,0.49-0.509,0.59-0.149.04-.286,0.1-0.225,0.31a0.413,0.413,0,0,1-.186.47,0.812,0.812,0,0,0-.242.56c-0.023.51-.046,1.03-0.059,1.54a1.12,1.12,0,0,1-.159.71,1.236,1.236,0,0,0-.193.93,1.547,1.547,0,0,1-.051.68,0.651,0.651,0,0,1-.983.39,0.3,0.3,0,0,1-.1-0.25,1.185,1.185,0,0,0-.516-1.01c-0.6-.5-0.53-0.9.258-1.13a0.15,0.15,0,0,0,.167-0.1,0.386,0.386,0,0,0-.471-0.08c-0.416.09-.8,0.14-0.947-0.46a0.552,0.552,0,0,0-.423-0.31,1.239,1.239,0,0,1-.63-0.71,4.025,4.025,0,0,1-.327-1.71,0.615,0.615,0,0,1,.343-0.54,0.329,0.329,0,0,1,.454.15c0.039,0.06.065,0.14,0.154,0.1a1.674,1.674,0,0,1,1.2.1,0.916,0.916,0,0,0,.186.01,0.411,0.411,0,0,0-.379-0.25,1.641,1.641,0,0,1-.728-0.26c-0.235-.21-0.222-0.44.054-0.56a2.818,2.818,0,0,1,1.1-.45,0.655,0.655,0,0,0,.442-0.38,1.262,1.262,0,0,1-.75-0.02c-0.117-.08-0.224.04-0.314,0.13a1.394,1.394,0,0,1-.95.4,2.176,2.176,0,0,0-.655.12,0.328,0.328,0,0,1-.507-0.28c-0.065-.47-0.124-0.95-0.152-1.43-0.03-.44.094-0.59,0.484-0.62,0.366-.04.679-0.28,1.044-0.29a0.248,0.248,0,0,0,.189-0.18,1.768,1.768,0,0,1,.65-0.86,0.226,0.226,0,0,0,.081-0.19,0.74,0.74,0,0,1,1.023-.56,0.451,0.451,0,0,0,.585-0.05c-0.113-.39-0.734-0.3-0.616-0.91-0.243.18-.423,0.31-0.6,0.44a0.279,0.279,0,0,1-.446-0.08,1.436,1.436,0,0,1-.3-1.03,0.756,0.756,0,0,1-.465-0.09c-0.09-.15-0.092-0.33-0.178-0.51a0.335,0.335,0,0,0-.117.34,3.172,3.172,0,0,0,.117,1.58,0.246,0.246,0,0,1-.217.39c-0.279-.02-0.3.15-0.355,0.37a0.99,0.99,0,0,1-1.606.57,0.365,0.365,0,0,1-.118-0.35,0.435,0.435,0,0,0-.254-0.55,1.244,1.244,0,0,1-.36-0.68,0.269,0.269,0,0,1,.174-0.36,3.118,3.118,0,0,1,.334-0.07,0.262,0.262,0,0,0-.234-0.15,2.135,2.135,0,0,1-1.242-1.36,0.574,0.574,0,0,1,.023-0.5,0.478,0.478,0,0,0-.112-0.61,1.844,1.844,0,0,1-.255-0.36,0.237,0.237,0,0,1,0-.31,0.2,0.2,0,0,1,.287,0,1.346,1.346,0,0,0,.548.31,0.2,0.2,0,0,0,.206-0.04,1.357,1.357,0,0,0-.313-0.24,1.033,1.033,0,0,1-.282-1.2c0.082-.14.082-0.4,0.16-0.59-0.178-.06-0.186.08-0.224,0.18-0.064.13-.108,0.28-0.173,0.41a0.332,0.332,0,0,1-.331.24,0.325,0.325,0,0,1-.237-0.33,2.779,2.779,0,0,0-.217-0.89,2.231,2.231,0,0,1-.231-1.16,1.273,1.273,0,0,0-.094-0.56,0.351,0.351,0,0,1,.114-0.49,0.266,0.266,0,0,0,.066-0.39,1.21,1.21,0,0,1-.1-0.56,0.227,0.227,0,0,1,.119-0.23,0.171,0.171,0,0,1,.218.1c0.053,0.09.1,0.18,0.173,0.31a1.043,1.043,0,0,0-.059-0.51,0.329,0.329,0,0,1,.124-0.4,0.768,0.768,0,0,0,.37-0.35c0.149-.21.257-0.18,0.4,0.06a1.622,1.622,0,0,0,.337.6,0.933,0.933,0,0,0,.021-0.57,0.309,0.309,0,0,1,.151-0.33c0.148-.07.2,0.07,0.264,0.19,0.183,0.36.3,0.4,0.6,0.19,0.165-.11.3-0.27,0.468-0.36a0.471,0.471,0,0,1,.665-0.05,0.938,0.938,0,0,1,.177.86,0.654,0.654,0,0,1-.507.51,1.1,1.1,0,0,1-.255-0.02,0.4,0.4,0,0,0-.353.2,1.268,1.268,0,0,1-.626.62,0.348,0.348,0,0,0,.438-0.02,0.819,0.819,0,0,1,.453-0.11c0.272,0.02.376,0.14,0.254,0.4a0.358,0.358,0,0,0,.137.54,2.3,2.3,0,0,1,.441.94c-0.048-.35-0.106-0.71-0.146-1.06a1.456,1.456,0,0,1,.046-0.8,7.939,7.939,0,0,0,.607-1.45c0.066-.23.193-0.27,0.4-0.16a1.655,1.655,0,0,1,.871,1.33,9.2,9.2,0,0,1,.127,1.14c0,0.64.257,1.24,0.211,1.88a0.246,0.246,0,0,0,.023.17,6.191,6.191,0,0,1,.745,1.62,0.2,0.2,0,0,0,.069.05,0.457,0.457,0,0,0-.061-0.36,9.264,9.264,0,0,1-.578-3.25c-0.047-.67-0.1-1.34-0.166-2a2.184,2.184,0,0,1,.232-1.39,1.483,1.483,0,0,0,.126-0.72,1.008,1.008,0,0,1,.288-0.71,0.242,0.242,0,0,1,.435.05,1.134,1.134,0,0,1,.231.62C467.919,4711.27,467.929,4711.44,467.935,4711.68Zm-27.956,113.37a0.541,0.541,0,0,1,.247-0.47,8.245,8.245,0,0,0,1.234-1.55,1.063,1.063,0,0,1,1.125-.64,0.677,0.677,0,0,0,.846-0.54c-0.1-.07-0.152.04-0.212,0.09-0.389.32-.453,0.32-0.83-0.05a0.312,0.312,0,0,0-.3-0.18,0.533,0.533,0,0,1-.648-0.21c-0.1-.13-0.215.02-0.317,0.07a0.454,0.454,0,0,1-.693-0.44,0.338,0.338,0,0,1,.21-0.35c0.284-.19.573-0.35,0.845-0.56a1.012,1.012,0,0,0,.289-1.31c-0.081-.17-0.2-0.09-0.306-0.04s-0.212.09-.279-0.04a0.279,0.279,0,0,1,.1-0.3c0.065-.08.138-0.17,0.208-0.26a0.384,0.384,0,0,0,.072-0.58,0.162,0.162,0,0,1-.023-0.21,0.15,0.15,0,0,1,.228,0c0.4,0.34.834,0.01,1.252,0.07,0.112,0.01.13-.12,0.153-0.24a5.569,5.569,0,0,1,.142-1.18,0.153,0.153,0,0,0-.119-0.21,1.069,1.069,0,0,1-.6-1.6c0.041-.1.081-0.21,0.166-0.41a5.766,5.766,0,0,1-1.058.42,0.574,0.574,0,0,1-.523.06,0.126,0.126,0,0,0-.144.01c-0.118.12-.237,0.28-0.373,0.06a0.772,0.772,0,0,1-.129-0.75,2.775,2.775,0,0,1,.236-0.51,1.726,1.726,0,0,0,.072-1.51c-0.029-.11-0.089-0.17-0.189-0.13a0.191,0.191,0,0,0-.151.25c0.028,0.08.122,0.14,0.157,0.22,0.14,0.35,0,.6-0.352.57-0.132-.01-0.132.07-0.174,0.15-0.059.12-.134,0.25-0.273,0.19a0.3,0.3,0,0,1-.1-0.4,2.956,2.956,0,0,1,.174-0.54,0.368,0.368,0,0,0-.142-0.49,1.136,1.136,0,0,0-.312.45,0.282,0.282,0,0,1-.319.23,0.37,0.37,0,0,1-.331-0.32,0.321,0.321,0,0,1,.218-0.35,2.527,2.527,0,0,0,.785-0.61,2.861,2.861,0,0,0,.4-0.87,0.251,0.251,0,0,0-.318.19,0.7,0.7,0,0,1-.693.4c-0.1,0-.252-0.09-0.2-0.2a2.894,2.894,0,0,1,.409-1.19c0.362-.34.3-0.65-0.172-0.83a2.913,2.913,0,0,1-.691-0.74,0.246,0.246,0,0,1,.006-0.27,0.94,0.94,0,0,1,.5-0.53c0.244-.06.241,0.3,0.327,0.49a0.832,0.832,0,0,0,.416.58,1.538,1.538,0,0,1-.071-1.26,0.09,0.09,0,0,1,.009-0.05c0.569-.42.438-1.23,0.82-1.76a0.64,0.64,0,0,1,.772-0.4,3.393,3.393,0,0,0,1.227-.12c0.2-.04.43-0.13,0.557,0.12a0.665,0.665,0,0,1-.092.75,3.181,3.181,0,0,1-.761.85c-0.106.06-.243,0.2-0.165,0.31,0.177,0.25-.006.41-0.136,0.72a3.9,3.9,0,0,1,2.325-.27,0.544,0.544,0,0,1,.474.86,13.306,13.306,0,0,1-1.022,2.36,0.253,0.253,0,0,0-.06.27c0.19,0.37,0,.47-0.283.53a0.257,0.257,0,0,0-.221.14c0.008,0.13.109,0.13,0.188,0.11a1.324,1.324,0,0,1,1.292.63,2.31,2.31,0,0,1,.6,1.53,2.936,2.936,0,0,0,.427,1.1,0.261,0.261,0,0,0,.189.18,1.768,1.768,0,0,1,1,1.24,1.844,1.844,0,0,0,.2.47,0.822,0.822,0,0,1,.226.87,0.332,0.332,0,0,0,.1.31,0.722,0.722,0,0,1-.016.98c-0.065.09-.149,0.2-0.027,0.3,0.081,0.07.164,0.01,0.23-.06a1.019,1.019,0,0,1,.876-0.24,0.983,0.983,0,0,1,.8.86,1.749,1.749,0,0,1-.347,1.5,1.317,1.317,0,0,1-.555.57,0.507,0.507,0,0,0-.152.22c-0.208.38-.18,0.46,0.2,0.51a0.364,0.364,0,0,0,.1.01,0.328,0.328,0,0,1,.38.22,0.481,0.481,0,0,1-.2.49,2.241,2.241,0,0,1-1.65.7,3.911,3.911,0,0,1-1.18.07c-0.094-.04-0.1.08-0.125,0.14a0.3,0.3,0,0,1-.514.15,0.616,0.616,0,0,0-.629,0,0.738,0.738,0,0,1-.988-0.06,0.622,0.622,0,0,0-.86.31c-0.236.59-.236,0.58-0.8,0.46a0.791,0.791,0,0,0-.949.24A0.726,0.726,0,0,1,439.979,4825.05Zm-21.652-36.61a1.018,1.018,0,0,0,.8-0.26,0.4,0.4,0,0,0,.167-0.21c0.086-.26-0.346-0.15-0.235-0.42,0.061-.15.185-0.28-0.027-0.42a0.937,0.937,0,0,1-.366-0.67,0.318,0.318,0,0,0-.365-0.29,1.8,1.8,0,0,0-1.162.13,0.24,0.24,0,0,1-.386-0.14,0.326,0.326,0,0,1,.165-0.47,13.14,13.14,0,0,0,1.364-.51,1.741,1.741,0,0,1,.684-0.01,0.3,0.3,0,0,0-.07-0.11c-0.461-.22-0.484-0.39-0.109-0.74a1.265,1.265,0,0,0,.381-0.37,0.6,0.6,0,0,1-.477-0.27,0.494,0.494,0,0,0-.748-0.06,3.663,3.663,0,0,1-.65.35,0.422,0.422,0,0,1-.446,0,0.662,0.662,0,0,0-.548-0.07c-0.137.05-.289,0.06-0.3-0.18a0.391,0.391,0,0,1,.321-0.43,0.621,0.621,0,0,0,.305.05,0.43,0.43,0,0,0-.117-0.4c-0.084-.29-0.064-0.32.218-0.3a0.717,0.717,0,0,0,.147.01,0.622,0.622,0,0,0,.047-0.45,0.507,0.507,0,0,1,.13-0.55c0.247-.37.528-0.45,0.721-0.08a1.509,1.509,0,0,0,.739.53,0.236,0.236,0,0,0-.075-0.32,2.754,2.754,0,0,1-.614-0.81,0.449,0.449,0,0,1-.012-0.53c0.073-.16.222-0.12,0.365-0.09a2.435,2.435,0,0,1,1.215.89,3.49,3.49,0,0,0,.269.34,1.1,1.1,0,0,1,.366,1.41,0.3,0.3,0,0,0,.014.32,0.686,0.686,0,0,1,.166.41,0.177,0.177,0,0,0,.158.19,0.2,0.2,0,0,0,.188-0.22c0.007-.06.007-0.13,0.018-0.18,0.1-.44.184-0.47,0.6-0.22a1.484,1.484,0,0,0,.064-0.95,0.644,0.644,0,0,1,.09-0.73c0.307-.18.425,0.21,0.6,0.39a4.19,4.19,0,0,0,.4.65,0.617,0.617,0,0,0,.078-0.1,1.023,1.023,0,0,1,.726-1.17,0.21,0.21,0,0,1,.343.1,3.783,3.783,0,0,1,.378.77,0.579,0.579,0,0,0,.006-0.49,0.393,0.393,0,0,1,.08-0.37,0.315,0.315,0,0,1,.39,0,0.871,0.871,0,0,1,.306.3c0.138,0.21.279,0.17,0.351-.03,0.129-.33.281-0.43,0.6-0.27,0.282,0.14.447-.01,0.477-0.37a1.35,1.35,0,0,0-.005-0.29,0.41,0.41,0,0,1,.24-0.54,0.369,0.369,0,0,1,.568.16,4.468,4.468,0,0,1,.325.44c0.159,0.42.167,0.41,0.526,0.22a1.538,1.538,0,0,0,.282-0.25,0.5,0.5,0,0,1,.373-0.17,0.222,0.222,0,0,1,.22.11,0.212,0.212,0,0,1-.079.25,1.475,1.475,0,0,0-.473.77c0.5,0.11.538,0.16,0.485,0.74-0.019.19-.049,0.36,0.194,0.36a0.223,0.223,0,0,1,.256.22c0.033,0.17.1,0.25,0.245,0.11s0.224-.03.286,0.1a1.376,1.376,0,0,1,.2,1.04c-0.034.12-.056,0.22,0.084,0.27a0.392,0.392,0,0,1,.156.61,1.783,1.783,0,0,1-.744,1.06,0.284,0.284,0,0,0-.138.28,2.07,2.07,0,0,1-.795,1.29,0.191,0.191,0,0,1-.276.03c-0.1-.08-0.185-0.18-0.286-0.28a9.119,9.119,0,0,1-1.156,1.24,0.807,0.807,0,0,1-.448.28,2.484,2.484,0,0,0-1.671,1.09,1.532,1.532,0,0,1-1.758.37,2.808,2.808,0,0,0-.841-0.29,0.816,0.816,0,0,1-.587-0.32,1.8,1.8,0,0,0-1.783-.64,2.831,2.831,0,0,0-.821.05c-0.208.07-.337-0.06-0.349-0.3A1.118,1.118,0,0,1,418.327,4788.44Zm54.626-74.24c-0.3-.59-0.2-0.84.366-0.91,0.272-.04.553-0.04,0.828-0.07a0.238,0.238,0,0,0,.259-0.23,0.258,0.258,0,0,0-.289-0.25,5.328,5.328,0,0,0-2.4.59,0.326,0.326,0,0,1-.385.04,0.566,0.566,0,0,0-.451-0.09,0.746,0.746,0,0,1-.694-0.42,5.288,5.288,0,0,1-.428-0.98,0.3,0.3,0,0,1,.09-0.31c0.142-.17.277-0.34,0.421-0.51,0.267-.3.264-0.43-0.065-0.65a5.747,5.747,0,0,0-.558-0.3c-0.147-.09-0.372-0.12-0.347-0.36a0.538,0.538,0,0,1,.431-0.51,2.678,2.678,0,0,1,.565-0.04,0.347,0.347,0,0,0,.39-0.41,3.226,3.226,0,0,1,.048-0.57c0.066-.33.246-0.39,0.5-0.21a1.135,1.135,0,0,1,.306.52,0.414,0.414,0,0,0,.236.32,3.926,3.926,0,0,0,.117-0.82,0.2,0.2,0,0,0-.2-0.26,0.333,0.333,0,0,1-.345-0.4,0.8,0.8,0,0,1,.3-0.69,0.245,0.245,0,0,1,.33.07,6.921,6.921,0,0,1,1.179,1.36,0.721,0.721,0,0,1,.084.44c-0.006.41,0.094,0.46,0.432,0.26a2.445,2.445,0,0,1,.36-0.23c0.343-.15.53-0.04,0.578,0.38a5.32,5.32,0,0,0,.218,1.06,0.221,0.221,0,0,0,.193.18c0.009-.59.1-1.17,0.059-1.75a1.935,1.935,0,0,1,.3-1.41,0.544,0.544,0,0,1,1,.19,1.74,1.74,0,0,1-.19,1.58,0.6,0.6,0,0,0-.159.41c0.009,0.2-.071.46,0.2,0.52a0.377,0.377,0,0,0,.428-0.32c0.119-.32.243-0.64,0.366-0.96,0.029-.07.055-0.14,0.084-0.21,0.247-.59.3-0.6,0.784-0.27a0.437,0.437,0,0,0,.185.09c0.2-.04.241,0.09,0.231,0.26a0.379,0.379,0,0,0,.37.44c0.535,0.13,1.074.28,1.612,0.41a1.447,1.447,0,0,1,.748.49,0.918,0.918,0,0,1,.23.83,2.472,2.472,0,0,0-.034,1.35,0.463,0.463,0,0,1-.248.57,0.794,0.794,0,0,0-.41.48,1.783,1.783,0,0,1-.725.94,0.492,0.492,0,0,0-.22.62,1.868,1.868,0,0,1-.82,1.77,0.63,0.63,0,0,1-.3.05,0.834,0.834,0,0,0-1,.68,1.042,1.042,0,0,1-1.357.56,1.606,1.606,0,0,1-.824-1.24c-0.085-.39-0.3-0.57-0.615-0.4a0.639,0.639,0,0,1-.585.03,0.63,0.63,0,0,0-.588.07c-0.263.2-.415,0.14-0.529-0.18a0.557,0.557,0,0,0-.385-0.39,1.83,1.83,0,0,1-.913-1.04,0.3,0.3,0,0,1,.071-0.36,0.383,0.383,0,0,1,.419-0.14,0.714,0.714,0,0,1,.3.22A0.38,0.38,0,0,0,472.953,4714.2ZM435.6,4817.97a1.349,1.349,0,0,1-.981-0.3,0.458,0.458,0,0,1-.094-0.75,3.452,3.452,0,0,1,.225-0.32c-0.017-.2-0.2-0.12-0.276-0.21s-0.185-.18-0.1-0.29c0.147-.19.175-0.45,0.306-0.65a0.356,0.356,0,0,1,.343-0.21c0.119,0.01.241,0.01,0.36,0.03,0.659,0.14.659,0.15,1.143-.43-0.016-.13-0.125-0.1-0.2-0.13-0.342-.16-0.357-0.19-0.127-0.51a0.888,0.888,0,0,0,.185-0.34,1.049,1.049,0,0,1,.791-0.81,1.918,1.918,0,0,0,.631-0.22,0.326,0.326,0,0,1,.456.15,0.339,0.339,0,0,0,.364.11,0.9,0.9,0,0,1,1.146.88,0.864,0.864,0,0,0,.232.54,0.78,0.78,0,0,1,0,1.03,4.539,4.539,0,0,1-.585.56,0.344,0.344,0,0,0-.138.48,7,7,0,0,1,.195,2.02,1.14,1.14,0,0,1-.129.5,3.631,3.631,0,0,0-.2.94,0.327,0.327,0,0,1-.4.38,1.792,1.792,0,0,0-1.287.42,5.343,5.343,0,0,1-1.581.95,3.232,3.232,0,0,1-.915.13,0.663,0.663,0,0,1-.544-0.35,1.806,1.806,0,0,0-.271-0.39,0.2,0.2,0,0,1-.025-0.26,0.246,0.246,0,0,0-.078-0.4c-0.151-.11-0.029-0.35.131-0.39a0.658,0.658,0,0,0,.585-0.78A10.267,10.267,0,0,1,435.6,4817.97Zm38.472-93.8a1.368,1.368,0,0,0,1.663-.58,4.051,4.051,0,0,0,.469.59,0.663,0.663,0,0,1-.015.99,0.441,0.441,0,0,0-.043.57c0.165,0.25.341,0.48,0.516,0.72s0.347,0.26.517,0.03,0.31-.18.471,0a8.835,8.835,0,0,0,.669.87,0.176,0.176,0,0,1-.123.29,1.5,1.5,0,0,0-1.187,1.24,1.369,1.369,0,0,1-.867.99,0.521,0.521,0,0,0-.306.29c-0.22.38-.33,0.44-0.553,0.3-0.266-.16-0.184-0.37-0.1-0.63a1.447,1.447,0,0,0,.022-1.16,1.016,1.016,0,0,1-1.016.61c-0.181,0-.37.09-0.553,0.1a0.49,0.49,0,0,1-.516-0.69,0.347,0.347,0,0,1,.062-0.16c0.514-.47.365-1.24,0.66-1.82a0.46,0.46,0,0,0-.124-0.61,1.8,1.8,0,0,1-.435-0.63,0.508,0.508,0,0,1,.11-0.78c0.093-.09.189-0.16,0.354-0.3a0.626,0.626,0,0,1-.779-0.55,3.488,3.488,0,0,1-.13-0.44,1.256,1.256,0,0,0-.367-0.79c-0.218-.19-0.18-0.34.072-0.47a1.724,1.724,0,0,0,.944-0.73,0.364,0.364,0,0,1,.041-0.03,0.293,0.293,0,0,1,.339-0.07c0.289,0.37.775-.12,1.033,0.32a2.344,2.344,0,0,0,.174.28,0.453,0.453,0,0,1,.029.72,1.537,1.537,0,0,0-.194.83,0.465,0.465,0,0,1-.454.5A0.44,0.44,0,0,0,474.071,4724.17Zm33.272-16.01a0.618,0.618,0,0,0-.361-0.27,0.307,0.307,0,0,1-.132-0.29,0.27,0.27,0,0,1,.194-0.24c0.03-.01.067-0.01,0.1-0.02,0.1-.04.3,0.06,0.278-0.13-0.019-.21-0.207-0.14-0.339-0.12-0.159.03-.353,0.28-0.459,0.07-0.131-.25.147-0.38,0.289-0.52a2.049,2.049,0,0,1,.461-0.37c0.464-.3.472-0.3,0.837,0.17a0.307,0.307,0,0,0,.559,0,3.628,3.628,0,0,0,.37-0.69c0.152-.36.11-0.43-0.24-0.58a0.5,0.5,0,0,1-.275-0.76,3.54,3.54,0,0,1,1.4-1.42,0.606,0.606,0,0,1,.777.52c0.018,0.11,0,.23.02,0.34,0.043,0.35.12,0.46,0.423,0.43a0.931,0.931,0,0,1,.707.28,0.508,0.508,0,0,1,.088.79,2.683,2.683,0,0,1-1.711,1.27,0.914,0.914,0,0,0-.3.1,0.39,0.39,0,0,0-.277.46c0.028,0.66-.2.84-0.793,0.71-0.448-.1-0.6.03-0.637,0.54-0.017.25-.066,0.5-0.075,0.74a0.93,0.93,0,0,1-.62.94c-0.13.05-.252,0.13-0.379,0.19a0.283,0.283,0,0,1-.384-0.01,0.426,0.426,0,0,1-.03-0.43,0.836,0.836,0,0,1,.367-0.59c0.131-.08.059-0.21-0.058-0.24a0.587,0.587,0,0,0-.633.28c-0.287.35-.442,0.32-0.664-0.09a3.006,3.006,0,0,1-.145-0.3,0.688,0.688,0,0,1,.142-0.96c0.278-.3.348-0.3,0.608,0.02C506.691,4708.29,506.813,4708.32,507.343,4708.16Zm14.081-2.58a3.534,3.534,0,0,1,.473-1.6,0.618,0.618,0,0,1,1.007-.16,0.292,0.292,0,0,0,.374.07,3.431,3.431,0,0,0,1.133-.53,0.546,0.546,0,0,1,.885.3,2.594,2.594,0,0,1-.277,2.39c-0.289.44-.606,0.84-0.9,1.27a0.465,0.465,0,0,1-.672.21c-0.078-.03-0.164-0.06-0.243-0.09a0.922,0.922,0,0,0-.9-0.04,0.278,0.278,0,0,1-.414-0.1,1.52,1.52,0,0,1-.425-1.07A3.3,3.3,0,0,0,521.424,4705.58Zm-4.138-1.84c0.275,0.47.267,0.51-.172,0.73a4.927,4.927,0,0,0-.522.24,1.244,1.244,0,0,1-1.6-.36,0.47,0.47,0,0,1,.168-0.81,3.13,3.13,0,0,1,1.329-.3c-0.3-.23-0.557-0.4-0.8-0.6a0.992,0.992,0,0,1-.018-1.36,0.215,0.215,0,0,1,.325.03c0.208,0.21.422,0.4,0.62,0.62a0.372,0.372,0,0,0,.548.1,0.528,0.528,0,0,1,.716.1c0.213,0.19.429,0.38,0.69,0.61a0.757,0.757,0,0,0-.3-0.51c-0.212-.2-0.417-0.39-0.625-0.6a0.215,0.215,0,0,1-.071-0.25,0.223,0.223,0,0,1,.209-0.15,1.346,1.346,0,0,1,.409.05,3.725,3.725,0,0,1,1.522.94c0.153,0.18.328,0.34,0.484,0.52a0.4,0.4,0,0,1,0,.64,1.4,1.4,0,0,1-.267.27,0.51,0.51,0,0,0-.268.54,1.231,1.231,0,0,1-.756.93,0.335,0.335,0,0,1-.362-0.15c-0.188-.22-0.378-0.45-0.57-0.67a2.213,2.213,0,0,0-.3-0.31A3.185,3.185,0,0,0,517.286,4703.74Zm12.183-1.19a2.667,2.667,0,0,1-1.751,2.38c-0.368.09-.751,0.11-1.125,0.18a0.414,0.414,0,0,1-.453-0.2c-0.713-.98-0.684-0.92-0.112-1.87a1.089,1.089,0,0,1,.924-0.64,0.472,0.472,0,0,0,.446-0.4c0.1-.31.188-0.62,0.295-0.92,0.228-.65.656-0.76,1.14-0.34A2.311,2.311,0,0,1,529.469,4702.55Zm-9.145,6.1c0.384,0.39.445,0.61,0.2,0.94-0.449.61-.663,0.72-1.127,0.45a3.935,3.935,0,0,1-.349-0.23,0.7,0.7,0,0,1-.976.61,2.925,2.925,0,0,1-.718-0.09,0.36,0.36,0,0,1-.2-0.61,1.114,1.114,0,0,0,.17-0.91,1.688,1.688,0,0,1-.01-0.46,0.44,0.44,0,0,1,.325-0.46,1.964,1.964,0,0,1,1.016-.12c0.081,0.02.176,0.09,0.24-.01a0.311,0.311,0,0,0-.013-0.32c-0.047-.1-0.119-0.19-0.173-0.29-0.133-.24-0.1-0.32.141-0.42a2.578,2.578,0,0,1,2.666.97,0.446,0.446,0,0,1,.1.47,0.333,0.333,0,0,1-.42.12C520.615,4708.24,520.615,4708.24,520.324,4708.65Zm-61.261,132.08a4.221,4.221,0,0,1-.319,1.35,0.452,0.452,0,0,0,.081.56,1.952,1.952,0,0,1,.419,1.33c0,0.55,0,1.11-.027,1.67-0.017.41,0,.88-0.567,0.89a0.411,0.411,0,0,0-.223.22c-0.3.33-.5,0.31-0.75-0.08a1.672,1.672,0,0,1-.208-1.22,4.467,4.467,0,0,0,.055-0.79,1.014,1.014,0,0,0-.212-0.75,0.692,0.692,0,0,1-.155-0.53c0.013-.16.054-0.3,0.254-0.26a0.979,0.979,0,0,0,.874-0.59,0.211,0.211,0,0,0-.06-0.3,2.4,2.4,0,0,1-.532-1.58,0.672,0.672,0,0,1,.331-0.71,1.044,1.044,0,0,0,.6-0.59,0.128,0.128,0,0,1,.173-0.09,0.2,0.2,0,0,1,.116.18A10.428,10.428,0,0,0,459.063,4840.73Zm47.927-136a0.516,0.516,0,0,0-.231.47,1.707,1.707,0,0,1-.43.95c-0.18.23-.368,0.46-0.537,0.7a1.175,1.175,0,0,1-.507.38,0.312,0.312,0,0,1-.505-0.18,0.878,0.878,0,0,0-.362-0.39c-0.215-.16-0.435-0.31-0.644-0.48a0.606,0.606,0,0,1-.382-0.43,0.555,0.555,0,0,1,.494-0.42,1,1,0,0,1,.5-0.14,2.236,2.236,0,0,0,1.28-.55,1.214,1.214,0,0,0,.438-0.62,0.656,0.656,0,0,1,.756-0.45,4.058,4.058,0,0,1,.9.25,0.843,0.843,0,0,1,.5.56,4.431,4.431,0,0,1,.173,1.07c0.008,0.37-.1.45-0.408,0.32a1.248,1.248,0,0,1-.877-0.88A0.2,0.2,0,0,0,506.99,4704.73Zm-39.148,67.85-0.266.3a2.464,2.464,0,0,0-.724.58c-0.165.14-.229,0.36-0.479,0.19a0.169,0.169,0,0,0-.185.08,1.553,1.553,0,0,1-1.393.5,0.254,0.254,0,0,0-.187.08c-0.333.52-1.046,0.53-1.3,1.17a0.342,0.342,0,0,1-.151.15c-0.124.05-.237-0.01-0.2-0.16a1.386,1.386,0,0,1,.571-1.14,0.192,0.192,0,0,0,.124-0.1,0.727,0.727,0,0,1,.967-0.42,0.134,0.134,0,0,0,.144-0.04,5.028,5.028,0,0,1,1.146-.76,0.3,0.3,0,0,0,.117-0.27c-0.3.14-.543-0.2-0.859-0.06-0.1.03-.145-0.18-0.125-0.32a0.956,0.956,0,0,1,.624-0.81c0.183-.07.094-0.39,0.283-0.29a0.777,0.777,0,0,1,.32.55c0.01,0.04.023,0.08,0.053,0.19a1.4,1.4,0,0,0,.118-0.9,0.636,0.636,0,0,1,.135-0.64,1.493,1.493,0,0,0,.307-0.52,0.209,0.209,0,0,1,.261-0.13,0.253,0.253,0,0,1,.209.28,1.167,1.167,0,0,1-.2.76,0.8,0.8,0,0,0-.065,1,1.1,1.1,0,0,0,.262-0.58c0.006-.2.094-0.29,0.266-0.23s0.366,0.18.272,0.33a1.817,1.817,0,0,0-.047.98C467.835,4772.42,467.842,4772.51,467.842,4772.58Zm39.709-1.37a2.968,2.968,0,0,1,.4-1.7,0.742,0.742,0,0,1,1.319-.16,1.325,1.325,0,0,0,.765.62,1.227,1.227,0,0,1,.312.97,0.138,0.138,0,0,1-.142.13,0.5,0.5,0,0,0-.517.39,2.742,2.742,0,0,1-1.052.88,0.609,0.609,0,0,1-.3.02c-0.225.03-.356-0.44-0.625-0.14a0.426,0.426,0,0,1-.144-0.22A2.079,2.079,0,0,1,507.551,4771.21Zm-45.288-47.25c0,0.17.018,0.27-.088,0.32a0.276,0.276,0,0,1-.244-0.06,0.643,0.643,0,0,1-.211-0.38,1.994,1.994,0,0,0-.779-1.23,1.023,1.023,0,0,1-.4-0.77,3.732,3.732,0,0,0-.407-1.41,1.011,1.011,0,0,1-.086-0.62c0.01-.14,0-0.33.175-0.36a0.315,0.315,0,0,1,.348.19,4.028,4.028,0,0,1,.555,1.4,2.227,2.227,0,0,0,.633,1.53,0.652,0.652,0,0,1,.246.48C462.023,4723.4,462.294,4723.67,462.263,4723.96Zm57.805-24.87c-0.079-.02-0.2-0.04-0.311-0.08-0.39-.17-0.773-0.33-1.149-0.51s-0.377-.3-0.1-0.63a2.762,2.762,0,0,1,.344-0.34c0.612-.53.814-0.52,1.353,0.08a4.315,4.315,0,0,1,.353.42,0.656,0.656,0,0,1,.154.68A0.727,0.727,0,0,1,520.068,4699.09ZM478.4,4854a0.422,0.422,0,0,1-.33-0.14,1.512,1.512,0,0,0-1.1-.4c-0.393,0-.472-0.08-0.447-0.36a0.448,0.448,0,0,1,.526-0.46,0.4,0.4,0,0,1,.25.02c0.5,0.5,1.153.21,1.711,0.41a1.43,1.43,0,0,0,.993.19c0.084-.03.139,0.11,0.116,0.2a0.376,0.376,0,0,1-.286.37A11.54,11.54,0,0,0,478.4,4854Zm8.417-143.63a0.281,0.281,0,0,1-.314-0.24,0.292,0.292,0,0,1,.213-0.34c0.19-.08.388-0.16,0.585-0.23a4.208,4.208,0,0,0,1.313-.65,0.427,0.427,0,0,1,.616.01,0.241,0.241,0,0,1,.015.39,0.5,0.5,0,0,1-.086.07,7.2,7.2,0,0,1-2.195.97A0.7,0.7,0,0,0,486.814,4710.37Zm-47.51,94.98a1.921,1.921,0,0,1-.487.97l-0.091.06c-0.175.11-.269,0.46-0.535,0.28a1.457,1.457,0,0,1,.012-1.18c0.206-.15.333-0.39,0.541-0.52a0.488,0.488,0,0,1,.427-0.16C439.372,4804.89,439.242,4805.1,439.3,4805.35Zm44.92-85.92a0.576,0.576,0,0,1-.81.39,0.524,0.524,0,0,0-.42-0.28,1.092,1.092,0,0,0-.589.32c-0.143.17-.308,0.32-0.474,0.09s0.012-.35.155-0.51c0.207-.24.507-0.29,0.708-0.55,0.147-.18.354,0.03,0.516,0.12,0.251,0.11.433,0.44,0.776,0.23C484.164,4719.19,484.219,4719.32,484.224,4719.43Zm29.785,43.05a1.75,1.75,0,0,0-.02.74,0.167,0.167,0,0,1-.1.18,0.132,0.132,0,0,1-.167-0.1c-0.088-.22-0.177-0.45-0.256-0.68a0.967,0.967,0,0,0-.5-0.69,0.315,0.315,0,0,1-.2-0.41,0.365,0.365,0,0,1,.425-0.24A1.126,1.126,0,0,1,514.009,4762.48Zm-75.624,31.42a1.483,1.483,0,0,1,.277-0.03,0.241,0.241,0,0,1,.213.36,1.848,1.848,0,0,1-.131.31,0.552,0.552,0,0,0-.051.76,0.2,0.2,0,0,1-.067.29,0.186,0.186,0,0,1-.253-0.12,0.856,0.856,0,0,1-.095-0.27,0.464,0.464,0,0,0-.464-0.43c-0.309-.03-0.315-0.14-0.17-0.45A0.6,0.6,0,0,1,438.385,4793.9Zm13.021,51.72c-0.014.49-.4,0.72-0.766,0.45a1.3,1.3,0,0,0-.367-0.17c-0.236-.08-0.269-0.26-0.1-0.48a1.653,1.653,0,0,1,.744-0.48A0.736,0.736,0,0,1,451.406,4845.62Zm-6.049-46.85a2.054,2.054,0,0,1,.312,1.69,0.539,0.539,0,0,1-.331.45,0.309,0.309,0,0,1-.1-0.33,0.785,0.785,0,0,0,0-.27c-0.535-.26-0.094-0.74-0.2-1.1A0.408,0.408,0,0,1,445.357,4798.77Zm26.722-80.76a0.409,0.409,0,0,1,.461-0.47,0.829,0.829,0,0,1,.654.63,0.626,0.626,0,0,1-.658.5A0.616,0.616,0,0,1,472.079,4718.01Zm-36.531,45.65a0.133,0.133,0,0,1-.114-0.2,0.879,0.879,0,0,1,.289-0.39,2.876,2.876,0,0,0,.7-0.75,0.391,0.391,0,0,1,.246-0.2,0.233,0.233,0,0,1,.307.3,0.846,0.846,0,0,1-.391.64,3.259,3.259,0,0,0-.938.57A0.109,0.109,0,0,1,435.548,4763.66Zm44.506-43.35c0.015-.05.031-0.15,0.061-0.23,0.07-.18.188-0.24,0.312-0.07a5.049,5.049,0,0,1,.431.7,0.4,0.4,0,0,1-.125.55,0.283,0.283,0,0,1-.43-0.16A1.9,1.9,0,0,1,480.054,4720.31Zm-9.463-11.93a0.683,0.683,0,0,1-.371.57,0.717,0.717,0,0,1-.547-0.52,0.612,0.612,0,0,1,.388-0.59A0.67,0.67,0,0,1,470.591,4708.38Zm8.612,54.91a0.468,0.468,0,0,1-.464-0.5,0.962,0.962,0,0,1,.514-0.41,0.683,0.683,0,0,1,.459.56A0.438,0.438,0,0,1,479.2,4763.29Zm0.811,82.63a0.67,0.67,0,0,1,.5.63,0.187,0.187,0,0,1-.136.15,0.824,0.824,0,0,1-.847-0.21,0.212,0.212,0,0,1-.02-0.26A0.76,0.76,0,0,1,480.014,4845.92Zm-37.272-42.32a2.018,2.018,0,0,0,.032-0.23,0.474,0.474,0,0,1,.152-0.45c0.188-.1.266,0.1,0.359,0.22a1.069,1.069,0,0,0,.321.17,0.144,0.144,0,0,1,.082.18,0.141,0.141,0,0,1-.15.13,0.31,0.31,0,0,0-.475.23,0.163,0.163,0,0,1-.23.04A0.234,0.234,0,0,1,442.742,4803.6Zm30.372,44.82a0.315,0.315,0,0,0,.146.35,0.222,0.222,0,0,1,0,.34c-0.124.11-.232,0.04-0.318-0.07a0.348,0.348,0,0,1-.1-0.18,0.9,0.9,0,0,0-.234-0.64c-0.145-.16,0-0.32.127-0.42s0.218-.01.289,0.12A0.512,0.512,0,0,1,473.114,4848.42Zm8.86,3.74c-0.161-.03-0.171-0.18-0.151-0.34a0.915,0.915,0,0,1,.611-0.61,0.16,0.16,0,0,1,.2.18A0.814,0.814,0,0,1,481.974,4852.16Zm-10.733-105.37a1.367,1.367,0,0,1-.038.14,0.307,0.307,0,0,1-.251.25c-0.177.03-.172-0.14-0.2-0.27-0.016-.07-0.05-0.13-0.074-0.21a0.324,0.324,0,0,1,.081-0.4,0.249,0.249,0,0,1,.325-0.08A0.48,0.48,0,0,1,471.241,4746.79ZM472,4767.02a0.873,0.873,0,0,1-.467-0.89,0.1,0.1,0,0,1,.171-0.05,2.211,2.211,0,0,1,.5.56A0.242,0.242,0,0,1,472,4767.02Zm1.2-.44c-0.037.15,0.029,0.42-.23,0.39a0.385,0.385,0,0,1-.332-0.44,0.361,0.361,0,0,1,.337-0.41C473.131,4766.13,473.209,4766.28,473.2,4766.58Zm18.967,18.6a0.361,0.361,0,0,1-.149.36c-0.17.08-.241-0.08-0.317-0.2a0.469,0.469,0,0,1-.079-0.52,0.252,0.252,0,0,1,.327-0.09A0.443,0.443,0,0,1,492.169,4785.18ZM441.7,4815.37a0.511,0.511,0,0,1-.121.36c-0.132.15-.3,0.35-0.475,0.19s0.017-.34.094-0.49a0.989,0.989,0,0,1,.165-0.22,0.186,0.186,0,0,1,.225-0.08A0.289,0.289,0,0,1,441.7,4815.37Zm37.114,34.55c0.191,0.03.331-.03,0.384,0.15a0.38,0.38,0,0,1-.03.33,0.254,0.254,0,0,1-.374.03,0.359,0.359,0,0,0-.144-0.05,0.2,0.2,0,0,1-.17-0.24,0.226,0.226,0,0,1,.21-0.21A1.053,1.053,0,0,1,478.817,4849.92Zm0.872-2.59a0.277,0.277,0,0,1,.233.33,0.368,0.368,0,0,1-.238.44,0.126,0.126,0,0,1-.131-0.05,0.941,0.941,0,0,1-.072-0.61A0.173,0.173,0,0,1,479.689,4847.33Zm-2.45-84.01a0.365,0.365,0,0,1-.307-0.38,0.246,0.246,0,0,1,.231-0.25,0.345,0.345,0,0,1,.325.36A0.259,0.259,0,0,1,477.239,4763.32Zm3.39,89.78a1.443,1.443,0,0,0,.395-0.7,0.138,0.138,0,0,1,.146-0.13,0.151,0.151,0,0,1,.072.06,1.118,1.118,0,0,1-.035.65A0.487,0.487,0,0,1,480.629,4853.1Zm-28.141-8.09a0.21,0.21,0,0,1-.171.24,0.389,0.389,0,0,1-.407-0.34,0.231,0.231,0,0,1,.218-0.2A0.307,0.307,0,0,1,452.488,4845.01ZM437.9,4807.39a0.3,0.3,0,0,1-.282-0.31c0.016-.2.2-0.21,0.355-0.21a0.2,0.2,0,0,1,.2.25A0.258,0.258,0,0,1,437.9,4807.39Zm31.8,1.37a3.8,3.8,0,0,1-.166-1.29,2.027,2.027,0,0,1,.62-1.22,0.493,0.493,0,0,1,.282-0.11c0.28-.05.431,0.11,0.326,0.37a1.778,1.778,0,0,0-.124.89,0.279,0.279,0,0,1-.03.16C470.344,4808,469.986,4808.34,469.7,4808.76Zm4.787-2.63a1.168,1.168,0,0,0-.131-0.97,0.442,0.442,0,0,1,.26-0.65,1.613,1.613,0,0,1,.915-0.32,0.609,0.609,0,0,1,.426.15c0.259,0.24.266,0.4-.022,0.61a1.32,1.32,0,0,1-.751.46,0.385,0.385,0,0,0-.256.26A0.74,0.74,0,0,1,474.489,4806.13Zm1.376-2.62a0.473,0.473,0,0,1-.3.37,0.575,0.575,0,0,1-.922-0.25,0.157,0.157,0,0,1,.03-0.2,3.017,3.017,0,0,1,.6-0.43A0.566,0.566,0,0,1,475.865,4803.51Zm-3.609-3.71a0.786,0.786,0,0,0-.034.58,0.126,0.126,0,0,1-.154.16,0.847,0.847,0,0,1-.523-0.41,1,1,0,0,1,.173-0.74,0.216,0.216,0,0,1,.291,0A0.424,0.424,0,0,1,472.256,4799.8Zm-6.587,13.86a0.418,0.418,0,0,1-.436-0.4c0-.17.016-0.36,0.226-0.36a0.489,0.489,0,0,1,.393.44A0.245,0.245,0,0,1,465.669,4813.66Zm12.479-28.6a0.274,0.274,0,0,1,.279.21,0.472,0.472,0,0,1-.4.37,0.256,0.256,0,0,1-.254-0.29A0.337,0.337,0,0,1,478.148,4785.06Z" transform="translate(-416 -4697.16)"/>
</svg>
