<svg 
 xmlns="http://www.w3.org/2000/svg"
 xmlns:xlink="http://www.w3.org/1999/xlink"
 width="60px" height="60px">
<path fill-rule="evenodd"  fill="rgb(0, 177, 255)"
 d="M59.271,13.634 L47.481,9.850 C47.480,9.848 47.479,9.848 47.476,9.848 L47.477,9.848 C47.477,9.848 47.289,9.777 47.024,9.804 C46.759,9.832 46.572,9.966 46.572,9.966 L39.963,14.182 C39.664,14.372 39.484,14.697 39.484,15.048 L39.484,26.598 L39.118,26.570 L39.118,7.916 C39.118,7.467 38.824,7.072 38.391,6.933 L17.018,0.075 C17.018,0.075 16.771,-0.001 16.542,0.034 C16.268,0.077 16.068,0.219 16.068,0.219 L0.445,11.103 C0.166,11.297 -0.000,11.610 -0.000,11.945 L-0.000,50.582 C-0.000,50.960 0.212,51.306 0.550,51.487 L16.178,59.853 C16.178,59.853 16.340,59.945 16.562,59.973 C16.784,60.000 16.946,59.951 16.946,59.951 L38.319,54.681 L47.411,52.439 L59.198,49.531 C59.667,49.416 59.996,49.004 59.996,48.531 L59.999,14.616 C60.000,14.167 59.705,13.772 59.271,13.634 ZM3.189,45.701 C3.189,45.813 3.133,45.919 3.039,45.983 C2.979,46.023 2.908,46.046 2.838,46.046 C2.796,46.046 2.755,46.040 2.715,46.023 L1.802,45.696 C1.664,45.646 1.571,45.516 1.571,45.372 L1.571,42.536 C1.571,42.429 1.623,42.327 1.709,42.262 C1.797,42.196 1.912,42.175 2.018,42.203 L2.930,42.451 C3.082,42.494 3.188,42.630 3.188,42.784 L3.188,45.701 L3.189,45.701 ZM3.189,39.867 C3.189,39.970 3.143,40.066 3.061,40.133 C2.997,40.184 2.919,40.212 2.836,40.212 C2.814,40.212 2.793,40.209 2.771,40.206 L1.858,40.038 C1.691,40.007 1.570,39.865 1.570,39.700 L1.570,36.863 C1.570,36.766 1.611,36.673 1.686,36.607 C1.760,36.542 1.858,36.510 1.958,36.519 L2.870,36.607 C3.051,36.626 3.188,36.773 3.188,36.951 L3.188,39.867 L3.189,39.867 ZM3.189,34.035 C3.189,34.127 3.152,34.217 3.086,34.280 C3.019,34.344 2.930,34.380 2.838,34.380 C2.836,34.380 2.835,34.380 2.835,34.380 L1.922,34.373 C1.729,34.370 1.571,34.219 1.571,34.027 L1.571,31.191 C1.571,31.013 1.712,30.862 1.895,30.849 L2.808,30.774 C2.907,30.766 3.002,30.799 3.075,30.864 C3.149,30.930 3.189,31.021 3.189,31.118 L3.189,34.035 ZM3.189,28.203 C3.189,28.370 3.065,28.513 2.897,28.542 L1.984,28.697 C1.963,28.700 1.943,28.702 1.924,28.702 C1.840,28.702 1.760,28.674 1.696,28.622 C1.617,28.555 1.570,28.459 1.570,28.356 L1.570,25.520 C1.570,25.364 1.678,25.228 1.832,25.187 L2.745,24.952 C2.852,24.925 2.964,24.948 3.051,25.013 C3.137,25.078 3.186,25.178 3.186,25.285 L3.186,28.203 L3.189,28.203 ZM3.189,22.371 C3.189,22.517 3.095,22.648 2.954,22.697 L2.041,23.011 C2.003,23.023 1.964,23.030 1.924,23.030 C1.850,23.030 1.780,23.009 1.720,22.968 C1.627,22.903 1.571,22.799 1.571,22.685 L1.571,19.849 C1.571,19.713 1.653,19.590 1.781,19.534 L2.694,19.138 C2.802,19.091 2.929,19.101 3.030,19.165 C3.129,19.230 3.189,19.339 3.189,19.455 L3.189,22.371 ZM3.189,16.539 C3.189,16.667 3.117,16.782 3.002,16.843 L2.089,17.318 C2.037,17.345 1.980,17.359 1.924,17.359 C1.860,17.359 1.797,17.341 1.741,17.308 C1.635,17.246 1.570,17.136 1.570,17.014 L1.570,14.178 C1.570,14.059 1.632,13.947 1.736,13.886 L2.648,13.330 C2.758,13.264 2.894,13.260 3.006,13.321 C3.119,13.383 3.188,13.497 3.188,13.623 L3.188,16.539 L3.189,16.539 ZM6.267,46.807 C6.267,46.919 6.211,47.025 6.117,47.090 C6.057,47.129 5.985,47.152 5.915,47.152 C5.874,47.152 5.834,47.145 5.793,47.129 L4.705,46.738 C4.567,46.688 4.474,46.560 4.474,46.416 L4.474,43.323 C4.474,43.216 4.525,43.115 4.612,43.049 C4.700,42.985 4.814,42.964 4.921,42.992 L6.007,43.287 C6.160,43.328 6.266,43.465 6.266,43.619 L6.266,46.807 L6.267,46.807 ZM6.267,40.433 C6.267,40.534 6.220,40.632 6.139,40.698 C6.075,40.749 5.995,40.777 5.913,40.777 C5.891,40.777 5.870,40.775 5.848,40.771 L4.761,40.572 C4.594,40.541 4.473,40.398 4.473,40.233 L4.473,37.141 C4.473,37.044 4.515,36.951 4.589,36.886 C4.665,36.821 4.763,36.790 4.861,36.798 L5.948,36.901 C6.130,36.920 6.267,37.068 6.267,37.246 L6.267,40.433 ZM6.267,34.059 C6.267,34.150 6.231,34.240 6.163,34.303 C6.096,34.368 6.007,34.402 5.915,34.402 C5.915,34.402 5.913,34.402 5.912,34.402 L4.825,34.395 C4.632,34.394 4.474,34.240 4.474,34.049 L4.474,30.960 C4.474,30.780 4.614,30.631 4.798,30.616 L5.886,30.529 C5.984,30.520 6.080,30.553 6.154,30.618 C6.227,30.683 6.267,30.774 6.267,30.870 L6.267,34.059 ZM6.267,27.684 C6.267,27.853 6.143,27.995 5.975,28.025 L4.887,28.207 C4.866,28.211 4.846,28.212 4.827,28.212 C4.744,28.212 4.663,28.183 4.598,28.130 C4.519,28.064 4.473,27.968 4.473,27.866 L4.473,24.776 C4.473,24.619 4.581,24.482 4.735,24.441 L5.823,24.162 C5.929,24.135 6.043,24.157 6.127,24.223 C6.214,24.288 6.265,24.389 6.265,24.496 L6.265,27.684 L6.267,27.684 ZM6.267,21.310 C6.267,21.456 6.173,21.586 6.031,21.635 L4.944,22.009 C4.906,22.025 4.866,22.030 4.827,22.030 C4.754,22.030 4.683,22.008 4.623,21.966 C4.529,21.902 4.474,21.796 4.474,21.684 L4.474,18.593 C4.474,18.458 4.555,18.333 4.684,18.279 L5.771,17.807 C5.881,17.762 6.007,17.771 6.106,17.833 C6.207,17.897 6.267,18.007 6.267,18.123 L6.267,21.310 ZM6.267,14.936 C6.267,15.064 6.195,15.180 6.080,15.240 L4.994,15.806 C4.942,15.834 4.884,15.846 4.828,15.846 C4.764,15.846 4.701,15.830 4.645,15.798 C4.539,15.735 4.474,15.623 4.474,15.502 L4.474,12.411 C4.474,12.293 4.537,12.182 4.640,12.118 L5.728,11.456 C5.837,11.390 5.973,11.386 6.086,11.447 C6.198,11.509 6.267,11.623 6.267,11.749 L6.267,14.936 ZM9.976,48.138 C9.976,48.252 9.920,48.358 9.826,48.421 C9.766,48.462 9.694,48.484 9.625,48.484 C9.583,48.484 9.542,48.477 9.502,48.462 L8.184,47.989 C8.046,47.940 7.953,47.810 7.953,47.666 L7.953,44.269 C7.953,44.162 8.004,44.060 8.092,43.994 C8.178,43.930 8.293,43.908 8.398,43.936 L9.717,44.294 C9.869,44.335 9.975,44.471 9.975,44.626 L9.975,48.138 L9.976,48.138 ZM9.976,41.113 C9.976,41.214 9.929,41.311 9.848,41.379 C9.784,41.429 9.704,41.457 9.623,41.457 C9.601,41.457 9.579,41.454 9.558,41.451 L8.239,41.210 C8.072,41.179 7.952,41.036 7.952,40.870 L7.952,37.473 C7.952,37.376 7.994,37.283 8.067,37.218 C8.141,37.154 8.240,37.121 8.338,37.130 L9.656,37.256 C9.838,37.273 9.975,37.422 9.975,37.600 L9.975,41.113 L9.976,41.113 ZM9.976,34.085 C9.976,34.177 9.939,34.267 9.871,34.330 C9.806,34.394 9.716,34.430 9.625,34.430 C9.623,34.430 9.622,34.430 9.621,34.430 L8.303,34.420 C8.110,34.418 7.954,34.265 7.954,34.076 L7.954,30.675 C7.954,30.497 8.094,30.348 8.277,30.333 L9.596,30.227 C9.694,30.218 9.791,30.252 9.864,30.317 C9.937,30.382 9.977,30.474 9.977,30.570 L9.977,34.085 L9.976,34.085 ZM9.976,27.058 C9.976,27.226 9.852,27.370 9.683,27.398 L8.365,27.622 C8.345,27.625 8.325,27.626 8.304,27.626 C8.222,27.626 8.141,27.599 8.077,27.547 C7.998,27.479 7.952,27.384 7.952,27.282 L7.952,23.885 C7.952,23.727 8.059,23.592 8.214,23.551 L9.532,23.212 C9.638,23.186 9.751,23.207 9.836,23.274 C9.922,23.340 9.975,23.439 9.975,23.547 L9.975,27.058 L9.976,27.058 ZM9.976,20.031 C9.976,20.177 9.882,20.308 9.741,20.356 L8.422,20.811 C8.384,20.824 8.345,20.831 8.304,20.831 C8.233,20.831 8.162,20.808 8.101,20.767 C8.008,20.702 7.953,20.598 7.953,20.486 L7.953,17.089 C7.953,16.951 8.034,16.828 8.162,16.773 L9.480,16.203 C9.589,16.156 9.716,16.166 9.815,16.229 C9.916,16.292 9.976,16.401 9.976,16.518 L9.976,20.031 L9.976,20.031 ZM9.976,13.005 C9.976,13.133 9.904,13.249 9.789,13.309 L8.470,13.994 C8.418,14.021 8.362,14.034 8.304,14.034 C8.242,14.034 8.178,14.019 8.123,13.986 C8.017,13.924 7.952,13.811 7.952,13.691 L7.952,10.293 C7.952,10.175 8.014,10.063 8.118,10.001 L9.435,9.198 C9.546,9.133 9.682,9.129 9.794,9.191 C9.907,9.250 9.976,9.367 9.976,9.492 L9.976,13.005 ZM14.531,49.776 C14.531,49.889 14.475,49.996 14.381,50.058 C14.320,50.099 14.249,50.121 14.178,50.121 C14.138,50.121 14.098,50.114 14.057,50.099 L12.427,49.514 C12.289,49.465 12.196,49.333 12.196,49.190 L12.196,45.419 C12.196,45.312 12.247,45.212 12.334,45.144 C12.422,45.080 12.536,45.059 12.641,45.087 L14.271,45.530 C14.424,45.571 14.530,45.708 14.530,45.862 L14.530,49.776 L14.531,49.776 ZM14.531,41.947 C14.531,42.051 14.484,42.147 14.403,42.213 C14.339,42.264 14.259,42.291 14.177,42.291 C14.155,42.291 14.134,42.289 14.112,42.286 L12.482,41.986 C12.316,41.957 12.195,41.815 12.195,41.646 L12.195,37.878 C12.195,37.781 12.237,37.687 12.311,37.622 C12.384,37.556 12.483,37.525 12.581,37.535 L14.211,37.690 C14.393,37.708 14.530,37.856 14.530,38.034 L14.530,41.947 L14.531,41.947 ZM14.531,34.119 C14.531,34.211 14.495,34.300 14.427,34.365 C14.360,34.429 14.271,34.464 14.178,34.464 C14.178,34.464 14.177,34.464 14.176,34.464 L12.546,34.451 C12.353,34.450 12.196,34.297 12.196,34.106 L12.196,30.335 C12.196,30.155 12.336,30.005 12.520,29.990 L14.148,29.860 C14.249,29.852 14.344,29.883 14.418,29.950 C14.489,30.014 14.531,30.106 14.531,30.202 L14.531,34.119 L14.531,34.119 ZM14.531,26.289 C14.531,26.458 14.407,26.601 14.237,26.629 L12.609,26.904 C12.588,26.908 12.568,26.910 12.547,26.910 C12.466,26.910 12.384,26.883 12.320,26.829 C12.241,26.765 12.195,26.667 12.195,26.567 L12.195,22.796 C12.195,22.638 12.302,22.501 12.457,22.462 L14.087,22.045 C14.193,22.017 14.305,22.039 14.391,22.104 C14.478,22.171 14.530,22.270 14.530,22.377 L14.530,26.289 L14.531,26.289 ZM14.531,18.462 C14.531,18.608 14.437,18.740 14.295,18.787 L12.665,19.349 C12.627,19.361 12.587,19.369 12.547,19.369 C12.476,19.369 12.405,19.346 12.345,19.305 C12.251,19.240 12.196,19.135 12.196,19.023 L12.196,15.253 C12.196,15.118 12.277,14.992 12.405,14.938 L14.035,14.232 C14.145,14.185 14.271,14.195 14.370,14.258 C14.471,14.321 14.531,14.430 14.531,14.547 L14.531,18.462 ZM14.531,10.633 C14.531,10.761 14.459,10.877 14.343,10.938 L12.713,11.785 C12.662,11.812 12.605,11.826 12.547,11.826 C12.485,11.826 12.422,11.810 12.366,11.776 C12.260,11.714 12.195,11.602 12.195,11.482 L12.195,7.709 C12.195,7.592 12.257,7.480 12.361,7.416 L13.990,6.425 C14.099,6.358 14.237,6.355 14.348,6.416 C14.459,6.478 14.530,6.592 14.530,6.717 L14.530,10.633 L14.531,10.633 ZM23.188,49.659 C23.188,49.828 23.063,49.971 22.893,50.000 L19.132,50.622 C19.111,50.624 19.093,50.627 19.073,50.627 C18.991,50.627 18.909,50.600 18.845,50.546 C18.765,50.481 18.719,50.385 18.719,50.284 L18.719,46.245 C18.719,46.071 18.851,45.925 19.026,45.904 L22.789,45.434 C22.888,45.421 22.990,45.453 23.067,45.516 C23.144,45.582 23.187,45.675 23.187,45.775 L23.187,49.659 L23.188,49.659 ZM23.188,41.888 C23.188,42.067 23.048,42.216 22.866,42.229 L19.103,42.548 C19.093,42.549 19.082,42.549 19.073,42.549 C18.986,42.549 18.899,42.518 18.834,42.460 C18.761,42.394 18.719,42.301 18.719,42.205 L18.719,38.198 C18.719,38.014 18.867,37.861 19.056,37.855 L22.819,37.687 C22.916,37.683 23.008,37.716 23.077,37.782 C23.148,37.847 23.187,37.938 23.187,38.031 L23.187,41.888 L23.188,41.888 ZM23.188,34.116 C23.188,34.307 23.030,34.461 22.836,34.463 L19.074,34.475 C19.073,34.475 19.073,34.475 19.073,34.475 C18.979,34.475 18.889,34.440 18.824,34.375 C18.757,34.311 18.721,34.223 18.721,34.133 L18.721,30.092 C18.721,30.000 18.760,29.910 18.829,29.845 C18.898,29.779 18.991,29.745 19.086,29.749 L22.849,29.888 C23.038,29.894 23.188,30.047 23.188,30.232 L23.188,34.116 ZM23.188,26.344 C23.188,26.440 23.148,26.533 23.075,26.598 C23.008,26.656 22.923,26.689 22.834,26.689 C22.825,26.689 22.816,26.688 22.807,26.688 L19.046,26.396 C18.862,26.381 18.721,26.232 18.721,26.051 L18.721,22.014 C18.721,21.915 18.764,21.821 18.839,21.756 C18.915,21.690 19.016,21.659 19.116,21.671 L22.877,22.116 C23.055,22.139 23.188,22.286 23.188,22.459 L23.188,26.344 L23.188,26.344 ZM23.188,18.573 C23.188,18.675 23.143,18.771 23.063,18.836 C22.999,18.889 22.918,18.919 22.834,18.919 C22.815,18.919 22.798,18.917 22.778,18.916 L19.016,18.317 C18.845,18.291 18.719,18.146 18.719,17.976 L18.719,13.938 C18.719,13.834 18.766,13.737 18.850,13.671 C18.931,13.606 19.038,13.580 19.144,13.600 L22.905,14.350 C23.069,14.382 23.188,14.524 23.188,14.688 L23.188,18.573 ZM23.188,10.802 C23.188,10.908 23.139,11.007 23.052,11.074 C22.990,11.121 22.911,11.147 22.834,11.147 C22.807,11.147 22.778,11.145 22.751,11.137 L18.990,10.235 C18.832,10.197 18.721,10.058 18.721,9.900 L18.721,5.861 C18.721,5.752 18.773,5.651 18.860,5.584 C18.949,5.519 19.063,5.498 19.170,5.528 L22.931,6.584 C23.082,6.626 23.187,6.761 23.187,6.915 L23.187,10.802 L23.188,10.802 ZM29.919,48.546 C29.919,48.714 29.794,48.857 29.624,48.886 L26.381,49.424 C26.362,49.426 26.342,49.427 26.322,49.427 C26.240,49.427 26.159,49.400 26.095,49.348 C26.016,49.281 25.969,49.185 25.969,49.084 L25.969,45.339 C25.969,45.165 26.100,45.018 26.277,44.997 L29.519,44.591 C29.620,44.578 29.720,44.610 29.797,44.674 C29.873,44.741 29.918,44.834 29.918,44.934 L29.918,48.546 L29.919,48.546 ZM29.919,41.320 C29.919,41.498 29.779,41.648 29.596,41.663 L26.354,41.936 C26.343,41.937 26.333,41.937 26.324,41.937 C26.236,41.937 26.150,41.906 26.085,41.847 C26.012,41.782 25.970,41.691 25.970,41.594 L25.970,37.851 C25.970,37.665 26.119,37.514 26.308,37.505 L29.551,37.363 C29.645,37.358 29.741,37.393 29.809,37.458 C29.880,37.524 29.919,37.613 29.919,37.707 L29.919,41.320 ZM29.919,34.094 C29.919,34.282 29.761,34.438 29.566,34.440 L26.324,34.450 L26.322,34.450 C26.230,34.450 26.140,34.415 26.073,34.350 C26.006,34.285 25.969,34.197 25.969,34.106 L25.969,30.360 C25.969,30.267 26.008,30.176 26.077,30.113 C26.146,30.048 26.240,30.012 26.336,30.018 L29.577,30.137 C29.767,30.145 29.918,30.296 29.918,30.483 L29.918,34.094 L29.919,34.094 ZM29.919,26.867 C29.919,26.962 29.877,27.055 29.805,27.121 C29.739,27.179 29.654,27.211 29.565,27.211 C29.556,27.211 29.545,27.211 29.536,27.210 L26.294,26.958 C26.110,26.944 25.969,26.795 25.969,26.614 L25.969,22.872 C25.969,22.773 26.012,22.680 26.089,22.615 C26.164,22.548 26.264,22.518 26.364,22.530 L29.607,22.914 C29.784,22.936 29.918,23.081 29.918,23.256 L29.918,26.867 L29.919,26.867 ZM29.919,19.641 C29.919,19.741 29.873,19.837 29.794,19.904 C29.730,19.958 29.649,19.985 29.565,19.985 C29.545,19.985 29.527,19.984 29.509,19.980 L26.266,19.466 C26.095,19.440 25.969,19.294 25.969,19.125 L25.969,15.380 C25.969,15.277 26.017,15.179 26.099,15.114 C26.180,15.048 26.290,15.022 26.393,15.042 L29.636,15.689 C29.800,15.721 29.919,15.863 29.919,16.027 L29.919,19.641 ZM29.919,12.415 C29.919,12.522 29.869,12.621 29.784,12.686 C29.720,12.735 29.643,12.760 29.566,12.760 C29.538,12.760 29.510,12.758 29.482,12.750 L26.239,11.973 C26.081,11.936 25.970,11.797 25.970,11.638 L25.970,7.893 C25.970,7.785 26.022,7.683 26.111,7.618 C26.198,7.553 26.313,7.533 26.419,7.562 L29.662,8.471 C29.813,8.513 29.918,8.649 29.918,8.803 L29.918,12.415 L29.919,12.415 ZM35.767,47.577 C35.767,47.745 35.643,47.889 35.473,47.919 L32.648,48.386 C32.627,48.389 32.609,48.390 32.588,48.390 C32.507,48.390 32.425,48.362 32.361,48.309 C32.281,48.243 32.236,48.148 32.236,48.046 L32.236,44.555 C32.236,44.382 32.368,44.236 32.543,44.214 L35.367,43.861 C35.468,43.848 35.569,43.879 35.646,43.943 C35.723,44.009 35.766,44.105 35.766,44.202 L35.766,47.577 L35.767,47.577 ZM35.767,40.825 C35.767,41.005 35.627,41.153 35.444,41.169 L32.620,41.407 C32.609,41.408 32.599,41.408 32.588,41.408 C32.501,41.408 32.416,41.377 32.349,41.318 C32.276,41.253 32.236,41.161 32.236,41.065 L32.236,37.574 C32.236,37.391 32.383,37.239 32.573,37.231 L35.397,37.107 C35.493,37.102 35.588,37.136 35.656,37.202 C35.726,37.267 35.766,37.358 35.766,37.450 L35.766,40.825 L35.767,40.825 ZM35.767,34.074 C35.767,34.263 35.610,34.417 35.414,34.420 L32.590,34.429 C32.590,34.429 32.590,34.429 32.588,34.429 C32.496,34.429 32.405,34.393 32.340,34.329 C32.274,34.263 32.237,34.176 32.237,34.085 L32.237,30.593 C32.237,30.500 32.275,30.410 32.345,30.347 C32.415,30.281 32.506,30.247 32.603,30.251 L35.427,30.355 C35.615,30.361 35.767,30.514 35.767,30.698 L35.767,34.074 ZM35.767,27.322 C35.767,27.417 35.726,27.510 35.653,27.575 C35.588,27.634 35.503,27.666 35.413,27.666 C35.404,27.666 35.395,27.666 35.386,27.664 L32.561,27.445 C32.378,27.430 32.237,27.280 32.237,27.102 L32.237,23.612 C32.237,23.514 32.280,23.421 32.356,23.354 C32.432,23.289 32.532,23.259 32.633,23.272 L35.456,23.607 C35.634,23.626 35.767,23.773 35.767,23.948 L35.767,27.322 L35.767,27.322 ZM35.767,20.570 C35.767,20.672 35.721,20.767 35.643,20.832 C35.578,20.886 35.497,20.913 35.413,20.913 C35.395,20.913 35.376,20.913 35.357,20.909 L32.532,20.460 C32.361,20.433 32.236,20.289 32.236,20.119 L32.236,16.630 C32.236,16.526 32.283,16.428 32.365,16.363 C32.449,16.298 32.556,16.272 32.660,16.292 L35.485,16.854 C35.648,16.887 35.767,17.029 35.767,17.191 L35.767,20.570 L35.767,20.570 ZM35.767,13.818 C35.767,13.924 35.717,14.024 35.631,14.089 C35.569,14.137 35.493,14.164 35.413,14.164 C35.386,14.164 35.357,14.160 35.329,14.154 L32.505,13.476 C32.348,13.439 32.237,13.299 32.237,13.142 L32.237,9.650 C32.237,9.542 32.289,9.440 32.377,9.375 C32.464,9.311 32.579,9.289 32.686,9.319 L35.511,10.112 C35.661,10.153 35.766,10.289 35.766,10.443 L35.766,13.818 L35.767,13.818 ZM47.503,51.437 C47.503,51.594 47.394,51.731 47.237,51.770 L38.145,54.013 C38.118,54.019 38.088,54.023 38.060,54.023 C37.982,54.023 37.906,53.998 37.843,53.951 C37.757,53.884 37.708,53.784 37.708,53.678 L37.708,34.066 C37.708,34.032 37.762,30.445 42.895,30.635 C47.453,30.800 47.505,34.002 47.505,34.035 L47.505,51.437 L47.503,51.437 ZM51.322,45.004 C51.322,45.173 51.197,45.316 51.028,45.344 L49.172,45.652 C49.151,45.656 49.133,45.657 49.112,45.657 C49.030,45.657 48.949,45.629 48.885,45.575 C48.805,45.509 48.760,45.413 48.760,45.311 L48.760,42.491 C48.760,42.317 48.892,42.170 49.067,42.148 L50.924,41.915 C51.024,41.903 51.125,41.935 51.202,41.998 C51.278,42.064 51.322,42.158 51.322,42.257 L51.322,45.004 L51.322,45.004 ZM51.322,39.513 C51.322,39.692 51.182,39.841 50.999,39.855 L49.142,40.012 C49.132,40.013 49.122,40.013 49.112,40.013 C49.025,40.013 48.940,39.981 48.873,39.924 C48.800,39.857 48.760,39.765 48.760,39.670 L48.760,36.848 C48.760,36.664 48.907,36.512 49.097,36.505 L50.954,36.423 C51.049,36.417 51.144,36.452 51.212,36.517 C51.283,36.583 51.322,36.673 51.322,36.767 L51.322,39.513 ZM51.322,33.999 C51.322,34.190 51.164,34.344 50.971,34.344 L49.114,34.350 C49.114,34.350 49.114,34.350 49.112,34.350 C49.020,34.350 48.929,34.315 48.864,34.250 C48.798,34.185 48.761,34.098 48.761,34.006 L48.761,31.208 C48.761,31.115 48.799,31.026 48.868,30.960 C48.937,30.894 49.030,30.860 49.127,30.864 L50.982,30.935 C51.172,30.940 51.323,31.092 51.323,31.278 L51.323,33.999 L51.322,33.999 ZM51.322,28.530 C51.322,28.625 51.280,28.719 51.208,28.782 C51.142,28.843 51.057,28.874 50.968,28.874 C50.959,28.874 50.948,28.872 50.941,28.872 L49.084,28.729 C48.901,28.715 48.760,28.565 48.760,28.384 L48.760,25.564 C48.760,25.465 48.803,25.372 48.879,25.307 C48.954,25.242 49.055,25.210 49.154,25.223 L51.011,25.443 C51.189,25.463 51.322,25.609 51.322,25.784 L51.322,28.530 L51.322,28.530 ZM51.322,23.040 C51.322,23.140 51.276,23.236 51.197,23.302 C51.133,23.355 51.052,23.384 50.968,23.384 C50.948,23.384 50.930,23.382 50.912,23.379 L49.055,23.085 C48.884,23.058 48.758,22.913 48.758,22.745 L48.758,19.923 C48.758,19.820 48.805,19.722 48.888,19.656 C48.970,19.591 49.078,19.565 49.183,19.585 L51.039,19.954 C51.203,19.988 51.322,20.130 51.322,20.294 L51.322,23.040 ZM51.322,17.547 C51.322,17.654 51.272,17.755 51.188,17.819 C51.123,17.867 51.048,17.893 50.969,17.893 C50.942,17.893 50.913,17.890 50.886,17.883 L49.027,17.438 C48.871,17.399 48.760,17.260 48.760,17.102 L48.760,14.282 C48.760,14.174 48.811,14.072 48.901,14.006 C48.988,13.941 49.103,13.921 49.210,13.950 L51.066,14.471 C51.217,14.513 51.322,14.648 51.322,14.803 L51.322,17.547 ZM54.753,44.435 C54.753,44.604 54.627,44.747 54.458,44.775 L52.787,45.053 C52.768,45.055 52.748,45.056 52.728,45.056 C52.646,45.056 52.565,45.030 52.500,44.977 C52.420,44.911 52.375,44.814 52.375,44.714 L52.375,42.039 C52.375,41.865 52.508,41.719 52.683,41.696 L54.353,41.488 C54.454,41.475 54.554,41.505 54.631,41.572 C54.708,41.637 54.751,41.731 54.751,41.829 L54.751,44.435 L54.753,44.435 ZM54.753,39.223 C54.753,39.404 54.613,39.552 54.430,39.568 L52.760,39.708 C52.749,39.709 52.739,39.709 52.730,39.709 C52.642,39.709 52.556,39.677 52.491,39.619 C52.418,39.554 52.376,39.462 52.376,39.365 L52.376,36.691 C52.376,36.506 52.525,36.355 52.714,36.347 L54.384,36.273 C54.480,36.267 54.575,36.303 54.643,36.366 C54.714,36.432 54.753,36.522 54.753,36.616 L54.753,39.223 ZM54.753,34.011 C54.753,34.199 54.595,34.355 54.400,34.355 L52.730,34.363 L52.728,34.363 C52.636,34.363 52.546,34.326 52.480,34.261 C52.414,34.196 52.376,34.109 52.376,34.017 L52.376,31.343 C52.376,31.247 52.415,31.158 52.484,31.092 C52.553,31.027 52.646,30.993 52.742,30.997 L54.413,31.059 C54.603,31.067 54.753,31.218 54.753,31.404 L54.753,34.011 L54.753,34.011 ZM54.753,28.797 C54.753,28.892 54.712,28.986 54.639,29.049 C54.574,29.109 54.488,29.141 54.399,29.141 C54.390,29.141 54.381,29.140 54.371,29.140 L52.701,29.010 C52.517,28.996 52.376,28.846 52.376,28.667 L52.376,25.991 C52.376,25.893 52.419,25.800 52.496,25.733 C52.572,25.668 52.672,25.637 52.772,25.650 L54.442,25.847 C54.619,25.868 54.753,26.015 54.753,26.188 L54.753,28.797 L54.753,28.797 ZM54.753,23.582 C54.753,23.685 54.707,23.781 54.627,23.845 C54.563,23.900 54.482,23.929 54.399,23.929 C54.379,23.929 54.362,23.927 54.343,23.925 L52.672,23.659 C52.501,23.633 52.375,23.487 52.375,23.319 L52.375,20.644 C52.375,20.541 52.423,20.442 52.505,20.377 C52.586,20.310 52.694,20.285 52.799,20.306 L54.469,20.639 C54.634,20.671 54.753,20.813 54.753,20.976 L54.753,23.582 L54.753,23.582 ZM54.753,18.370 C54.753,18.476 54.703,18.576 54.617,18.642 C54.554,18.689 54.477,18.715 54.399,18.715 C54.371,18.715 54.343,18.712 54.314,18.704 L52.645,18.305 C52.487,18.269 52.376,18.129 52.376,17.970 L52.376,15.296 C52.376,15.188 52.428,15.085 52.517,15.020 C52.604,14.954 52.719,14.935 52.825,14.964 L54.495,15.432 C54.647,15.474 54.751,15.609 54.751,15.764 L54.751,18.370 L54.753,18.370 ZM57.853,43.923 C57.853,44.091 57.728,44.234 57.558,44.263 L56.047,44.513 C56.026,44.516 56.008,44.517 55.988,44.517 C55.905,44.517 55.824,44.490 55.760,44.437 C55.680,44.370 55.634,44.275 55.634,44.174 L55.634,41.632 C55.634,41.459 55.766,41.311 55.942,41.290 L57.453,41.101 C57.554,41.088 57.654,41.119 57.731,41.184 C57.809,41.249 57.852,41.344 57.852,41.443 L57.852,43.923 L57.853,43.923 ZM57.853,38.960 C57.853,39.141 57.713,39.289 57.530,39.305 L56.018,39.432 C56.009,39.434 55.998,39.434 55.989,39.434 C55.902,39.434 55.816,39.403 55.750,39.343 C55.677,39.278 55.635,39.186 55.635,39.089 L55.635,36.547 C55.635,36.362 55.783,36.210 55.972,36.202 L57.485,36.135 C57.579,36.130 57.674,36.166 57.743,36.230 C57.814,36.296 57.853,36.385 57.853,36.480 L57.853,38.960 ZM57.853,33.999 C57.853,34.190 57.695,34.344 57.500,34.345 L55.989,34.350 C55.988,34.350 55.988,34.350 55.988,34.350 C55.895,34.350 55.804,34.315 55.739,34.250 C55.672,34.185 55.635,34.098 55.635,34.006 L55.635,31.465 C55.635,31.371 55.675,31.281 55.744,31.215 C55.813,31.150 55.905,31.115 56.001,31.119 L57.513,31.175 C57.703,31.182 57.853,31.334 57.853,31.521 L57.853,33.999 L57.853,33.999 ZM57.853,29.037 C57.853,29.134 57.811,29.225 57.739,29.291 C57.673,29.350 57.588,29.382 57.499,29.382 C57.490,29.382 57.479,29.382 57.472,29.381 L55.961,29.263 C55.776,29.248 55.635,29.098 55.635,28.919 L55.635,26.376 C55.635,26.278 55.679,26.185 55.754,26.119 C55.830,26.053 55.931,26.023 56.031,26.034 L57.542,26.214 C57.720,26.234 57.853,26.381 57.853,26.555 L57.853,29.037 ZM57.853,24.076 C57.853,24.177 57.807,24.273 57.728,24.338 C57.664,24.392 57.583,24.419 57.499,24.419 C57.479,24.419 57.461,24.418 57.443,24.415 L55.931,24.176 C55.760,24.149 55.635,24.004 55.635,23.835 L55.635,21.292 C55.635,21.189 55.683,21.092 55.766,21.027 C55.848,20.962 55.957,20.936 56.060,20.954 L57.571,21.256 C57.735,21.288 57.854,21.430 57.854,21.594 L57.854,24.076 L57.853,24.076 ZM57.853,19.114 C57.853,19.220 57.803,19.320 57.717,19.385 C57.654,19.434 57.577,19.458 57.499,19.458 C57.472,19.458 57.443,19.456 57.416,19.448 L55.905,19.086 C55.746,19.049 55.635,18.910 55.635,18.751 L55.635,16.209 C55.635,16.100 55.688,15.999 55.775,15.934 C55.864,15.868 55.979,15.848 56.085,15.878 L57.596,16.301 C57.747,16.343 57.852,16.480 57.852,16.633 L57.852,19.114 L57.853,19.114 Z"/>
</svg>