<svg 
 xmlns="http://www.w3.org/2000/svg"
 xmlns:xlink="http://www.w3.org/1999/xlink"
 width="51px" height="37px">
<path fill-rule="evenodd"  fill="rgb(239, 91, 91)"
 d="M50.978,4.269 L47.617,16.860 L45.541,11.046 L50.973,4.272 L43.457,8.817 L37.630,6.280 L51.000,4.256 L50.978,4.269 ZM8.748,27.273 C8.245,27.201 7.192,27.004 5.941,26.514 C5.225,26.241 4.558,25.920 3.938,25.564 C3.932,25.546 3.925,25.530 3.918,25.514 C2.493,24.644 1.050,23.360 0.000,21.466 C0.000,21.466 1.519,22.890 2.977,22.676 C2.654,21.333 2.482,19.935 2.482,18.499 C2.482,8.281 11.102,-0.001 21.736,-0.001 C30.115,-0.001 37.241,5.144 39.887,12.324 C25.339,25.503 15.393,28.378 8.748,27.273 ZM40.663,15.116 C40.874,16.214 40.990,17.342 40.990,18.499 C40.990,28.716 32.370,36.998 21.736,36.998 C17.649,36.998 13.861,35.772 10.744,33.684 C22.372,36.687 35.325,22.017 40.663,15.116 Z"/>
</svg>