<svg xmlns="http://www.w3.org/2000/svg" width="113.969" height="124.94" viewBox="0 0 113.969 124.94">
  <metadata><?xpacket begin="﻿" id="W5M0MpCehiHzreSzNTczkc9d"?>
<x:xmpmeta xmlns:x="adobe:ns:meta/" x:xmptk="Adobe XMP Core 5.6-c142 79.160924, 2017/07/13-01:06:39        ">
   <rdf:RDF xmlns:rdf="http://www.w3.org/1999/02/22-rdf-syntax-ns#">
      <rdf:Description rdf:about=""/>
   </rdf:RDF>
</x:xmpmeta>
                                                                                                    
                                                                                                    
                                                                                                    
                                                                                                    
                                                                                                    
                                                                                                    
                                                                                                    
                                                                                                    
                                                                                                    
                                                                                                    
                                                                                                    
                                                                                                    
                                                                                                    
                                                                                                    
                                                                                                    
                                                                                                    
                                                                                                    
                                                                                                    
                                                                                                    
                                                                                                    
                           
<?xpacket end="w"?></metadata>
<defs>
    <style>
      .cls-1 {
        fill: #ef5b5b;
        fill-rule: evenodd;
      }
    </style>
  </defs>
  <path class="cls-1" d="M488.747,5273.34c0.116-.09.242-0.18,0.358-0.28h0.84a1.71,1.71,0,0,1,.2.33,0.453,0.453,0,0,0,.562.37,0.975,0.975,0,0,1,.86.16,0.845,0.845,0,0,0,.509.15,0.632,0.632,0,0,1,.232.05,0.267,0.267,0,0,1,.144.42,2.732,2.732,0,0,1-.885.97c-0.171.12-.342,0.23-0.51,0.35a0.113,0.113,0,0,0-.025.11,0.112,0.112,0,0,0,.106.05,0.987,0.987,0,0,0,.787-0.42,6.17,6.17,0,0,1,1.4-1.12,0.39,0.39,0,0,1,.507-0.02,1.691,1.691,0,0,0,.248.18,0.867,0.867,0,0,1,.614.98,1.643,1.643,0,0,0,.434,1,0.694,0.694,0,0,0,.37.2,1.452,1.452,0,0,1,.66,2.07,6.99,6.99,0,0,1-1.166,1.6,5.964,5.964,0,0,0-.809.89,0.48,0.48,0,0,1-.529.23,1.4,1.4,0,0,0-.352-0.04,0.2,0.2,0,0,0-.207.2,0.408,0.408,0,0,1-.458.41,3.551,3.551,0,0,0-.915.19,2.889,2.889,0,0,1,.417.22,0.215,0.215,0,0,1,.023.34c-0.2.17-.422,0.33-0.633,0.5a1.478,1.478,0,0,0-.488.46c0.094,0.12.165,0.04,0.217-.01a16.52,16.52,0,0,1,1.389-.92,1.987,1.987,0,0,1,.9-0.35,0.3,0.3,0,0,1,.335.36,1.079,1.079,0,0,1-.218.61,2.412,2.412,0,0,1-.7.72,1.047,1.047,0,0,0-.484.57,7.363,7.363,0,0,1-1.173,1.77c-0.077.1-.171,0.19-0.248,0.29a3.013,3.013,0,0,0-.629,1.27,0.781,0.781,0,0,1-.365.58,0.508,0.508,0,0,0-.256.48,0.276,0.276,0,0,1-.224.28,1.064,1.064,0,0,0-.591.29,1.086,1.086,0,0,0-.53-0.08,0.225,0.225,0,0,0-.105.14,0.173,0.173,0,0,0,.1.14,0.5,0.5,0,0,0,.532-0.2,0.624,0.624,0,0,1,.237.02,0.292,0.292,0,0,1,.154.46,1.9,1.9,0,0,1-.21.24c-0.1.11-.208,0.21-0.312,0.32a0.388,0.388,0,0,0-.114.41,0.565,0.565,0,0,1-.337.73,1.476,1.476,0,0,1-.877.13,1.248,1.248,0,0,1-.21-0.02,0.367,0.367,0,0,0-.071.33,0.4,0.4,0,0,1-.16.34,2.689,2.689,0,0,1-1.087.52,1.339,1.339,0,0,0-.569.18,0.661,0.661,0,0,1-.345.07c-0.1.01-.2-0.02-0.294-0.01a0.418,0.418,0,0,0-.429.15c-0.056.11,0.176,0.19,0.446,0.18,0.456-.01.91-0.01,1.369,0a0.254,0.254,0,0,1,.264.23,0.53,0.53,0,1,1-.887.54,0.557,0.557,0,0,1-.058-0.12,0.471,0.471,0,0,0-.547-0.3c-0.118.02-.235,0.03-0.375,0.06,0.058,0.13.161,0.08,0.237,0.09,0.1,0.03.2,0.04,0.291,0.07a0.17,0.17,0,0,1,.151.17,0.164,0.164,0,0,1-.168.15,0.989,0.989,0,0,1-.171.05c0.053,0.15.165,0.09,0.246,0.11a0.5,0.5,0,0,1,.387.14,1.408,1.408,0,0,0,.536.42,0.508,0.508,0,0,1,.275.47c0.006,0.12.009,0.23,0.012,0.34a0.6,0.6,0,0,1-.49.77c-0.073.03-.146,0.05-0.231,0.08a0.862,0.862,0,0,0,.333.38,0.386,0.386,0,0,1,.03.43c-0.181.28-.374,0.55-0.744,0.38a0.346,0.346,0,0,0-.173.01,0.062,0.062,0,0,0-.029.05,0.111,0.111,0,0,0,.006.06c0.13,0.06.258,0.12,0.387,0.17a0.247,0.247,0,0,1,.182.23,0.35,0.35,0,0,1-.182.39,1.751,1.751,0,0,1-1.2.25,0.221,0.221,0,0,0-.177.01,0.2,0.2,0,0,0-.157.24,2.543,2.543,0,0,0,.131.65,0.757,0.757,0,0,1-.015.64,1.705,1.705,0,0,0-.084.25,0.752,0.752,0,0,1-.768.61,1.783,1.783,0,0,0-.646.1,0.105,0.105,0,0,0,.012.21,1.5,1.5,0,0,1,.3-0.03,0.384,0.384,0,0,1,.357.49,0.736,0.736,0,0,1-.066.19,0.277,0.277,0,0,0,.023.31c0.114,0.12.216,0.06,0.317-.03a0.507,0.507,0,0,1,.16-0.09,0.213,0.213,0,0,1,.255.12,1.13,1.13,0,0,1,.031,1.03,0.885,0.885,0,0,1-.679.66,0.213,0.213,0,0,0-.2.13,1.933,1.933,0,0,1-1.083.77c-0.155.09-.287-0.03-0.271-0.21,0.013-.16.048-0.31,0.058-0.46a0.237,0.237,0,0,0-.22-0.27,0.894,0.894,0,0,0-.794.18,0.264,0.264,0,0,1-.217.07,7.356,7.356,0,0,1-.917-0.26,0.268,0.268,0,0,0-.442.13,0.551,0.551,0,0,0-.063.18,0.347,0.347,0,0,1-.134.35,0.7,0.7,0,0,1-.352.02,1.955,1.955,0,0,1-.727-0.27,3.332,3.332,0,0,0-.841-0.22,0.176,0.176,0,0,0-.163.04,0.289,0.289,0,0,1-.388.01,1.234,1.234,0,0,0-.565-0.16,1.8,1.8,0,0,1-.749-0.34,1.155,1.155,0,0,1-.318-0.71c-0.054-.28.111-0.52,0.363-0.45a0.462,0.462,0,0,0,.57-0.19,4.092,4.092,0,0,1,.347-0.37,0.88,0.88,0,0,1,.61-0.38,0.476,0.476,0,0,0,.309-0.18,0.311,0.311,0,0,0,.042-0.42,4.787,4.787,0,0,1-.6-1.29,0.606,0.606,0,0,1,.265-0.89,0.853,0.853,0,0,1,1.3.46,5.08,5.08,0,0,1,.264.75,0.659,0.659,0,0,0,.644.5,2.093,2.093,0,0,0,.678-0.2,0.176,0.176,0,0,0,0-.11,0.368,0.368,0,0,0-.273-0.12,0.948,0.948,0,0,1-.779-0.8,2,2,0,0,0-.157-0.43c-0.183-.34-0.178-0.37.039-0.63a0.758,0.758,0,0,0,.23-0.35,0.473,0.473,0,0,0-.366.07,0.255,0.255,0,0,1-.326-0.07c-0.094-.16-0.192-0.21-0.345-0.1a0.816,0.816,0,0,1-.227.09,0.321,0.321,0,0,1-.4-0.3c-0.047-.32-0.069-0.66-0.086-0.99a0.282,0.282,0,0,1,.046-0.19,2.465,2.465,0,0,0,.4-1.02,0.528,0.528,0,0,1,.37-0.41,1.562,1.562,0,0,0,.867-0.4,0.248,0.248,0,0,1,.171-0.03c0.307,0.1.611,0.19,0.912,0.31a0.729,0.729,0,0,1,.179.18,0.129,0.129,0,0,0,.207.01,0.488,0.488,0,0,1,.5-0.11,0.549,0.549,0,0,0,.464-0.07,0.079,0.079,0,0,0,.018-0.06,0.063,0.063,0,0,0-.027-0.05,4.488,4.488,0,0,1-1.354-.22,0.941,0.941,0,0,1-.606-0.39,0.429,0.429,0,0,1-.092-0.31,0.184,0.184,0,0,1,.253-0.18c0.148,0.1.287,0.21,0.438,0.33a0.481,0.481,0,0,0,0-.16,2.511,2.511,0,0,1-.529-1.24,5.076,5.076,0,0,0-.49-1.21,0.835,0.835,0,0,0-.447-0.43,0.933,0.933,0,0,1-.524-1.02,2.284,2.284,0,0,0-.04-0.59,2.628,2.628,0,0,1,.055-0.94,0.409,0.409,0,0,1,.5-0.42c0.469,0.1.934,0.24,1.4,0.37a0.531,0.531,0,0,1,.333.36,7.108,7.108,0,0,0,.855,1.68,2.154,2.154,0,0,1,.215.62,0.783,0.783,0,0,0,.536.58,0.222,0.222,0,0,0,.164-0.01c0.069-.09,0-0.16-0.061-0.22a0.375,0.375,0,0,0-.093-0.08,0.8,0.8,0,0,1-.383-0.77,0.883,0.883,0,0,0-.324-0.75,1.184,1.184,0,0,1-.364-0.6c-0.091-.27-0.191-0.54-0.273-0.82a0.3,0.3,0,0,1,.182-0.42c0.227-.1.455-0.17,0.687-0.25a4.425,4.425,0,0,0,1.279-.54,2.176,2.176,0,0,1,.858-0.27,0.5,0.5,0,0,0,.37-0.13c-0.287,0-.542-0.01-0.8-0.03a0.161,0.161,0,0,1-.131-0.1,0.212,0.212,0,0,1,.044-0.18,3.8,3.8,0,0,1,1.107-.76c0.094-.05.194-0.07,0.284-0.12,0.122-.07.392,0,0.337-0.23-0.039-.16-0.284-0.08-0.442-0.05a1.01,1.01,0,0,0-.286.09,0.392,0.392,0,0,1-.564-0.25c-0.214.26-.34,0.55-0.543,0.76a4.732,4.732,0,0,1-1.951,1.13,0.991,0.991,0,0,1-.175.04c-0.227.03-.306-0.07-0.293-0.36s-0.02-.36-0.132-0.36c-0.168,0-.185.15-0.2,0.28a0.665,0.665,0,0,1-.615.62,2.492,2.492,0,0,1-1.291-.19,0.507,0.507,0,0,1-.3-0.69,1.279,1.279,0,0,1,.074-0.26,5.878,5.878,0,0,1,.7-1.31c0.059-.08.279-0.13,0.123-0.28-0.087-.09-0.224.05-0.3,0.14a3.306,3.306,0,0,0-.477.77c-0.143.3-.263,0.61-0.4,0.9a0.316,0.316,0,0,1-.488.21,2.206,2.206,0,0,1-.469-0.29,3.493,3.493,0,0,1-.71-0.81,0.361,0.361,0,0,1,.1-0.52,1.179,1.179,0,0,1,1.027-.25,1.056,1.056,0,0,0,1.175-.45c0.258-.31.519-0.61,0.781-0.92-0.042-.12-0.122-0.05-0.179-0.02a1.662,1.662,0,0,0-.553.51,1.243,1.243,0,0,1-1.142.61,2.6,2.6,0,0,0-.991.19,1.1,1.1,0,0,0-.171.05,0.449,0.449,0,0,1-.552-0.12,0.868,0.868,0,0,1-.182-0.81,0.337,0.337,0,0,1,.366-0.26c0.038,0,.081.02,0.115,0.02a0.421,0.421,0,0,0,.109-0.03c-0.36-.4-0.358-0.39-0.048-0.81,0.126-.18.238-0.36,0.357-0.53-0.107-.13-0.163-0.03-0.216.02-0.19.16-.373,0.33-0.56,0.49-0.164.14-.286,0.15-0.374,0.05a0.429,0.429,0,0,1-.078-0.54c0.07-.11.164-0.19,0.24-0.3a2.084,2.084,0,0,0,.2-0.32,0.3,0.3,0,0,0-.069-0.36,0.2,0.2,0,0,0-.279.04c-0.1.1-.183,0.23-0.28,0.34a0.319,0.319,0,0,1-.36.18,0.615,0.615,0,0,1-.337-0.58,0.759,0.759,0,0,1,.052-0.19,2.306,2.306,0,0,1,1.187-1.17,0.327,0.327,0,0,1,.469.15,0.186,0.186,0,0,0,.142.09,0.116,0.116,0,0,0,.073-0.15,1.136,1.136,0,0,1,.45-1.03,0.731,0.731,0,0,1,.833-0.21c0.21,0.05.426,0.12,0.641,0.17a0.2,0.2,0,0,0,.238-0.04,4.748,4.748,0,0,1-.321-0.46,0.311,0.311,0,0,1,.17-0.47c0.158-.04.318-0.04,0.475-0.07a0.411,0.411,0,0,0,.28-0.56c-0.05-.18-0.138-0.32-0.2-0.49a0.257,0.257,0,0,1,.123-0.33,0.747,0.747,0,0,1,.8.08,2.112,2.112,0,0,1,.313.32,2,2,0,0,0,.883.65,0.969,0.969,0,0,1,.462.41,4.737,4.737,0,0,0,.847.95,0.292,0.292,0,0,0-.144-0.36,10.009,10.009,0,0,1-.9-1.17,0.89,0.89,0,0,1-.085-0.88,0.286,0.286,0,0,1,.09-0.17c0.4-.12.217-0.36,0.113-0.6a0.349,0.349,0,0,1,.039-0.37,0.292,0.292,0,0,1,.388-0.05,1.418,1.418,0,0,1,.388.31,0.575,0.575,0,0,0,.252.27,0.171,0.171,0,0,0,0-.23c-0.152-.35-0.32-0.67-0.469-1.02a0.284,0.284,0,0,1,.274-0.43,1.463,1.463,0,0,1,.723.34,1.409,1.409,0,0,0-.157-0.53,0.435,0.435,0,0,1,.067-0.38,0.84,0.84,0,0,1,.961-0.33c0.3,0.07.263,0.48,0.528,0.52a0.459,0.459,0,0,1,.654-0.08c0.105,0.05.179-.03,0.184-0.18,0.021-.58.024-0.57,0.491-0.67a4.939,4.939,0,0,1,1.014-.1,0.764,0.764,0,0,1,.787.58c0.041,0.12.094,0.24,0.14,0.37,0.023,0.1.034,0.2,0.064,0.3a0.168,0.168,0,0,0,.089.04,0.2,0.2,0,0,0,.024-0.1c-0.054-.08-0.118-0.16-0.177-0.24a2.22,2.22,0,0,1,.205-0.55,0.929,0.929,0,0,1,1.474-.52c-0.214.43-.2,0.51,0.158,0.74A1.217,1.217,0,0,1,488.747,5273.34Zm-4.7,10.6c-0.038-.01-0.066-0.02-0.072-0.02-0.215.26-.429,0.52-0.645,0.78-0.024.03-.052,0.07-0.072,0.1a0.311,0.311,0,0,0-.051.12,0.518,0.518,0,0,0,.017.44c0.176,0.1.2-.15,0.251-0.27A8,8,0,0,0,484.051,5283.94Zm1.356-7.47c0.006,0.05.008,0.12,0.016,0.18a0.066,0.066,0,0,0,.08.07,0.1,0.1,0,0,0,.048-0.04,1.049,1.049,0,0,0,.089-0.17,0.27,0.27,0,0,0-.033-0.35,0.108,0.108,0,0,0-.054-0.02C485.391,5276.18,485.423,5276.33,485.407,5276.47Zm-4.106,25.79,0.559-.3a0.074,0.074,0,0,0,0-.06,0.18,0.18,0,0,0-.094-0.07,0.8,0.8,0,0,0-.5.3,0.074,0.074,0,0,0,0,.06A0.338,0.338,0,0,0,481.3,5302.26Zm3.524-27.34a1.53,1.53,0,0,0,.216.74,0.19,0.19,0,0,0,.1.05,0.2,0.2,0,0,0,.043-0.1A1.879,1.879,0,0,0,484.825,5274.92Zm-3.77,11.74a0.127,0.127,0,0,0-.01-0.05,0.089,0.089,0,0,0-.043-0.03,0.4,0.4,0,0,0-.246.24,0.047,0.047,0,0,0,.006.05,0.045,0.045,0,0,0,.043.03A0.382,0.382,0,0,0,481.055,5286.66Zm5.8,4.97a0.1,0.1,0,0,0-.031-0.05,0.159,0.159,0,0,0-.212-0.03,0.062,0.062,0,0,0-.007.06,0.193,0.193,0,0,0,.212.06A0.28,0.28,0,0,0,486.859,5291.63Zm-41,32.11a1.4,1.4,0,0,0,.706-0.33c0.089-.05.195-0.17,0.272-0.1,0.228,0.2.314,0.02,0.41-.15a1.615,1.615,0,0,1,.183-0.35,0.453,0.453,0,0,0,.072-0.49,0.852,0.852,0,0,1-.049-0.25,0.221,0.221,0,0,1,.077-0.17,0.165,0.165,0,0,1,.166-0.01,1.406,1.406,0,0,1,.532.79c0.078,0.27.15,0.55,0.219,0.83a2.26,2.26,0,0,0,.479.84,0.208,0.208,0,0,0,.36-0.03,1.9,1.9,0,0,0,.334-0.99,0.465,0.465,0,0,1,.317-0.43,0.21,0.21,0,0,1,.305.2,1,1,0,0,0,.157.75,0.552,0.552,0,0,1-.039.38,0.236,0.236,0,0,0,.3.28,0.4,0.4,0,0,0,.278-0.23c0.076-.16.133-0.33,0.2-0.49a0.405,0.405,0,0,1,.431-0.29,1.685,1.685,0,0,1,1.433.69,0.941,0.941,0,0,0,.542.39,3.332,3.332,0,0,1,1.183.62,1.753,1.753,0,0,0,.953.37,0.679,0.679,0,0,0,.462-0.06,0.7,0.7,0,0,1,.84.13,2.431,2.431,0,0,1,.762.92,0.363,0.363,0,0,1-.227.56,1.253,1.253,0,0,0-.5.21,0.344,0.344,0,0,0,.045.59,2.454,2.454,0,0,0,.747.23,9.343,9.343,0,0,0,1.671-.07c0.26-.26.65-0.09,0.915-0.38,0.136-.16.254-0.12,0.406,0.08a0.621,0.621,0,0,0,.44.31,0.353,0.353,0,0,1,.235.19c0.186,0.23.382,0.45,0.567,0.68a0.576,0.576,0,0,1,.095.72,0.147,0.147,0,0,0,.06.22,0.158,0.158,0,0,0,.212-0.07,0.348,0.348,0,0,0,.082-0.31c-0.075-.34-0.146-0.69-0.253-1.02a0.647,0.647,0,0,1-.1-0.5,0.958,0.958,0,0,1,.447-0.6,0.741,0.741,0,0,0,.424-0.22,0.156,0.156,0,0,0,.032-0.18,0.179,0.179,0,0,0-.1-0.08c-0.116,0-.236.02-0.355,0.01a0.233,0.233,0,0,0-.259.21,0.248,0.248,0,0,1-.342.17,0.489,0.489,0,0,1-.4-0.44,0.777,0.777,0,0,1,.339-0.67c0.143-.07.3-0.1,0.453-0.17a3.527,3.527,0,0,0,.687-0.4,0.451,0.451,0,0,1,.728.16,1.328,1.328,0,0,1,.229.54,2.782,2.782,0,0,0,.651,1.02,0.282,0.282,0,0,0,.328.1,2.657,2.657,0,0,0,.284-0.12,0.214,0.214,0,0,1,.312.08c0.465,0.79.534,0.77,1.519,0.74a0.586,0.586,0,0,0,.3-0.04,1.329,1.329,0,0,1,1.212,0c0.176,0.06.282-.03,0.3-0.28a0.562,0.562,0,0,1,.1-0.37,0.391,0.391,0,0,0,.036-0.37c-0.061-.29-0.051-0.31.2-0.34a0.215,0.215,0,0,0,.227-0.23,0.318,0.318,0,0,0-.149-0.39,1.683,1.683,0,0,0-.663-0.28,0.247,0.247,0,0,1-.276-0.2,0.393,0.393,0,0,1,.146-0.47,0.9,0.9,0,0,0,.492-0.83,1.794,1.794,0,0,1,.4-0.81,0.206,0.206,0,0,1,.322-0.04,0.4,0.4,0,0,1,.089.08,8.461,8.461,0,0,1,1.272,1.93c0.007,0.02.021,0.04,0.026,0.06a0.88,0.88,0,0,1,.265.46,1.355,1.355,0,0,1-.449.32,0.6,0.6,0,0,1-.682.27,0.1,0.1,0,0,0-.069.08,0.177,0.177,0,0,0,.043.12,3.2,3.2,0,0,0,.445.32,0.346,0.346,0,0,1,.194.37c-0.024.34-.054,0.66-0.1,1a0.328,0.328,0,0,0,.187.37,0.229,0.229,0,0,0,.28-0.04,0.256,0.256,0,0,0,.056-0.25,1.722,1.722,0,0,1-.15-0.83c0.052-.31.035-0.34,0.329-0.33a0.5,0.5,0,0,0,.5-0.27,5.643,5.643,0,0,1,.417-0.66,0.622,0.622,0,0,0,.076-0.56,3.2,3.2,0,0,0-.453.12,0.175,0.175,0,0,1-.164-0.16,0.508,0.508,0,0,1,.072-0.38,1.87,1.87,0,0,0,.156-0.71,0.487,0.487,0,0,0-.168-0.47,4.315,4.315,0,0,0-.792-0.59,1.232,1.232,0,0,1-.6-1.69,0.975,0.975,0,0,0,.067-0.82,1.725,1.725,0,0,1,.1-1.24,0.267,0.267,0,0,1,.213-0.21c0.173-.03.258-0.11,0.166-0.31a0.569,0.569,0,0,1,.046-0.52,2.783,2.783,0,0,0,.14-2.38,3.852,3.852,0,0,1-.178-1.37c0.015-.42.006-0.85,0-1.28,0-.08-0.023-0.17-0.016-0.26a0.419,0.419,0,0,1,.04-0.25,3.819,3.819,0,0,0,.394-0.94,1.342,1.342,0,0,1,.581-0.33c0.176-.05.346-0.1,0.525-0.14a0.967,0.967,0,0,1,.825.31,0.557,0.557,0,0,0,.5.17,1.465,1.465,0,0,1,.418.01c0.744,0.11.86,0.35,0.5,1.07a13.976,13.976,0,0,0-.769,1.89c-0.018.06-.043,0.12-0.067,0.19-0.2.47-.359,0.69-0.878,0.52a0.537,0.537,0,0,0-.172-0.05c-0.358-.05-0.451.06-0.319,0.43a0.78,0.78,0,0,1-.053.75,1.754,1.754,0,0,0-.271.67,0.281,0.281,0,0,1-.2.21,0.217,0.217,0,0,0-.117.34,0.314,0.314,0,0,0,.11.15,2.566,2.566,0,0,1,.906,1.19,1.271,1.271,0,0,1,.14.71,1.463,1.463,0,0,0,.312.98,5.135,5.135,0,0,1,.525.96,0.268,0.268,0,0,1,.02.31,6.535,6.535,0,0,1-.445.78c-0.13.09-.064,0.23,0.015,0.35,0.113,0.16.233,0.31,0.45,0.19,0.258-.14.4,0.08,0.568,0.23a0.294,0.294,0,0,1,.012.32,0.48,0.48,0,0,0,.038.44,2.455,2.455,0,0,1,.294,1.28,0.252,0.252,0,0,0,.023.13,0.132,0.132,0,0,0,.085.07,0.112,0.112,0,0,0,.088-0.06,3.056,3.056,0,0,0,.17-0.85,1.309,1.309,0,0,1,.265-0.73,0.241,0.241,0,0,1,.417-0.01c0.171,0.28.382,0.52,0.562,0.78a2.414,2.414,0,0,1,.237.89,0.454,0.454,0,0,1-.171.57,0.487,0.487,0,0,0-.134.54,4.382,4.382,0,0,0,.586,1.31,0.128,0.128,0,0,0,.212.02c0.046-.04.082-0.09,0.13-0.14,0.317-.33.328-0.34,0.14-0.79a1.505,1.505,0,0,1-.063-0.92,0.132,0.132,0,0,1,.256-0.02,4.8,4.8,0,0,0,.148.49,0.16,0.16,0,0,0,.166-0.16,3.941,3.941,0,0,0,.177-0.64,1.46,1.46,0,0,1,.449-1.04,0.448,0.448,0,0,0,.034-0.65,1.913,1.913,0,0,1-.15-1.35,0.383,0.383,0,0,1,.134-0.21,0.675,0.675,0,0,1,.743-0.07,2,2,0,0,0,.959.33,0.282,0.282,0,0,1,.271.22c0.023,0.07.04,0.12,0.059,0.19a0.793,0.793,0,0,0,.6.66c0.2,0.05.262,0.18,0.161,0.41a0.507,0.507,0,0,0,.056.54,0.462,0.462,0,0,1-.085.6,0.9,0.9,0,0,1-.612.29,3.183,3.183,0,0,1,.247,1,1.54,1.54,0,0,0,.317.64,1.123,1.123,0,0,1-.076,1.33,4.243,4.243,0,0,1-1,1.14c-0.2.13-.208,0.15-0.411-0.03a0.249,0.249,0,0,0-.2-0.12c-0.079.2,0.117,0.38,0.033,0.58a1.792,1.792,0,0,1-.516-0.01,0.446,0.446,0,0,1-.605-0.37,0.217,0.217,0,0,0-.242-0.15,1.894,1.894,0,0,1-.237.02c-0.116,0-.272-0.08-0.336.05-0.1.21,0.1,0.26,0.2,0.35a0.491,0.491,0,0,1,.106.55,3.785,3.785,0,0,1-.7,1.16,0.576,0.576,0,0,1-.815.01,2.31,2.31,0,0,0-.71-0.61,2.108,2.108,0,0,0-.335-0.13,0.27,0.27,0,0,0-.1.06,0.092,0.092,0,0,0,0,.07,1.513,1.513,0,0,0,.729.75,3.569,3.569,0,0,0,.644.13c0.116,0.03.238,0.02,0.357,0.04,0.251,0.04.33,0.19,0.256,0.48a1.153,1.153,0,0,1-.059.19c-0.23.47-.455,0.94-0.7,1.4a0.608,0.608,0,0,1-.553.34,0.956,0.956,0,0,1-.239,0,0.462,0.462,0,0,0-.623.42,0.666,0.666,0,0,1-.57.52c-0.252-.26-0.493-0.38-0.434-0.25a0.549,0.549,0,0,0,.434.24c0.037,0.2.088,0.39,0.105,0.59a0.444,0.444,0,0,1-.269.53,1.186,1.186,0,0,1-.564.2c-0.183.01-.317,0.04-0.234,0.3a0.357,0.357,0,0,1-.123.13,0.468,0.468,0,0,0-.171.16,1.333,1.333,0,0,1-.464.81,0.849,0.849,0,0,0-.15.29,1.037,1.037,0,0,1-.438.6,0.45,0.45,0,0,0-.208.45,2.705,2.705,0,0,1-.225,1.03,3.7,3.7,0,0,0-.128.84c-0.009.43-.02,0.86-0.029,1.28-0.009.52,0.083,0.64,0.518,0.69,0.084,0.01.163,0.01,0.243,0.02a0.479,0.479,0,0,1,.464.43c0.152,0.67.324,1.33,0.475,2,0.052,0.21.14,0.29,0.294,0.19a0.951,0.951,0,0,1,1.361.13,1.78,1.78,0,0,0,.542.29,2.171,2.171,0,0,1,1.234.99,0.59,0.59,0,0,0,.336.25,3.335,3.335,0,0,1,1.312.76,0.41,0.41,0,0,0,.325.16c0.4-.02.786,0.16,1.19,0.1a0.622,0.622,0,0,1,.235.01,0.643,0.643,0,0,1,.568.84,10.362,10.362,0,0,0,.048,1.73,0.238,0.238,0,0,0,.246.3,2.786,2.786,0,0,1,.415.07,0.477,0.477,0,0,1,.321.43c0.01,0.09-.067.2-0.139,0.17-0.148-.06-0.3-0.13-0.442-0.2a0.128,0.128,0,0,0-.163.04,0.165,0.165,0,0,0,.038.18,9.076,9.076,0,0,0,.723,1.06,1.031,1.031,0,0,1,.2.41,0.812,0.812,0,0,0,.208.31,0.208,0.208,0,0,0,.352-0.03c0.061-.09.105-0.19,0.168-0.28a0.2,0.2,0,0,1,.22-0.05c0.084,0.03.148,0.19,0.248,0.09a0.787,0.787,0,0,0-.065-0.24,0.473,0.473,0,0,1,.172-0.41,0.454,0.454,0,0,0,.046-0.55,1.684,1.684,0,0,1-.171-0.77c-0.023-.33-0.069-0.67-0.1-0.99a2.249,2.249,0,0,0-.322-0.93c-0.109-.2-0.1-0.23.065-0.39,0.078-.07.157-0.13,0.237-0.2l0-.01a2.554,2.554,0,0,0,1.131-1.04,0.84,0.84,0,0,1,.14-0.22,1.948,1.948,0,0,0,.267-1.83c-0.113-.37-0.173-0.78-0.25-1.17a1.313,1.313,0,0,0-.542-0.91,2.512,2.512,0,0,1-.406-0.4,0.561,0.561,0,0,1,.163-0.95,0.535,0.535,0,0,0,.4-0.51,0.436,0.436,0,0,1,.142-0.21,0.36,0.36,0,0,0,.074-0.37,6.784,6.784,0,0,0-.434-1.51,0.414,0.414,0,0,1-.009-0.38c0.073-.22.14-0.43,0.226-0.63a0.442,0.442,0,0,0-.071-0.48,0.979,0.979,0,0,1-.1-1.16,0.569,0.569,0,0,1,.645-0.34,2.38,2.38,0,0,1,.858.25,2.1,2.1,0,0,0,.336.15,0.742,0.742,0,0,0,.852-0.07,0.614,0.614,0,0,1,.875.06,2.078,2.078,0,0,1,.639.69,1,1,0,0,0,.3.41,0.318,0.318,0,0,1,.147.39,0.317,0.317,0,0,0,.179.38,1.215,1.215,0,0,0,.718.29c0.177-.02.329,0.13,0.522,0.11a0.246,0.246,0,0,1,.2.38,1.053,1.053,0,0,0-.042.78,0.351,0.351,0,0,1,.024.13,6.243,6.243,0,0,0,.151,1.61c0.021,0.36.118,0.54,0.45,0.54a0.313,0.313,0,0,1,.193.14,2.126,2.126,0,0,0,.374.43c0.258,0.25.315,0.29,0.551,0.09a2.98,2.98,0,0,0,1.08-1.29,1.013,1.013,0,0,0,.1-0.57,1.075,1.075,0,0,1,.458-1.01,0.212,0.212,0,0,1,.313.08,0.152,0.152,0,0,1,.031.05,15.848,15.848,0,0,0,1.032,2.1,4.607,4.607,0,0,1,.363.98,0.88,0.88,0,0,0,.158.35,1.264,1.264,0,0,1,.324.83,0.139,0.139,0,0,0,.017.07,0.956,0.956,0,0,1,.117,1.13,0.553,0.553,0,0,0,.135.61,1.908,1.908,0,0,0,.634.6,0.471,0.471,0,0,1,.3.38,0.471,0.471,0,0,0,.368.39,1.125,1.125,0,0,1,.653.44,0.346,0.346,0,0,0,.372.16,0.472,0.472,0,0,1,.236,0,0.709,0.709,0,0,1,.356.33c0.049,0.1.012,0.18-.2,0.44a1.234,1.234,0,0,0,.279.19,1.281,1.281,0,0,0,.8.71,0.687,0.687,0,0,1,.373.82,1.38,1.38,0,0,0,.053.66,0.966,0.966,0,0,1-.282,1.02,4.169,4.169,0,0,0-.359.44h-0.007c-0.057.01-.116,0.01-0.174,0.02a1.926,1.926,0,0,0-1.734.99,2.779,2.779,0,0,1-.339.38,0.474,0.474,0,0,1-.25.17,4.212,4.212,0,0,1-1.414.1,3.187,3.187,0,0,0-.533-0.06,1.429,1.429,0,0,1-.358,0,7.078,7.078,0,0,0-1.721,0,1.07,1.07,0,0,0-1.118.81,0.55,0.55,0,0,1-.43.4,1.92,1.92,0,0,0-1.069.97c0.093,0.14.16,0.05,0.223,0.01,0.259-.16.521-0.32,0.777-0.49a3.3,3.3,0,0,1,1.459-.55,1.2,1.2,0,0,1,.86.21,0.608,0.608,0,0,1,.1.96,0.842,0.842,0,0,1-.859.34,0.5,0.5,0,0,0-.17.01,0.056,0.056,0,0,0-.021.05,0.112,0.112,0,0,0,.021.06,0.447,0.447,0,0,0,.436.13,0.291,0.291,0,0,1,.32.37,2.935,2.935,0,0,0,.023.79,0.786,0.786,0,0,0,.709.77h-0.009a0.54,0.54,0,0,0,.388.44,1.1,1.1,0,0,0,.871.06,0.158,0.158,0,0,1,.172.02c0.151,0.06.222-.02,0.278-0.16a4.412,4.412,0,0,1,.557-1.1,0.11,0.11,0,0,1,.158-0.05,0.374,0.374,0,0,1,.077.09,0.15,0.15,0,0,1,.017.07,0.746,0.746,0,0,0,.326.72,0.239,0.239,0,0,1,0,.35,0.955,0.955,0,0,1-.513.33,0.421,0.421,0,0,0-.218.09,3.11,3.11,0,0,1-1.307.87,1.427,1.427,0,0,1-.277.13,1.972,1.972,0,0,0-1.11.83,1.138,1.138,0,0,1-.267.27c-0.349.27-.63,0.17-0.777-0.28a0.819,0.819,0,0,1,.244-0.94c0.191-.17.386-0.32,0.576-0.48a0.206,0.206,0,0,0,.071-0.23,0.124,0.124,0,0,0-.2-0.08,3.215,3.215,0,0,1-1.067.42,0.206,0.206,0,0,0-.2.21,0.367,0.367,0,0,1-.292.36,5.082,5.082,0,0,0-1.017.55c-0.263.19-.593,0.27-0.855,0.46a1.432,1.432,0,0,0-.532,1.83,0.292,0.292,0,0,0,.33.22c0.116-.01.13,0.1,0.078,0.18a0.3,0.3,0,0,0-.086.39c0.025,0.06-.069.09-0.126,0.09a1.6,1.6,0,0,1-.461-0.16,0.606,0.606,0,0,0-.82.35,0.45,0.45,0,0,1-.325.26c-0.348.1-.7,0.18-1.079,0.28a1.872,1.872,0,0,1-.4,1.38,0.267,0.267,0,0,1-.358.15c-0.092-.05-0.188.01-0.13,0.12a1.235,1.235,0,0,1-.066,1.08c-0.08.21-.179,0.4-0.272,0.59-0.035.06-.1,0.11-0.153,0.06a0.213,0.213,0,0,1-.071-0.17c0.007-.17.044-0.35,0.052-0.52a0.2,0.2,0,0,0-.139-0.2,0.14,0.14,0,0,0-.154.16,2.446,2.446,0,0,0,.2,1.15,6,6,0,0,1,.372,1.27,0.382,0.382,0,0,1-.237.47,0.606,0.606,0,0,0,.035-0.19c-0.025-.08-0.089-0.05-0.142-0.02l-0.158.09a0.1,0.1,0,0,0-.07.14,0.117,0.117,0,0,0,.1.02c0.08-.01.154-0.03,0.237-0.04a1.4,1.4,0,0,1-.737.55,1.022,1.022,0,0,0-.6.41,1.078,1.078,0,0,1-.5.34,1.02,1.02,0,0,0-.54.51,1.345,1.345,0,0,1-.716.68,1.239,1.239,0,0,0-.586.54,2.221,2.221,0,0,0-.371,1.94c0.041,0.13.06,0.26,0.11,0.38a18.315,18.315,0,0,1,.651,1.93,3.388,3.388,0,0,1-.014,2.04,0.214,0.214,0,0,1-.333.15,0.613,0.613,0,0,1-.256-0.16,6.728,6.728,0,0,1-1.168-2.15,2.747,2.747,0,0,1-.1-0.86,0.8,0.8,0,0,0-.21-0.6c-0.13-.14-0.238-0.3-0.352-0.45a0.422,0.422,0,0,0-.581-0.19,1.722,1.722,0,0,1-.223.1,0.559,0.559,0,0,1-.624-0.1,2.123,2.123,0,0,0-.294-0.23,0.98,0.98,0,0,0-1.02-.17,1.207,1.207,0,0,1-.652.03,3.811,3.811,0,0,0-.475-0.03,0.266,0.266,0,0,0-.264.23,0.661,0.661,0,0,0,.04.73,0.154,0.154,0,0,1,0,.13,0.1,0.1,0,0,1-.156.04,0.648,0.648,0,0,0-.575-0.06,0.9,0.9,0,0,1-.9-0.24,0.5,0.5,0,0,0-.551-0.15,1.1,1.1,0,0,1-.646-0.06,1.335,1.335,0,0,0-.715.01,1.025,1.025,0,0,0-.649.55,0.853,0.853,0,0,1-.751.58,0.244,0.244,0,0,0-.207.11,3.622,3.622,0,0,1-.49.66,1.255,1.255,0,0,0-.195,1.02,2.4,2.4,0,0,0,.117.38,0.8,0.8,0,0,1-.14.86,1.035,1.035,0,0,0-.248.92,4.5,4.5,0,0,1,.048,1.46,0.34,0.34,0,0,0,.011.2,6.609,6.609,0,0,0,.74,1.73,1.6,1.6,0,0,1,.258.52,1.1,1.1,0,0,0,.676.71,3.722,3.722,0,0,0,.638.34,5.875,5.875,0,0,0,.7-0.17,2.256,2.256,0,0,1,1.179-.1,0.2,0.2,0,0,0,.214-0.1,2.929,2.929,0,0,0,.682-1.38c0.111-.78.2-0.85,0.92-0.97a3.423,3.423,0,0,1,1.187-.14,2.043,2.043,0,0,1,.351.06,0.357,0.357,0,0,1,.194.15,1.168,1.168,0,0,1,.044.71,0.243,0.243,0,0,1-.172.25,0.414,0.414,0,0,0-.248.41c-0.024.2-.022,0.4-0.062,0.6a1.912,1.912,0,0,1-.359.97,0.806,0.806,0,0,0-.177.56,1.541,1.541,0,0,1-.247.94,0.187,0.187,0,0,0,.124.3,0.577,0.577,0,0,0,.177.03c0.5-.07,1-0.01,1.494-0.08a2.188,2.188,0,0,1,1.723.34,0.839,0.839,0,0,1,.358.96c-0.171.67-.171,1.37-0.293,2.05a1.645,1.645,0,0,0,.41,1.4,9.871,9.871,0,0,0,.676.76,0.878,0.878,0,0,0,.888.24,2.13,2.13,0,0,0,.827-0.38,0.531,0.531,0,0,1,.51-0.1,1.577,1.577,0,0,1,1.062.55,2.176,2.176,0,0,1,.206.32,0.588,0.588,0,0,1-.235.89,0.269,0.269,0,0,1-.4-0.13,1.069,1.069,0,0,1-.088-0.39,0.746,0.746,0,0,0-.612-0.62,0.26,0.26,0,0,0-.217.08,3.634,3.634,0,0,1-.352.36,0.344,0.344,0,0,0-.123.45,0.318,0.318,0,0,1-.142.4,0.278,0.278,0,0,1-.387-0.02c-0.173-.15-0.36-0.28-0.52-0.44a0.891,0.891,0,0,0-.761-0.32,0.8,0.8,0,0,1-.451-0.13,0.491,0.491,0,0,1-.3-0.32,0.774,0.774,0,0,0-.438-0.51,1.173,1.173,0,0,0-.581-0.28,0.541,0.541,0,0,1-.568-0.67,0.937,0.937,0,0,0-.338-0.8,6.43,6.43,0,0,1-.927-1.22,0.246,0.246,0,0,0-.235-0.17,2.18,2.18,0,0,1-1.385-.3,2.523,2.523,0,0,0-.749-0.22,1.354,1.354,0,0,1-.86-0.43c-0.317-.3-0.637-0.6-0.94-0.93a2.082,2.082,0,0,0-.76-0.52,0.616,0.616,0,0,0-.574.05c-0.087.07-.175,0.11-0.262,0.17a0.951,0.951,0,0,1-.975.08,2.451,2.451,0,0,0-.463-0.14,1.711,1.711,0,0,1-.454-0.16,7.5,7.5,0,0,0-1.71-.77,2.168,2.168,0,0,1-.574-0.36,1.884,1.884,0,0,0-.748-0.4,2.078,2.078,0,0,1-1.041-.62,1.9,1.9,0,0,0-.554-0.4,1.277,1.277,0,0,1-.44-0.34,0.886,0.886,0,0,1-.206-0.97,1.288,1.288,0,0,0-.041-1.02,4,4,0,0,0-.562-1.01,6.47,6.47,0,0,0-.988-1.16,0.367,0.367,0,0,1-.121-0.15,1.406,1.406,0,0,0-.8-0.84,0.539,0.539,0,0,1-.342-0.67,0.344,0.344,0,0,0-.128-0.35c-0.153-.15-0.311-0.29-0.458-0.43a0.67,0.67,0,0,1-.214-0.24,4.718,4.718,0,0,0-1.089-1.29,0.568,0.568,0,0,0-.265-0.14,0.214,0.214,0,0,1-.126-0.2,6.173,6.173,0,0,0-.52-1.77,0.874,0.874,0,0,0-.552-0.48,2,2,0,0,0-.347-0.11,0.181,0.181,0,0,0-.206.24,7.058,7.058,0,0,0,.19.98,0.853,0.853,0,0,0,.693.72,0.355,0.355,0,0,1,.28.31c0.065,0.23.144,0.46,0.223,0.69a4.915,4.915,0,0,0,.84,1.45,1.1,1.1,0,0,1,.2.32c0.171,0.46.342,0.91,0.475,1.37a0.868,0.868,0,0,0,.418.62,1.124,1.124,0,0,1,.458.51,0.465,0.465,0,0,1-.058.55,0.2,0.2,0,0,1-.353,0,4.3,4.3,0,0,0-1.263-1.31,0.582,0.582,0,0,1-.265-0.55,1.338,1.338,0,0,0-.846-1.38,5.238,5.238,0,0,1-1.024-.8,0.147,0.147,0,0,1,.032-0.26c0.541-.3.558-0.41,0.165-0.9a3.317,3.317,0,0,0-.7-0.72,0.81,0.81,0,0,1-.278-0.42,18.438,18.438,0,0,0-.828-2.01,2.919,2.919,0,0,1-.214-0.55,1.368,1.368,0,0,0-.647-0.91,5.214,5.214,0,0,0-1.4-.76,0.531,0.531,0,0,1-.418-0.42,2.307,2.307,0,0,0-.481-0.83,1.832,1.832,0,0,1-.475-0.98,0.768,0.768,0,0,0-.126-0.3,1.322,1.322,0,0,1-.165-0.28,4.084,4.084,0,0,0-.713-1.31,1.668,1.668,0,0,1-.309-0.78,2.07,2.07,0,0,0-.3-0.93,0.719,0.719,0,0,1-.071-0.64,2.385,2.385,0,0,0-.016-1.38c-0.057-.21-0.08-0.43-0.126-0.65a1.388,1.388,0,0,1,.032-0.66,13.294,13.294,0,0,0,.275-3.65,5.63,5.63,0,0,0-.376-1.69,0.774,0.774,0,0,1,.05-0.82c-0.3-.2-0.555-0.47-0.872-0.66a3.344,3.344,0,0,1-1.12-1.08,0.683,0.683,0,0,0-.325-0.29,0.272,0.272,0,0,1-.188-0.23,0.363,0.363,0,0,0-.3-0.49,0.128,0.128,0,0,1-.027-0.11,0.23,0.23,0,0,1,.1-0.15,0.486,0.486,0,0,1,.405.05c0.187,0.07.367,0.17,0.557,0.23a0.152,0.152,0,0,0,.179-0.13,0.123,0.123,0,0,0-.049-0.17,0.877,0.877,0,0,0-.231-0.02,0.482,0.482,0,0,1-.551-0.54c-0.021-.17-0.058-0.22-0.214-0.21a0.183,0.183,0,0,1-.145-0.19,1.827,1.827,0,0,0-.446-1,1.061,1.061,0,0,1-.239-0.97c0.046-.22-0.024-0.28-0.228-0.19a0.522,0.522,0,0,1-.665-0.3,0.141,0.141,0,0,1,.029-0.22c0.178-.11.107-0.2,0-0.3-0.13-.11-0.227-0.21,0-0.33a0.121,0.121,0,0,0,.05-0.17,0.674,0.674,0,0,1-.037-0.78,0.117,0.117,0,0,0-.164-0.08c-0.251.04-.251,0.04-0.328-0.21a0.238,0.238,0,0,1-.007-0.07,0.136,0.136,0,0,0-.117-0.13c-0.077.01-.07,0.09-0.077,0.15a0.146,0.146,0,0,1-.049.11,0.094,0.094,0,0,1-.091-0.05c-0.077-.23-0.147-0.46-0.212-0.69-0.023-.09-0.011-0.2-0.131-0.14a0.194,0.194,0,0,0-.086.23,1.925,1.925,0,0,1,.042.73,0.17,0.17,0,0,1-.058.11,0.119,0.119,0,0,1-.161-0.04c-0.051-.07-0.1-0.14-0.146-0.21-0.064-.1-0.105-0.29-0.251-0.2-0.1.06,0.006,0.2,0.006,0.3a0.184,0.184,0,0,1-.041.12,0.116,0.116,0,0,1-.146-0.08,0.559,0.559,0,0,1-.125-0.37c0.026-.22-0.091-0.22-0.24-0.26a0.193,0.193,0,0,1-.084-0.28c0.048-.09.133-0.15,0.187-0.24a0.236,0.236,0,0,0,.014-0.26,0.963,0.963,0,0,1-.183-0.81c-0.151,0-.1.15-0.157,0.22a0.137,0.137,0,0,1-.242-0.05c-0.031-.1-0.046-0.21-0.076-0.32a0.463,0.463,0,0,1,.253-0.67c0.049-.26.252-0.16,0.417-0.21-0.029-.12-0.049-0.25-0.083-0.38a0.243,0.243,0,0,0-.1-0.15c-0.061-.04-0.111.02-0.142,0.08a0.942,0.942,0,0,1-.582.54,4.443,4.443,0,0,0-.054-0.92,1.2,1.2,0,0,1,.028-0.83,0.3,0.3,0,0,0-.008-0.19,0.339,0.339,0,0,0-.183-0.15c-0.1-.01-0.119.1-0.111,0.18a7.423,7.423,0,0,1,.087.85,1.722,1.722,0,0,0,.248,1.06c-0.008.31-.013,0.62-0.028,0.93a0.129,0.129,0,0,1-.081.08,0.1,0.1,0,0,1-.1-0.05,6.616,6.616,0,0,1-.258-0.67c-0.046-.16-0.079-0.3-0.266-0.29a0.2,0.2,0,0,1-.108-0.14,2.785,2.785,0,0,0-.325-0.86,1.749,1.749,0,0,1-.078-0.18,0.452,0.452,0,0,1,.285-0.67,1.213,1.213,0,0,1,.257-0.05c-0.1-.1-0.176-0.17-0.245-0.24-0.051-.05-0.095-0.06-0.142.01a0.59,0.59,0,0,1-.069.11,0.353,0.353,0,0,1-.537.08,2.143,2.143,0,0,1-.833-0.84,0.777,0.777,0,0,0-.548-0.53,1.64,1.64,0,0,1-.521-0.32,0.33,0.33,0,0,1-.135-0.34c0.01-.22-0.023-0.25-0.188-0.22a1.577,1.577,0,0,1-1.1-.21,1.738,1.738,0,0,0-1.218-.22,1.115,1.115,0,0,1-.961-0.22,1.009,1.009,0,0,0-.639-0.33,0.469,0.469,0,0,1-.248-0.17,0.929,0.929,0,0,0-.452-0.31,0.433,0.433,0,0,1-.288-0.23,0.5,0.5,0,0,0-.621-0.26,0.611,0.611,0,0,1-.354.02,0.125,0.125,0,0,0-.2.07c-0.045.13,0.057,0.14,0.127,0.16a0.177,0.177,0,0,1,.141.28c-0.037.08-.075,0.18,0.019,0.23a0.269,0.269,0,0,0,.171-0.02,0.124,0.124,0,0,1,.141.15c-0.018.22-.009,0.34,0.2,0.15a0.1,0.1,0,0,1,.105.01,0.163,0.163,0,0,1,.012.12c-0.043.11-.1,0.19-0.147,0.29-0.187.41-.394,0.55-0.716,0.13a0.287,0.287,0,0,0-.137-0.1,2.587,2.587,0,0,0-.854.4,3.106,3.106,0,0,1-1,.81,0.993,0.993,0,0,1-.455.14,0.173,0.173,0,0,1-.2-0.11,0.212,0.212,0,0,1,.024-0.24,0.526,0.526,0,0,1,.141-0.13c0.116-.09.186-0.17,0.006-0.27a0.3,0.3,0,0,1-.107-0.35,4.091,4.091,0,0,1,.135-0.44,2.576,2.576,0,0,0,.152-0.58,0.83,0.83,0,0,1,.84-0.83,0.1,0.1,0,0,0,.112-0.11,0.193,0.193,0,0,0-.049-0.12,0.318,0.318,0,0,0-.437-0.07,2.164,2.164,0,0,0-.845.83,12.237,12.237,0,0,0-.607,1.15,1.216,1.216,0,0,1-.38.5,3,3,0,0,0-.342.37c-0.3.37-.3,0.38,0.063,0.69a0.328,0.328,0,0,1,.049.55c-0.041.05-.1,0.08-0.136,0.13a1.647,1.647,0,0,1-.632.84,9.384,9.384,0,0,0-.774.61,0.9,0.9,0,0,0-.437.54,0.938,0.938,0,0,1-.427.53,6.632,6.632,0,0,1-.84.64,0.3,0.3,0,0,0-.191.3,0.478,0.478,0,0,1-.264.42,2.311,2.311,0,0,0-.613.4,0.174,0.174,0,0,1-.226.02,0.349,0.349,0,0,0-.381.11c-0.086.09-.115,0.19,0.007,0.27a0.127,0.127,0,0,1,.083.15,0.211,0.211,0,0,1-.182.15,0.244,0.244,0,0,1-.271-0.1,0.476,0.476,0,0,0-.492-0.16c-0.144.01-.193,0.1-0.118,0.29,0.064,0.15.118,0.26-.1,0.22-0.084-.01-0.165-0.03-0.2.07s-0.1.18-.217,0.06a0.286,0.286,0,0,0-.47.07,0.914,0.914,0,0,1-.7.44,1.369,1.369,0,0,0-.368.22,0.163,0.163,0,0,1-.217-0.06,0.236,0.236,0,0,1-.048-0.24,0.806,0.806,0,0,1,.446-0.51c0.187-.07.38-0.14,0.565-0.23a1.542,1.542,0,0,0,.662-0.55,1.184,1.184,0,0,1,1.221-.66,0.241,0.241,0,0,0,.253-0.14,2.234,2.234,0,0,1,1.055-1.05,1.3,1.3,0,0,0,.393-0.39,3.491,3.491,0,0,0,.783-1.91,4.777,4.777,0,0,1,.15-0.64,0.331,0.331,0,0,0-.322.1,0.36,0.36,0,0,1-.346.03c-0.288-.18-0.381-0.01-0.452.27a0.135,0.135,0,0,1-.246.02,1.236,1.236,0,0,1-.135-0.22,0.584,0.584,0,0,0-.42-0.32c-0.292-.1-0.534-0.21-0.654.23a0.145,0.145,0,0,1-.2.1c-0.175-.1-0.358.03-0.568-0.06a1.33,1.33,0,0,0-.056-0.81,0.372,0.372,0,0,1,.01-0.26,1.118,1.118,0,0,0-.107-0.9c-0.109-.24-0.188-0.25-0.334-0.06-0.026.04-.047,0.08-0.072,0.12a0.6,0.6,0,0,1-1.086-.04,1.84,1.84,0,0,1-.265-0.44,1.981,1.981,0,0,0-.42-0.72,0.219,0.219,0,0,1,0-.34c0.114-.12.1-0.18-0.038-0.29-0.165-.15-0.265-0.39-0.422-0.55a0.764,0.764,0,0,1-.136-1.05,2.032,2.032,0,0,0,.147-0.44,1.375,1.375,0,0,1,.263-0.53,1.179,1.179,0,0,0,.358-0.67,0.316,0.316,0,0,1,.4-0.29,1.4,1.4,0,0,0,1.312-.6,0.391,0.391,0,0,1,.409-0.21,0.748,0.748,0,0,0,.3-0.02,0.664,0.664,0,0,0,.491-0.84,1.838,1.838,0,0,0-.25-0.74,0.219,0.219,0,0,1,.046-0.34,0.78,0.78,0,0,0,.179-0.17,0.236,0.236,0,0,0,.025-0.25,0.168,0.168,0,0,0-.2-0.1,1.32,1.32,0,0,0-.9.61c-0.149.23-.166,0.23-0.39,0.12a1.638,1.638,0,0,0-1.168-.14,2.117,2.117,0,0,1-1.057-.12,0.544,0.544,0,0,1-.369-0.41c-0.037-.13-0.066-0.26-0.112-0.38a1.314,1.314,0,0,0-.7-0.93,0.991,0.991,0,0,1-.276-0.26,0.209,0.209,0,0,1,.019-0.29,12.156,12.156,0,0,0,1.085-.83,0.316,0.316,0,0,1,.217-0.09,0.488,0.488,0,0,0,.335-0.24,1.676,1.676,0,0,1,1.13-.67,0.24,0.24,0,0,1,.29.25,1.527,1.527,0,0,1,.013.27,0.459,0.459,0,0,0,.529.55,1.423,1.423,0,0,1,.358.01,0.6,0.6,0,0,0,.8-0.45,0.442,0.442,0,0,1-.427-0.42,8.728,8.728,0,0,1-.445-0.86,0.2,0.2,0,0,0-.2-0.11,0.757,0.757,0,0,1-.663-0.66,1.5,1.5,0,0,0-.535-0.86c-0.486-.43-0.979-0.84-1.467-1.26-0.183-.16-0.213-0.24-0.048-0.43a1.331,1.331,0,0,0,.283-0.65c0.049-.25.085-0.28,0.329-0.29a6.628,6.628,0,0,0,.887-0.14,1.177,1.177,0,0,0,.815-0.72,2.815,2.815,0,0,0,.236-0.69,2.169,2.169,0,0,1,.411-0.95,2.876,2.876,0,0,0,.234-0.39,0.382,0.382,0,0,1,.41-0.3,0.565,0.565,0,0,0,.478-0.24c0.262-.28.512-0.56,0.768-0.85a4.053,4.053,0,0,1,.305-0.31,0.282,0.282,0,0,1,.336-0.05,0.826,0.826,0,0,0,1.113-.34c0.149-.17.267-0.39,0.4-0.58a0.331,0.331,0,0,1,.526-0.13,0.69,0.69,0,0,1,.539.69c-0.094.08-.189,0.15-0.273,0.23a0.125,0.125,0,0,0,0,.11,0.1,0.1,0,0,0,.1.04c0.17-.02.17-0.03,0.17-0.39,0.046-.03.1-0.07,0.148-0.1,0.294-.18.37-0.16,0.551,0.11a1.209,1.209,0,0,0,.126.22,0.308,0.308,0,0,0,.209.1,0.855,0.855,0,0,0,.352-0.07,1.412,1.412,0,0,1,.928.1,0.275,0.275,0,0,1,.187.24,0.907,0.907,0,0,0,.552.65,0.282,0.282,0,0,0,.23.05,5.979,5.979,0,0,1,.945-0.03,1.165,1.165,0,0,1,.754.15c0.222,0.11.439,0.21,0.656,0.33a1.7,1.7,0,0,0,.971.27,1.017,1.017,0,0,1,.624.19,1.038,1.038,0,0,0,1.034.09,2.025,2.025,0,0,1,.235-0.06,1.043,1.043,0,0,1,1.15.32,1.963,1.963,0,0,0,1.4.66,1.482,1.482,0,0,1,.584.13,0.814,0.814,0,0,1,.433.33,5.134,5.134,0,0,0,.811.89,0.991,0.991,0,0,0,.753.35,1.5,1.5,0,0,1,.686.19,0.139,0.139,0,0,0,.215-0.04,0.265,0.265,0,0,0-.028-0.25,1.014,1.014,0,0,1-.212-0.4c-0.01-.08.077-0.19,0.142-0.16,0.123,0.06.24,0.14,0.358,0.21a0.454,0.454,0,0,0,0-.39,0.252,0.252,0,0,1,.114-0.28,0.639,0.639,0,0,0,.415-0.6,0.93,0.93,0,0,1,.51.44c0.152,0.24.3,0.26,0.458,0.04,0.066-.09.105-0.19,0.159-0.28a0.439,0.439,0,0,1,.275-0.25,2.072,2.072,0,0,0,.969-0.63,1.9,1.9,0,0,1,.911-0.45c0.11-.01.216-0.13,0.323,0.01a0.356,0.356,0,0,1-.065.47,3.546,3.546,0,0,1-.317.31,1.929,1.929,0,0,0-.212.24,1.228,1.228,0,0,1-.778.43,0.255,0.255,0,0,0-.1.06,0.082,0.082,0,0,0,0,.12,0.638,0.638,0,0,0,.732-0.26A2.456,2.456,0,0,0,445.857,5323.74Zm34.977,38.05a2.4,2.4,0,0,0-1.018-.33,0.178,0.178,0,0,0-.194.13,0.428,0.428,0,0,1-.611.24,1.02,1.02,0,0,0-.913.14,1.518,1.518,0,0,1-.5.19c-0.213.03-.282,0.17-0.242,0.45a0.766,0.766,0,0,1-.03.45,6.609,6.609,0,0,0-.409,1.8,3.843,3.843,0,0,0,.012,1.01,0.578,0.578,0,0,0,.327.58,0.491,0.491,0,0,0,.487-0.41,1.545,1.545,0,0,0,.094-1.29,0.891,0.891,0,0,1-.052-0.52c0.07-.33.13-0.66,0.2-0.99a0.486,0.486,0,0,1,.281-0.4,0.893,0.893,0,0,0,.536-0.5,0.4,0.4,0,0,1,.557-0.21,1.6,1.6,0,0,1,.57.36,0.564,0.564,0,0,1,.169.35,1.476,1.476,0,0,1-.195,1.2,0.093,0.093,0,0,0,.014.16c0.048-.03.094-0.07,0.149-0.1a0.332,0.332,0,0,1,.563.2c0.051,0.13.075,0.26,0.112,0.39a0.187,0.187,0,0,0,.144.18,0.2,0.2,0,0,0,.237-0.15,1.5,1.5,0,0,0,.08-0.39,1.6,1.6,0,0,1,.124-0.65,1.09,1.09,0,0,0,.077-0.95,0.124,0.124,0,0,1,.053-0.11,0.137,0.137,0,0,1,.108.01,0.726,0.726,0,0,1,.126.14,1.513,1.513,0,0,0,.488.49,0.227,0.227,0,0,0,.346-0.22,0.715,0.715,0,0,0-.035-0.32,2.586,2.586,0,0,0-.557-0.77c-0.194-.2-0.382-0.13-0.583.16a0.354,0.354,0,0,1-.163.16,0.871,0.871,0,0,1-.767-0.28,0.1,0.1,0,0,1,.067-0.15C480.6,5361.81,480.713,5361.81,480.834,5361.79Zm-6.853-.86c0.163-.09.25-0.13,0.334-0.18a0.268,0.268,0,0,1,.421.07,0.313,0.313,0,0,0,.435.08,3.6,3.6,0,0,0,.94-0.57,2.749,2.749,0,0,1,.343-0.27c0.14-.09.3-0.08,0.326,0.01a0.308,0.308,0,0,1-.094.29,0.272,0.272,0,0,1-.034.06,0.162,0.162,0,0,0,.072.26,1.062,1.062,0,0,1,.265.15,0.712,0.712,0,0,0,.931.16,1.008,1.008,0,0,1,1.034-.01c0.094,0.07.2-.04,0.181-0.16-0.071-.34-0.152-0.69-0.218-1.04a0.311,0.311,0,0,0-.32-0.32,0.506,0.506,0,0,1-.542-0.42,4.3,4.3,0,0,0-.2-0.41,0.189,0.189,0,0,0-.307-0.02,0.783,0.783,0,0,1-.145.2c-0.122.04-.151-0.11-0.212-0.2a1.334,1.334,0,0,0-.146-0.21c-0.116-.12-0.294-0.18-0.392.05a0.8,0.8,0,0,1-.539.48,0.893,0.893,0,0,0-.244.19,6.129,6.129,0,0,1-.7.61,9.247,9.247,0,0,0-.88.7A0.664,0.664,0,0,0,473.981,5360.93Zm6.81,5.83a0.966,0.966,0,0,0,.481-0.1c0.465-.25.928-0.51,1.392-0.77a1.941,1.941,0,0,0,.294-0.22,0.225,0.225,0,0,0,.1-0.28,0.179,0.179,0,0,0-.218-0.05,0.665,0.665,0,0,0-.282.09,0.982,0.982,0,0,1-.737.19,0.358,0.358,0,0,0-.278.08,2.323,2.323,0,0,1-1.14.66c-0.064,0-.076.17-0.028,0.23A0.543,0.543,0,0,0,480.791,5366.76Zm3.518-2.64a1.69,1.69,0,0,0-1.228.38,0.242,0.242,0,0,0-.092.23,0.134,0.134,0,0,0,.193.1,2.073,2.073,0,0,1,1.278-.09,0.78,0.78,0,0,0,.718-0.25,0.4,0.4,0,0,0,.04-0.48,0.187,0.187,0,0,0-.305-0.05A0.5,0.5,0,0,1,484.309,5364.12Zm-32.967-5.76a0.247,0.247,0,0,0-.022-0.25,6.8,6.8,0,0,0-.746-0.91,0.108,0.108,0,0,0-.11,0,0.138,0.138,0,0,0-.067.1,0.689,0.689,0,0,0,.042.32A1.286,1.286,0,0,0,451.342,5358.36Zm18.38-30.51a0.218,0.218,0,0,0-.164.24,0.273,0.273,0,0,0,.243.25,0.188,0.188,0,0,0,.192-0.2A0.285,0.285,0,0,0,469.722,5327.85Zm28.069,23.94a0.571,0.571,0,0,0-.707.52A2.347,2.347,0,0,0,497.791,5351.79Zm-74.042-21.15a0.448,0.448,0,0,0-.115.01,0.069,0.069,0,0,0-.046.04,0.235,0.235,0,0,0,.013.12,0.324,0.324,0,0,0,.358.18,0.174,0.174,0,0,0,.148-0.18,0.13,0.13,0,0,0-.118-0.12C423.906,5330.68,423.828,5330.65,423.749,5330.64Zm19.17-4.68a0.625,0.625,0,0,0-.265-0.47,0.079,0.079,0,0,0-.042.03,0.706,0.706,0,0,0,.216.44A0.237,0.237,0,0,0,442.919,5325.96Zm20.554,0.54a0.271,0.271,0,0,0-.048-0.13,0.1,0.1,0,0,0-.106.02,0.356,0.356,0,0,0-.092.16,0.1,0.1,0,0,0,.164.1A0.677,0.677,0,0,0,463.473,5326.5Zm-12.216,32.49a0.134,0.134,0,0,0-.107-0.12,0.112,0.112,0,0,0-.147.05,0.122,0.122,0,0,0,.117.17A0.128,0.128,0,0,0,451.257,5358.99Zm36.515,8.31c0.048-.02.106-0.03,0.158-0.05a0.247,0.247,0,0,0,.036-0.11,0.043,0.043,0,0,0-.044-0.03,0.5,0.5,0,0,0-.172.03c-0.047.02-.12,0.04-0.094,0.12A0.388,0.388,0,0,0,487.772,5367.3Zm-38.022-10.76c0.072,0.02.1,0,.108-0.05a0.051,0.051,0,0,0-.028-0.05,0.511,0.511,0,0,0-.148-0.09,0.106,0.106,0,0,0-.143.05,0.122,0.122,0,0,0,.073.08A0.775,0.775,0,0,0,449.75,5356.54Zm35.478,13a0.157,0.157,0,0,0-.05.17c0.007,0.07.034,0.13,0.11,0.09a0.158,0.158,0,0,0,.036-0.12A0.131,0.131,0,0,0,485.228,5369.54Zm-62.35-39.5a0.106,0.106,0,0,0,.1-0.12,0.145,0.145,0,0,0-.067-0.08,0.085,0.085,0,0,0-.1.11A0.243,0.243,0,0,0,422.878,5330.04Zm79.046-49.33a3.829,3.829,0,0,0,.205-0.63,0.674,0.674,0,0,0-.064-0.72,1.274,1.274,0,0,1-.07-1.1,0.233,0.233,0,0,1,.392-0.11,1.072,1.072,0,0,1,.2.25c0.234,0.36.46,0.72,0.692,1.09,0.022,0.04.042,0.07,0.061,0.11,0.162,0.34.139,0.4-.194,0.59a0.115,0.115,0,0,0-.089.14,0.154,0.154,0,0,0,.076.09,2.019,2.019,0,0,0,.21.13,0.144,0.144,0,0,0,.214-0.05c0.11-.28.268-0.19,0.443-0.1a0.958,0.958,0,0,0,.442.19,0.2,0.2,0,0,0,.154-0.09,0.228,0.228,0,0,0,.017-0.18,2.106,2.106,0,0,0-.241-0.38,5.177,5.177,0,0,1-.786-2.7,0.3,0.3,0,0,1,.268-0.37,1.1,1.1,0,0,1,1.353.56,5.874,5.874,0,0,0,.838,1.13,2.869,2.869,0,0,0,.706.62,1.326,1.326,0,0,1,.6.8,3.776,3.776,0,0,0,.6,1.15,0.262,0.262,0,0,0,.321.11,0.316,0.316,0,0,0,.143-0.44,4.142,4.142,0,0,1-.552-1.33,2.093,2.093,0,0,0-.547-0.86c-0.057-.05-0.112-0.13-0.172-0.18a2.2,2.2,0,0,1-.768-1.31,3.281,3.281,0,0,0-.266-0.67,0.3,0.3,0,0,1,.181-0.46,1.036,1.036,0,0,1,1.272.25,4.774,4.774,0,0,1,.917,1.4,1.9,1.9,0,0,0,.087.25c0.042,0.09.106,0.15,0.194,0.1a0.234,0.234,0,0,0,.083-0.23,0.826,0.826,0,0,0-.171-0.42,17.3,17.3,0,0,0-1.063-1.61,0.717,0.717,0,0,1-.087-0.17,0.235,0.235,0,0,1,.135-0.32,1.408,1.408,0,0,1,.293-0.04h1.617a1.7,1.7,0,0,1,1.43.69,2.088,2.088,0,0,1,.635,1.42,2.925,2.925,0,0,0,.064-1.3,0.716,0.716,0,0,0-.311-0.39c-0.278-.19-0.55-0.37-0.813-0.57a1.438,1.438,0,0,0-.913-0.25c-0.641.01-1.281,0.01-1.918,0.02a2.961,2.961,0,0,1-.419-0.02,0.872,0.872,0,0,1-.653-0.7,0.976,0.976,0,0,1,.388-0.85,0.368,0.368,0,0,1,.4.05c0.156,0.14.3,0.29,0.456,0.43a3.6,3.6,0,0,0,.185.33,0.284,0.284,0,0,0,.146.1,0.117,0.117,0,0,0,.1-0.01,0.148,0.148,0,0,0-.007-0.11,0.728,0.728,0,0,0-.423-0.3,0.889,0.889,0,0,1-.034-0.2c-0.013-.23.032-0.31,0.19-0.33a1.474,1.474,0,0,1,.3-0.03c0.657,0,1.318.01,1.978,0a0.707,0.707,0,0,1,.707.39,0.678,0.678,0,0,0,.644.41,0.714,0.714,0,0,1,.733.64,0.3,0.3,0,0,0,.161.26,0.542,0.542,0,0,0-.055-0.43,2.748,2.748,0,0,1-.041-0.93,0.347,0.347,0,0,1,.276-0.31,2.975,2.975,0,0,1,.418-0.02h3.536c0.46,0.03.5,0.12,0.233,0.64a2,2,0,0,0,1.129-.42,0.834,0.834,0,0,1,.613-0.22,6.692,6.692,0,0,1,1.729.11,1.119,1.119,0,0,0,.651-0.04,4.122,4.122,0,0,1,1.311-.05,0.372,0.372,0,0,1,.382.47,2.93,2.93,0,0,1-.072.46,1.19,1.19,0,0,0-.106.45c0.123,0.1.173-.04,0.244-0.1a0.572,0.572,0,0,1,.818.06,3.68,3.68,0,0,1,.324.39,0.461,0.461,0,0,0,.29.21,1.762,1.762,0,0,1,.972,1.01,0.628,0.628,0,0,1-.016.52,7.806,7.806,0,0,1-.668,1.26,0.8,0.8,0,0,1-.5.34,2.629,2.629,0,0,0-1.172.64,1.433,1.433,0,0,1-1.144.26c-0.233-.02-0.47-0.11-0.7-0.15a2.1,2.1,0,0,0-1.352.11,1.926,1.926,0,0,0-.81.51,1.959,1.959,0,0,1-.88.55,3.253,3.253,0,0,0-.925.6,0.775,0.775,0,0,0-.279.76,0.248,0.248,0,0,0,.082.16,0.1,0.1,0,0,0,.158-0.05,2.627,2.627,0,0,1,1.352-1.05,8.053,8.053,0,0,0,1.208-.57,0.52,0.52,0,0,1,.222-0.1,6.192,6.192,0,0,1,1.664-.11c0.214,0.05.434,0.05,0.651,0.09a0.384,0.384,0,0,1,.374.43,1.8,1.8,0,0,1-.52,1.49,6.489,6.489,0,0,1-1.037.9,0.364,0.364,0,0,0-.168.27,0.259,0.259,0,0,0,.06.24,0.156,0.156,0,0,0,.217.03,1.422,1.422,0,0,0,.193-0.15c0.4-.37.783-0.77,1.2-1.11a2.224,2.224,0,0,0,.75-1.47c0.015-.09.008-0.18,0.022-0.27a0.654,0.654,0,0,1,.522-0.64,3.969,3.969,0,0,1,.585-0.12,0.32,0.32,0,0,1,.372.26,2.414,2.414,0,0,1,.123.65,8.868,8.868,0,0,1-.7,4.23,12.553,12.553,0,0,0-.531,1.42,5.518,5.518,0,0,1-.455,1.01,1.14,1.14,0,0,0-.077.25,0.158,0.158,0,0,0,.036.12,0.092,0.092,0,0,0,.1-0.01,2.1,2.1,0,0,0,.4-0.74,10.292,10.292,0,0,1,1.289-2.55,1.625,1.625,0,0,0,.283-0.65,3.57,3.57,0,0,1,.365-0.92,1.2,1.2,0,0,1,.739-0.67,2.7,2.7,0,0,0-.1.96,0.194,0.194,0,0,0,.164-0.1c0.309-.37.535-0.4,0.868-0.1a2.556,2.556,0,0,1,.2.24,0.167,0.167,0,0,0,.255-0.06,1.061,1.061,0,0,0,.132-0.44c0.049-.35.1-0.7,0.13-1.06a0.71,0.71,0,0,1,.513-0.72,3.374,3.374,0,0,1,.99-0.21,2.2,2.2,0,0,1,1.251.36,3.7,3.7,0,0,1,1.151,1.14,0.59,0.59,0,0,1,.069.62,1.8,1.8,0,0,1-.321.56,3.257,3.257,0,0,0-.691,1.16,0.806,0.806,0,0,1-.7.62c-0.259.01-.323,0.2-0.216,0.48,0.244,0.63.25,0.64-.308,0.89a0.921,0.921,0,0,0-.461.4,0.538,0.538,0,0,1-.733.26c-0.056-.03-0.115-0.04-0.174-0.07a0.44,0.44,0,0,0-.691.26,0.918,0.918,0,0,1-.516.43c-0.747-.44-0.747-0.44-1.322.02a0.074,0.074,0,0,0-.043.04,0.376,0.376,0,0,0-.012.11,0.049,0.049,0,0,0,.05.02,2.354,2.354,0,0,1,1.331-.2,0.433,0.433,0,0,0,.649.1,0.918,0.918,0,0,1,1.213.17,0.321,0.321,0,0,1,.11.35,3.3,3.3,0,0,1-.438.96,0.713,0.713,0,0,1-.576.3,2.636,2.636,0,0,1-1.241-.14c-0.345-.14-0.444-0.06-0.591.32a5.154,5.154,0,0,0-.259,1.44,0.193,0.193,0,0,0,.071.16c0.066,0.04.1-.03,0.122-0.09,0.1-.22.2-0.44,0.289-0.66a1.023,1.023,0,0,1,.739-0.62c0.142-.02.276-0.08,0.411-0.09a0.481,0.481,0,0,1,.529.56,3.149,3.149,0,0,1-.371,1.2,0.531,0.531,0,0,1-.516.26c-0.486.01-.557,0.07-0.611,0.57-0.024.2-.04,0.4-0.046,0.6a0.9,0.9,0,0,0,.223.67,0.28,0.28,0,0,1,0,.46,1.747,1.747,0,0,0-.441,1.19,0.442,0.442,0,0,1-.3.45c-0.093.04-.187,0.07-0.28,0.11a0.405,0.405,0,0,0-.223.37c0.042,0.83-.276,1.62-0.268,2.45a1.346,1.346,0,0,1-.109.45,3.623,3.623,0,0,0-.146.92,0.118,0.118,0,0,0,.052.1,0.113,0.113,0,0,0,.1-0.03,5.722,5.722,0,0,0,.234-0.54,0.607,0.607,0,0,1,.493-0.42,0.692,0.692,0,0,1,.588.23,0.514,0.514,0,0,1,.339.48,3.13,3.13,0,0,0,.118.51,0.251,0.251,0,0,1-.076.24,0.165,0.165,0,0,1-.218,0,0.745,0.745,0,0,0-.593-0.28,0.143,0.143,0,0,0-.125.22,3.021,3.021,0,0,0,.25.73,2.454,2.454,0,0,1,.582.47c0.062,0.09.134,0,.2-0.05a0.333,0.333,0,0,1,.568.26,4.856,4.856,0,0,1,0,1.33,0.279,0.279,0,0,1-.391.28,2.27,2.27,0,0,1-.506-0.21,2.235,2.235,0,0,0-.815-0.27c-0.171.18-.194,0.47-0.381,0.65a0.268,0.268,0,0,0-.013.36,0.165,0.165,0,0,1-.04.23,0.167,0.167,0,0,1-.218-0.04c-0.13-.14-0.248-0.29-0.375-0.43a0.159,0.159,0,0,0-.264-0.03,0.29,0.29,0,0,0-.066.35,0.219,0.219,0,0,0,.074.1,1.508,1.508,0,0,1,.53.94,0.23,0.23,0,0,0,.3.23,1.885,1.885,0,0,1,.7.12,0.368,0.368,0,0,1,.317.35,0.33,0.33,0,0,1-.187.37c-0.071.05-.132,0.1-0.194,0.14a0.3,0.3,0,0,0,.029.14,1.182,1.182,0,0,1,.569,1.1c0.007,0.19.048,0.39,0.07,0.59a1.274,1.274,0,0,1-.077.66,0.245,0.245,0,0,1-.161.18,0.188,0.188,0,0,1-.2-0.13,1.553,1.553,0,0,0-.746-0.73,0.69,0.69,0,0,0-.207-0.05,1.037,1.037,0,0,0,.317.56,0.477,0.477,0,0,1,.109.3c-0.007.31,0,.31,0.194,0.33a0.567,0.567,0,0,1,.52.6,0.5,0.5,0,0,1-.387.51c-0.033.01-.073,0.01-0.112,0.02a0.178,0.178,0,0,0-.033.08,1.279,1.279,0,0,0,1.081.03,0.112,0.112,0,0,1,.158.06,0.263,0.263,0,0,1,.017.18,1.956,1.956,0,0,0-.318.7,0.529,0.529,0,0,1-.445.4,0.333,0.333,0,0,0-.27.12,0.832,0.832,0,0,1-1.052.17,2.285,2.285,0,0,0-.222-0.11,0.154,0.154,0,0,0-.2.08,0.187,0.187,0,0,0,.119.26,4.006,4.006,0,0,1,.884.4,0.426,0.426,0,0,1,.289.57c-0.013.11-.031,0.22-0.047,0.33-0.065.41-.081,0.45-0.452,0.46a0.631,0.631,0,0,0-.529.26c-0.306.39-.582,0.33-1,0a1.87,1.87,0,0,1-.588-0.75c-0.033-.08-0.072-0.15-0.125-0.27a2.944,2.944,0,0,1-.431.51c-0.055.01-.042,0.18,0.034,0.23a2.77,2.77,0,0,0,.387.17,1.3,1.3,0,0,1,.887.82,0.573,0.573,0,0,0,.382.29c0.292,0.15.3,0.2,0.286,0.56a0.232,0.232,0,0,1-.276.26c-0.035.01-.067,0.04-0.119,0.06a1.871,1.871,0,0,0,.365.42c0.084,0.13.078,0.26-.069,0.3s-0.224.09-.124,0.26c0.035,0.06.07,0.11,0.1,0.17a0.243,0.243,0,0,1-.028.25,0.149,0.149,0,0,1-.217.03,9.669,9.669,0,0,1-1.191-1.1,1.285,1.285,0,0,1-.229-0.61c-0.018-.13-0.024-0.26-0.042-0.39a0.276,0.276,0,0,0-.11-0.23c-0.089-.05-0.148.03-0.2,0.09-0.089.12-.177,0.23-0.261,0.34a0.46,0.46,0,0,0,.23.31,0.586,0.586,0,0,1,.2.4,1,1,0,0,0,.359.66,7.85,7.85,0,0,0,.887.89,0.946,0.946,0,0,1,.381.49,0.642,0.642,0,0,0,.151.21c0.188,0.21.188,0.21,0.077,0.48-0.024.06-.052,0.12-0.077,0.18,0.086,0.14.177,0.01,0.261,0.01a0.166,0.166,0,0,1,.158.16c0.008,0.09-.006.18-0.006,0.27a6.649,6.649,0,0,0,.113,1.73,0.757,0.757,0,0,1,.018.2,0.208,0.208,0,0,1-.251.2,0.95,0.95,0,0,1-.439-0.36c-0.025.07-.048,0.12-0.071,0.17-0.11.22-.21,0.28-0.374,0.23a0.974,0.974,0,0,1-.658-0.63,2.7,2.7,0,0,1-.118-0.45,1.447,1.447,0,0,0-.878-1.25c-0.155.04-.061,0.21-0.1,0.33a1.151,1.151,0,0,0-.1.31,0.508,0.508,0,0,0,.046.25c0.037,0.11.109,0.19,0.148,0.3a0.573,0.573,0,0,1-.4.89,0.818,0.818,0,0,0-.517.18l0.182,0.52a0.434,0.434,0,0,0,.355-0.13,0.791,0.791,0,0,1,.861-0.01l0.21,0.12a1.923,1.923,0,0,0,1.551.33,0.112,0.112,0,0,1,.135.09,0.317,0.317,0,0,1-.035.19,0.388,0.388,0,0,1-.179.16c-0.286.06-.433,0.4-0.726,0.45a0.111,0.111,0,0,0-.088.07,3.035,3.035,0,0,1-.855,1.06,0.909,0.909,0,0,0-.161.19,3.428,3.428,0,0,1-2.008,1.58,7.531,7.531,0,0,0-1.015.4,1.165,1.165,0,0,1-.165.07,0.9,0.9,0,0,0-.4-0.02c-0.084.09-.125,0.23-0.206,0.32a0.413,0.413,0,0,1-.218.11c-0.134.02-.276,0.02-0.413,0.03a0.521,0.521,0,0,1-.654-0.41,0.186,0.186,0,0,0-.078-0.1,0.159,0.159,0,0,0-.107-0.04,0.135,0.135,0,0,0-.039.11,0.763,0.763,0,0,1-.3,1.11,1.546,1.546,0,0,0-.57,1.05,2.654,2.654,0,0,1-.581,1.3,1.844,1.844,0,0,0-.208.33,0.761,0.761,0,0,1-.557.45,0.3,0.3,0,0,0-.261.24,0.813,0.813,0,0,1-.664.48c-0.159.05-.3-0.02-0.47,0.02-0.271.08-.387-0.1-0.341-0.42,0.013-.09.039-0.17,0.059-0.26-0.135-.04-0.158.06-0.182,0.13a2.694,2.694,0,0,0-.188.63,0.492,0.492,0,0,1-.473.5,3.742,3.742,0,0,1-.478.04,0.278,0.278,0,0,0-.3.32,2.028,2.028,0,0,1-.017.33,0.426,0.426,0,0,1-.358.39,1.446,1.446,0,0,0-.3.04,0.2,0.2,0,0,0-.116.27c0.055,0.14.129,0.27,0.185,0.42a0.945,0.945,0,0,1,.125.43,0.353,0.353,0,0,1-.266.12c-0.125.07-.164,0.17-0.068,0.25a0.649,0.649,0,0,1,.258.57,1.789,1.789,0,0,1-.241.95,1.551,1.551,0,0,0-.411.78,0.359,0.359,0,0,1-.251.27,1.659,1.659,0,0,0-.278.13,0.244,0.244,0,0,0-.1.28c0.016,0.08.053,0.16,0.069,0.25a2.575,2.575,0,0,1-.085,1.76,3.289,3.289,0,0,0-.19.77,1.689,1.689,0,0,1-.237.74,0.387,0.387,0,0,0-.066.25,0.857,0.857,0,0,1-.384.78c-0.181.16-.24,0.15-0.329-0.11-0.043-.13-0.082-0.19-0.207-0.17a0.6,0.6,0,0,1-.3.01,0.341,0.341,0,0,1-.3-0.35,0.371,0.371,0,0,0-.158-0.33,3.98,3.98,0,0,0-.4-0.4,0.844,0.844,0,0,0-.3-0.38,3.907,3.907,0,0,0-.593.06,1.962,1.962,0,0,0-.22.1c-0.253.09-.289,0.07-0.367-0.26a0.406,0.406,0,0,0-.17-0.26c-0.1-.08-0.212-0.13-0.3-0.21a0.952,0.952,0,0,1-.459-0.73,2.291,2.291,0,0,0-.251-0.6,14.961,14.961,0,0,1-.63-1.37,2,2,0,0,0-.242-0.37,3.279,3.279,0,0,1-.489-1.14,0.983,0.983,0,0,1,.344-1.21,0.455,0.455,0,0,0,.157-0.2,0.273,0.273,0,0,0-.077-0.3,0.171,0.171,0,0,0-.263.04c-0.089.14-.158,0.3-0.246,0.45a0.174,0.174,0,0,1-.211.09,0.2,0.2,0,0,1-.159-0.17c0-.03-0.012-0.05-0.012-0.07a5.132,5.132,0,0,0-.282-1.69,1.981,1.981,0,0,0-.307-0.7,1.349,1.349,0,0,1-.339-0.83,0.285,0.285,0,0,0-.023-0.13,1.2,1.2,0,0,1,.084-1.2,0.232,0.232,0,0,0-.071-0.34,0.776,0.776,0,0,1-.3-1.02,4.373,4.373,0,0,0,.147-0.72,2.266,2.266,0,0,1,.419-0.98,0.638,0.638,0,0,0,.087-0.3,0.625,0.625,0,0,1,.681-0.66h0.057c0.464,0.01.471,0,.464-0.5,0-.14,0-0.27.007-0.4,0-.06.042-0.13,0.051-0.19a2.124,2.124,0,0,0,.282-0.29,1.85,1.85,0,0,1-.121-0.43,2.262,2.262,0,0,1,.194-0.77c0.237-.47.033-0.55-0.289-0.63a1.115,1.115,0,0,0-.178-0.02,1.283,1.283,0,0,1-1.137-.47,0.84,0.84,0,0,0-.269-0.14l0.006,0.01c-0.136-.1-0.269-0.19-0.4-0.29a1.242,1.242,0,0,1-.437-0.54,0.321,0.321,0,0,1,.212-0.5,1.62,1.62,0,0,1,1.4.41c0.154,0.15.3,0.3,0.465,0.43a0.114,0.114,0,0,0,.193-0.06,3.7,3.7,0,0,0,.158-0.5,0.435,0.435,0,0,0-.117-0.43,0.706,0.706,0,0,1-.443-0.57,0.259,0.259,0,0,0-.143-0.09,1.092,1.092,0,0,0-.534-0.07,0.362,0.362,0,0,1-.287-0.56,0.8,0.8,0,0,1,.274-0.34c0.1-.07.207-0.13,0.324-0.2a0.475,0.475,0,0,0-.418.04,1.856,1.856,0,0,1-.223.09,0.175,0.175,0,0,1-.193-0.19c0.02-.11.071-0.21,0.1-0.31a0.167,0.167,0,0,0-.052-0.18,0.115,0.115,0,0,0-.161.03,0.849,0.849,0,0,0-.235.59,0.46,0.46,0,0,1-.239.43,0.825,0.825,0,0,1-1.071-.71,0.475,0.475,0,0,1,.15-0.35,0.286,0.286,0,0,0,.123-0.29,0.592,0.592,0,0,1,.136-0.65,2.492,2.492,0,0,0,.312-1.08c0.022-.13,0-0.26.027-0.39a0.631,0.631,0,0,0-.416-0.83,0.254,0.254,0,0,1-.164-0.36,1.643,1.643,0,0,0-.188-1.2,0.812,0.812,0,0,1-.123-0.62,0.87,0.87,0,0,0-.1-0.51,1.344,1.344,0,0,1-.179-0.76,0.793,0.793,0,0,0-.138-0.35c-0.035-.18-0.23-0.34-0.03-0.54a0.228,0.228,0,0,0-.049-0.25,1.115,1.115,0,0,1-.372-0.8,0.362,0.362,0,0,0-.179-0.24,2.252,2.252,0,0,1-.752-1.32,0.726,0.726,0,0,1-.011-0.4,0.761,0.761,0,0,0-.393-0.87,0.629,0.629,0,0,0-.322-0.17,0.266,0.266,0,0,1-.255-0.23,0.334,0.334,0,0,0-.1-0.17,4.433,4.433,0,0,0-1.673-.97,1.359,1.359,0,0,1-.341-0.11c-0.1-.05-0.173-0.23-0.3-0.16a1.148,1.148,0,0,0-.247.28,0.212,0.212,0,0,1-.361.03c-0.136-.14-0.24-0.08-0.359.04-0.161.17-.332,0.32-0.5,0.47a0.193,0.193,0,0,1-.3-0.09c-0.046-.15-0.067-0.31-0.118-0.45a0.115,0.115,0,0,0-.2-0.04,0.6,0.6,0,0,0-.084.1c-0.165.19-.166,0.19-0.375,0.06-0.017-.01-0.033-0.03-0.048-0.04a0.115,0.115,0,0,0-.162-0.01,0.165,0.165,0,0,0,.01.23c0.09,0.15.183,0.3,0.271,0.44a0.321,0.321,0,0,1,.061.29,2.886,2.886,0,0,1-2.115-1.41,0.468,0.468,0,0,1,.023-0.61,1.185,1.185,0,0,1,.415-0.37,0.225,0.225,0,0,0,.176-0.15,0.153,0.153,0,0,0-.194-0.11,1.513,1.513,0,0,1-.785-0.28,1.58,1.58,0,0,0-.154-0.11,1,1,0,0,1-.544-0.22,1.709,1.709,0,0,0-.336-0.47,0.254,0.254,0,0,1-.029-0.35,1.137,1.137,0,0,1,1.242-.72c0.138,0.03.273,0.04,0.437,0.07a0.833,0.833,0,0,1,.763-0.71,0.864,0.864,0,0,1,.594.02,0.551,0.551,0,0,0,.722-0.27,0.384,0.384,0,0,0,.057-0.48,0.226,0.226,0,0,0-.233-0.17,0.66,0.66,0,0,0-.445.15,0.663,0.663,0,0,1-.973.15,0.113,0.113,0,0,0-.189.06,0.4,0.4,0,0,1-.424.3,0.77,0.77,0,0,1-.639-0.31,1.04,1.04,0,0,0-.344-0.52,0.319,0.319,0,0,1-.027-0.18c0.011-.16-0.061-0.2-0.183-0.17a0.361,0.361,0,0,1-.422-0.18,0.845,0.845,0,0,0-.339-0.26,0.482,0.482,0,0,1-.284-0.23c-0.107-.3-0.388-0.45-0.481-0.75,0.128-.38.016-0.8,0.141-1.18a0.66,0.66,0,0,1,.272-0.42,3.543,3.543,0,0,1,.73-0.45,0.305,0.305,0,0,0,.112-0.04,3.739,3.739,0,0,1,1.169-.79,0.326,0.326,0,0,0,.2-0.36,0.546,0.546,0,0,1,.361-0.49c0.291-.13.6-0.24,0.9-0.36a0.381,0.381,0,0,1,.294.03c0.131,0.04.269,0.08,0.4,0.11a0.352,0.352,0,0,0,.4-0.21c0.212-.4.419-0.81,0.636-1.2a1.037,1.037,0,0,0,.053-0.96,1.673,1.673,0,0,1-.073-0.19,0.422,0.422,0,0,1,.191-0.55,0.136,0.136,0,0,0,.053-0.03c0.159-.13.2-0.24,0.064-0.37a0.336,0.336,0,0,1-.048-0.51,0.18,0.18,0,0,0,.025-0.24,0.229,0.229,0,0,0-.165-0.01c-0.139.03-.271,0.09-0.409,0.11a2.4,2.4,0,0,1-.535.03,1.107,1.107,0,0,1-.7-1.77,2.1,2.1,0,0,0,.3-0.57,0.718,0.718,0,0,1,.165-0.28c0.408-.43.71-0.96,1.088-1.42a0.956,0.956,0,0,0,.133-0.22,4.418,4.418,0,0,1,1.188-1.55,0.541,0.541,0,0,1,.856-0.02c0.11,0.1.2,0.22,0.317,0.31a0.271,0.271,0,0,0,.445-0.13,1.057,1.057,0,0,0,.078-0.32,2.949,2.949,0,0,0,0-.47,8.839,8.839,0,0,0-.278-1.97,1.278,1.278,0,0,1,.851-1.59,0.708,0.708,0,0,1,.4.07,0.96,0.96,0,0,1,.7.96,1.558,1.558,0,0,0,.034.27,0.554,0.554,0,0,0,.277.41,0.162,0.162,0,0,0,.115.02,0.068,0.068,0,0,0,.026-0.11,1.567,1.567,0,0,1-.294-0.79,1.159,1.159,0,0,0-.457-0.83c-0.34-.25-0.238-0.46-0.012-0.69a3.049,3.049,0,0,1,1.078-.7,5.988,5.988,0,0,0,1.722-.9c0.533-.4.735-0.31,1,0.36a3.631,3.631,0,0,1,.265,1.23c0,0.35.062,0.71,0.1,1.06a2.489,2.489,0,0,0-.217,1.09A2.55,2.55,0,0,0,501.924,5280.71Zm19.289,38.61c-0.078-.09-0.153-0.19-0.235-0.27a0.1,0.1,0,0,0-.094.01,0.117,0.117,0,0,0,0,.11,0.239,0.239,0,0,0,.334.14,0.688,0.688,0,0,0,.675.09A0.975,0.975,0,0,0,521.213,5319.32Zm-0.843,2.27a1.668,1.668,0,0,0,.769-0.7,0.444,0.444,0,0,0-.114-0.01c-0.649.01-.649,0.01-0.652,0.72-0.082.12-.164,0.22-0.24,0.35a0.155,0.155,0,0,0,.047.1,0.121,0.121,0,0,0,.1-0.03A0.708,0.708,0,0,0,520.37,5321.59Zm-17.319,5.89a0.251,0.251,0,0,0,.264-0.07,0.174,0.174,0,0,0,.018-0.12,0.19,0.19,0,0,0-.234-0.14,1.764,1.764,0,0,0-.221.09,0.064,0.064,0,0,0-.035.05,0.156,0.156,0,0,0,.037.1A0.646,0.646,0,0,0,503.051,5327.48Zm17.33-4.51a0.342,0.342,0,0,0,.437,0,0.117,0.117,0,0,0,.037-0.1,0.092,0.092,0,0,0-.094-0.05Zm-16.047-41.29a0.087,0.087,0,0,0-.051.05,0.286,0.286,0,0,0,.122.28,0.051,0.051,0,0,0,.053-0.01,0.167,0.167,0,0,0-.016-0.18A0.79,0.79,0,0,0,504.334,5281.68Zm5.2-3.29a0.1,0.1,0,0,0-.059.04c-0.035.12,0.059,0.14,0.126,0.17a0.057,0.057,0,0,0,.086-0.05,0.064,0.064,0,0,0-.018-0.06A1.374,1.374,0,0,0,509.533,5278.39Zm-20.07,59.56a1.226,1.226,0,0,0-.47-0.39,1.286,1.286,0,0,1-.489-0.48,0.367,0.367,0,0,1,.043-0.47c0.177-.21.12-0.36-0.137-0.38a1.091,1.091,0,0,1-.8-0.62,3.609,3.609,0,0,1-.294-0.66,0.583,0.583,0,0,0-.481-0.43,0.206,0.206,0,0,0-.265.1,0.355,0.355,0,0,1-.585.2c-0.207-.12-0.3-0.04-0.452.12a0.982,0.982,0,0,1-1.492-.1,0.9,0.9,0,0,1-.013-1.1,1.976,1.976,0,0,0,.418-0.63,0.205,0.205,0,0,1,.305-0.13,4.309,4.309,0,0,0,.883.18,0.807,0.807,0,0,0,.4-0.06,4.721,4.721,0,0,1,1.045-.4,0.607,0.607,0,0,0-.128-0.4c-0.07-.11-0.151-0.21-0.218-0.32a0.58,0.58,0,0,1,.033-0.73c0.177-.21.343-0.43,0.526-0.64a1.2,1.2,0,0,0,.371-0.66,0.553,0.553,0,0,1,.132-0.29,0.721,0.721,0,0,0,.129-0.74c-0.09-.36-0.18-0.73-0.257-1.1a0.8,0.8,0,0,0-.47-0.71,0.561,0.561,0,0,1-.259-0.56c-0.008-.15-0.057-0.18-0.187-0.11-0.107.07-.184-0.02-0.251-0.11a2.693,2.693,0,0,1-.345-0.67,1.4,1.4,0,0,0-.654.36c-0.155.09-.313,0.28-0.489,0.13a0.625,0.625,0,0,1-.057-0.5,0.255,0.255,0,0,1,.2-0.29c0.041-.01.083-0.01,0.117-0.02,0.318-.13.358-0.31,0.113-0.59-0.113-.12-0.24-0.22-0.365-0.34l0.007,0.01a2.168,2.168,0,0,1-.283-0.51,0.287,0.287,0,0,0-.281-0.27,0.259,0.259,0,0,1-.265-0.29c-0.017-.13-0.017-0.27-0.047-0.4a0.4,0.4,0,0,0-.133-0.2,0.418,0.418,0,0,0-.226-0.1c-0.162-.04-0.276-0.37-0.447-0.2a0.706,0.706,0,0,0,.085.5,0.426,0.426,0,0,1-.155.46,0.732,0.732,0,0,0-.322.46,0.6,0.6,0,0,1-.24.29c-0.258.2-.442,0.12-0.5-0.23a0.246,0.246,0,0,1,.234-0.31,0.147,0.147,0,0,0,.041-0.25,1.149,1.149,0,0,0-.731-0.23,0.134,0.134,0,0,0-.05.1c0.018,0.08.058,0.17,0.085,0.25a0.19,0.19,0,0,1-.014.13,0.124,0.124,0,0,1-.1.02,0.436,0.436,0,0,0-.6-0.08,0.5,0.5,0,0,1-.459-0.1,0.636,0.636,0,0,0-.675-0.08,0.593,0.593,0,0,1-.411-0.04,2.741,2.741,0,0,0-1.061-.15,0.762,0.762,0,0,1-.294-0.06,0.409,0.409,0,0,0-.4.01,0.477,0.477,0,0,1-.352.04,0.221,0.221,0,0,1-.187-0.21,0.2,0.2,0,0,1,.174-0.16,1.085,1.085,0,0,0,.178-0.03,0.138,0.138,0,0,0,.106-0.14,0.127,0.127,0,0,0-.106-0.14,3.639,3.639,0,0,0-.658-0.03,0.569,0.569,0,0,1-.481-0.2,3.08,3.08,0,0,1-.722-1.06,0.8,0.8,0,0,1-.083-0.38c0.006-.17.077-0.25,0.223-0.22,0.176,0.05.345,0.11,0.516,0.16a1.485,1.485,0,0,0,.347.1,0.264,0.264,0,0,0,.212-0.1,0.23,0.23,0,0,0-.064-0.29,0.789,0.789,0,0,0-.63-0.34,1.917,1.917,0,0,1-.7-0.13,0.49,0.49,0,0,1-.34-0.5,8.83,8.83,0,0,1,.01-1.65c0.062-.26-0.034-0.54.036-0.8,0.171-.64.316-1.3,0.518-1.92a4.809,4.809,0,0,1,.513-1.06,2.527,2.527,0,0,1,1.152-.92,1.588,1.588,0,0,1,1.116,0c0.35,0.08.426,0.32,0.2,0.62a6.319,6.319,0,0,0-.488.68,2.311,2.311,0,0,0-.324.79,3.206,3.206,0,0,1-.141.51,1.24,1.24,0,0,0,.008,1.08,1.249,1.249,0,0,1,.046.73,2.324,2.324,0,0,0,.969,2,0.1,0.1,0,0,0,.153-0.06,0.179,0.179,0,0,0,.012-0.12,0.371,0.371,0,0,0-.088-0.17c-0.077-.07-0.17-0.11-0.249-0.18a1.125,1.125,0,0,1-.222-0.23,0.813,0.813,0,0,1,.052-1.17,3.026,3.026,0,0,1,.3-0.29,0.215,0.215,0,0,0-.146-0.21,0.714,0.714,0,0,1-.309-0.62c-0.01-.17-0.017-0.35-0.017-0.53a0.369,0.369,0,0,1,.185-0.38,0.878,0.878,0,0,0,.094-0.4,0.284,0.284,0,0,0,.172-0.36,0.314,0.314,0,0,1,.143-0.34c0.365-.27.728-0.54,1.092-0.82a1.62,1.62,0,0,1,1.146-.27,0.5,0.5,0,0,1,.447.39,1.041,1.041,0,0,1,.064.32,1.03,1.03,0,0,0,.3.95,0.22,0.22,0,0,1,.061.18c-0.138.49,0.337,0.87,0.173,1.36a5.849,5.849,0,0,0-.153.64,1.274,1.274,0,0,0-.047.27,0.275,0.275,0,0,0,.078.16,0.126,0.126,0,0,0,.163-0.05,0.722,0.722,0,0,0,.164-0.34,1.531,1.531,0,0,1,.114-0.31,0.089,0.089,0,0,1,.151-0.03,0.812,0.812,0,0,0,.5.34,0.225,0.225,0,0,0,.322-0.25,0.885,0.885,0,0,1,.418-0.76,0.783,0.783,0,0,1,.855-0.07,4.711,4.711,0,0,0,.936.43,0.7,0.7,0,0,1,.4.48,1.125,1.125,0,0,1,.114.51,0.278,0.278,0,0,0,.192.3,0.482,0.482,0,0,1,.31.57,0.17,0.17,0,0,0,.224.21,0.528,0.528,0,0,1,.12-0.02,0.15,0.15,0,0,1,.168.21,0.779,0.779,0,0,0,.063.65c0.142-.1.265-0.2,0.4-0.28,0.177-.1.294-0.38,0.57-0.19a1.319,1.319,0,0,1,.822.98,0.493,0.493,0,0,1-.118.37,0.339,0.339,0,0,0-.163.23,0.278,0.278,0,0,0,.129.04c0.441-.1.443-0.11,0.5,0.36a0.149,0.149,0,0,0,.2.16,1.78,1.78,0,0,1,1.258.5,0.363,0.363,0,0,1,.031.48,3.126,3.126,0,0,1-.227.22c-0.06.05-.129,0.1-0.217,0.16a2.2,2.2,0,0,1,.23.16,2.427,2.427,0,0,1,.192.17c0.046-.06.091-0.1,0.124-0.15,0.187-.3.317-0.33,0.5-0.1a3.781,3.781,0,0,1,.388.59c0.144,0.28.054,0.48-.235,0.51a1.085,1.085,0,0,0-.539.26,0.123,0.123,0,0,0,.012.21,1.6,1.6,0,0,0,.635.17,0.734,0.734,0,0,1,.523.3,0.224,0.224,0,0,1-.078.37,0.826,0.826,0,0,1-.792-0.04c-0.182.18,0.033,0.3,0.007,0.45a0.635,0.635,0,0,0-.027.39,0.686,0.686,0,0,1,.043.25,0.663,0.663,0,0,0-.057.32,0.456,0.456,0,0,0,.365.2,0.647,0.647,0,0,1,.557.41c0.082,0.22.384,0.29,0.485,0.56a0.273,0.273,0,0,0,.217.04,0.464,0.464,0,0,1,.573.24,1.6,1.6,0,0,1,.692,1.19,0.2,0.2,0,0,0,.212.19,1.919,1.919,0,0,1,.239-0.01,0.18,0.18,0,0,1,.171.22c-0.041.25,0.057,0.32,0.258,0.32a0.952,0.952,0,0,1,.759.34,0.543,0.543,0,0,1,.122.66,0.835,0.835,0,0,1-.4.62,0.273,0.273,0,0,0-.111.29,1.43,1.43,0,0,1-.218.68,0.494,0.494,0,0,1-.37.31,0.211,0.211,0,0,0-.182.28,1.832,1.832,0,0,1-.16.71c-0.045.14-.146,0.16-0.293,0.09a2.074,2.074,0,0,1-1.021-1.16,3.392,3.392,0,0,0-.963-1.24,0.707,0.707,0,0,1-.281-0.32c-0.036-.13-0.115-0.1-0.173-0.01a0.244,0.244,0,0,1-.2.12c-0.087,0-.224-0.09-0.247.07a0.271,0.271,0,0,0,.2.21c0.047,0.04.1,0.08,0.144,0.12a0.3,0.3,0,0,1,.025.42c-0.046.06-.117,0.11-0.169,0.18a0.2,0.2,0,0,0,0,.25,2.152,2.152,0,0,1,.4.95,0.633,0.633,0,0,0,.475.53,1.477,1.477,0,0,1,.726.45,0.689,0.689,0,0,1,.25.76,0.383,0.383,0,0,0,.112.41,1.356,1.356,0,0,1,.294,1.11,0.46,0.46,0,0,1-.095.24c-0.063.08-.2,0.1-0.17,0.24a0.924,0.924,0,0,0,.14.29c0.07,0.12.164,0.25,0.007,0.33a0.221,0.221,0,0,0-.078.37,2.386,2.386,0,0,1,.164.19,0.174,0.174,0,0,1-.01.24,0.17,0.17,0,0,1-.271-0.01,2.006,2.006,0,0,1-.193-0.4,0.663,0.663,0,0,0-.492-0.44,1.844,1.844,0,0,1-1.147-.79,0.48,0.48,0,0,0-.128-0.13c-0.123-.06-0.265-0.09-0.388-0.16a1.16,1.16,0,0,0-.33-0.24,0.275,0.275,0,0,0,.077.26,10.215,10.215,0,0,0,1.315,1.54,1.323,1.323,0,0,1,.43,1.12c0,0.15-.154.26-0.259,0.16a2.409,2.409,0,0,0-.717-0.28,3.731,3.731,0,0,0-.654-0.3,1,1,0,0,1-.644-0.46,0.843,0.843,0,0,0-.864-0.46,0.5,0.5,0,0,1-.122,0h0Zm-10.717-17.87a0.11,0.11,0,0,0-.12.1,0.158,0.158,0,0,0,.092.04,0.246,0.246,0,0,0,.088-0.06C478.789,5320.14,478.766,5320.1,478.746,5320.08Zm-23.895-.85c-0.179-.06-0.344-0.11-0.507-0.18a0.354,0.354,0,0,1-.2-0.3,0.956,0.956,0,0,1,.087-0.65,3.759,3.759,0,0,1,.276-0.44,0.369,0.369,0,0,0,.064-0.42,0.824,0.824,0,0,1,.135-0.87,4.315,4.315,0,0,1,.588-0.67,9.1,9.1,0,0,1,1.732-1.19c0.33-.17.532-0.08,0.641,0.31a1.8,1.8,0,0,1-.018,1.12c-0.039.11-.148,0.25,0.039,0.32s0.25,0,.3-0.27a1.479,1.479,0,0,1,.051-0.25c0.168-.4.365-0.48,0.665-0.29,0.247,0.15.49,0.3,0.732,0.46a0.673,0.673,0,0,1,.312.73,0.327,0.327,0,0,0,.077.33,1.153,1.153,0,0,1,.457-0.37,0.39,0.39,0,0,0,.248-0.51c-0.03-.14-0.093-0.25-0.124-0.38a0.19,0.19,0,0,1,.218-0.23,0.09,0.09,0,0,1,.057.01,2.019,2.019,0,0,1,1.008,1.48,5.6,5.6,0,0,0,.11.72,3.816,3.816,0,0,1,.164.92,0.162,0.162,0,0,0,.146.18,0.309,0.309,0,0,0,.212-0.1,0.5,0.5,0,0,0,.112-0.49c-0.206-.8-0.206-1.63-0.375-2.44-0.036-.2-0.049-0.4-0.072-0.6a1.182,1.182,0,0,1,.071-0.52,0.211,0.211,0,0,1,.294-0.14,1.525,1.525,0,0,1,.2.12,0.393,0.393,0,0,0,.208.12c0.366-.16.5,0.15,0.668,0.39a0.1,0.1,0,0,0,.155.03,0.16,0.16,0,0,0,0-.18,2.469,2.469,0,0,0-.549-0.7,0.384,0.384,0,0,1-.081-0.48,0.661,0.661,0,0,1,.587-0.5,2.955,2.955,0,0,1,.6.01,0.664,0.664,0,0,1,.527.64,1.35,1.35,0,0,1-.044.6,4.359,4.359,0,0,1-.409,1.1,0.684,0.684,0,0,0-.087.52c0.093,0.56.18,1.14,0.218,1.72a1.911,1.911,0,0,0,.276.8,1.58,1.58,0,0,1,.187,1.16,1.129,1.129,0,0,0,.195.93,3.882,3.882,0,0,0,.468.6,0.272,0.272,0,0,0,.264.13,0.455,0.455,0,0,1,.459.24,3.7,3.7,0,0,0,.947.91,0.517,0.517,0,0,1,.244.55,3.218,3.218,0,0,0-.011.34,0.256,0.256,0,0,1-.265.29,0.714,0.714,0,0,1-.621-0.15c-0.1-.1-0.23,0-0.242.16a0.385,0.385,0,0,0,.077.32,5.113,5.113,0,0,1,.5.82,0.228,0.228,0,0,1-.023.3,1.977,1.977,0,0,1-.925.59,0.884,0.884,0,0,1-.759-0.08,0.823,0.823,0,0,0-.459-0.11,0.439,0.439,0,0,1-.457-0.24,0.559,0.559,0,0,0-.429-0.34,0.515,0.515,0,0,1-.451-0.46,0.19,0.19,0,0,0-.132-0.1,0.2,0.2,0,0,0-.134.12c-0.045.1-.065,0.21-0.106,0.31a0.88,0.88,0,0,1-.621.58,1.407,1.407,0,0,0-.79.42,1.228,1.228,0,0,1-.883.35,2.664,2.664,0,0,0-.875.18,5.217,5.217,0,0,1-1.252.09,0.21,0.21,0,0,1-.189-0.14,2.458,2.458,0,0,1-.322-0.79c-0.025-.13-0.04-0.26-0.075-0.39a0.515,0.515,0,0,0-.542-0.43,1.833,1.833,0,0,0-.233.03,1.288,1.288,0,0,1-1.32-.6,3.658,3.658,0,0,1-.46-0.86,0.413,0.413,0,0,1,.158-0.52,2.661,2.661,0,0,1,.377-0.19,6.758,6.758,0,0,1,1.511-.41,1.18,1.18,0,0,1,.416.03c0.237,0.03.475,0.08,0.709,0.12a0.3,0.3,0,0,0,.282-0.08,0.247,0.247,0,0,0,.006-0.35,1.632,1.632,0,0,0-1.7-.31,0.933,0.933,0,0,1-.815.03,2.368,2.368,0,0,0-.532-0.04,1.149,1.149,0,0,1-1.031-.68,0.522,0.522,0,0,1,.229-0.77,1.451,1.451,0,0,1,.335-0.13,1.313,1.313,0,0,0,.492-0.24c0.106-.1.368-0.1,0.29-0.32-0.054-.14-0.255.01-0.386,0.04-0.256.05-.508,0.11-0.761,0.17a0.189,0.189,0,0,1-.221-0.06,0.243,0.243,0,0,1,.007-0.3A1.949,1.949,0,0,0,454.851,5319.23Zm21.756-23.6a1.527,1.527,0,0,0-.016.86,3.07,3.07,0,0,1,.061.4c0.018,0.29-.06.33-0.354,0.22-0.017,0-.034.02-0.087,0.03a1.861,1.861,0,0,1,.094.97c-0.016.06-.024,0.13-0.041,0.19a0.176,0.176,0,0,1-.168.16,0.287,0.287,0,0,1-.149-0.09c-0.087-.17-0.16-0.36-0.245-0.54a0.094,0.094,0,0,0-.136-0.06,0.137,0.137,0,0,0-.017.12c0.051,0.17.112,0.33,0.166,0.5a0.185,0.185,0,0,1-.022.12,0.1,0.1,0,0,1-.1,0c-0.06-.05-0.113-0.12-0.175-0.18a0.315,0.315,0,0,0-.194-0.12c-0.148.05-.034,0.18-0.034,0.27a0.25,0.25,0,0,1-.21.28,1.079,1.079,0,0,1-.356-0.03,1.987,1.987,0,0,1-1.291-.99c-0.168-.28-0.137-0.43.134-0.58,0.071-.04.141-0.07,0.211-0.11,0.006-.17-0.117-0.16-0.2-0.2s-0.155-.04-0.23-0.07a0.574,0.574,0,0,1-.376-0.47,0.212,0.212,0,0,1,.064-0.24c0.1-.08.165-0.15,0.02-0.23a0.813,0.813,0,0,1-.371-0.5,0.4,0.4,0,0,1,.077-0.43,1.457,1.457,0,0,1,1.127-.66,1.045,1.045,0,0,0,.179-0.03c0.014,0,.026-0.03.038-0.03a0.6,0.6,0,0,1-.295-0.57c-0.022-.16-0.116-0.25-0.246-0.18-0.146.07-.288,0.15-0.429,0.22-0.116.07-.187,0.27-0.354,0.19a0.6,0.6,0,0,1-.16-0.34,0.1,0.1,0,0,0-.154-0.03c-0.094.08-.18,0.18-0.281,0.25a0.18,0.18,0,0,1-.16-0.01,5.5,5.5,0,0,1-.469-0.52,0.357,0.357,0,0,1,.134-0.54l0.394-.15a0.14,0.14,0,0,0,.064-0.1,0.135,0.135,0,0,0-.064-0.09,1.04,1.04,0,0,1-.974-0.91c-0.105-.28-0.018-0.6-0.121-0.9a0.236,0.236,0,0,1,.219-0.26c0.16-.03.317-0.02,0.479-0.04a0.544,0.544,0,0,0,.485-0.42,0.139,0.139,0,0,0-.017-0.12,0.1,0.1,0,0,0-.1-0.04,0.347,0.347,0,0,0-.163.08,0.566,0.566,0,0,1-.858-0.09,3.861,3.861,0,0,1-.388-0.41c-0.194-.25-0.194-0.34.05-0.6a0.715,0.715,0,0,0,.184-0.47,0.745,0.745,0,0,1,.235-0.59c0.107-.09-0.015-0.14-0.057-0.2-0.114-.17-0.072-0.3.1-0.32a0.456,0.456,0,0,1,.556.27,0.521,0.521,0,0,0,.416.34,0.23,0.23,0,0,0,.243-0.29,0.416,0.416,0,0,0-.324-0.41c-0.981-.26-0.856-0.82-0.5-1.52a0.3,0.3,0,0,1,.348-0.19c0.2,0.07.339,0.11,0.38-.19a0.2,0.2,0,0,1,.154-0.06,0.833,0.833,0,0,0,.414-0.04,0.233,0.233,0,0,0,.02-0.41c-0.13-.05-0.271-0.06-0.408-0.1a0.4,0.4,0,0,1-.3-0.37,0.494,0.494,0,0,1,.224-0.5,0.513,0.513,0,0,1,.622-0.01,2.359,2.359,0,0,1,1.167,1.6,11.132,11.132,0,0,0,.623,2.02,0.894,0.894,0,0,0,.759.64c0.4,0.05.5,0.22,0.5,0.67,0,0.19-.035.36-0.037,0.54a0.881,0.881,0,0,0,.363.79,0.15,0.15,0,0,0,.158,0,0.137,0.137,0,0,0,.029-0.18,2.27,2.27,0,0,0-.162-0.27,0.88,0.88,0,0,1-.114-0.52,0.425,0.425,0,0,1,.336-0.47,0.4,0.4,0,0,1,.476.38,11.866,11.866,0,0,0,.392,1.75,2.39,2.39,0,0,1-.041,1.12,0.16,0.16,0,0,0,.14.23,0.323,0.323,0,0,1,.271.12,0.731,0.731,0,0,0,.53.39,0.305,0.305,0,0,1,.172.17,6.439,6.439,0,0,1,.361.69,0.791,0.791,0,0,1-.2,1.01,1.175,1.175,0,0,1-.285.24,2.7,2.7,0,0,0-1.1,1.44c-0.034.08-.063,0.16-0.1,0.24-0.052.12-.089,0.27-0.246,0.23a0.314,0.314,0,0,1-.211-0.29A4.561,4.561,0,0,1,476.607,5295.63Zm-6.433,7.2a0.923,0.923,0,0,0,.371-0.21,0.708,0.708,0,0,1,.792-0.13,4.763,4.763,0,0,1,.487.25,0.732,0.732,0,0,0,.264.14c0.488-.03.575,0.38,0.7,0.76a0.717,0.717,0,0,0,.136.49,0.883,0.883,0,0,0,.639-0.02,0.257,0.257,0,0,0,.111-0.06,0.54,0.54,0,0,1,.442-0.16,1.653,1.653,0,0,1,.611.4,0.389,0.389,0,0,1,.117.3,0.5,0.5,0,0,0,.351.54c0.112,0.05.23,0.09,0.342,0.13a0.357,0.357,0,0,1,.087.62,0.412,0.412,0,0,1-.328.12c-0.2-.01-0.4.01-0.6,0.01a0.226,0.226,0,0,0-.059.04,1.258,1.258,0,0,0,.5.51,1.779,1.779,0,0,1,.523.51,0.588,0.588,0,0,1,.051.25c0.014,0.14.014,0.27,0.03,0.4a0.094,0.094,0,0,0,.171.05c0.223-.23.232-0.24,0.4-0.04,0.1,0.11.154,0.18,0.3,0.08a0.5,0.5,0,0,1,.707.09,0.935,0.935,0,0,0,.241.2c0.195,0.13.242,0.13,0.385-.09a0.885,0.885,0,0,1,.322-0.28c0.383-.24.771-0.47,1.152-0.71a0.49,0.49,0,0,1,.388-0.13,1.389,1.389,0,0,0,.752-0.09,1.007,1.007,0,0,1,1.144.32,0.315,0.315,0,0,0,.184.15,1.1,1.1,0,0,1,.656.54,0.9,0.9,0,0,1,.071,1.1c-0.114.18-.252,0.33-0.375,0.51,0.116,0.18.223,0.02,0.322,0.01a0.321,0.321,0,0,1,.337.21,0.232,0.232,0,0,1-.043.3,1.1,1.1,0,0,0-.534.76,0.27,0.27,0,0,1-.242.17,1.793,1.793,0,0,0-.851.28,0.845,0.845,0,0,1-.753-0.09,0.522,0.522,0,0,1-.239-0.44,0.165,0.165,0,0,0-.071-0.16,1.069,1.069,0,0,1-1.091.64,7.575,7.575,0,0,0-.821.09,9.555,9.555,0,0,1-1.6.07c-0.354-.01-0.411-0.1-0.49-0.52-0.01-.05-0.013-0.09-0.022-0.13a0.259,0.259,0,0,0-.036-0.07c-0.128-.02-0.259-0.04-0.4-0.07a1.233,1.233,0,0,1-.025.21,0.375,0.375,0,0,1-.481.35,1.45,1.45,0,0,1-.531-0.29,0.406,0.406,0,0,0-.5-0.08,0.194,0.194,0,0,1-.268-0.08,1.111,1.111,0,0,1-.357-0.82,1.412,1.412,0,0,0-.158-0.69,1.288,1.288,0,0,1,.051-1.03,1.394,1.394,0,0,0-.059-1.27,2.868,2.868,0,0,1-.235-0.68,2.925,2.925,0,0,0-.194-0.56c-0.082-.2-0.164-0.25-0.33-0.14a0.824,0.824,0,0,1-.567.14,0.748,0.748,0,0,1-.611-0.33,4.66,4.66,0,0,1-.6-0.81,3.1,3.1,0,0,0-.49-0.58,0.289,0.289,0,0,1-.114-0.34,0.961,0.961,0,0,0-.057-0.65Zm-21.021,15.45a3.909,3.909,0,0,1,.365-1.56,0.889,0.889,0,0,0,.107-0.5,0.721,0.721,0,0,1,.18-0.73,0.158,0.158,0,0,0,.045-0.12,4.769,4.769,0,0,1,.453-1.85c0.02-.06.046-0.12,0.066-0.18a0.776,0.776,0,0,0-.018-0.64,6.379,6.379,0,0,1-.284-1.16,0.246,0.246,0,0,1,.142-0.32,1.978,1.978,0,0,1,.817-0.2,3.108,3.108,0,0,0,1-.18,0.636,0.636,0,0,1,.845.28,2.886,2.886,0,0,0,.534.52,0.759,0.759,0,0,0,.9.13,1.632,1.632,0,0,0,.164-0.08,0.8,0.8,0,0,1,.841.18,2.521,2.521,0,0,1,.416.49,10.806,10.806,0,0,0,.71.9c0.094,0.12.2,0.22,0.281,0.34a0.451,0.451,0,0,1,0,.61,1.156,1.156,0,0,1-.411.37,3.82,3.82,0,0,0-.933.72c-0.323.3-.663,0.57-1,0.84a0.869,0.869,0,0,0-.363.58,0.978,0.978,0,0,1-.445.75,1.255,1.255,0,0,0-.492,1.03c-0.008.12,0,.26-0.015,0.4a0.682,0.682,0,0,1-.792.74,0.289,0.289,0,0,0-.265.1,3.485,3.485,0,0,1-.65.59,0.233,0.233,0,0,1-.4-0.11,2.582,2.582,0,0,1-.155-0.36c-0.064-.16-0.123-0.32-0.182-0.49a1.121,1.121,0,0,0-.646-0.74A1.19,1.19,0,0,0,449.153,5318.28Zm8.7-9.86a2.073,2.073,0,0,0-.417.72c-0.117.33-.235,0.35-0.552,0.17a0.159,0.159,0,0,0-.252.05,0.2,0.2,0,0,1-.358,0,0.692,0.692,0,0,0-.611-0.34,0.768,0.768,0,0,1-.288-0.1,0.448,0.448,0,0,1-.217-0.6,2.394,2.394,0,0,0,.219-0.95,0.542,0.542,0,0,1,.58-0.54,0.509,0.509,0,0,1-.23-0.45,0.887,0.887,0,0,0,.036-0.2c0.094-.58.107-0.58,0.639-0.68a0.386,0.386,0,0,0,.128-0.04,0.557,0.557,0,0,1-.157-0.52,0.524,0.524,0,0,1,.394-0.37c0.076-.02.153-0.06,0.23-0.08,0.411-.1.59,0.03,0.684,0.49,0.008,0.04,0,.09.011,0.13a0.237,0.237,0,0,0,.254.23,0.121,0.121,0,0,0,.059-0.01,0.735,0.735,0,0,1,.959.54,1.2,1.2,0,0,1,.345.74,0.049,0.049,0,0,0,.03.05,0.727,0.727,0,0,1,.374.64,0.364,0.364,0,0,0,.4.32c0.317-.01.636,0.02,0.953,0.02a0.275,0.275,0,0,0,.3-0.17,0.453,0.453,0,0,0-.068-0.44,0.25,0.25,0,0,0-.04-0.05,0.971,0.971,0,0,1-.435-0.42,1.309,1.309,0,0,1,.273-0.49,0.361,0.361,0,0,0-.061-0.37,2.75,2.75,0,0,0-.31-0.31,2.519,2.519,0,0,1-.258-0.27,0.372,0.372,0,0,1,.059-0.53,1.253,1.253,0,0,0,.493-0.8,0.638,0.638,0,0,1,.281-0.41,0.28,0.28,0,0,1,.439.17,1.059,1.059,0,0,1,.034.33,1.435,1.435,0,0,0,.225,1.01,0.7,0.7,0,0,1,.068.69,0.231,0.231,0,0,0,.11.33,0.873,0.873,0,0,1,.38.4,0.643,0.643,0,0,0,.381.33,2.988,2.988,0,0,1,.091-0.32,0.325,0.325,0,0,1,.492-0.2,0.87,0.87,0,0,1,.419.46,1.452,1.452,0,0,1,.087,1.04c-0.142.4-.2,0.81-0.312,1.22a0.93,0.93,0,0,1-1.2.75,0.476,0.476,0,0,0-.4,0,0.335,0.335,0,0,1-.435-0.08,0.171,0.171,0,0,0-.271-0.02,2.257,2.257,0,0,1-.784.47,0.812,0.812,0,0,0-.365.33,2.728,2.728,0,0,1-1.3.91,1.179,1.179,0,0,1-1.361-.43,0.449,0.449,0,0,1,.074-0.73c0.293-.18.581-0.37,0.862-0.58a0.938,0.938,0,0,1,.7-0.14,0.309,0.309,0,0,0,.314-0.14,0.32,0.32,0,0,0,.046-0.19,0.11,0.11,0,0,0-.141-0.08,2.477,2.477,0,0,0-1.094.24,0.967,0.967,0,0,1-.281.11c-0.214.07-.315-0.02-0.291-0.25C457.8,5308.81,457.832,5308.61,457.855,5308.42Zm10.53,4.74a1.223,1.223,0,0,1,.843-0.78,0.215,0.215,0,0,1,.291.27c-0.028.19-.048,0.26,0.167,0.29a0.552,0.552,0,0,1,.431.72,1.685,1.685,0,0,0-.1.52,0.508,0.508,0,0,1-.2.45,1.336,1.336,0,0,0-.388.59,2.568,2.568,0,0,0,.386.28c0.079,0.15.16,0.3,0.24,0.46a0.609,0.609,0,0,0,.23.3,0.686,0.686,0,0,1,.342.83,5.218,5.218,0,0,0-.047,1.26,0.423,0.423,0,0,1-.082.31,0.864,0.864,0,0,1-.791.59,0.158,0.158,0,0,0-.166.16,1.011,1.011,0,0,1-.035.26,0.476,0.476,0,0,1-.388.36,0.5,0.5,0,0,1-.5-0.39,4.858,4.858,0,0,0-.848-1.52,1.149,1.149,0,0,0-.606-0.4,2.468,2.468,0,0,1-.921-1.26,1.394,1.394,0,0,1,.017-0.59c0.064-.26.3-0.35,0.465-0.17a4.675,4.675,0,0,1,.393.5,0.291,0.291,0,0,0,.282.2,0.414,0.414,0,0,0,.342-0.33,1.458,1.458,0,0,0-.043-0.72,0.77,0.77,0,0,0-.339-0.52,1.048,1.048,0,0,1-.26-0.27,0.406,0.406,0,0,1-.031-0.54,0.267,0.267,0,0,0,.091-0.23,0.383,0.383,0,0,1,.275-0.55,1.142,1.142,0,0,1,.454-0.3,2.1,2.1,0,0,1,.494.22,0.416,0.416,0,0,0,.209.19,0.248,0.248,0,0,0,.1-0.04,0.179,0.179,0,0,0-.037-0.09A1.283,1.283,0,0,0,468.385,5313.16Zm-0.459-7.02a1.1,1.1,0,0,0-.2-0.56,0.358,0.358,0,0,1-.094-0.29,0.257,0.257,0,0,0-.135-0.33,0.477,0.477,0,0,1-.236-0.55c0.036-.13-0.043-0.14-0.134-0.13a0.926,0.926,0,0,1-.234-0.02,0.1,0.1,0,0,1-.06-0.15,0.834,0.834,0,0,1,.449-0.42,0.255,0.255,0,0,1,.227.02c0.281,0.27.688,0.25,0.956,0.54a0.163,0.163,0,0,0,.26-0.04,3.243,3.243,0,0,1,.176-0.28,0.138,0.138,0,0,1,.216-0.01,1.337,1.337,0,0,1,.541,1.06c-0.023.41,0.048,0.83,0.063,1.26a2.476,2.476,0,0,0,.082,1.03,1.132,1.132,0,0,1,.011.47,0.16,0.16,0,0,1-.057.1c-0.235-.09-0.265.1-0.316,0.27a0.689,0.689,0,0,0,.035.51,0.378,0.378,0,0,1,.029.38,0.859,0.859,0,0,1-.394.4,1.075,1.075,0,0,1-.174.03c-0.3.02-.6,0.03-0.894,0.08a0.4,0.4,0,0,1-.488-0.49,1.905,1.905,0,0,0-.076-0.72,0.333,0.333,0,0,1,.112-0.36,2.253,2.253,0,0,0,.264-0.27c0.078-.09.211-0.18,0.118-0.32a0.252,0.252,0,0,0-.334-0.04c-0.349.11-.689,0.24-1.034,0.34a2.959,2.959,0,0,1-.411.09,0.26,0.26,0,0,1-.23-0.32,1.192,1.192,0,0,1,.224-0.38c-0.112-.14-0.219-0.01-0.32.01-0.232.04-.246,0.05-0.339-0.22a0.327,0.327,0,0,0-.171-0.25,0.207,0.207,0,0,1-.131-0.26,0.189,0.189,0,0,0-.12-0.25c-0.492-.24-0.5-0.31-0.124-0.81a1.274,1.274,0,0,1-.364-0.81,0.416,0.416,0,0,1,.179-0.45,0.308,0.308,0,0,1,.432.09,3.544,3.544,0,0,1,.445.64,3.376,3.376,0,0,1,.513,1.11,1.372,1.372,0,0,0,.511.8,0.093,0.093,0,1,0,.116-0.14,2.469,2.469,0,0,1-.422-1.02,1.033,1.033,0,0,1,.085-0.65,0.288,0.288,0,0,1,.461-0.1,1.18,1.18,0,0,1,.265.44A2.1,2.1,0,0,0,467.926,5306.14Zm-2.282-11.48a1.081,1.081,0,0,0,.222-0.4,0.379,0.379,0,0,1,.035-0.05,0.262,0.262,0,0,1,.42-0.07,6.665,6.665,0,0,1,.509.46,3.452,3.452,0,0,0,.233.59,2.5,2.5,0,0,1,.517.12,1.122,1.122,0,0,1,.269.35,4.575,4.575,0,0,0,.274.51,0.589,0.589,0,0,1,.091.51,1.789,1.789,0,0,0,.251,1.46,2.908,2.908,0,0,1,.177.34,1.137,1.137,0,0,1-.121.97,0.594,0.594,0,0,1-.9.06,1.082,1.082,0,0,1-.224-0.47c-0.046-.17-0.082-0.34-0.139-0.51a0.29,0.29,0,0,0-.313-0.25c-0.253.09-.308-0.03-0.34-0.27a0.14,0.14,0,0,0-.2-0.08,0.606,0.606,0,0,0-.409.25c-0.048.07-.09,0.15-0.143,0.22a0.133,0.133,0,0,1-.209.04,0.2,0.2,0,0,1-.029-0.24c0.023-.06.052-0.12,0.082-0.18,0.038-.09.144-0.2,0.033-0.29a0.214,0.214,0,0,0-.27.08,0.556,0.556,0,0,1-.774.05,0.865,0.865,0,0,1-.353-0.73,0.342,0.342,0,0,1,.393-0.38c0.113,0.02.225,0.09,0.343,0.12a0.224,0.224,0,0,0,.163-0.02,0.152,0.152,0,0,0-.025-0.23c-0.215-.19.1-0.37,0.014-0.54a0.723,0.723,0,0,1-.3-0.37c-0.009-.14.155-0.34-0.069-0.4-0.125-.03-0.171.16-0.242,0.26a0.406,0.406,0,0,1-.084.1,0.145,0.145,0,0,1-.11.03,0.14,0.14,0,0,1-.064-0.1c0-.08.028-0.17,0.035-0.26,0.022-.26.016-0.29-0.242-0.35a0.372,0.372,0,0,1-.31-0.41,1.918,1.918,0,0,1-.012-0.33c0-.45.043-0.49,0.463-0.61l0.347-.12a0.677,0.677,0,0,1,.892.28,0.7,0.7,0,0,1,.094.31C465.636,5294.28,465.636,5294.46,465.644,5294.66Zm-12.9,11.16a2.245,2.245,0,0,1-.113.33c-0.043.11-.123,0.21-0.228,0.15a0.454,0.454,0,0,0-.651.06c-0.083.08-.193,0.01-0.235-0.11a1.035,1.035,0,0,1-.047-0.2,1.074,1.074,0,0,1-.182-0.47,4.168,4.168,0,0,1,.213-0.55,0.47,0.47,0,0,1,.361-0.32,0.565,0.565,0,0,0,.512-0.47,0.732,0.732,0,0,1,.317-0.47,1.258,1.258,0,0,0,.469-0.68,7.354,7.354,0,0,1,.733-1.3,0.951,0.951,0,0,1,1.083-.33,1.848,1.848,0,0,1,.281.11,0.17,0.17,0,0,0,.2-0.23,0.427,0.427,0,0,1,.119-0.47,0.277,0.277,0,0,1,.434-0.02,6.5,6.5,0,0,1,.5.57,0.344,0.344,0,0,1-.077.52c-0.013.01-.03,0.02-0.046,0.03-0.348.31-.352,0.32-0.171,0.75a0.381,0.381,0,0,1-.012.43,0.377,0.377,0,0,0,.025.38,0.544,0.544,0,0,1-.277.71,0.64,0.64,0,0,0-.4.66,0.373,0.373,0,0,1-.252.41,0.413,0.413,0,0,1-.384-0.35,2.292,2.292,0,0,1-.064-0.93,0.474,0.474,0,0,0-.006-0.32,0.111,0.111,0,0,0-.1-0.02,0.258,0.258,0,0,0-.122.22,0.775,0.775,0,0,1-.248.64,0.225,0.225,0,0,0-.027.18,1.173,1.173,0,0,1-.16.95c-0.046.13-.146,0.1-0.253,0.06-0.158-.06-0.227-0.01-0.235.15-0.007.12,0.016,0.23,0.007,0.34a0.575,0.575,0,0,1-.253.43,0.26,0.26,0,0,1-.427-0.16C452.939,5306.3,452.858,5306.1,452.741,5305.82Zm46.91,49.16c0.171-.05.34-0.11,0.518-0.16a0.16,0.16,0,0,1,.187.23,8.14,8.14,0,0,1-.336.93,4.876,4.876,0,0,0-.447,1.01,0.8,0.8,0,0,1,.605-0.15,0.216,0.216,0,0,1,.155.29c-0.048.26-.029,0.26,0.2,0.34a1.011,1.011,0,0,0,.642.07,0.737,0.737,0,0,1,.3,0c0.317,0.06.383,0.19,0.289,0.55-0.016.06-.039,0.12-0.052,0.19-0.034.2,0.018,0.26,0.254,0.31,0.171,0.04.2,0.12,0.1,0.27a0.769,0.769,0,0,0-.24.45,0.2,0.2,0,0,0,.03.12,0.082,0.082,0,0,0,.095,0c0.051-.04.085-0.1,0.131-0.13a0.183,0.183,0,0,1,.158-0.06c0.067,0.02.061,0.1,0.043,0.17a0.225,0.225,0,0,0,.089.33,0.243,0.243,0,0,1,.111.28,6.061,6.061,0,0,1-.212.76c-0.078.21-.258,0.23-0.444,0.09a0.979,0.979,0,0,0-.19-0.16,0.3,0.3,0,0,1-.155-0.38,0.894,0.894,0,0,0,.018-0.46,0.146,0.146,0,0,0-.069-0.1,0.1,0.1,0,0,0-.1.03c-0.221.25-.438,0.5-0.663,0.76a0.348,0.348,0,0,1-.259.14,0.237,0.237,0,0,1-.158-0.07,0.154,0.154,0,0,1,.022-0.18,1.024,1.024,0,0,0,.349-0.44,1.041,1.041,0,0,0-.395.03l-0.335-.15c-0.017,0-.038-0.01-0.058-0.01-0.573.12-1.145-.17-1.722-0.01a0.507,0.507,0,0,1-.174.02,0.3,0.3,0,0,1-.231-0.47,1.616,1.616,0,0,1,.225-0.31c0.128-.15.2-0.28-0.017-0.42-0.059-.03-0.036-0.12.017-0.16a1.51,1.51,0,0,0,.513-0.79c0.226-.55.461-1.09,0.643-1.65a8.225,8.225,0,0,1,.557-1.11h0.007Zm-22.306-18.68a0.673,0.673,0,0,1,.228-0.59,0.726,0.726,0,0,0,.3-0.8,1.591,1.591,0,0,1,.027-0.53,9.3,9.3,0,0,0,.181-1.45,1.186,1.186,0,0,1,.185-0.63,0.271,0.271,0,0,1,.5.01,0.9,0.9,0,0,1,.151.43c0.021,0.2.12,0.26,0.289,0.2a0.223,0.223,0,0,1,.27.1,6.325,6.325,0,0,0,.671.66,1.7,1.7,0,0,0,.63.49,0.932,0.932,0,0,1,.518.69c0.028,0.11.047,0.22,0.083,0.33a0.276,0.276,0,0,0,.311.24c0.417-.08.475,0.32,0.629,0.59a0.223,0.223,0,0,1-.036.18,0.963,0.963,0,0,1-.463.4,0.336,0.336,0,0,1-.291-0.04c-0.179-.09-0.365-0.18-0.544-0.28a0.311,0.311,0,0,1-.184-0.15,3.369,3.369,0,0,0-.557-0.58c-0.053-.1-0.169-0.01-0.185.07a3.57,3.57,0,0,1-.9,1.38,0.676,0.676,0,0,1-.309.2,0.271,0.271,0,0,1-.343-0.18c-0.045-.13-0.055-0.26-0.093-0.39a0.3,0.3,0,0,0-.344-0.28c-0.176.01-.354,0.05-0.533,0.07A0.205,0.205,0,0,1,477.345,5336.3Zm-5.526-38.69a2.5,2.5,0,0,0,0,1.15,0.509,0.509,0,0,1-.324.57,3.646,3.646,0,0,1-.622.23,0.675,0.675,0,0,0-.455.26,0.2,0.2,0,0,1-.367-0.09,1.92,1.92,0,0,0-.306-0.78,0.235,0.235,0,0,1,.155-0.39c0.074-.04.158-0.05,0.221-0.09a0.127,0.127,0,0,0,.012-0.18,0.774,0.774,0,0,0-.378-0.18,0.349,0.349,0,0,1-.236-0.27,3.334,3.334,0,0,1-.249-1.49,4.948,4.948,0,0,0-.036-0.6,0.417,0.417,0,0,1,.623-0.43,1,1,0,0,1,.26.16c0.189,0.16.374,0.33,0.561,0.5a2.277,2.277,0,0,1,.172.18,3.22,3.22,0,0,0,.18.55,4.464,4.464,0,0,1,.5.22A1.034,1.034,0,0,1,471.819,5297.61Zm13.393,89.79c-0.258,0-.515.01-0.773,0-0.114,0-.16-0.11-0.12-0.25a1.221,1.221,0,0,1,.062-0.11c0.074-.12.058-0.23-0.072-0.25a0.957,0.957,0,0,1-.761-0.57,0.417,0.417,0,0,0-.4-0.25,1.552,1.552,0,0,1-.85-0.29,0.949,0.949,0,0,0-.517-0.13,4.722,4.722,0,0,1-.533-0.08,0.313,0.313,0,0,1-.212-0.21c-0.1-.24-0.157-0.28-0.334-0.23-0.111.04-.22,0.1-0.328,0.15-0.324.17-.641,0.36-0.969,0.52a0.362,0.362,0,0,1-.231.02,0.111,0.111,0,0,1-.081-0.15,1.676,1.676,0,0,1,.637-0.76,3.556,3.556,0,0,1,2.751-.14,0.738,0.738,0,0,1,.211.12,0.842,0.842,0,0,0,.876.28,0.63,0.63,0,0,1,.622.33,2.284,2.284,0,0,0,1.145.8,0.812,0.812,0,0,1,.323.17,0.916,0.916,0,0,0,.476.25,1.031,1.031,0,0,1,.51.34,0.135,0.135,0,0,1-.036.22,1.53,1.53,0,0,1-.8.25h-0.6v-0.03Zm-0.282-71.36c-0.133-.04-0.327-0.09-0.521-0.14a0.894,0.894,0,0,0-.805.12l-0.214.12a0.659,0.659,0,0,1-.976-0.53,2.03,2.03,0,0,1-.038-0.26,0.621,0.621,0,0,0-.233-0.45,0.649,0.649,0,0,1-.311-0.47,1.617,1.617,0,0,1,.175-0.83,0.323,0.323,0,0,1,.193-0.13,0.639,0.639,0,0,1,.236.03,1.931,1.931,0,0,0,1.114.13,0.984,0.984,0,0,1,.952.46,10.418,10.418,0,0,1,.74,1.29,1.174,1.174,0,0,1,.071.25A0.311,0.311,0,0,1,484.93,5316.04Zm-13.969-8.29c0.577-.56.7-0.55,1.18,0.06,0.13,0.17.242,0.36,0.358,0.54a0.8,0.8,0,0,1,.114.23,5.855,5.855,0,0,1,.046,1.85,0.34,0.34,0,0,1-.094.16,0.738,0.738,0,0,1-.792.05,6.389,6.389,0,0,1-1.027-1,1.734,1.734,0,0,1-.137-0.22,0.68,0.68,0,0,1,.06-0.8,0.586,0.586,0,0,0,.046-0.67c-0.038-.09-0.112-0.14-0.187-0.06-0.047.04-.083,0.1-0.124,0.14-0.062.08-.141,0.11-0.207,0.04a0.459,0.459,0,0,1-.094-0.24,0.356,0.356,0,0,1,.13-0.28,1.449,1.449,0,0,1,.235-0.21c0.171-.13.265-0.11,0.382,0.11C470.891,5307.53,470.912,5307.62,470.961,5307.75Zm-12.757-7.72a0.763,0.763,0,0,1,.351-0.8,3.336,3.336,0,0,1,1.79-.66,0.412,0.412,0,0,1,.34.72,2.554,2.554,0,0,1-.381.19,0.228,0.228,0,0,0-.183.15,0.192,0.192,0,0,0,.153.23,0.5,0.5,0,0,1,.292.53,0.7,0.7,0,0,1-.322.67,10.306,10.306,0,0,1-1.068.41,0.16,0.16,0,0,1-.176-0.01c-0.222-.18-0.445-0.37-0.655-0.57a0.716,0.716,0,0,1-.14-0.5C458.2,5300.26,458.2,5300.13,458.2,5300.03Zm29.65,88.4c-0.04-.13-0.139-0.07-0.2-0.1-0.086-.03-0.137-0.08-0.082-0.18a0.505,0.505,0,0,1,.089-0.1,0.212,0.212,0,0,0-.036-0.33,1.21,1.21,0,0,1-.178-0.18,0.123,0.123,0,0,1,.032-0.17,0.329,0.329,0,0,1,.433-0.1,0.831,0.831,0,0,0,.687.07,1.527,1.527,0,0,1,1.316.26c0.268,0.19.546,0.36,0.819,0.54a1.217,1.217,0,0,1,.222.22c0.086,0.12-.02.39-0.144,0.36a3.276,3.276,0,0,0-1.391.12,0.674,0.674,0,0,0-.458.23c-0.188.2-.228,0.22-0.4,0.03a0.627,0.627,0,0,0-.594-0.21c-0.336.05-.668-0.11-1-0.03a0.172,0.172,0,0,1-.11-0.04,0.191,0.191,0,0,1-.123-0.2,0.128,0.128,0,0,1,.129-0.11c0.158-.01.318-0.01,0.476-0.01A1.039,1.039,0,0,0,487.854,5388.43Zm14.188-65.9a3.762,3.762,0,0,0,.809,1.14,0.509,0.509,0,0,1,.035.71,1.4,1.4,0,0,1-1.279.37,0.2,0.2,0,0,1-.155-0.29c0.025-.07.047-0.13-0.033-0.17s-0.152-.03-0.23-0.06a0.364,0.364,0,0,1-.3-0.48,9.579,9.579,0,0,0,.08-1.04,0.294,0.294,0,0,1,.376-0.32,2.738,2.738,0,0,0,.7.15Zm-41.684-24.6a0.62,0.62,0,0,1-.477-0.24c-0.094-.08-0.161-0.04-0.24.06-0.19.25-.213,0.26-0.428,0.08a0.374,0.374,0,0,0-.582.01,0.355,0.355,0,0,1-.161.08,0.2,0.2,0,0,1-.23-0.17,0.428,0.428,0,0,1,.084-0.43,1.7,1.7,0,0,1,.688-0.51,1.269,1.269,0,0,0,.653-0.44c0.422-.47.579-0.45,0.98,0.02,0.081,0.1.158,0.21,0.24,0.3a1.006,1.006,0,0,1,.171.87,0.322,0.322,0,0,1-.23.28C460.675,5297.88,460.515,5297.9,460.358,5297.93Zm25.763,30.18v0.2a0.951,0.951,0,0,1-.986,1.06,0.567,0.567,0,0,1-.562-0.41,1.86,1.86,0,0,1,.311-1.74,0.6,0.6,0,0,1,.723-0.17,0.689,0.689,0,0,1,.511.72c-0.007.11,0,.22,0,0.34h0Zm-13.794-26.77c-0.309-.07-0.715-0.16-1.119-0.26a0.81,0.81,0,0,1-.158-0.09,0.668,0.668,0,0,1-.242-0.69,0.623,0.623,0,0,1,.61-0.41c0.395,0.06.782,0.13,1.17,0.2a0.34,0.34,0,0,1,.293.47c-0.017.15-.043,0.3-0.074,0.45A0.39,0.39,0,0,1,472.327,5301.34ZM429.4,5345.91a0.386,0.386,0,0,1,.45.36,0.366,0.366,0,0,1-.1.41,8.936,8.936,0,0,1-.789.69,0.451,0.451,0,0,1-.7-0.14,1.716,1.716,0,0,1-.13-0.3,0.455,0.455,0,0,1,.208-0.6c0.155-.08.355-0.04,0.4-0.32,0.014-.07.141-0.04,0.218-0.05C429.113,5345.95,429.266,5345.92,429.4,5345.91Zm39.924-54.57a2.442,2.442,0,0,1-.016.27c-0.042.33-.139,0.52-0.237,0.48a0.549,0.549,0,0,1-.275-0.4,0.84,0.84,0,0,0-.328-0.45,0.466,0.466,0,0,1-.181-0.47c0.01-.19.042-0.39,0.069-0.59a0.4,0.4,0,0,1,.222-0.42,0.549,0.549,0,0,1,.591.35A4.046,4.046,0,0,1,469.328,5291.34Zm6.221,10.04a0.557,0.557,0,0,1-.419.63,0.647,0.647,0,0,0-.485.19,0.148,0.148,0,0,1-.22,0,0.2,0.2,0,0,1-.064-0.28,0.592,0.592,0,0,0,.047-0.56,1.587,1.587,0,0,1-.018-0.73,0.313,0.313,0,0,1,.352-0.27A1.1,1.1,0,0,1,475.549,5301.38Zm-30.681,50.44a1.338,1.338,0,0,0,.034.93,5.965,5.965,0,0,0-.006.64,2.1,2.1,0,0,1,.307.49,0.193,0.193,0,0,1-.03.11,0.1,0.1,0,0,1-.107,0,1.8,1.8,0,0,1-.545-0.78,8.315,8.315,0,0,0-.566-1.3,0.717,0.717,0,0,1-.07-0.25,0.229,0.229,0,0,1,.194-0.28,5.889,5.889,0,0,1,.588.07C444.843,5351.48,444.894,5351.57,444.868,5351.82ZM455.2,5306.1a2.348,2.348,0,0,1-.043.26c-0.081.29-.171,0.59-0.265,0.87a1.294,1.294,0,0,1-.17.35c-0.181.3-.362,0.33-0.592,0.14a0.5,0.5,0,0,1-.13-0.73,4.367,4.367,0,0,1,.9-1.05,0.154,0.154,0,0,1,.217-0.01A0.613,0.613,0,0,1,455.2,5306.1Zm8.672-6.11c0.01,0.01.088,0.05,0.152,0.09a1.121,1.121,0,0,1,.315.49,3.08,3.08,0,0,0,.454.91,0.607,0.607,0,0,1,.077.18,0.546,0.546,0,0,1-.143.6,0.388,0.388,0,0,1-.5-0.23,3.093,3.093,0,0,1-.184-0.42,11.832,11.832,0,0,1-.374-1.46A0.152,0.152,0,0,1,463.869,5299.99Zm31.679,58.06a1.667,1.667,0,0,1-1.112-.56,3.233,3.233,0,0,0-.411-0.37,0.135,0.135,0,0,1-.01-0.12,0.156,0.156,0,0,1,.075-0.09,0.227,0.227,0,0,1,.114-0.02,4,4,0,0,1,1.52.71,0.5,0.5,0,0,1,.1.16,0.194,0.194,0,0,1-.108.26Zm-12.708-9.02c-0.211.02-.258-0.03-0.294-0.29a0.614,0.614,0,0,1,.154-0.66,0.214,0.214,0,0,0,.007-0.29,0.891,0.891,0,0,1-.125-0.22,0.122,0.122,0,0,1,.047-0.11c0.024-.02.087-0.04,0.1-0.01,0.254,0.24.506,0.48,0.746,0.75a0.292,0.292,0,0,1,.047.24,0.654,0.654,0,0,1-.624.58C482.881,5349.02,482.865,5349.03,482.84,5349.03Zm-2.9-9.97a0.165,0.165,0,0,1-.146-0.19,1.425,1.425,0,0,1,.931-1.26,0.227,0.227,0,0,1,.273.08,0.267,0.267,0,0,1,.022.31,3.582,3.582,0,0,1-.923,1.02A0.533,0.533,0,0,1,479.94,5339.06Zm47.761-29.39c-0.765.01-.693-0.29-0.653-0.83a0.5,0.5,0,0,1,.583-0.46,0.123,0.123,0,0,1,.08.08,0.62,0.62,0,0,1,.017.26,0.337,0.337,0,0,0,.273.47,0.207,0.207,0,0,1,.121.27,0.225,0.225,0,0,1-.246.22h-0.058A0.471,0.471,0,0,1,527.7,5309.67Zm-107.958,32.3c0.085,0.03.184,0.05,0.272,0.09a0.406,0.406,0,0,1,.132.52,0.555,0.555,0,0,1-.555.31,1.351,1.351,0,0,1-.684-0.39,0.211,0.211,0,0,1,.017-0.29A2.536,2.536,0,0,1,419.743,5341.97Zm45.094-33.87a0.327,0.327,0,0,1,.311.15,1.427,1.427,0,0,1,.192.62,0.466,0.466,0,0,1-.386.49,0.457,0.457,0,0,1-.469-0.63,2.725,2.725,0,0,1,.132-0.44A0.291,0.291,0,0,1,464.837,5308.1Zm60.8-28.65a2.737,2.737,0,0,1,.056-0.29,0.158,0.158,0,0,1,.243-0.08,1.5,1.5,0,0,1,.115.15,5.146,5.146,0,0,1,.378,1.18,0.275,0.275,0,0,1-.089.29,0.227,0.227,0,0,1-.305-0.12,3.822,3.822,0,0,1-.263-0.59A4.837,4.837,0,0,1,525.641,5279.45Zm-68.09,20.72a0.311,0.311,0,0,1-.141-0.07,2.257,2.257,0,0,1-.394-0.64,0.485,0.485,0,0,1,.258-0.53,0.109,0.109,0,0,1,.111,0,2.848,2.848,0,0,1,.528.69A0.4,0.4,0,0,1,457.551,5300.17Zm24.73,39.24a1.18,1.18,0,0,1,.118-0.59,0.319,0.319,0,0,1,.424-0.13,0.309,0.309,0,0,1,.158.33,2.369,2.369,0,0,1-.256.87,0.126,0.126,0,0,1-.209.03A0.711,0.711,0,0,1,482.281,5339.41Zm-15.6-39.43a0.44,0.44,0,0,1-.394-0.16,0.411,0.411,0,0,1-.136-0.41,0.33,0.33,0,0,1,.269-0.22,0.622,0.622,0,0,1,.783.42,0.157,0.157,0,0,1-.083.21C466.956,5299.9,466.78,5299.94,466.682,5299.98Zm17.52,88.52a1.3,1.3,0,0,1,.963.34,0.163,0.163,0,0,1-.03.23,1.038,1.038,0,0,1-1.226-.23,0.22,0.22,0,0,1-.046-0.17,0.217,0.217,0,0,1,.125-0.13A0.9,0.9,0,0,1,484.2,5388.5Zm10.18-27.08c-0.1-.14-0.2-0.27-0.287-0.42a0.345,0.345,0,0,1-.022-0.32,0.183,0.183,0,0,1,.085-0.08,0.115,0.115,0,0,1,.1.03,0.73,0.73,0,0,0,.7.5,2.7,2.7,0,0,0,.29.02,0.266,0.266,0,0,1,.271.08,0.343,0.343,0,0,1-.107.36,0.229,0.229,0,0,1-.31.09c-0.245-.09-0.486-0.18-0.733-0.26h0.009Zm-1.069,27.43a3.01,3.01,0,0,1-1.028.19,0.9,0.9,0,0,1-.23-0.05,0.23,0.23,0,0,1-.137-0.26,0.194,0.194,0,0,1,.154-0.18,1.151,1.151,0,0,1,.816.05C492.991,5388.66,493.1,5388.72,493.313,5388.85Zm-6.423-60.61c-0.062-.02-0.181-0.03-0.291-0.07a0.4,0.4,0,0,1-.223-0.41,0.26,0.26,0,0,1,.327-0.27,1.786,1.786,0,0,1,.412.24,0.334,0.334,0,0,1,.117.35C487.191,5328.24,487.068,5328.25,486.89,5328.24Zm40.323-23.43a4.243,4.243,0,0,0,.065,1.06,1.042,1.042,0,0,1,.02.2c0,0.06-.008.13-0.08,0.13a0.176,0.176,0,0,1-.082-0.08,1.543,1.543,0,0,1-.045-0.26,3.622,3.622,0,0,0-.159-1.04,1.243,1.243,0,0,1-.045-0.26c-0.017-.29.1-0.63,0.181-0.56a0.717,0.717,0,0,1,.145.55C527.218,5304.68,527.213,5304.81,527.213,5304.81Zm-69.568-1.03a0.687,0.687,0,0,1-.388-0.13,0.265,0.265,0,0,1-.047-0.3,0.522,0.522,0,0,1,.644-0.14,0.343,0.343,0,0,1,.159.33,0.253,0.253,0,0,1-.252.23C457.724,5303.78,457.684,5303.77,457.645,5303.78Zm-38.29,47.79a0.178,0.178,0,0,1,.2.24,0.609,0.609,0,0,1-.2.4,1.052,1.052,0,0,1-.579.31,0.172,0.172,0,0,1-.1-0.07,0.042,0.042,0,0,1,0-.05,1.549,1.549,0,0,0,.376-0.67A0.264,0.264,0,0,1,419.355,5351.57Zm10.634-6.25a0.533,0.533,0,0,1-.084.16,0.8,0.8,0,0,1-.6.22,0.173,0.173,0,0,1-.105-0.21,2.311,2.311,0,0,1,.473-0.58,0.106,0.106,0,0,1,.109,0A0.989,0.989,0,0,1,429.989,5345.32Zm53.138-19.61a0.185,0.185,0,0,1-.116-0.27c0.165-.25.344-0.49,0.522-0.73a0.079,0.079,0,0,1,.05-0.02,0.149,0.149,0,0,1,.114.01,0.129,0.129,0,0,1,.06.1,1.506,1.506,0,0,1-.488.88A0.2,0.2,0,0,1,483.127,5325.71Zm22.566-51.22a0.525,0.525,0,0,1,.488.49,0.239,0.239,0,0,1-.084.16,0.366,0.366,0,0,1-.489-0.06,0.472,0.472,0,0,1-.038-0.49A0.367,0.367,0,0,1,505.693,5274.49Zm-22.518,32.12a0.376,0.376,0,0,1-.03.28,0.28,0.28,0,0,1-.319.13,0.275,0.275,0,0,1-.14-0.33,1.11,1.11,0,0,1,.289-0.62C483.234,5306.17,483.091,5306.45,483.175,5306.61Zm5.688-5.25a0.413,0.413,0,0,1-.389.34,0.492,0.492,0,0,1-.4-0.25,0.2,0.2,0,0,1-.022-0.24,0.234,0.234,0,0,1,.152-0.09,0.578,0.578,0,0,1,.4.09,1.91,1.91,0,0,1,.268.15h-0.006Zm38.554-19.57a0.23,0.23,0,0,1-.057.12,0.19,0.19,0,0,1-.16.03,0.888,0.888,0,0,1-.366-0.49,0.253,0.253,0,0,1,.045-0.25,0.187,0.187,0,0,1,.267-0.01A0.736,0.736,0,0,1,527.417,5281.79Zm-47.4,50.67a0.266,0.266,0,0,1-.082.07,0.211,0.211,0,0,1-.217-0.08,1.544,1.544,0,0,1-.358-0.66,0.127,0.127,0,0,1,.027-0.12,0.225,0.225,0,0,1,.16-0.01,1.381,1.381,0,0,1,.475.73A0.185,0.185,0,0,1,480.022,5332.46Zm3.874,50.29a0.358,0.358,0,0,1,.107.06,1.736,1.736,0,0,1,.269.91,0.086,0.086,0,0,1-.029.06,0.362,0.362,0,0,1-.105,0,5.884,5.884,0,0,1-.372-0.59,0.366,0.366,0,0,1,.036-0.37A0.378,0.378,0,0,1,483.9,5382.75Zm9.761-42.75a0.286,0.286,0,0,1-.094.25,0.178,0.178,0,0,1-.224-0.04,0.321,0.321,0,0,1-.129-0.49c0.036-.08.074-0.15,0.118-0.23a0.144,0.144,0,0,1,.207.02A0.914,0.914,0,0,1,493.657,5340Zm-8.627-15.59a0.921,0.921,0,0,1-.253.65,0.167,0.167,0,0,1-.287-0.09,0.351,0.351,0,0,1,.253-0.53,2.771,2.771,0,0,1,.294-0.02Zm41.991-26.56a0.2,0.2,0,0,1-.131.19,0.463,0.463,0,0,1-.454-0.31,0.329,0.329,0,0,1,.309-0.32A0.431,0.431,0,0,1,527.021,5297.85Zm-42.689,39.22a0.207,0.207,0,0,1-.281.21,0.7,0.7,0,0,1-.338-0.42,0.193,0.193,0,0,1,.067-0.16A0.4,0.4,0,0,1,484.332,5337.07ZM486,5326.13a0.5,0.5,0,0,1,.161.07,1.553,1.553,0,0,1,.151.27c0.084,0.2.061,0.37-.043,0.4a0.329,0.329,0,0,1-.325-0.21,0.514,0.514,0,0,1-.048-0.38A0.893,0.893,0,0,1,486,5326.13Zm-18.471-.44a0.784,0.784,0,0,1,.074-0.23,0.284,0.284,0,0,1,.284-0.2,0.253,0.253,0,0,1,.083.34,2.238,2.238,0,0,1-.14.36,0.2,0.2,0,0,1-.155.07,0.135,0.135,0,0,1-.116-0.13C467.548,5325.84,467.546,5325.77,467.532,5325.69Zm59.331-29.99c0,0.1,0,.14,0,0.19a0.2,0.2,0,0,1-.154.18,0.17,0.17,0,0,1-.2-0.11,0.321,0.321,0,0,1-.053-0.18,0.766,0.766,0,0,1,.217-0.52,0.054,0.054,0,0,1,.052-0.02,0.133,0.133,0,0,1,.089.06C526.837,5295.45,526.849,5295.61,526.863,5295.7Zm-30.835,99.94a0.285,0.285,0,0,1-.117-0.08,0.606,0.606,0,0,1,.18-0.52,0.2,0.2,0,0,1,.288.11A0.36,0.36,0,0,1,496.028,5395.64Zm-23.9-88.75a0.179,0.179,0,0,1-.135.18,0.192,0.192,0,0,1-.162-0.05,0.476,0.476,0,0,1-.106-0.53,0.223,0.223,0,0,1,.14-0.1,0.181,0.181,0,0,1,.151.07A0.752,0.752,0,0,1,472.13,5306.89Zm54.55-27.92a0.155,0.155,0,0,1,.065-0.1,0.1,0.1,0,0,1,.086.05c0.1,0.32.194,0.63,0.286,0.95a0.111,0.111,0,0,1-.067.15,0.1,0.1,0,0,1-.094-0.05A3.242,3.242,0,0,1,526.68,5278.97Zm-42.652,44.96a0.559,0.559,0,0,1-.049.15,0.646,0.646,0,0,1-.334.26,0.248,0.248,0,0,1-.166-0.03,0.151,0.151,0,0,1-.01-0.18,0.892,0.892,0,0,1,.333-0.36A0.159,0.159,0,0,1,484.028,5323.93Zm44.022-24.11c-0.008.06-.013,0.15-0.029,0.24a0.252,0.252,0,0,1-.184.23c-0.1.02-.176-0.13-0.145-0.31,0.025-.12.065-0.25,0.1-0.38a0.108,0.108,0,0,1,.14-0.08,0.281,0.281,0,0,1,.1.15A0.642,0.642,0,0,1,528.05,5299.82Zm-39.181,1.54c0.149-.35.236-0.42,0.471-0.3a0.4,0.4,0,0,1,.318.28,0.806,0.806,0,0,1-.8.02h0.006Zm-18.631,13.66a0.225,0.225,0,0,1,.217.18,0.45,0.45,0,0,1-.074.42,0.158,0.158,0,0,1-.286-0.04,0.527,0.527,0,0,1-.056-0.37A0.218,0.218,0,0,1,470.238,5315.02Zm31.668,5.3a0.264,0.264,0,0,1-.176.28,0.25,0.25,0,0,1-.241-0.24,0.407,0.407,0,0,1,.1-0.29,0.142,0.142,0,0,1,.248.04A0.942,0.942,0,0,1,501.906,5320.32Zm-17.833,60.93c0.2-.18.359-0.07,0.51,0.09a0.41,0.41,0,0,1,.114.46,0.258,0.258,0,0,1-.119.14,0.1,0.1,0,0,1-.123-0.11,0.544,0.544,0,0,0-.382-0.57v-0.01Zm43.97-86.8a1.2,1.2,0,0,1-.031.17c-0.029.13-.136,0.22-0.2,0.18a0.252,0.252,0,0,1-.089-0.29,0.775,0.775,0,0,1,.082-0.24,0.176,0.176,0,0,1,.135-0.09c0.1,0,.1.1,0.108,0.19A0.515,0.515,0,0,1,528.043,5294.45Zm-61.274,31.66a0.222,0.222,0,0,1-.218.25,0.225,0.225,0,0,1-.223-0.18,0.274,0.274,0,0,1,.257-0.29A0.205,0.205,0,0,1,466.769,5326.11Zm17.3,55.15a0.638,0.638,0,0,1-.627.22,0.112,0.112,0,0,1-.056-0.09,0.148,0.148,0,0,1,.059-0.1,0.66,0.66,0,0,1,.624-0.04v0.01Zm7.342-39.46a0.263,0.263,0,0,1-.236.3,0.1,0.1,0,0,1-.061-0.01,0.466,0.466,0,0,1-.057-0.18,0.257,0.257,0,0,1,.172-0.24,0.133,0.133,0,0,1,.156.07A0.311,0.311,0,0,1,491.415,5341.8Zm-6.827-5.46a0.3,0.3,0,0,1,.3.14,0.158,0.158,0,0,1,.008.18,0.2,0.2,0,0,1-.095.06,0.285,0.285,0,0,1-.309-0.23A0.118,0.118,0,0,1,484.588,5336.34Zm-16.768-14.53a0.136,0.136,0,0,1-.1.13,0.206,0.206,0,0,1-.23-0.22,0.139,0.139,0,0,1,.122-0.18A0.249,0.249,0,0,1,467.82,5321.81Zm3.6-10.92a0.139,0.139,0,0,1-.11.14,0.5,0.5,0,0,1-.171-0.03,0.2,0.2,0,0,1-.1-0.27,0.189,0.189,0,0,1,.265-0.05A0.253,0.253,0,0,1,471.418,5310.89Zm-53.292,41.79a0.115,0.115,0,0,1-.128-0.13,0.737,0.737,0,0,1,.1-0.23,0.16,0.16,0,0,1,.2-0.05,0.19,0.19,0,0,1-.017.28A0.83,0.83,0,0,1,418.126,5352.68Zm46.422-26.29a0.23,0.23,0,0,1,.178.21,0.148,0.148,0,0,1-.135.17,0.257,0.257,0,0,1-.232-0.25C464.359,5326.45,464.4,5326.41,464.548,5326.39Zm22.238,58.41a0.22,0.22,0,0,1,.2.2,0.235,0.235,0,0,1-.147.26,0.157,0.157,0,0,1-.1-0.05,1.589,1.589,0,0,1-.035-0.32A0.229,0.229,0,0,1,486.786,5384.8Zm-16.832-73.98a0.27,0.27,0,0,1-.224.32,0.1,0.1,0,0,1-.093-0.06,0.275,0.275,0,0,1,.243-0.35A0.3,0.3,0,0,1,469.954,5310.82Zm26.035,48.96c0.016,0.01.032,0.01,0.045,0.02a0.1,0.1,0,0,1,.024.06,0.179,0.179,0,0,1-.053.1,0.485,0.485,0,0,1-.3.27,0.057,0.057,0,0,1-.034-0.05A0.446,0.446,0,0,1,495.989,5359.78Zm-12.339-33.26c0-.04-0.035.04-0.1,0.09a0.15,0.15,0,0,1-.113.02,0.119,0.119,0,0,1-.086-0.14,0.551,0.551,0,0,1,.063-0.18,0.139,0.139,0,0,1,.1-0.05C483.579,5326.27,483.623,5326.31,483.65,5326.52Zm42.084-21.85c0.006,0.09-.012.19-0.106,0.19a0.125,0.125,0,0,1-.15-0.14,0.146,0.146,0,0,1,.142-0.17A0.113,0.113,0,0,1,525.734,5304.67Zm-91.5,37.34a0.155,0.155,0,0,1-.251.02,0.125,0.125,0,0,1-.013-0.17,0.145,0.145,0,0,1,.21-0.01A0.121,0.121,0,0,1,434.233,5342.01Zm46.323,43.86a0.155,0.155,0,0,1-.165.14,0.134,0.134,0,0,1-.1-0.18c0.018-.1.069-0.16,0.155-0.14A0.145,0.145,0,0,1,480.556,5385.87Zm2.844-58.75a0.133,0.133,0,0,1-.157.13,0.153,0.153,0,0,1-.086-0.2,0.111,0.111,0,0,1,.12-0.11A0.146,0.146,0,0,1,483.4,5327.12Zm44.254-31.35a0.4,0.4,0,0,1-.041.12,0.189,0.189,0,0,1-.1.05,0.386,0.386,0,0,1-.063-0.17,0.293,0.293,0,0,1,.076-0.16,0.124,0.124,0,0,1,.1.04A0.342,0.342,0,0,1,527.654,5295.77Zm-0.206.69a0.2,0.2,0,0,1-.164.2c-0.066.02-.1-0.05-0.1-0.12a0.214,0.214,0,0,1,.165-0.23C527.413,5296.3,527.448,5296.36,527.448,5296.46Zm-55.43,1.84a0.2,0.2,0,0,1-.1-0.26,0.1,0.1,0,0,1,.093-0.05,0.2,0.2,0,0,1,.107.26A0.193,0.193,0,0,1,472.018,5298.3Zm14.667,39.89a0.131,0.131,0,0,1-.163-0.12c0-.1.1-0.1,0.171-0.1a0.27,0.27,0,0,1,.135.09C486.867,5338.11,486.78,5338.19,486.685,5338.19Zm2.778-.24a0.239,0.239,0,0,1,.014.24,0.148,0.148,0,0,1-.211.03,0.179,0.179,0,0,1-.1-0.2c0.024-.1.112-0.09,0.188-0.09a0.465,0.465,0,0,0,.111.02h0Zm-1.891,48.34a0.172,0.172,0,0,1-.239.13,0.151,0.151,0,0,1-.049-0.11,0.174,0.174,0,0,1,.242-0.12A0.222,0.222,0,0,1,487.572,5386.29Zm1.1-.53a0.078,0.078,0,0,1-.031.05,0.344,0.344,0,0,1-.366-0.11,0.119,0.119,0,0,1,.028-0.09,0.247,0.247,0,0,1,.354.09A0.126,0.126,0,0,1,488.676,5385.76Zm-21.417-61.36c-0.014.07-.055,0.13-0.115,0.11a0.167,0.167,0,0,1-.1-0.2c0-.08.042-0.12,0.113-0.1A0.159,0.159,0,0,1,467.259,5324.4Zm18.665,59.07a0.182,0.182,0,0,1-.079.07,0.334,0.334,0,0,1-.148-0.33,0.082,0.082,0,0,1,.1-0.01A0.342,0.342,0,0,1,485.924,5383.47Zm-14.235-77.62a0.12,0.12,0,0,1,.113.12,0.092,0.092,0,0,1-.111.11,0.108,0.108,0,0,1-.112-0.11A0.106,0.106,0,0,1,471.689,5305.85Zm24.468,84.58a0.161,0.161,0,0,1-.225.12,0.141,0.141,0,0,1-.042-0.11,0.148,0.148,0,0,1,.223-0.11A0.178,0.178,0,0,1,496.157,5390.43Zm-33.893-76.57a0.11,0.11,0,0,1-.124-0.08,0.127,0.127,0,0,1,.144-0.15,0.1,0.1,0,0,1,.1.12A0.121,0.121,0,0,1,462.264,5313.86Zm20.3,29.12a0.222,0.222,0,0,1-.147.18,0.075,0.075,0,0,1-.048-0.02,0.179,0.179,0,0,1,.077-0.22,0.168,0.168,0,0,1,.1,0A0.1,0.1,0,0,1,482.56,5342.98Zm-58.18,7.03a0.15,0.15,0,0,1-.141.16,0.1,0.1,0,0,1-.069-0.14,0.138,0.138,0,0,1,.163-0.12A0.2,0.2,0,0,1,424.38,5350.01Zm65.777-45.75a0.106,0.106,0,0,1-.082.14,0.1,0.1,0,0,1-.142-0.06,0.1,0.1,0,0,1,.082-0.13A0.1,0.1,0,0,1,490.157,5304.26Zm-6.923,46.17c-0.115.02-.23,0.04-0.34,0.05a0.181,0.181,0,0,1-.094-0.04,0.246,0.246,0,0,1,.053-0.11c0.142-.06.292-0.14,0.386,0.09Zm-0.373,3.89a0.113,0.113,0,0,1,.079-0.13,0.077,0.077,0,0,1,.113.08,0.143,0.143,0,0,1-.05.1A0.085,0.085,0,0,1,482.861,5354.32Zm-29.25,20.11c0.074,0.01.135,0.02,0.121,0.11a0.144,0.144,0,0,1-.08.06,0.452,0.452,0,0,1-.164,0,0.175,0.175,0,0,1-.054-0.1,0.151,0.151,0,0,1,.034-0.04C453.521,5374.45,453.575,5374.44,453.611,5374.43Zm32.5,9.95a0.172,0.172,0,0,1,.126.18,0.08,0.08,0,0,1-.066.07,0.147,0.147,0,0,1-.123-0.17A0.138,0.138,0,0,1,486.109,5384.38Zm-15.929-81.56c-0.1.03-.21,0.15-0.287-0.04a0.107,0.107,0,0,1,.016-0.06c0.142-.13.2,0.02,0.265,0.11Zm56.9-4.39a0.122,0.122,0,0,1-.094.14,0.1,0.1,0,0,1-.071-0.07,0.106,0.106,0,0,1,.094-0.13A0.189,0.189,0,0,1,527.079,5298.43Zm-1.267-.09c-0.02-.04-0.036-0.07-0.053-0.1a0.25,0.25,0,0,1,.1-0.05,0.21,0.21,0,0,1,.049.1C525.875,5298.3,525.838,5298.33,525.812,5298.34Zm-41.59,37.35a0.2,0.2,0,0,1-.078.07,0.07,0.07,0,0,1-.085-0.1,0.115,0.115,0,0,1,.085-0.04A0.161,0.161,0,0,1,484.222,5335.69Zm-59.415,14.53a0.237,0.237,0,0,1-.033.06,0.192,0.192,0,0,1-.171-0.16,0.055,0.055,0,0,1,.061-0.08A0.19,0.19,0,0,1,424.807,5350.22Zm60.421,32.68c0.014-.05.035-0.12,0.1-0.09a0.129,0.129,0,0,1,.036.1c-0.006.06-.029,0.13-0.1,0.1A0.233,0.233,0,0,1,485.228,5382.9Zm8.6,5.7a0.147,0.147,0,0,1-.184.12,0.055,0.055,0,0,1-.042-0.09,0.433,0.433,0,0,1,.148-0.09A0.054,0.054,0,0,1,493.828,5388.6Zm2.542,3.07a0.138,0.138,0,0,1,.075.15,0.083,0.083,0,0,1-.075.06,0.108,0.108,0,0,1-.078-0.14A0.169,0.169,0,0,1,496.37,5391.67Z" transform="translate(-418 -5273.06)"/>
</svg>
