<svg xmlns="http://www.w3.org/2000/svg" width="70.65" height="134.78" viewBox="0 0 70.65 134.78">
  <metadata><?xpacket begin="﻿" id="W5M0MpCehiHzreSzNTczkc9d"?>
<x:xmpmeta xmlns:x="adobe:ns:meta/" x:xmptk="Adobe XMP Core 5.6-c142 79.160924, 2017/07/13-01:06:39        ">
   <rdf:RDF xmlns:rdf="http://www.w3.org/1999/02/22-rdf-syntax-ns#">
      <rdf:Description rdf:about=""/>
   </rdf:RDF>
</x:xmpmeta>
                                                                                                    
                                                                                                    
                                                                                                    
                                                                                                    
                                                                                                    
                                                                                                    
                                                                                                    
                                                                                                    
                                                                                                    
                                                                                                    
                                                                                                    
                                                                                                    
                                                                                                    
                                                                                                    
                                                                                                    
                                                                                                    
                                                                                                    
                                                                                                    
                                                                                                    
                                                                                                    
                           
<?xpacket end="w"?></metadata>
<defs>
    <style>
      .cls-1 {
        fill: #ef5b5b;
        fill-rule: evenodd;
      }
    </style>
  </defs>
  <path class="cls-1" d="M1088.35,5288.31a0.622,0.622,0,0,1,.82.41,0.731,0.731,0,0,0,.36.29,2.744,2.744,0,0,0,1.38.39,0.535,0.535,0,0,1,.42.53,1.311,1.311,0,0,1-.17.93c-0.13.21-.26,0.41-0.43,0.67a0.412,0.412,0,0,0,.48-0.26c0.1-.17.19-0.36,0.3-0.53a1.2,1.2,0,0,1,1.67-.57c0.68,0.34,1.39.58,2.09,0.85a1.152,1.152,0,0,1,.73.5,0.235,0.235,0,0,0,.33.09,0.426,0.426,0,0,1,.47.09,2.366,2.366,0,0,1,.72,1.78,0.539,0.539,0,0,0,.51-0.19,0.926,0.926,0,0,1,1.05-.13c0.59,0.22,1.18.44,1.78,0.63a8.169,8.169,0,0,0,2.61.15,2.7,2.7,0,0,1,1.7.53,10.734,10.734,0,0,1,1.9,1.67,16.348,16.348,0,0,0,1.44,1.2,1.18,1.18,0,0,0,.83.23c0.26,0,.51.04,0.75,0.03a1.353,1.353,0,0,1,1.37,1.17,8.669,8.669,0,0,1,.07,4.97,4.331,4.331,0,0,1-.79,1.39c-0.34.5-.74,0.94-1.06,1.46a1.46,1.46,0,0,1-.4.42,4.591,4.591,0,0,0-1.82,2.47,3.672,3.672,0,0,1-.6,1.12,1,1,0,0,1-.7.53,0.551,0.551,0,0,0-.54.61,11.5,11.5,0,0,0-.1,3.31,7.932,7.932,0,0,1-.11,2.07,10.01,10.01,0,0,0-.15,1.08,2.81,2.81,0,0,1-.52,1.73,1.709,1.709,0,0,0-.27,1.12,2.638,2.638,0,0,1-.58,2.04,1.508,1.508,0,0,0-.21.5,3.91,3.91,0,0,1-.67,1.24,2.127,2.127,0,0,0-.57,1.34,1.223,1.223,0,0,1-.8,1.2,1.055,1.055,0,0,0-.68.75,0.605,0.605,0,0,1-.56.47,2.347,2.347,0,0,1-.74.09,7.668,7.668,0,0,0-2.34.13,0.346,0.346,0,0,0-.17.02c-0.16.62-.81,0.48-1.11,0.9a1.308,1.308,0,0,1-.77.4,3.033,3.033,0,0,0-1.35.65,23.778,23.778,0,0,0-2.38,2.33,2.47,2.47,0,0,0-.58,2.03,3.166,3.166,0,0,0,.22,1.14,0.3,0.3,0,0,1,.02.26,2.82,2.82,0,0,0-.2,1.35,1.9,1.9,0,0,1-.89,1.63,1.868,1.868,0,0,0-.6.7,6.745,6.745,0,0,0-1.07,2.32,5.406,5.406,0,0,1-.73,1.36c-0.12.24-.29,0.46-0.4,0.7a1.73,1.73,0,0,1-.59.69c-0.28.2-.56,0.42-0.82,0.63a2.251,2.251,0,0,0-.76,1.23,3.273,3.273,0,0,1-.95,1.59,3.2,3.2,0,0,0-.8,1.12,3.3,3.3,0,0,1-1.44,1.67,1.132,1.132,0,0,1-.96.14,1.618,1.618,0,0,0-.87-0.08,3.068,3.068,0,0,1-1.91-.47,2.192,2.192,0,0,0-.83-0.3,1.1,1.1,0,0,1-1.01-.55,0.174,0.174,0,0,0-.22-0.08,0.259,0.259,0,0,0-.11.29,0.8,0.8,0,0,0,.45.62,5.548,5.548,0,0,1,1.09.91,0.966,0.966,0,0,1,.24,1.06,0.871,0.871,0,0,0,.55,1.33,0.6,0.6,0,0,1,.37.57,2.048,2.048,0,0,1-.28,1.31c-0.18.29-.35,0.58-0.55,0.85a2.4,2.4,0,0,0-.47.96,1.106,1.106,0,0,1-.71.89,11.713,11.713,0,0,1-2.92.94c-0.48.05-.94,0.21-1.41,0.3a4.552,4.552,0,0,1-2.19-.16,1.34,1.34,0,0,0,.19.77,1.176,1.176,0,0,1-.02,1.19,1.85,1.85,0,0,0-.2,1.32,1.066,1.066,0,0,1-.73,1.43,2.121,2.121,0,0,1-2.26-.05c-0.29-.18-0.61-0.28-0.91-0.45-0.22-.11-0.31-0.02-0.35.21a2.241,2.241,0,0,0,.06.68,3.744,3.744,0,0,1,.15,1.1,0.959,0.959,0,0,0,.54,1.05,1.312,1.312,0,0,0,.35.27,1.659,1.659,0,0,1,.18-0.38c0.22-.06.43-0.19,0.65-0.23a0.347,0.347,0,0,1,.31.3,2.022,2.022,0,0,1,.09,1.09,0.656,0.656,0,0,1-.6.52,0.516,0.516,0,0,1-.59-0.28c-0.35-.52-0.36-0.52-0.82-0.04a1.516,1.516,0,0,0,.72.35,0.238,0.238,0,0,1,.06.45c-0.12.09-.26,0.16-0.38,0.24a1.66,1.66,0,0,0-.79,1.72,1.719,1.719,0,0,1-.42,1.64,0.592,0.592,0,0,0-.12.52c0.01,0.48-.04.56-0.42,0.57a2.739,2.739,0,0,0-2.52,2.06,1.189,1.189,0,0,0,.04,1.01,4.365,4.365,0,0,0,1.16,1.42,1.505,1.505,0,0,0,.88.3,0.628,0.628,0,0,1,.69.8c-0.02.5-.24,0.96-0.25,1.48a0.736,0.736,0,0,1-.32.49,15.376,15.376,0,0,0-2.04,1.92,1.371,1.371,0,0,0-.4,1.1,3.3,3.3,0,0,1-.29,1.41,1.019,1.019,0,0,1-.64.61,2.115,2.115,0,0,0-1.42,1.68,1.363,1.363,0,0,0,.03.8,3.715,3.715,0,0,1,.23,1.21,3.077,3.077,0,0,0,.65,1.54,0.6,0.6,0,0,1,.24.65,0.551,0.551,0,0,1-.64.09c-0.18-.04-0.35-0.15-0.53-0.21a0.294,0.294,0,0,0-.34.11,0.321,0.321,0,0,0,.08.37,0.409,0.409,0,0,0,.55.2,0.431,0.431,0,0,1,.58.23,5.493,5.493,0,0,1,.63,1.11c0.07,0.17.13,0.36-.17,0.37-0.17,0-.14.15-0.05,0.23a2.931,2.931,0,0,1,.52.93,3.693,3.693,0,0,0,1.06,1.16c0.53,0.46,1.1.88,1.61,1.39a1.428,1.428,0,0,0,1.14.47c0.22-.02.48-0.04,0.52,0.34a0.6,0.6,0,0,1-.49.68,9.749,9.749,0,0,0-1.53.24,1.986,1.986,0,0,0-.55.24c-0.3.11-.12,0.15-0.05,0.28,0.13,0.26.05,0.48-.16,0.43a3.4,3.4,0,0,1-1.9-.73,2.837,2.837,0,0,0,.43,1.19,1.561,1.561,0,0,1,.3-0.28,1.061,1.061,0,0,1,.39.21,1.979,1.979,0,0,1,.55.8,0.313,0.313,0,0,1-.09.37c-0.12.08-.25,0.25-0.39,0.08a0.76,0.76,0,0,0-.45-0.15c-0.13-.04-0.33-0.01-0.33-0.24a2.033,2.033,0,0,1,.33-0.32,0.614,0.614,0,0,1-.85-0.33,0.376,0.376,0,0,0-.14-0.14,1.54,1.54,0,0,1-.65-0.15,1.022,1.022,0,0,0-.46-0.5,0.189,0.189,0,0,0-.02.26c0.07,0.14.22,0.29,0.08,0.43a0.332,0.332,0,0,1-.51-0.04,3.332,3.332,0,0,0-.87-0.76,0.3,0.3,0,0,1-.05-0.43,0.347,0.347,0,0,0-.05-0.49,1.685,1.685,0,0,0-1.36-.24,0.508,0.508,0,0,0-.16.21,0.265,0.265,0,0,0-.06.05,1.149,1.149,0,0,0-.36-0.07c-0.31,0-.39-0.2-0.37-0.5l0.03-.02,0.62-.07c-0.32-.26-0.62-0.46-0.32-0.93a0.31,0.31,0,0,0-.33-0.41,1.077,1.077,0,0,1-1.03-.26c0.16,0.33.37,0.62-.03,0.75a0.471,0.471,0,0,1-.59-0.49c-0.07-.5-0.48-0.34-0.72-0.5a0.78,0.78,0,0,0-.37.01c-0.23-.04-0.36-0.16-0.19-0.43,0.1-.14.2-0.29,0.06-0.42a1.04,1.04,0,0,0-.52-0.69,0.254,0.254,0,0,1-.3-0.26,0.266,0.266,0,0,1,.27-0.3,0.2,0.2,0,0,0,.17-0.24,0.225,0.225,0,0,0-.26-0.14,3.273,3.273,0,0,1-.58.19c-0.26-.09-0.02-0.44-0.24-0.59a1.049,1.049,0,0,1-.44-1.08,13.381,13.381,0,0,0,1.71,1.11,0.57,0.57,0,0,0,.85-0.05,0.61,0.61,0,0,1-.62-0.38,1.111,1.111,0,0,0-.66-0.68,0.517,0.517,0,0,1-.24-0.64c0.02-.11.08-0.27-0.09-0.24a0.629,0.629,0,0,1-.53-0.46,3.387,3.387,0,0,0-.27.64,1.529,1.529,0,0,1-.66-1.79,0.521,0.521,0,0,1,.44-0.41c0.28-.03.62,0.15,0.83-0.26,0.05-.11.19,0,0.24,0.1a1.509,1.509,0,0,1,.27.7,2.739,2.739,0,0,0,.3.75c0.02,0.09.1,0.05,0.15,0.01s0.14-.08.09-0.14c-0.26-.31-0.07-0.84-0.47-1.09a0.768,0.768,0,0,1-.25-0.47,0.265,0.265,0,0,0-.27-0.2c-0.35-.06-0.45-0.26-0.25-0.55a1.032,1.032,0,0,0,.02-1.02c-0.11.43-.25,0.84-0.35,1.26-0.06.25-.19,0.42-0.37,0.37a0.516,0.516,0,0,0-.62.32,0.17,0.17,0,0,1-.22.07,0.239,0.239,0,0,1-.11-0.29,1.7,1.7,0,0,1,.5-1.15,0.47,0.47,0,0,0,.23-0.59,0.511,0.511,0,0,1,.18-0.6c0.27-.2-0.03-0.56.18-0.83,0.23-.27.05-0.53-0.2-0.74a0.7,0.7,0,0,1-.17-0.63,0.956,0.956,0,0,0-.35-0.9,0.468,0.468,0,0,1-.07-0.74c-0.32.05-.46,0.47-0.7,0.2a0.861,0.861,0,0,1-.13-0.84c0.1-.35.22-0.69,0.33-1.02a0.777,0.777,0,0,0,.05-0.68,0.519,0.519,0,0,1,.06-0.58,0.515,0.515,0,0,0,.15-0.36,0.4,0.4,0,0,1,.46-0.49,0.542,0.542,0,0,1,.43.65,3.209,3.209,0,0,0,.06.88,0.477,0.477,0,0,0,.12.37,0.665,0.665,0,0,1,.14.74,0.291,0.291,0,0,0,.2.33,1.07,1.07,0,0,0-.01-0.97,2.153,2.153,0,0,1-.21-0.8c0-.38.08-0.46,0.44-0.42a1.081,1.081,0,0,0,.7-0.06,0.665,0.665,0,0,0-.62-0.35,4.013,4.013,0,0,0-.5-0.07,0.263,0.263,0,0,1-.18-0.37,3.7,3.7,0,0,1,.49-1.02,0.846,0.846,0,0,0,.26-0.46c0.08-.28-0.16-0.66-0.38-0.54a1,1,0,0,1-1.11-.28c-0.22.07-.12,0.24-0.13,0.35-0.03.22-.11,0.37-0.32,0.35a0.355,0.355,0,0,1-.28-0.4,0.986,0.986,0,0,1,.24-0.76,3.241,3.241,0,0,1,.79-0.74,0.5,0.5,0,0,0-.17-0.36c-0.08-.28,0-0.47.26-0.5s0.56-.01.97-0.01a4.19,4.19,0,0,1-.93-0.39c-0.14-.12-0.19-0.3.03-0.36a0.755,0.755,0,0,0,.38-0.55c0.38-.66.41-1.16-0.33-1.51a0.226,0.226,0,0,1,.02-0.42,0.872,0.872,0,0,0,.47-0.68c0.1-.47.11-0.47,0.58-0.43a1.922,1.922,0,0,0,.24,0c0.06-.17-0.05-0.16-0.11-0.19-0.15-.07-0.37-0.15-0.24-0.37a0.34,0.34,0,0,1,.55-0.08,0.854,0.854,0,0,1,.35.77,3,3,0,0,0,.03,1.23,0.818,0.818,0,0,1-.24.74c-0.12.15-.23,0.24-0.02,0.42a0.37,0.37,0,0,1,.04.45,0.149,0.149,0,0,0,.12.24c0.11,0.03.25,0.01,0.25-.11a2.129,2.129,0,0,0,.06-1.2,0.633,0.633,0,0,1,.19-0.89c0.12-.09.29-0.18,0.14-0.37a0.541,0.541,0,0,1,.04-0.68,1.158,1.158,0,0,0,.16-1.11,0.417,0.417,0,0,1,.01-0.27,6.516,6.516,0,0,0,.45-2.4,1.411,1.411,0,0,1,.37-0.5c-0.32-.18-0.56-0.39-0.31-0.8a0.256,0.256,0,0,0-.13-0.34,0.183,0.183,0,0,0-.28.06,0.218,0.218,0,0,1-.04.05c-0.14.3-.58,0.2-0.64,0.47a2.284,2.284,0,0,0,.16.86,0.313,0.313,0,0,1-.01.2c-0.53.41-.21,1-0.25,1.5a1.655,1.655,0,0,1-.1.53c-0.22.52-.39,0.62-0.87,0.42a0.638,0.638,0,0,1-.34-0.95,5.189,5.189,0,0,0,.21-1.42,1.993,1.993,0,0,1,.54-1.62,0.211,0.211,0,0,0,.07-0.29,2.982,2.982,0,0,1-.05-1.89,6.859,6.859,0,0,0,.09-0.9,1.8,1.8,0,0,1,.39-1.27,1.14,1.14,0,0,0,.2-0.71,3.732,3.732,0,0,0-.18-1.29,0.959,0.959,0,0,1-.12-0.39,11.2,11.2,0,0,0-.16-2.25,0.758,0.758,0,0,1,.5-0.91,0.407,0.407,0,0,0,.19-0.52,0.614,0.614,0,0,1,.24-0.65,0.89,0.89,0,0,0,.3-0.59,10.917,10.917,0,0,1,.79-2.25,6.425,6.425,0,0,0,.45-1.51c0.1-.49.29-0.97,0.37-1.45a11.248,11.248,0,0,0,.35-2.51c-0.06-.96-0.19-1.92-0.28-2.89a2.291,2.291,0,0,1,.32-1.76,1.385,1.385,0,0,0,.04-1.27,1.457,1.457,0,0,1,.13-1.43,2.016,2.016,0,0,0,.26-0.84,17.373,17.373,0,0,1,.62-2.68,2.908,2.908,0,0,0,.1-1.5,1.39,1.39,0,0,1,.15-1.07,1.558,1.558,0,0,0,.18-0.85v-2.29a1.369,1.369,0,0,0-.03-0.41,1.069,1.069,0,0,1,.19-1.09,1.033,1.033,0,0,0,.21-0.71,4.382,4.382,0,0,1,.12-1.3,3.048,3.048,0,0,0-.01-1.44,1.427,1.427,0,0,1-.06-0.54,14.354,14.354,0,0,0-.27-3.64,1.274,1.274,0,0,0-.71-1.2,1.268,1.268,0,0,1-.41-0.42,5.373,5.373,0,0,0-2.12-1.76,26.4,26.4,0,0,1-3.45-2.06,9.724,9.724,0,0,1-2.15-2.19,0.764,0.764,0,0,1-.13-0.83,1,1,0,0,0-.09-0.92c-0.45-.88-0.99-1.7-1.39-2.62a0.738,0.738,0,0,0-.21-0.25,1.364,1.364,0,0,1-.47-1.01,1.645,1.645,0,0,0-.15-0.67,24.978,24.978,0,0,1-1.06-2.5,1.868,1.868,0,0,1-.2-0.51,2.324,2.324,0,0,0-.86-1.54,1.628,1.628,0,0,1-.44-0.75,3.27,3.27,0,0,0-1.17-1.66c-0.26-.19-0.49-0.43-0.75-0.63a0.5,0.5,0,0,1-.2-0.78,0.378,0.378,0,0,0-.03-0.45c-0.03-.05-0.08-0.11-0.11-0.17a1.8,1.8,0,0,1,.34-2.5,6.434,6.434,0,0,1,1.06-.96,0.935,0.935,0,0,0,.34-1.28,0.147,0.147,0,0,0-.11.02c-0.18.13-.32,0.42-0.59,0.22a1.234,1.234,0,0,1-.71-0.81,10.958,10.958,0,0,1,.03-1.72,0.356,0.356,0,0,1,.08-0.25c0.62-.34.5-1.18,0.93-1.67a1.333,1.333,0,0,0,.1-0.8c0.02-.52.07-0.65,0.5-0.72a8.782,8.782,0,0,0,1.05-.57,0.226,0.226,0,0,0,.15-0.21,0.742,0.742,0,0,1,.39-0.85,0.57,0.57,0,0,0,.11-0.45,0.845,0.845,0,0,1,.87-0.89,0.765,0.765,0,0,0,.76-0.67,3.7,3.7,0,0,1,.65-1.08c-0.53-.39-0.53-0.39-0.41-1.06a2.263,2.263,0,0,0-.01-0.82,5.7,5.7,0,0,1-.03-1.49,2.374,2.374,0,0,0-.38-1.81,0.908,0.908,0,0,1,.21-1.5c0.49-.38.51-0.46,0.27-1.07-0.02-.07-0.06-0.13-0.08-0.19a0.333,0.333,0,0,1,.08-0.37c0.11-.08.2,0.03,0.28,0.09a3.482,3.482,0,0,0,.54.57,1.032,1.032,0,0,1,.53-1.17,5.036,5.036,0,0,1,1-1.01,0.426,0.426,0,0,0,.16-0.36c0.04-.22.08-0.45,0.1-0.68a1.457,1.457,0,0,1,1.52-1.52,0.508,0.508,0,0,0,.61-0.31,0.473,0.473,0,0,1,.55-0.23,2.273,2.273,0,0,0,1.54-.45,2.726,2.726,0,0,1,.51-0.26,1.233,1.233,0,0,0,.67-0.57,0.9,0.9,0,0,1,1.23-.47,0.568,0.568,0,0,1,.15.99,1.2,1.2,0,0,1-.4.32,0.386,0.386,0,0,0-.19.64c0.09,0.16.17,0.32,0.29,0.53a4.264,4.264,0,0,1,2.22-.98,1.189,1.189,0,0,1-.49-0.51,0.909,0.909,0,0,1,.21-0.57,0.358,0.358,0,0,1,.66.05,0.3,0.3,0,0,1,.06.13,1.1,1.1,0,0,0,1.15.99,4.238,4.238,0,0,1,.61.17,0.84,0.84,0,0,1,.54.61c0.24,0.75.25,0.73,0.93,0.64,0.57-.07,1.15-0.11,1.73-0.15a0.878,0.878,0,0,1,.87.41,1.374,1.374,0,0,0,1.62.32,3.506,3.506,0,0,1,.94-0.33c0.06,0,.09-0.04.07-0.07-0.23-.16-0.16-0.28.04-0.39a1,1,0,0,1,.48-0.08c0.69,0,1.38-.01,2.06,0a0.618,0.618,0,0,1,.63.26,1.5,1.5,0,0,1-1.18.39,2.156,2.156,0,0,1,.67.63,0.538,0.538,0,0,0,.44.24,3.213,3.213,0,0,1,1.1.42,1.619,1.619,0,0,1,.95,1.91,0.223,0.223,0,0,0,.13.05,1.181,1.181,0,0,1,1.36.11,5.673,5.673,0,0,1,1.51,1.2,1.523,1.523,0,0,1,.49,1.01,0.327,0.327,0,0,0,.26.4,2.58,2.58,0,0,1,1.65,1.25,1,1,0,0,0,.56.32,5.49,5.49,0,0,0,1.98.01,3.905,3.905,0,0,1,2.49.4,15.413,15.413,0,0,1,2.35,1.22,7.056,7.056,0,0,0,1.03.89,2.365,2.365,0,0,1,1.26,1.98,14.744,14.744,0,0,0,.49,1.78,0.92,0.92,0,0,0,.65.76c0.34,0.06.38,0.29,0.29,0.61a2.307,2.307,0,0,1-.51,1.16,0.863,0.863,0,0,0-.17.36,2.424,2.424,0,0,0-.92.84,0.669,0.669,0,0,0,.82-0.67A0.7,0.7,0,0,1,1088.35,5288.31Zm-32.58,108.33a1.473,1.473,0,0,1-.9-1.39c-0.41.71,0.39,1,.35,1.59a0.9,0.9,0,0,1,.55-0.21,2.6,2.6,0,0,0,.97.71c0.1,0.09.23-.06,0.26-0.21,0.04-.33.32-0.53,0.36-0.87a0.282,0.282,0,0,1,.25-0.28c0.17-.01.19,0.16,0.21,0.29a2.253,2.253,0,0,1,.06,1.21c-0.1.2,0.07,0.24,0.17,0.27,0.16,0.05.23-.05,0.21-0.22-0.02-.21-0.07-0.41-0.09-0.62a0.6,0.6,0,0,1,.36-0.82c0.17-.1.35-0.17,0.51-0.26a0.215,0.215,0,0,0,.13-0.28,0.2,0.2,0,0,0-.26-0.12c-0.14.03-.28,0.08-0.42,0.12a0.569,0.569,0,0,1-.78-0.32,0.958,0.958,0,0,1,.12-1.01c0.07-.07.24-0.03,0.21-0.2a0.359,0.359,0,0,0-.24-0.29c-0.26-.14-0.44-0.02-0.49.38-0.08.66-.22,1.31-0.27,1.98-0.04.59-.23,0.74-0.72,0.64C1056.14,5396.7,1055.96,5396.67,1055.77,5396.64Zm0.29-125.05a0.931,0.931,0,0,0-.21,1.54c0.09,0.13.14,0.28,0.22,0.42,0.17,0.27.36,0.29,0.53,0a1.061,1.061,0,0,0-.02-1.1C1056.42,5272.15,1056.24,5271.88,1056.06,5271.59ZM1055.09,5395a1.321,1.321,0,0,0,1.46-.71,0.346,0.346,0,0,0,.01-0.2,0.457,0.457,0,0,0-.11-0.16,0.1,0.1,0,0,0-.15.07A2.954,2.954,0,0,1,1055.09,5395Zm-0.74-1.75c0.14,0.18.22,0.62,0.44,0.44a2.633,2.633,0,0,1,1.24-.34C1055.41,5392.97,1054.88,5393.64,1054.35,5393.25Zm-2.05-16.32c0.18-.24.72-0.07,0.57-0.63-0.07-.3-0.3-0.21-0.53-0.23A1.552,1.552,0,0,1,1052.3,5376.93Zm19.53,13.76a1.3,1.3,0,0,1,.83.65c0.13-.12.22-0.19,0.3-0.26,0.36-.32.36-0.32,0.03-0.72a0.611,0.611,0,0,1-.13-0.22c-0.05-.15-0.02-0.33.15-0.27a4.4,4.4,0,0,0,1.77.01,0.92,0.92,0,0,0,.57-0.2,0.384,0.384,0,0,1,.28-0.11,4.873,4.873,0,0,1,1.36.51,0.62,0.62,0,0,1-.01.89,1.654,1.654,0,0,1-.71.41c-0.22.02-.43,0.04-0.4,0.37a0.2,0.2,0,0,1-.02.06c-0.46-.12-0.5.49-0.88,0.58-0.5.12-.49,0.17-0.77-0.31s-0.34-.5-0.76-0.15c-0.58.48-.79,0.45-1.24-0.16a4.142,4.142,0,0,1-.34-0.48A0.576,0.576,0,0,1,1071.83,5390.69Z" transform="translate(-1041.19 -5268.13)"/>
</svg>
