<svg 
 xmlns="http://www.w3.org/2000/svg"
 xmlns:xlink="http://www.w3.org/1999/xlink"
 width="60px" height="69px">
<path fill-rule="evenodd"  fill="rgb(0, 177, 255)"
 d="M58.361,66.101 L57.144,66.101 L57.144,67.877 C57.144,68.496 56.643,68.999 56.026,68.999 C55.409,68.999 54.909,68.496 54.909,67.877 L54.909,66.101 L50.090,66.101 L50.090,67.877 C50.090,68.496 49.590,68.999 48.972,68.999 C48.355,68.999 47.855,68.496 47.855,67.877 L47.855,66.101 L46.637,66.101 C45.732,66.101 44.999,65.365 44.999,64.457 L44.999,45.598 C44.999,44.690 45.732,43.955 46.637,43.955 L47.855,43.955 L47.855,36.676 L46.855,36.676 C46.557,36.676 46.315,36.433 46.315,36.133 L46.315,34.770 L40.140,30.820 C39.357,30.321 38.882,29.457 38.876,28.527 L38.823,19.649 C38.813,19.336 38.554,19.089 38.242,19.095 C37.930,19.099 37.680,19.355 37.680,19.669 C37.682,46.317 37.740,22.799 37.740,65.710 C37.740,67.527 36.272,69.000 34.462,69.000 C32.652,69.000 31.185,67.527 31.185,65.710 L31.185,39.428 L29.770,39.428 L29.770,65.710 C29.770,67.527 28.303,69.000 26.493,69.000 C24.683,69.000 23.216,67.527 23.216,65.710 L23.215,19.649 C23.215,19.358 22.980,19.121 22.689,19.120 C22.398,19.120 22.162,19.355 22.160,19.647 L22.060,39.778 C22.052,41.286 20.831,42.505 19.329,42.505 C19.324,42.505 19.320,42.505 19.315,42.505 C17.807,42.497 16.590,41.264 16.598,39.751 L16.699,19.619 C16.717,16.062 19.616,13.167 23.161,13.167 C24.684,13.167 36.305,13.167 37.822,13.167 C41.368,13.167 44.267,16.062 44.285,19.619 L44.330,27.002 L49.935,30.585 C51.021,31.280 51.449,32.615 51.048,33.785 L58.144,33.785 C58.442,33.785 58.684,34.029 58.684,34.328 L58.684,36.134 C58.684,36.433 58.442,36.676 58.144,36.676 L57.144,36.676 L57.144,43.955 L58.362,43.955 C59.267,43.955 60.000,44.690 60.000,45.598 L60.000,64.457 C60.000,65.365 59.266,66.101 58.361,66.101 ZM54.909,36.676 L50.091,36.676 L50.091,43.955 L54.909,43.955 L54.909,36.676 ZM30.516,11.357 C27.390,11.357 24.856,8.815 24.856,5.678 C24.856,2.542 27.390,-0.002 30.516,-0.002 C33.641,-0.002 36.175,2.542 36.175,5.678 C36.175,8.815 33.641,11.357 30.516,11.357 ZM18.179,56.976 L18.179,67.475 C18.179,68.316 17.499,69.000 16.661,69.000 L1.519,69.000 C0.680,69.000 0.000,68.317 0.000,67.475 L0.000,56.976 C0.000,56.135 0.680,55.452 1.519,55.452 L4.510,55.452 L4.510,52.803 C4.510,51.603 5.483,50.627 6.680,50.627 L11.500,50.627 C12.696,50.627 13.669,51.603 13.669,52.803 L13.669,55.452 L16.661,55.452 C17.499,55.452 18.179,56.134 18.179,56.976 ZM11.310,52.993 L6.869,52.993 L6.869,55.452 L11.310,55.452 L11.310,55.452 L11.310,52.993 Z"/>
</svg>