<?xml version="1.0" standalone="no"?>
<!DOCTYPE svg PUBLIC "-//W3C//DTD SVG 20010904//EN"
 "http://www.w3.org/TR/2001/REC-SVG-20010904/DTD/svg10.dtd">
<svg version="1.0" xmlns="http://www.w3.org/2000/svg"
 width="276.000000pt" height="276.000000pt" viewBox="0 0 276.000000 276.000000"
 preserveAspectRatio="xMidYMid meet">
<metadata>
Created by potrace 1.11, written by Peter Selinger 2001-2013
</metadata>
<g transform="translate(0.000000,276.000000) scale(0.100000,-0.100000)"
fill="#000000" stroke="none">
<path d="M1068 2375 c-1 -1 -28 -5 -58 -8 -76 -9 -207 -49 -297 -93 -69 -33
-185 -106 -218 -137 -98 -91 -146 -145 -191 -213 -140 -211 -193 -438 -158
-679 6 -44 10 -83 7 -87 -8 -14 -29 -9 -87 20 -73 38 -73 35 7 -61 160 -190
488 -269 802 -191 167 42 391 136 549 232 37 23 70 42 71 42 9 0 248 170 330
233 80 63 252 207 312 262 l22 20 -27 60 c-27 59 -80 155 -91 165 -3 3 -18 21
-32 40 -142 191 -396 340 -654 384 -69 12 -277 20 -287 11z"/>
<path d="M2655 2135 c-38 -7 -92 -16 -120 -19 -44 -6 -113 -16 -210 -32 -16
-2 -41 -6 -55 -9 -14 -3 -43 -7 -65 -10 -112 -15 -132 -18 -150 -26 -20 -8
-20 -8 1 -8 11 -1 24 -5 30 -9 5 -5 61 -30 124 -57 63 -27 120 -52 126 -56 11
-9 394 216 394 232 0 5 -1 9 -2 8 -2 -1 -34 -7 -73 -14z"/>
<path d="M2737 2133 c-2 -10 -63 -91 -136 -180 -72 -89 -131 -167 -131 -173 0
-7 23 -77 52 -157 57 -159 54 -158 85 -43 8 30 16 62 18 70 2 8 19 74 39 145
74 274 94 355 86 355 -4 0 -10 -8 -13 -17z"/>
<path d="M2113 1457 c-285 -362 -657 -683 -950 -818 -81 -38 -221 -82 -296
-93 -59 -9 -198 -7 -241 3 -51 12 -37 1 54 -47 79 -41 168 -75 247 -93 27 -6
57 -13 68 -16 11 -2 79 -6 150 -8 238 -7 433 48 630 178 84 55 200 167 261
253 104 146 172 343 179 518 4 105 -6 208 -20 212 -5 1 -42 -39 -82 -89z"/>
</g>
</svg>
